<svg width="36" height="36" viewBox="0 0 36 36" fill="none" xmlns="http://www.w3.org/2000/svg">
<path fill-rule="evenodd" clip-rule="evenodd" d="M28 4H17C16.4477 4 16 4.44772 16 5V23C16 23.5523 16.4477 24 17 24H28C28.5523 24 29 23.5523 29 23V5C29 4.44772 28.5523 4 28 4ZM17 0C14.2386 0 12 2.23858 12 5V23C12 25.7614 14.2386 28 17 28H28C30.7614 28 33 25.7614 33 23V5C33 2.23858 30.7614 0 28 0H17Z" fill="white"/>
<path fill-rule="evenodd" clip-rule="evenodd" d="M7 8H9C10.1046 8 11 8.89543 11 10C11 11.1046 10.1046 12 9 12H7C6.44771 12 6 12.4477 6 13V31C6 31.5523 6.44772 32 7 32H18C18.5523 32 19 31.5523 19 31C19 29.8954 19.8954 29 21 29C22.1046 29 23 29.8954 23 31C23 33.7614 20.7614 36 18 36H7C4.23858 36 2 33.7614 2 31V13C2 10.2386 4.23858 8 7 8Z" fill="#3CADC6"/>
</svg>
