<svg width="36" height="36" viewBox="0 0 36 36" fill="none" xmlns="http://www.w3.org/2000/svg">
<path d="M28.6667 21.1868C31.8061 21.9969 34 23.8471 34 26M7.33333 21.1868C4.19395 21.9969 2 23.8471 2 26M28.6667 14.1633C29.7578 13.202 30.4444 11.8049 30.4444 10.25C30.4444 7.35053 28.0566 5 25.1111 5C23.7451 5 22.4991 5.5055 21.5556 6.33683M7.33333 14.1633C6.24222 13.202 5.55556 11.8049 5.55556 10.25C5.55556 7.35053 7.94337 5 10.8889 5C12.2549 5 13.5009 5.5055 14.4444 6.33683" stroke="white" stroke-width="4" stroke-linecap="round" stroke-linejoin="round"/>
<path d="M9 31C9 28.1005 13.0294 25.75 18 25.75C22.9706 25.75 27 28.1005 27 31M23.4 15.25C23.4 18.1495 20.9823 20.5 18 20.5C15.0177 20.5 12.6 18.1495 12.6 15.25C12.6 12.3505 15.0177 10 18 10C20.9823 10 23.4 12.3505 23.4 15.25Z" stroke="#3CADC6" stroke-width="4" stroke-linecap="round" stroke-linejoin="round"/>
</svg>
