<svg width="36" height="36" viewBox="0 0 36 36" fill="none" xmlns="http://www.w3.org/2000/svg">
<path fill-rule="evenodd" clip-rule="evenodd" d="M31 32C31.5523 32 32 31.5523 32 31V5C32 4.44772 31.5523 4 31 4H5C4.44772 4 4 4.44772 4 5V16.8421C4 17.9467 3.10457 18.8421 2 18.8421C0.895432 18.8421 0 17.9467 0 16.8421V5C0 2.23858 2.23857 0 5 0H31C33.7614 0 36 2.23858 36 5V31C36 33.7614 33.7614 36 31 36H19.1579C18.0533 36 17.1579 35.1046 17.1579 34C17.1579 32.8954 18.0533 32 19.1579 32H31Z" fill="white"/>
<path fill-rule="evenodd" clip-rule="evenodd" d="M14.9474 34C14.9474 35.1046 14.0519 36 12.9474 36H4C1.79086 36 0 34.2091 0 32V23.0526C0 21.9481 0.895431 21.0526 2 21.0526C3.10457 21.0526 4 21.9481 4 23.0526V29.1716L14.5858 18.5858C15.3668 17.8047 16.6332 17.8047 17.4142 18.5858C18.1953 19.3668 18.1953 20.6332 17.4142 21.4142L6.82843 32H12.9474C14.0519 32 14.9474 32.8954 14.9474 34Z" fill="#3CADC6"/>
<path fill-rule="evenodd" clip-rule="evenodd" d="M36 14C36 16.7614 33.7614 19 31 19H22C19.2386 19 17 16.7614 17 14V5C17 2.23858 19.2386 0 22 0H31C33.7614 0 36 2.23858 36 5V14ZM31 15C31.5523 15 32 14.5523 32 14V5C32 4.44771 31.5523 4 31 4H22C21.4477 4 21 4.44772 21 5V14C21 14.5523 21.4477 15 22 15H31Z" fill="white"/>
</svg>
