<svg width="36" height="36" viewBox="0 0 36 36" fill="none" xmlns="http://www.w3.org/2000/svg">
<path fill-rule="evenodd" clip-rule="evenodd" d="M5 4C4.44772 4 4 4.44772 4 5V31C4 31.5523 4.44772 32 5 32H31C31.5523 32 32 31.5523 32 31V19.1579C32 18.0533 32.8954 17.1579 34 17.1579C35.1046 17.1579 36 18.0533 36 19.1579V31C36 33.7614 33.7614 36 31 36H5C2.23858 36 0 33.7614 0 31V5C0 2.23858 2.23858 0 5 0H16.8421C17.9467 0 18.8421 0.89543 18.8421 2C18.8421 3.10457 17.9467 4 16.8421 4H5Z" fill="white"/>
<path fill-rule="evenodd" clip-rule="evenodd" d="M21.0526 2C21.0526 0.89543 21.9481 0 23.0526 0H32C34.2091 0 36 1.79086 36 4V12.9474C36 14.0519 35.1046 14.9474 34 14.9474C32.8954 14.9474 32 14.0519 32 12.9474V6.82843L21.4142 17.4142C20.6332 18.1953 19.3668 18.1953 18.5858 17.4142C17.8047 16.6332 17.8047 15.3668 18.5858 14.5858L29.1716 4H23.0526C21.9481 4 21.0526 3.10457 21.0526 2Z" fill="#3CADC6"/>
<path fill-rule="evenodd" clip-rule="evenodd" d="M0 22C0 19.2386 2.23858 17 5 17H14C16.7614 17 19 19.2386 19 22V31C19 33.7614 16.7614 36 14 36H5C2.23858 36 0 33.7614 0 31V22ZM5 21C4.44772 21 4 21.4477 4 22V31C4 31.5523 4.44772 32 5 32H14C14.5523 32 15 31.5523 15 31V22C15 21.4477 14.5523 21 14 21H5Z" fill="white"/>
</svg>
