<svg width="36" height="36" viewBox="0 0 36 36" fill="none" xmlns="http://www.w3.org/2000/svg">
<path d="M11 28C12.1046 28 13 27.1046 13 26C13 24.8955 12.1046 24 11 24V28ZM4 26V24C2.89543 24 2 24.8955 2 26H4ZM2 33C2 34.1046 2.89543 35 4 35C5.10457 35 6 34.1046 6 33H2ZM34.8515 24.75C35.2692 23.7275 34.7789 22.5599 33.7564 22.1422C32.7338 21.7245 31.5663 22.2148 31.1485 23.2373L34.8515 24.75ZM10.4425 32.1468L11.3688 30.3742L11.3688 30.3742L10.4425 32.1468ZM25 8.00001C23.8954 8.00001 23 8.89544 23 10C23 11.1046 23.8954 12 25 12V8.00001ZM32 10V12C33.1046 12 34 11.1046 34 10H32ZM34 3C34 1.89543 33.1046 1 32 1C30.8954 1 30 1.89543 30 3H34ZM1.14853 11.25C0.73081 12.2725 1.22111 13.4401 2.24364 13.8578C3.26618 14.2755 4.43374 13.7852 4.85147 12.7627L1.14853 11.25ZM8.47933 5.06395L9.6478 6.68711L9.6478 6.68711L8.47933 5.06395ZM25.5575 3.85323L26.4837 2.08065L26.4837 2.08065L25.5575 3.85323ZM11 24H4V28H11V24ZM2 26V33H6V26H2ZM31.1485 23.2373C30.1574 25.6635 28.4967 27.7691 26.3522 29.3129L28.6892 32.5592C31.4389 30.5797 33.5749 27.8749 34.8515 24.75L31.1485 23.2373ZM26.3522 29.3129C24.2075 30.8568 21.6656 31.7762 19.0154 31.9641L19.2983 35.954C22.686 35.7139 25.9396 34.5385 28.6892 32.5592L26.3522 29.3129ZM19.0154 31.9641C16.3651 32.1519 13.7157 31.6006 11.3688 30.3742L9.51626 33.9193C12.5217 35.4898 15.9106 36.1942 19.2983 35.954L19.0154 31.9641ZM11.3688 30.3742C9.03125 29.1527 7.06064 27.2575 5.72368 24.9857L2.27632 27.0144C3.98438 29.9169 6.50148 32.344 9.51626 33.9193L11.3688 30.3742ZM25 12H32V8.00001H25V12ZM34 10V3H30V10H34ZM4.85147 12.7627C5.84258 10.3365 7.50329 8.2309 9.6478 6.68711L7.31085 3.44079C4.56111 5.42025 2.42509 8.1251 1.14853 11.25L4.85147 12.7627ZM9.6478 6.68711C11.7925 5.14319 14.3344 4.22383 16.9846 4.03595L16.7017 0.0459609C13.314 0.286127 10.0604 1.46146 7.31085 3.44079L9.6478 6.68711ZM16.9846 4.03595C19.6349 3.84806 22.2843 4.39943 24.6312 5.62581L26.4837 2.08065C23.4783 0.510189 20.0895 -0.194203 16.7017 0.0459609L16.9846 4.03595ZM24.6312 5.62581C26.9687 6.84728 28.9394 8.74249 30.2763 11.0144L33.7237 8.98565C32.0156 6.08319 29.4985 3.65603 26.4837 2.08065L24.6312 5.62581Z" fill="white"/>
<circle cx="18" cy="18" r="5" fill="#3CADC6"/>
</svg>
