<svg width="36" height="36" viewBox="0 0 36 36" fill="none" xmlns="http://www.w3.org/2000/svg">
<path fill-rule="evenodd" clip-rule="evenodd" d="M13.1651 0H27.4696C28.5681 0 29.4586 0.890483 29.4586 1.98895V31.4254C29.4586 32.5239 28.5681 33.4144 27.4696 33.4144H5.98895C4.89048 33.4144 4 32.5239 4 31.4254V9.16508H11.1761C12.2746 9.16508 13.1651 8.2746 13.1651 7.17613V0Z" fill="#ECECEC"/>
<path d="M13.1651 0L4 9.16508H11.1761C12.2746 9.16508 13.1651 8.2746 13.1651 7.17613V0Z" fill="#263C42"/>
<path fill-rule="evenodd" clip-rule="evenodd" d="M27.4697 2.78459C27.4697 2.34521 27.1135 1.98901 26.6741 1.98901L12.5837 1.98901C12.3727 1.98901 12.1704 2.07283 12.0212 2.22203L6.22203 8.02119C6.07283 8.17039 5.98901 8.37275 5.98901 8.58375V15.1161C5.98901 15.5555 6.34521 15.9117 6.78459 15.9117H26.6741C27.1135 15.9117 27.4697 15.5555 27.4697 15.1161V2.78459Z" fill="#DFDFDF"/>
<mask id="mask0_948_1084" style="mask-type:alpha" maskUnits="userSpaceOnUse" x="5" y="1" width="23" height="15">
<path fill-rule="evenodd" clip-rule="evenodd" d="M27.4697 2.78459C27.4697 2.34521 27.1135 1.98901 26.6741 1.98901L12.5837 1.98901C12.3727 1.98901 12.1704 2.07283 12.0212 2.22203L6.22203 8.02119C6.07283 8.17039 5.98901 8.37275 5.98901 8.58375V15.1161C5.98901 15.5555 6.34521 15.9117 6.78459 15.9117H26.6741C27.1135 15.9117 27.4697 15.5555 27.4697 15.1161V2.78459Z" fill="#2E484F"/>
</mask>
<g mask="url(#mask0_948_1084)">
<path fill-rule="evenodd" clip-rule="evenodd" d="M19.6776 7.25586L15.0388 12.2321L19.4144 16.6078H31.0498L21.3821 7.21373C20.9025 6.74768 20.1336 6.76669 19.6776 7.25586Z" fill="white"/>
<path d="M4.49731 16.6078H19.4144L15.0388 12.2321L11.8386 9.03191C11.3238 8.51713 10.472 8.57926 10.0374 9.1633L4.49731 16.6078Z" fill="#F3F3F3"/>
</g>
<path d="M13.1651 0L4 9.16508H11.1761C12.2746 9.16508 13.1651 8.2746 13.1651 7.17613V0Z" fill="#3CADC6"/>
<path fill-rule="evenodd" clip-rule="evenodd" d="M7.28174 18.4972C7.28174 18.2226 7.50436 18 7.77898 18H24.1854C24.46 18 24.6826 18.2226 24.6826 18.4972C24.6826 18.7719 24.46 18.9945 24.1854 18.9945H7.77898C7.50436 18.9945 7.28174 18.7719 7.28174 18.4972ZM7.28174 21.232C7.28174 20.9574 7.50436 20.7348 7.77898 20.7348H25.4806C25.7553 20.7348 25.9779 20.9574 25.9779 21.232C25.9779 21.5067 25.7553 21.7293 25.4806 21.7293H7.77898C7.50436 21.7293 7.28174 21.5067 7.28174 21.232ZM7.28174 23.9669C7.28174 23.6922 7.50436 23.4696 7.77898 23.4696H23.5809C23.8556 23.4696 24.0782 23.6922 24.0782 23.9669C24.0782 24.2415 23.8556 24.4641 23.5809 24.4641H7.77898C7.50436 24.4641 7.28174 24.2415 7.28174 23.9669ZM7.28174 26.7017C7.28174 26.427 7.50436 26.2044 7.77898 26.2044H25.359C25.6336 26.2044 25.8562 26.427 25.8562 26.7017C25.8562 26.9763 25.6336 27.1989 25.359 27.1989H7.77898C7.50436 27.1989 7.28174 26.9763 7.28174 26.7017ZM7.28174 29.4365C7.28174 29.1618 7.50436 28.9392 7.77898 28.9392H24.5308C24.8054 28.9392 25.028 29.1618 25.028 29.4365C25.028 29.7111 24.8054 29.9337 24.5308 29.9337H7.77898C7.50436 29.9337 7.28174 29.7111 7.28174 29.4365Z" fill="#3CADC6"/>
<path d="M22.0994 30.5303C22.0994 28.0588 24.103 26.0552 26.5745 26.0552V26.0552C29.0461 26.0552 31.0496 28.0588 31.0496 30.5303V30.5303C31.0496 33.0019 29.0461 35.0055 26.5745 35.0055V35.0055C24.103 35.0055 22.0994 33.0019 22.0994 30.5303V30.5303Z" fill="#303030"/>
<path fill-rule="evenodd" clip-rule="evenodd" d="M23.0938 30.5303C23.0938 32.4526 24.6522 34.011 26.5745 34.011C28.4968 34.011 30.0552 32.4526 30.0552 30.5303C30.0552 28.608 28.4968 27.0497 26.5745 27.0497C24.6522 27.0497 23.0938 28.608 23.0938 30.5303ZM26.5745 26.0552C24.103 26.0552 22.0994 28.0588 22.0994 30.5303C22.0994 33.0019 24.103 35.0055 26.5745 35.0055C29.0461 35.0055 31.0496 33.0019 31.0496 30.5303C31.0496 28.0588 29.0461 26.0552 26.5745 26.0552Z" fill="#3CADC6"/>
<path fill-rule="evenodd" clip-rule="evenodd" d="M26.5746 36C23.5538 36 21.105 33.5512 21.105 30.5304C21.105 27.5096 23.5538 25.0608 26.5746 25.0608C29.5954 25.0608 32.0442 27.5096 32.0442 30.5304C32.0442 33.5512 29.5954 36 26.5746 36ZM26.5746 26.0553C24.103 26.0553 22.0995 28.0589 22.0995 30.5304C22.0995 33.002 24.103 35.0055 26.5746 35.0055C29.0461 35.0055 31.0497 33.002 31.0497 30.5304C31.0497 28.0589 29.0461 26.0553 26.5746 26.0553Z" fill="#303030"/>
<path fill-rule="evenodd" clip-rule="evenodd" d="M29.661 27.444C29.8552 27.6382 29.8552 27.953 29.661 28.1472L24.1914 33.6168C23.9972 33.811 23.6824 33.811 23.4882 33.6168C23.294 33.4226 23.294 33.1078 23.4882 32.9136L28.9578 27.444C29.152 27.2498 29.4668 27.2498 29.661 27.444Z" fill="#3CADC6"/>
</svg>
