<svg width="326" height="326" viewBox="0 0 326 326" fill="none" xmlns="http://www.w3.org/2000/svg">
<rect width="326" height="326" fill="#131F22"/>
<g filter="url(#filter0_d_706_1052)">
<path fill-rule="evenodd" clip-rule="evenodd" d="M145.08 79H217C222.523 79 227 83.4772 227 89V237C227 242.523 222.523 247 217 247H109C103.477 247 99 242.523 99 237V125.08H135.08C140.603 125.08 145.08 120.603 145.08 115.08V79Z" fill="#1F3136"/>
<path d="M145.08 79L99 125.08H135.08C140.603 125.08 145.08 120.603 145.08 115.08V79Z" fill="#263C42"/>
</g>
<path fill-rule="evenodd" clip-rule="evenodd" d="M217 93C217 90.7909 215.209 89 213 89L142.157 89C141.096 89 140.079 89.4214 139.328 90.1716L110.172 119.328C109.421 120.079 109 121.096 109 122.157V155C109 157.209 110.791 159 113 159H213C215.209 159 217 157.209 217 155V93Z" fill="#2E484F"/>
<mask id="mask0_706_1052" style="mask-type:alpha" maskUnits="userSpaceOnUse" x="109" y="89" width="108" height="70">
<path fill-rule="evenodd" clip-rule="evenodd" d="M217 93C217 90.7909 215.209 89 213 89L142.157 89C141.096 89 140.079 89.4214 139.328 90.1716L110.172 119.328C109.421 120.079 109 121.096 109 122.157V155C109 157.209 110.791 159 113 159H213C215.209 159 217 157.209 217 155V93Z" fill="#2E484F"/>
</mask>
<g mask="url(#mask0_706_1052)">
<path fill-rule="evenodd" clip-rule="evenodd" d="M177.823 115.481L154.5 140.5L176.5 162.5H235L186.393 115.269C183.982 112.926 180.116 113.021 177.823 115.481Z" fill="#3A5861"/>
<path d="M101.5 162.5H176.5L154.5 140.5L138.41 124.41C135.822 121.822 131.539 122.134 129.354 125.071L101.5 162.5Z" fill="#415F66"/>
</g>
<path d="M145.08 79L99 125.08H135.08C140.603 125.08 145.08 120.603 145.08 115.08V79Z" fill="#263C42"/>
<path d="M118 172H200.488M118 185.75H207M118 199.5H197.449M118 213.25H206.388M118 227H202.224" stroke="#2E484F" stroke-width="5" stroke-linecap="round" stroke-linejoin="round"/>
<rect x="192.5" y="212.5" width="40" height="40" rx="20" fill="#131F22" stroke="#1F3136" stroke-width="5"/>
<rect x="187.5" y="207.5" width="50" height="50" rx="25" stroke="#131F22" stroke-width="5"/>
<path d="M196.982 244.482C196.006 245.459 196.006 247.041 196.982 248.018C197.959 248.994 199.541 248.994 200.518 248.018L196.982 244.482ZM228.018 220.518C228.994 219.541 228.994 217.959 228.018 216.982C227.041 216.006 225.459 216.006 224.482 216.982L228.018 220.518ZM224.482 216.982L196.982 244.482L200.518 248.018L228.018 220.518L224.482 216.982Z" fill="#1F3136"/>
<defs>
<filter id="filter0_d_706_1052" x="87" y="67" width="152" height="192" filterUnits="userSpaceOnUse" color-interpolation-filters="sRGB">
<feFlood flood-opacity="0" result="BackgroundImageFix"/>
<feColorMatrix in="SourceAlpha" type="matrix" values="0 0 0 0 0 0 0 0 0 0 0 0 0 0 0 0 0 0 127 0" result="hardAlpha"/>
<feOffset/>
<feGaussianBlur stdDeviation="6"/>
<feComposite in2="hardAlpha" operator="out"/>
<feColorMatrix type="matrix" values="0 0 0 0 0.0745098 0 0 0 0 0.121569 0 0 0 0 0.133333 0 0 0 1 0"/>
<feBlend mode="normal" in2="BackgroundImageFix" result="effect1_dropShadow_706_1052"/>
<feBlend mode="normal" in="SourceGraphic" in2="effect1_dropShadow_706_1052" result="shape"/>
</filter>
</defs>
</svg>
