<svg width="47" height="35" viewBox="0 0 47 35" fill="none" xmlns="http://www.w3.org/2000/svg">
<path d="M0.0185547 4C0.0185547 1.79086 1.80942 0 4.01855 0H42.0371C44.2462 0 46.0371 1.79086 46.0371 4V29.5705C46.0371 31.7797 44.2462 33.5705 42.0371 33.5705H30.8213H15.2344H4.01856C1.80942 33.5705 0.0185547 31.7797 0.0185547 29.5705V4Z" fill="#34BB28"/>
<path d="M15.2344 33.5705V33.5705C15.2344 34.36 15.8744 35 16.6638 35H29.3918C30.1813 35 30.8213 34.36 30.8213 33.5705V33.5705H15.2344Z" fill="#34BB28"/>
<path d="M2.61108 5.92092C2.61108 5.51458 2.94426 5.18518 3.35525 5.18518H20.0991C21.5376 5.18518 22.7037 6.33808 22.7037 7.76026V30.9359H17.1224H3.35525C2.94426 30.9359 2.61108 30.6065 2.61108 30.2002V5.92092Z" fill="#E4EAEC"/>
<path d="M22.7037 7.76026C22.7037 6.33808 23.8698 5.18518 25.3083 5.18518H42.0521C42.4631 5.18518 42.7963 5.51458 42.7963 5.92092V30.2002C42.7963 30.6065 42.4631 30.9359 42.0521 30.9359H28.2849H22.7037V7.76026Z" fill="#E4EAEC"/>
<path d="M22.7037 30.9359H20.0991H17.1224V30.9359C17.1224 31.7486 17.7812 32.4074 18.5939 32.4074H26.8135C27.6261 32.4074 28.2849 31.7486 28.2849 30.9359V30.9359H25.3083H22.7037Z" fill="#E4EAEC"/>
<path d="M18.9828 26.8171C20.4213 26.8171 22.7037 29.0534 22.7037 30.4629C22.7037 29.0534 24.986 26.8171 26.4245 26.8171H18.9828Z" fill="white"/>
<path d="M22.7037 3.84835V26.8171H26.4245H42.0521H42.7963V26.0879V2.02543C42.7963 1.62272 42.4631 1.29626 42.0521 1.29626H25.3083C23.8698 1.29626 22.7037 2.43887 22.7037 3.84835Z" fill="white"/>
<path d="M20.0991 1.29626H3.35525C2.94426 1.29626 2.61108 1.62272 2.61108 2.02543V26.0879V26.8171H3.35525H18.9828H22.7037V3.84835C22.7037 2.43887 21.5376 1.29626 20.0991 1.29626Z" fill="white"/>
<path d="M6.33792 3.88892H17.8425C18.111 3.88892 18.3287 4.10656 18.3287 4.37503C18.3287 4.6435 18.111 4.86114 17.8425 4.86114H6.33792C6.06945 4.86114 5.85181 4.6435 5.85181 4.37503C5.85181 4.10656 6.06945 3.88892 6.33792 3.88892Z" stroke="#E4EAEC" stroke-width="2"/>
<path d="M6.33792 8.75003H14.7638C15.0323 8.75003 15.25 8.96767 15.25 9.23614C15.25 9.50461 15.0323 9.72225 14.7638 9.72225H6.33792C6.06945 9.72225 5.85181 9.50461 5.85181 9.23614C5.85181 8.96767 6.06945 8.75003 6.33792 8.75003Z" stroke="#E4EAEC" stroke-width="2"/>
<path d="M6.33792 13.6111H16.8703C17.1388 13.6111 17.3564 13.8288 17.3564 14.0972C17.3564 14.3657 17.1388 14.5834 16.8703 14.5834H6.33792C6.06944 14.5834 5.85181 14.3657 5.85181 14.0972C5.85181 13.8288 6.06944 13.6111 6.33792 13.6111Z" stroke="#E4EAEC" stroke-width="2"/>
<path d="M6.33792 18.4722H18.9768C19.2453 18.4722 19.4629 18.6899 19.4629 18.9584C19.4629 19.2268 19.2453 19.4445 18.9768 19.4445H6.33792C6.06945 19.4445 5.85181 19.2268 5.85181 18.9584C5.85181 18.6899 6.06945 18.4722 6.33792 18.4722Z" stroke="#E4EAEC" stroke-width="2"/>
<path d="M14.1157 23.3334H6.33792C6.06945 23.3334 5.85181 23.551 5.85181 23.8195C5.85181 24.0879 6.06945 24.3056 6.33792 24.3056H14.1157C14.3842 24.3056 14.6018 24.0879 14.6018 23.8195C14.6018 23.551 14.3842 23.3334 14.1157 23.3334Z" stroke="#E4EAEC" stroke-width="2"/>
<path d="M25.7825 3.88892H37.2871C37.5556 3.88892 37.7732 4.10656 37.7732 4.37503C37.7732 4.6435 37.5556 4.86114 37.2871 4.86114H25.7825C25.514 4.86114 25.2964 4.6435 25.2964 4.37503C25.2964 4.10656 25.514 3.88892 25.7825 3.88892Z" stroke="#E4EAEC" stroke-width="2"/>
<path d="M25.7825 8.75003H39.3936C39.6621 8.75003 39.8797 8.96767 39.8797 9.23614C39.8797 9.50461 39.6621 9.72225 39.3936 9.72225H25.7825C25.514 9.72225 25.2964 9.50461 25.2964 9.23614C25.2964 8.96767 25.514 8.75003 25.7825 8.75003Z" stroke="#E4EAEC" stroke-width="2"/>
<path d="M25.7825 13.6111H34.5325C34.801 13.6111 35.0186 13.8288 35.0186 14.0972C35.0186 14.3657 34.801 14.5834 34.5325 14.5834H25.7825C25.514 14.5834 25.2964 14.3657 25.2964 14.0972C25.2964 13.8288 25.514 13.6111 25.7825 13.6111Z" stroke="#E4EAEC" stroke-width="2"/>
<path d="M25.7825 18.4722H37.7732C38.0417 18.4722 38.2593 18.6899 38.2593 18.9584C38.2593 19.2268 38.0417 19.4445 37.7732 19.4445H25.7825C25.514 19.4445 25.2964 19.2268 25.2964 18.9584C25.2964 18.6899 25.514 18.4722 25.7825 18.4722Z" stroke="#E4EAEC" stroke-width="2"/>
<path d="M35.5047 23.3334H25.7825C25.514 23.3334 25.2964 23.551 25.2964 23.8195C25.2964 24.0879 25.514 24.3056 25.7825 24.3056H35.5047C35.7732 24.3056 35.9908 24.0879 35.9908 23.8195C35.9908 23.551 35.7732 23.3334 35.5047 23.3334Z" stroke="#E4EAEC" stroke-width="2"/>
</svg>
