<svg width="54" height="35" viewBox="0 0 54 35" fill="none" xmlns="http://www.w3.org/2000/svg">
<path d="M36.749 1.21951L36.3888 0.286617L36.3888 0.286617L36.749 1.21951ZM11.8433 30.9346L10.8609 31.1214L10.8609 31.1214L11.8433 30.9346ZM15.3761 22.3732L15.7363 21.4403L15.7363 21.4403L15.3761 22.3732ZM36.749 30.6247L37.1091 29.6918L36.749 30.6247ZM16.8241 29.9875L15.8417 30.1743L15.8417 30.1743L16.8241 29.9875ZM13.4207 32.8259L13.0605 33.7588L13.0605 33.7588L13.4207 32.8259ZM3.94694 20.2228L4.08108 19.2319L4.01431 19.2228H3.94694V20.2228ZM4.04268 11.3526V12.3526H4.11221L4.18107 12.343L4.04268 11.3526ZM8.88097 19.8656H7.88097V20.5514L8.52081 20.7984L8.88097 19.8656ZM7.86506 20.7532L7.73091 21.7442L7.86506 20.7532ZM7.74259 10.8356L7.6042 9.84526L7.74259 10.8356ZM42.1362 27.6157V4.22856H40.1362V27.6157H42.1362ZM8.82393 20.4096L10.8609 31.1214L12.8257 30.7478L10.7887 20.036L8.82393 20.4096ZM15.0159 23.3061L36.3888 31.5576L37.1091 29.6918L15.7363 21.4403L15.0159 23.3061ZM15.7363 21.4403L10.1665 19.2899L9.44616 21.1557L15.0159 23.3061L15.7363 21.4403ZM14.3937 22.56L15.8417 30.1743L17.8064 29.8006L16.3585 22.1864L14.3937 22.56ZM10.8609 31.1214C11.0892 32.3216 11.9209 33.3188 13.0605 33.7588L13.7808 31.893C13.286 31.702 12.9248 31.2689 12.8257 30.7478L10.8609 31.1214ZM40.1362 27.6157C40.1362 29.1787 38.5673 30.2548 37.1091 29.6918L36.3888 31.5576C39.1573 32.6265 42.1362 30.5833 42.1362 27.6157H40.1362ZM13.0605 33.7588C15.6474 34.7575 18.3245 32.5248 17.8064 29.8006L15.8417 30.1743C16.0666 31.3572 14.9041 32.3267 13.7808 31.893L13.0605 33.7588ZM37.1092 2.15239C38.5673 1.58944 40.1362 2.66553 40.1362 4.22856H42.1362C42.1362 1.26089 39.1573 -0.782239 36.3888 0.286617L37.1092 2.15239ZM2.89233 17.8037V13.503H0.892334V17.8037H2.89233ZM3.94694 19.2228C3.72295 19.2228 3.47602 19.1099 3.25504 18.8338C3.02973 18.5522 2.89233 18.1671 2.89233 17.8037H0.892334C0.892334 18.6278 1.18843 19.4523 1.69352 20.0834C2.20295 20.72 2.98331 21.2228 3.94694 21.2228V19.2228ZM4.04268 10.3526C2.30279 10.3526 0.892334 11.7631 0.892334 13.503H2.89233C2.89233 12.8677 3.40736 12.3526 4.04268 12.3526V10.3526ZM4.18107 12.343L7.88097 11.826L7.6042 9.84526L3.9043 10.3622L4.18107 12.343ZM7.99921 19.7623L4.08108 19.2319L3.81279 21.2138L7.73091 21.7442L7.99921 19.7623ZM8.52081 20.7984L9.44616 21.1557L10.1665 19.2899L9.24114 18.9327L8.52081 20.7984ZM9.88097 11.9787V11.826H7.88097V11.9787H9.88097ZM7.88097 11.9787V19.8656H9.88097V11.9787H7.88097ZM9.24114 12.9116L37.1092 2.15239L36.3888 0.286617L8.52081 11.0458L9.24114 12.9116ZM7.73091 21.7442C8.86859 21.8982 9.88097 21.0136 9.88097 19.8656H7.88097C7.88097 19.8024 7.93664 19.7538 7.99921 19.7623L7.73091 21.7442ZM7.88097 11.826L7.88097 11.826H9.88097C9.88097 10.6114 8.80714 9.67718 7.6042 9.84526L7.88097 11.826Z" fill="#C8C8C8"/>
<path d="M10.9827 13.1492L34.1635 4.48569C35.3535 4.04094 36.6817 4.62024 37.1654 5.79494C37.7041 7.10327 36.9757 8.58791 35.6113 8.96246L11.7472 15.5134C11.1748 15.6705 10.5712 15.4012 10.3057 14.8703C9.97528 14.2094 10.2905 13.4079 10.9827 13.1492Z" fill="#C8C8C8" fill-opacity="0.5"/>
<path d="M44.3357 9.49202L51.8087 7.19929M52.8048 15.8907L44.8327 15.9788M44.3357 23.3099L50.4596 25.6583" stroke="#C8C8C8" stroke-width="2" stroke-linecap="round"/>
</svg>
