<svg width="153" height="75" viewBox="0 0 153 75" fill="none" xmlns="http://www.w3.org/2000/svg">
<path d="M62.0185 20H24C21.7909 20 20 21.7909 20 24V49.5705C20 51.7797 21.7909 53.5705 24 53.5705H34.0722C34.7038 53.5705 35.2158 54.0825 35.2158 54.7141C35.2158 54.872 35.3438 55 35.5017 55H50.5168C50.6747 55 50.8027 54.872 50.8027 54.7141C50.8027 54.0825 51.3147 53.5705 51.9463 53.5705H62.0185C64.2277 53.5705 66.0185 51.7797 66.0185 49.5705V24C66.0185 21.7909 64.2277 20 62.0185 20Z" stroke="#C8C8C8" stroke-width="2"/>
<path d="M23.8889 48.0981C23.8889 48.4142 24.2006 48.6704 24.5851 48.6704H37.464C37.464 49.3025 37.9764 49.8149 38.6085 49.8149H46.7619C47.394 49.8149 47.9064 49.3025 47.9064 48.6704H60.7853C61.1698 48.6704 61.4815 48.4142 61.4815 48.0981V45.2778H42.6852H23.8889V48.0981Z" fill="#D7D7D7"/>
<path d="M43.2488 45.7401C43.0508 45.9199 42.8606 46.1134 42.6852 46.3164C42.5098 46.1134 42.3196 45.9199 42.1216 45.7401C41.7156 45.3716 41.2518 45.0381 40.7743 44.7919C40.3099 44.5524 39.7614 44.3588 39.2044 44.3588H24.8889V24.2407H40.2486C41.1353 24.2407 41.6852 24.8721 41.6852 25.4525H42.6852H43.6852C43.6852 24.8721 44.2351 24.2407 45.1218 24.2407H60.4815V44.3588H46.166C45.609 44.3588 45.0605 44.5524 44.5961 44.7919C44.1186 45.0381 43.6548 45.3716 43.2488 45.7401Z" stroke="#C8C8C8" stroke-width="2"/>
<path d="M86.0186 24C86.0186 21.7909 87.8094 20 90.0186 20H128.037C130.246 20 132.037 21.7909 132.037 24V49.5705C132.037 51.7797 130.246 53.5705 128.037 53.5705H116.821H101.234H90.0186C87.8094 53.5705 86.0186 51.7797 86.0186 49.5705V24Z" fill="#34BB28"/>
<path d="M101.234 53.5705V53.5705C101.234 54.36 101.874 55 102.664 55H115.392C116.181 55 116.821 54.36 116.821 53.5705V53.5705H101.234Z" fill="#34BB28"/>
<path d="M88.6111 25.9209C88.6111 25.5146 88.9443 25.1852 89.3553 25.1852H106.099C107.538 25.1852 108.704 26.3381 108.704 27.7603V50.9359H103.122H89.3553C88.9443 50.9359 88.6111 50.6065 88.6111 50.2002V25.9209Z" fill="#E4EAEC"/>
<path d="M108.704 27.7603C108.704 26.3381 109.87 25.1852 111.308 25.1852H128.052C128.463 25.1852 128.796 25.5146 128.796 25.9209V50.2002C128.796 50.6065 128.463 50.9359 128.052 50.9359H114.285H108.704V27.7603Z" fill="#E4EAEC"/>
<path d="M108.704 50.9359H106.099H103.122V50.9359C103.122 51.7486 103.781 52.4074 104.594 52.4074H112.813C113.626 52.4074 114.285 51.7486 114.285 50.9359V50.9359H111.308H108.704Z" fill="#E4EAEC"/>
<path d="M104.983 46.8171C106.421 46.8171 108.704 49.0534 108.704 50.4629C108.704 49.0534 110.986 46.8171 112.425 46.8171H104.983Z" fill="white"/>
<path d="M108.704 23.8483V46.8171H112.425H128.052H128.796V46.0879V22.0254C128.796 21.6227 128.463 21.2963 128.052 21.2963H111.308C109.87 21.2963 108.704 22.4389 108.704 23.8483Z" fill="white"/>
<path d="M106.099 21.2963H89.3553C88.9443 21.2963 88.6111 21.6227 88.6111 22.0254V46.0879V46.8171H89.3553H104.983H108.704V23.8483C108.704 22.4389 107.538 21.2963 106.099 21.2963Z" fill="white"/>
<path d="M92.3379 23.8889H103.843C104.111 23.8889 104.329 24.1066 104.329 24.375C104.329 24.6435 104.111 24.8611 103.843 24.8611H92.3379C92.0694 24.8611 91.8518 24.6435 91.8518 24.375C91.8518 24.1066 92.0694 23.8889 92.3379 23.8889Z" stroke="#E4EAEC" stroke-width="2"/>
<path d="M92.3379 28.75H100.764C101.032 28.75 101.25 28.9677 101.25 29.2361C101.25 29.5046 101.032 29.7222 100.764 29.7222H92.3379C92.0694 29.7222 91.8518 29.5046 91.8518 29.2361C91.8518 28.9677 92.0694 28.75 92.3379 28.75Z" stroke="#E4EAEC" stroke-width="2"/>
<path d="M92.3379 33.6111H102.87C103.139 33.6111 103.356 33.8288 103.356 34.0972C103.356 34.3657 103.139 34.5834 102.87 34.5834H92.3379C92.0694 34.5834 91.8518 34.3657 91.8518 34.0972C91.8518 33.8288 92.0694 33.6111 92.3379 33.6111Z" stroke="#E4EAEC" stroke-width="2"/>
<path d="M92.3379 38.4722H104.977C105.245 38.4722 105.463 38.6899 105.463 38.9584C105.463 39.2268 105.245 39.4445 104.977 39.4445H92.3379C92.0694 39.4445 91.8518 39.2268 91.8518 38.9584C91.8518 38.6899 92.0694 38.4722 92.3379 38.4722Z" stroke="#E4EAEC" stroke-width="2"/>
<path d="M100.116 43.3334H92.3379C92.0694 43.3334 91.8518 43.551 91.8518 43.8195C91.8518 44.0879 92.0694 44.3056 92.3379 44.3056H100.116C100.384 44.3056 100.602 44.0879 100.602 43.8195C100.602 43.551 100.384 43.3334 100.116 43.3334Z" stroke="#E4EAEC" stroke-width="2"/>
<path d="M111.782 23.8889H123.287C123.556 23.8889 123.773 24.1066 123.773 24.375C123.773 24.6435 123.556 24.8611 123.287 24.8611H111.782C111.514 24.8611 111.296 24.6435 111.296 24.375C111.296 24.1066 111.514 23.8889 111.782 23.8889Z" stroke="#E4EAEC" stroke-width="2"/>
<path d="M111.782 28.75H125.394C125.662 28.75 125.88 28.9677 125.88 29.2361C125.88 29.5046 125.662 29.7222 125.394 29.7222H111.782C111.514 29.7222 111.296 29.5046 111.296 29.2361C111.296 28.9677 111.514 28.75 111.782 28.75Z" stroke="#E4EAEC" stroke-width="2"/>
<path d="M111.782 33.6111H120.532C120.801 33.6111 121.019 33.8288 121.019 34.0972C121.019 34.3657 120.801 34.5834 120.532 34.5834H111.782C111.514 34.5834 111.296 34.3657 111.296 34.0972C111.296 33.8288 111.514 33.6111 111.782 33.6111Z" stroke="#E4EAEC" stroke-width="2"/>
<path d="M111.782 38.4722H123.773C124.042 38.4722 124.259 38.6899 124.259 38.9584C124.259 39.2268 124.042 39.4445 123.773 39.4445H111.782C111.514 39.4445 111.296 39.2268 111.296 38.9584C111.296 38.6899 111.514 38.4722 111.782 38.4722Z" stroke="#E4EAEC" stroke-width="2"/>
<path d="M121.505 43.3334H111.782C111.514 43.3334 111.296 43.551 111.296 43.8195C111.296 44.0879 111.514 44.3056 111.782 44.3056H121.505C121.773 44.3056 121.991 44.0879 121.991 43.8195C121.991 43.551 121.773 43.3334 121.505 43.3334Z" stroke="#E4EAEC" stroke-width="2"/>
<rect x="0.5" y="0.5" width="151.037" height="74" rx="4.5" stroke="#7B61FF" stroke-dasharray="10 5"/>
</svg>
