<svg width="27" height="20" viewBox="0 0 27 20" fill="none" xmlns="http://www.w3.org/2000/svg">
<path fill-rule="evenodd" clip-rule="evenodd" d="M2 10C2 14.4183 5.58172 18 10 18C14.4183 18 18 14.4183 18 10C18 5.58172 14.4183 2 10 2C5.58172 2 2 5.58172 2 10ZM10 0C4.47715 0 0 4.47715 0 10C0 15.5228 4.47715 20 10 20C15.5228 20 20 15.5228 20 10C20 4.47715 15.5228 0 10 0Z" fill="#C4C4C4"/>
<path fill-rule="evenodd" clip-rule="evenodd" d="M10 3C10.5523 3 11 3.44772 11 4V9H13.5C14.0523 9 14.5 9.44772 14.5 10C14.5 10.5523 14.0523 11 13.5 11H10C9.44772 11 9 10.5523 9 10V4C9 3.44772 9.44772 3 10 3Z" fill="#C4C4C4"/>
<path fill-rule="evenodd" clip-rule="evenodd" d="M10 0C4.47715 0 0 4.47715 0 10C0 15.5228 4.47715 20 10 20C15.5228 20 20 15.5228 20 10C20 4.47715 15.5228 0 10 0ZM2 10C2 14.4183 5.58172 18 10 18C14.4183 18 18 14.4183 18 10C18 5.58172 14.4183 2 10 2C5.58172 2 2 5.58172 2 10ZM11 4C11 3.44772 10.5523 3 10 3C9.44772 3 9 3.44772 9 4V10C9 10.5523 9.44772 11 10 11H13.5C14.0523 11 14.5 10.5523 14.5 10C14.5 9.44772 14.0523 9 13.5 9H11V4Z" fill="#C4C4C4"/>
<path d="M22.5977 3.49786C23.3517 4.37819 23.9555 5.3911 24.3691 6.49681C25.1392 7.45602 25.5999 8.6742 25.5999 10C25.5999 11.3258 25.1392 12.544 24.3691 13.5032C23.9555 14.6089 23.3517 15.6218 22.5977 16.5021C25.1774 15.4705 26.9999 12.9481 26.9999 10C26.9999 7.0519 25.1774 4.52947 22.5977 3.49786Z" fill="#C4C4C4"/>
<path d="M16.499 1.12427C17.6701 1.98321 18.6649 3.06831 19.4191 4.31525C21.1114 5.63268 22.1999 7.68921 22.1999 9.99999C22.1999 12.3108 21.1114 14.3673 19.4191 15.6847C18.6649 16.9317 17.6701 18.0168 16.499 18.8757C20.756 18.162 24 14.4598 24 9.99999C24 5.54017 20.756 1.838 16.499 1.12427Z" fill="#C4C4C4"/>
</svg>
