<svg width="170" height="220" viewBox="0 0 170 220" fill="none" xmlns="http://www.w3.org/2000/svg">
<rect width="170" height="220" fill="white"/>
<path d="M36 48C36 46.3431 37.3431 45 39 45H48C49.6569 45 51 46.3431 51 48V49C51 50.6569 49.6569 52 48 52H39C37.3431 52 36 50.6569 36 49V48Z" fill="#DBDBDB"/>
<path d="M23 58C23 56.3431 24.3431 55 26 55H48C49.6569 55 51 56.3431 51 58V59C51 60.6569 49.6569 62 48 62H26C24.3431 62 23 60.6569 23 59V58Z" fill="#DBDBDB"/>
<path fill-rule="evenodd" clip-rule="evenodd" d="M15.5 55C16.0523 55 16.5 55.4477 16.5 56V57.5H18C18.5523 57.5 19 57.9477 19 58.5C19 59.0523 18.5523 59.5 18 59.5H16.5V61C16.5 61.5523 16.0523 62 15.5 62C14.9477 62 14.5 61.5523 14.5 61V59.5H13C12.4477 59.5 12 59.0523 12 58.5C12 57.9477 12.4477 57.5 13 57.5H14.5V56C14.5 55.4477 14.9477 55 15.5 55Z" fill="#C4C4C4"/>
<path fill-rule="evenodd" clip-rule="evenodd" d="M13 67C13 66.4477 13.4477 66 14 66L51 66C51.5523 66 52 66.4477 52 67C52 67.5523 51.5523 68 51 68L14 68C13.4477 68 13 67.5523 13 67Z" fill="#C4C4C4"/>
<path d="M88 48C88 46.3431 89.3431 45 91 45H100C101.657 45 103 46.3431 103 48V49C103 50.6569 101.657 52 100 52H91C89.3431 52 88 50.6569 88 49V48Z" fill="#DBDBDB"/>
<path d="M75 58C75 56.3431 76.3431 55 78 55H100C101.657 55 103 56.3431 103 58V59C103 60.6569 101.657 62 100 62H78C76.3431 62 75 60.6569 75 59V58Z" fill="#DBDBDB"/>
<path fill-rule="evenodd" clip-rule="evenodd" d="M67.5 55C68.0523 55 68.5 55.4477 68.5 56V57.5H70C70.5523 57.5 71 57.9477 71 58.5C71 59.0523 70.5523 59.5 70 59.5H68.5V61C68.5 61.5523 68.0523 62 67.5 62C66.9477 62 66.5 61.5523 66.5 61V59.5H65C64.4477 59.5 64 59.0523 64 58.5C64 57.9477 64.4477 57.5 65 57.5H66.5V56C66.5 55.4477 66.9477 55 67.5 55Z" fill="#C4C4C4"/>
<path fill-rule="evenodd" clip-rule="evenodd" d="M65 67C65 66.4477 65.4477 66 66 66L103 66C103.552 66 104 66.4477 104 67C104 67.5523 103.552 68 103 68L66 68C65.4477 68 65 67.5523 65 67Z" fill="#C4C4C4"/>
<path d="M140 48C140 46.3431 141.343 45 143 45H152C153.657 45 155 46.3431 155 48V49C155 50.6569 153.657 52 152 52H143C141.343 52 140 50.6569 140 49V48Z" fill="#DBDBDB"/>
<path d="M127 58C127 56.3431 128.343 55 130 55H152C153.657 55 155 56.3431 155 58V59C155 60.6569 153.657 62 152 62H130C128.343 62 127 60.6569 127 59V58Z" fill="#DBDBDB"/>
<path fill-rule="evenodd" clip-rule="evenodd" d="M119.5 55C120.052 55 120.5 55.4477 120.5 56V57.5H122C122.552 57.5 123 57.9477 123 58.5C123 59.0523 122.552 59.5 122 59.5H120.5V61C120.5 61.5523 120.052 62 119.5 62C118.948 62 118.5 61.5523 118.5 61V59.5H117C116.448 59.5 116 59.0523 116 58.5C116 57.9477 116.448 57.5 117 57.5H118.5V56C118.5 55.4477 118.948 55 119.5 55Z" fill="#C4C4C4"/>
<path fill-rule="evenodd" clip-rule="evenodd" d="M117 67C117 66.4477 117.448 66 118 66L155 66C155.552 66 156 66.4477 156 67C156 67.5523 155.552 68 155 68L118 68C117.448 68 117 67.5523 117 67Z" fill="#C4C4C4"/>
<path d="M36 91C36 89.3431 37.3431 88 39 88H48C49.6569 88 51 89.3431 51 91V92C51 93.6569 49.6569 95 48 95H39C37.3431 95 36 93.6569 36 92V91Z" fill="#DBDBDB"/>
<path d="M23 101C23 99.3431 24.3431 98 26 98H48C49.6569 98 51 99.3431 51 101V102C51 103.657 49.6569 105 48 105H26C24.3431 105 23 103.657 23 102V101Z" fill="#DBDBDB"/>
<path fill-rule="evenodd" clip-rule="evenodd" d="M15.5 98C16.0523 98 16.5 98.4477 16.5 99V100.5H18C18.5523 100.5 19 100.948 19 101.5C19 102.052 18.5523 102.5 18 102.5H16.5V104C16.5 104.552 16.0523 105 15.5 105C14.9477 105 14.5 104.552 14.5 104V102.5H13C12.4477 102.5 12 102.052 12 101.5C12 100.948 12.4477 100.5 13 100.5H14.5V99C14.5 98.4477 14.9477 98 15.5 98Z" fill="#C4C4C4"/>
<path fill-rule="evenodd" clip-rule="evenodd" d="M13 110C13 109.448 13.4477 109 14 109L51 109C51.5523 109 52 109.448 52 110C52 110.552 51.5523 111 51 111L14 111C13.4477 111 13 110.552 13 110Z" fill="#C4C4C4"/>
<path d="M88 91C88 89.3431 89.3431 88 91 88H100C101.657 88 103 89.3431 103 91V92C103 93.6569 101.657 95 100 95H91C89.3431 95 88 93.6569 88 92V91Z" fill="#DBDBDB"/>
<path d="M75 101C75 99.3431 76.3431 98 78 98H100C101.657 98 103 99.3431 103 101V102C103 103.657 101.657 105 100 105H78C76.3431 105 75 103.657 75 102V101Z" fill="#DBDBDB"/>
<path fill-rule="evenodd" clip-rule="evenodd" d="M67.5 98C68.0523 98 68.5 98.4477 68.5 99V100.5H70C70.5523 100.5 71 100.948 71 101.5C71 102.052 70.5523 102.5 70 102.5H68.5V104C68.5 104.552 68.0523 105 67.5 105C66.9477 105 66.5 104.552 66.5 104V102.5H65C64.4477 102.5 64 102.052 64 101.5C64 100.948 64.4477 100.5 65 100.5H66.5V99C66.5 98.4477 66.9477 98 67.5 98Z" fill="#C4C4C4"/>
<path fill-rule="evenodd" clip-rule="evenodd" d="M65 110C65 109.448 65.4477 109 66 109L103 109C103.552 109 104 109.448 104 110C104 110.552 103.552 111 103 111L66 111C65.4477 111 65 110.552 65 110Z" fill="#C4C4C4"/>
<path d="M140 91C140 89.3431 141.343 88 143 88H152C153.657 88 155 89.3431 155 91V92C155 93.6569 153.657 95 152 95H143C141.343 95 140 93.6569 140 92V91Z" fill="#DBDBDB"/>
<path d="M127 101C127 99.3431 128.343 98 130 98H152C153.657 98 155 99.3431 155 101V102C155 103.657 153.657 105 152 105H130C128.343 105 127 103.657 127 102V101Z" fill="#DBDBDB"/>
<path fill-rule="evenodd" clip-rule="evenodd" d="M119.5 98C120.052 98 120.5 98.4477 120.5 99V100.5H122C122.552 100.5 123 100.948 123 101.5C123 102.052 122.552 102.5 122 102.5H120.5V104C120.5 104.552 120.052 105 119.5 105C118.948 105 118.5 104.552 118.5 104V102.5H117C116.448 102.5 116 102.052 116 101.5C116 100.948 116.448 100.5 117 100.5H118.5V99C118.5 98.4477 118.948 98 119.5 98Z" fill="#C4C4C4"/>
<path fill-rule="evenodd" clip-rule="evenodd" d="M117 110C117 109.448 117.448 109 118 109L155 109C155.552 109 156 109.448 156 110C156 110.552 155.552 111 155 111L118 111C117.448 111 117 110.552 117 110Z" fill="#C4C4C4"/>
<path d="M36 134C36 132.343 37.3431 131 39 131H48C49.6569 131 51 132.343 51 134V135C51 136.657 49.6569 138 48 138H39C37.3431 138 36 136.657 36 135V134Z" fill="#DBDBDB"/>
<path d="M23 144C23 142.343 24.3431 141 26 141H48C49.6569 141 51 142.343 51 144V145C51 146.657 49.6569 148 48 148H26C24.3431 148 23 146.657 23 145V144Z" fill="#DBDBDB"/>
<path fill-rule="evenodd" clip-rule="evenodd" d="M15.5 141C16.0523 141 16.5 141.448 16.5 142V143.5H18C18.5523 143.5 19 143.948 19 144.5C19 145.052 18.5523 145.5 18 145.5H16.5V147C16.5 147.552 16.0523 148 15.5 148C14.9477 148 14.5 147.552 14.5 147V145.5H13C12.4477 145.5 12 145.052 12 144.5C12 143.948 12.4477 143.5 13 143.5H14.5V142C14.5 141.448 14.9477 141 15.5 141Z" fill="#C4C4C4"/>
<path fill-rule="evenodd" clip-rule="evenodd" d="M13 153C13 152.448 13.4477 152 14 152L51 152C51.5523 152 52 152.448 52 153C52 153.552 51.5523 154 51 154L14 154C13.4477 154 13 153.552 13 153Z" fill="#C4C4C4"/>
<path d="M88 134C88 132.343 89.3431 131 91 131H100C101.657 131 103 132.343 103 134V135C103 136.657 101.657 138 100 138H91C89.3431 138 88 136.657 88 135V134Z" fill="#DBDBDB"/>
<path d="M75 144C75 142.343 76.3431 141 78 141H100C101.657 141 103 142.343 103 144V145C103 146.657 101.657 148 100 148H78C76.3431 148 75 146.657 75 145V144Z" fill="#DBDBDB"/>
<path fill-rule="evenodd" clip-rule="evenodd" d="M67.5 141C68.0523 141 68.5 141.448 68.5 142V143.5H70C70.5523 143.5 71 143.948 71 144.5C71 145.052 70.5523 145.5 70 145.5H68.5V147C68.5 147.552 68.0523 148 67.5 148C66.9477 148 66.5 147.552 66.5 147V145.5H65C64.4477 145.5 64 145.052 64 144.5C64 143.948 64.4477 143.5 65 143.5H66.5V142C66.5 141.448 66.9477 141 67.5 141Z" fill="#C4C4C4"/>
<path fill-rule="evenodd" clip-rule="evenodd" d="M65 153C65 152.448 65.4477 152 66 152L103 152C103.552 152 104 152.448 104 153C104 153.552 103.552 154 103 154L66 154C65.4477 154 65 153.552 65 153Z" fill="#C4C4C4"/>
<path d="M140 134C140 132.343 141.343 131 143 131H152C153.657 131 155 132.343 155 134V135C155 136.657 153.657 138 152 138H143C141.343 138 140 136.657 140 135V134Z" fill="#DBDBDB"/>
<path d="M127 144C127 142.343 128.343 141 130 141H152C153.657 141 155 142.343 155 144V145C155 146.657 153.657 148 152 148H130C128.343 148 127 146.657 127 145V144Z" fill="#DBDBDB"/>
<path fill-rule="evenodd" clip-rule="evenodd" d="M119.5 141C120.052 141 120.5 141.448 120.5 142V143.5H122C122.552 143.5 123 143.948 123 144.5C123 145.052 122.552 145.5 122 145.5H120.5V147C120.5 147.552 120.052 148 119.5 148C118.948 148 118.5 147.552 118.5 147V145.5H117C116.448 145.5 116 145.052 116 144.5C116 143.948 116.448 143.5 117 143.5H118.5V142C118.5 141.448 118.948 141 119.5 141Z" fill="#C4C4C4"/>
<path fill-rule="evenodd" clip-rule="evenodd" d="M117 153C117 152.448 117.448 152 118 152L155 152C155.552 152 156 152.448 156 153C156 153.552 155.552 154 155 154L118 154C117.448 154 117 153.552 117 153Z" fill="#C4C4C4"/>
<path d="M36 177C36 175.343 37.3431 174 39 174H48C49.6569 174 51 175.343 51 177V178C51 179.657 49.6569 181 48 181H39C37.3431 181 36 179.657 36 178V177Z" fill="#DBDBDB"/>
<path d="M23 187C23 185.343 24.3431 184 26 184H48C49.6569 184 51 185.343 51 187V188C51 189.657 49.6569 191 48 191H26C24.3431 191 23 189.657 23 188V187Z" fill="#DBDBDB"/>
<path fill-rule="evenodd" clip-rule="evenodd" d="M15.5 184C16.0523 184 16.5 184.448 16.5 185V186.5H18C18.5523 186.5 19 186.948 19 187.5C19 188.052 18.5523 188.5 18 188.5H16.5V190C16.5 190.552 16.0523 191 15.5 191C14.9477 191 14.5 190.552 14.5 190V188.5H13C12.4477 188.5 12 188.052 12 187.5C12 186.948 12.4477 186.5 13 186.5H14.5V185C14.5 184.448 14.9477 184 15.5 184Z" fill="#C4C4C4"/>
<path fill-rule="evenodd" clip-rule="evenodd" d="M13 196C13 195.448 13.4477 195 14 195L51 195C51.5523 195 52 195.448 52 196C52 196.552 51.5523 197 51 197L14 197C13.4477 197 13 196.552 13 196Z" fill="#C4C4C4"/>
<path d="M88 177C88 175.343 89.3431 174 91 174H100C101.657 174 103 175.343 103 177V178C103 179.657 101.657 181 100 181H91C89.3431 181 88 179.657 88 178V177Z" fill="#DBDBDB"/>
<path d="M75 187C75 185.343 76.3431 184 78 184H100C101.657 184 103 185.343 103 187V188C103 189.657 101.657 191 100 191H78C76.3431 191 75 189.657 75 188V187Z" fill="#DBDBDB"/>
<path fill-rule="evenodd" clip-rule="evenodd" d="M67.5 184C68.0523 184 68.5 184.448 68.5 185V186.5H70C70.5523 186.5 71 186.948 71 187.5C71 188.052 70.5523 188.5 70 188.5H68.5V190C68.5 190.552 68.0523 191 67.5 191C66.9477 191 66.5 190.552 66.5 190V188.5H65C64.4477 188.5 64 188.052 64 187.5C64 186.948 64.4477 186.5 65 186.5H66.5V185C66.5 184.448 66.9477 184 67.5 184Z" fill="#C4C4C4"/>
<path fill-rule="evenodd" clip-rule="evenodd" d="M65 196C65 195.448 65.4477 195 66 195L103 195C103.552 195 104 195.448 104 196C104 196.552 103.552 197 103 197L66 197C65.4477 197 65 196.552 65 196Z" fill="#C4C4C4"/>
<path d="M140 177C140 175.343 141.343 174 143 174H152C153.657 174 155 175.343 155 177V178C155 179.657 153.657 181 152 181H143C141.343 181 140 179.657 140 178V177Z" fill="#DBDBDB"/>
<path d="M127 187C127 185.343 128.343 184 130 184H152C153.657 184 155 185.343 155 187V188C155 189.657 153.657 191 152 191H130C128.343 191 127 189.657 127 188V187Z" fill="#DBDBDB"/>
<path fill-rule="evenodd" clip-rule="evenodd" d="M119.5 184C120.052 184 120.5 184.448 120.5 185V186.5H122C122.552 186.5 123 186.948 123 187.5C123 188.052 122.552 188.5 122 188.5H120.5V190C120.5 190.552 120.052 191 119.5 191C118.948 191 118.5 190.552 118.5 190V188.5H117C116.448 188.5 116 188.052 116 187.5C116 186.948 116.448 186.5 117 186.5H118.5V185C118.5 184.448 118.948 184 119.5 184Z" fill="#C4C4C4"/>
<path fill-rule="evenodd" clip-rule="evenodd" d="M117 196C117 195.448 117.448 195 118 195L155 195C155.552 195 156 195.448 156 196C156 196.552 155.552 197 155 197L118 197C117.448 197 117 196.552 117 196Z" fill="#C4C4C4"/>
<rect x="6" y="6" width="55" height="7" rx="3" fill="#DBDBDB"/>
<rect x="71" y="6" width="55" height="7" rx="3" fill="#DBDBDB"/>
<rect x="152" y="6" width="12" height="7" rx="3" fill="#DBDBDB"/>
<path d="M151 6L149 13" stroke="#C4C4C4" stroke-linecap="round" stroke-linejoin="round"/>
<rect x="136" y="6" width="12" height="7" rx="3" fill="#DBDBDB"/>
<rect x="40" y="18" width="90" height="14" rx="3" fill="#C4C4C4"/>
</svg>
