<svg width="350" height="130" viewBox="0 0 350 130" fill="none" xmlns="http://www.w3.org/2000/svg">
<g clip-path="url(#clip0_925_1248)">
<rect width="350" height="130" fill="#2DA480"/>
<path d="M203.021 148C201.77 145.834 201.77 143.166 203.021 141L250.729 58.3664C251.98 56.2006 254.291 54.8664 256.791 54.8664L352.209 54.8664C354.709 54.8664 357.02 56.2006 358.271 58.3664L405.979 141C407.23 143.166 407.23 145.834 405.979 148L358.271 230.634C357.02 232.799 354.709 234.134 352.209 234.134L256.791 234.134C254.291 234.134 251.98 232.799 250.729 230.634L203.021 148Z" fill="#22D39E"/>
<path d="M328 66.1247L263.292 66.1247C260.791 66.1247 258.48 67.4589 257.229 69.6247L240.27 99" stroke="#1DECAE" stroke-width="4" stroke-linecap="round"/>
<path d="M307 112L299.657 104.657M299.657 104.657C299.762 104.552 299.864 104.444 299.963 104.333C301.23 102.918 302 101.049 302 99C302 94.5817 298.418 91 294 91C289.582 91 286 94.5817 286 99C286 103.418 289.582 107 294 107C296.209 107 298.209 106.105 299.657 104.657Z" stroke="#6AF1C8" stroke-width="4" stroke-linecap="round" stroke-linejoin="round"/>
</g>
<defs>
<clipPath id="clip0_925_1248">
<rect width="350" height="130" fill="white"/>
</clipPath>
</defs>
</svg>
