<svg width="32" height="32" viewBox="0 0 32 32" fill="none" xmlns="http://www.w3.org/2000/svg">
<path d="M10.1595 28H4V21.8405L21.3895 4.45102C21.9909 3.84966 22.9659 3.84966 23.5672 4.45102L27.549 8.43278C28.1503 9.03413 28.1503 10.0091 27.549 10.6105L10.1595 28Z" fill="#A618E9"/>
<path d="M17 10L22 15M10.1595 28H4V21.8405L21.3895 4.45102C21.9909 3.84966 22.9659 3.84966 23.5672 4.45102L27.549 8.43278C28.1503 9.03413 28.1503 10.0091 27.549 10.6105L10.1595 28Z" stroke="#A618E9" stroke-width="3" stroke-linecap="round" stroke-linejoin="round"/>
<path d="M17.5 9.5L22.1464 4.85355C22.3417 4.65829 22.6583 4.65829 22.8536 4.85355L24.5 6.5" stroke="#C66FEF" stroke-width="2" stroke-linecap="round"/>
<path d="M4 29.5H5.5L4.57454 27.6491C4.52615 27.5523 4.44769 27.4738 4.35093 27.4255L2.5 26.5V28C2.5 28.8284 3.17157 29.5 4 29.5Z" fill="#C66FEF"/>
</svg>
