<svg width="32" height="32" viewBox="0 0 32 32" fill="none" xmlns="http://www.w3.org/2000/svg">
<g clip-path="url(#clip0_934_1481)">
<rect width="32" height="32" fill="#3CADC6"/>
<path d="M0.869017 12.8659C-0.172398 20.9868 -6.72117 29.1754 13.0488 32.1886L16.2499 32.6263C36.098 35.0299 31.839 25.3636 32.8804 17.2427C33.1784 14.919 32.9168 12.5089 32.1276 10.4131C31.3383 8.31728 28.0338 1.44511 18.7821 0.180163C9.53044 -1.08478 4.60763 4.66251 3.31733 6.47402C2.02704 8.28553 1.167 10.5423 0.869017 12.8659Z" fill="#3CADC6"/>
<path d="M2.36478 16.1513L2.89463 12.0196C3.36283 8.36862 6.60878 5.80081 10.1447 6.28426L12.9679 6.67027C14.1805 6.83605 14.9903 7.94175 15.993 8.66491C16.1015 8.74313 16.2159 8.79601 16.335 8.81229L17.9356 9.03113C18.0444 9.04601 18.1554 9.03306 18.2662 8.99924C19.4625 8.63399 20.5364 7.70507 21.773 7.87415L24.5498 8.2538C28.0856 8.73725 30.5725 12.0889 30.1043 15.7399L29.5744 19.8716C29.1062 23.5226 25.8603 26.0904 22.3244 25.6069L20.7438 25.3908C18.7697 25.1209 17.1127 23.7225 16.4637 21.7787C16.3916 21.5627 16.2075 21.4073 15.9881 21.3773L15.1034 21.2563C14.884 21.2263 14.6671 21.3269 14.543 21.516C13.4264 23.2185 11.474 24.1234 9.49993 23.8535L7.9193 23.6374C4.38343 23.154 1.89658 19.8023 2.36478 16.1513Z" fill="#44C2DE"/>
<path d="M5.29548 12.3479C5.64663 9.60963 8.08109 7.68377 10.733 8.04635C13.3849 8.40894 15.25 10.9227 14.8989 13.6609L14.4344 17.2826C14.0833 20.0209 11.6488 21.9467 8.99693 21.5841C6.34502 21.2216 4.47989 18.7078 4.83104 15.9696L5.29548 12.3479Z" fill="white"/>
<path d="M6.08325 12.0557C6.25882 10.6866 7.47605 9.72366 8.80201 9.90495C10.128 10.0862 11.0605 11.3431 10.8849 12.7122L10.3551 16.8439C10.1795 18.2131 8.9623 19.176 7.63635 18.9947C6.31039 18.8134 5.37782 17.5565 5.5534 16.1874L6.08325 12.0557Z" fill="#4B4B4B"/>
<path d="M10.8975 13.1138C10.7804 14.0266 9.96893 14.6685 9.08496 14.5477C8.201 14.4268 7.57928 13.5889 7.69633 12.6761C7.81338 11.7634 8.62487 11.1214 9.50884 11.2423C10.3928 11.3632 11.0145 12.2011 10.8975 13.1138Z" fill="white"/>
<path d="M18.1 14.0986C18.4512 11.3603 20.8856 9.43448 23.5375 9.79706C26.1895 10.1596 28.0546 12.6734 27.7034 15.4116L27.2796 18.717C26.9284 21.4552 24.494 23.3811 21.842 23.0185C19.1901 22.6559 17.325 20.1422 17.6762 17.404L18.1 14.0986Z" fill="white"/>
<path d="M18.9016 13.5876C19.0772 12.2184 20.2944 11.2555 21.6203 11.4368C22.9463 11.6181 23.8789 12.8749 23.7033 14.2441L23.1734 18.3758C22.9979 19.7449 21.7806 20.7078 20.4547 20.5265C19.1287 20.3452 18.1962 19.0884 18.3717 17.7193L18.9016 13.5876Z" fill="#4B4B4B"/>
<path d="M22.9017 14.7551C22.7847 15.6679 21.9732 16.3098 21.0892 16.1889C20.2053 16.0681 19.5835 15.2302 19.7006 14.3174C19.8176 13.4047 20.6291 12.7627 21.5131 12.8836C22.3971 13.0044 23.0188 13.8424 22.9017 14.7551Z" fill="white"/>
<path d="M14.2308 25.8282C11.6515 25.4755 11.6041 22.9465 11.6041 22.9465L17.4933 23.7518C17.4933 23.7518 16.8101 26.1808 14.2308 25.8282Z" fill="#E69435"/>
<path d="M14.8666 20.8701C16.9198 21.1508 17.4485 22.5824 17.6816 23.532C17.793 23.9855 17.4134 24.3585 16.9405 24.3456L16.1484 24.3241C14.8962 24.29 13.7778 24.1371 12.5601 23.8334L11.7899 23.6414C11.3301 23.5267 11.0576 23.0646 11.2794 22.6566C11.7439 21.8024 12.8134 20.5894 14.8666 20.8701Z" fill="#F5C443"/>
<path d="M15.6624 22.561L14.5131 22.4039C13.9994 22.3336 13.6913 21.7958 14.1288 21.529C14.3845 21.3731 14.7416 21.2735 15.2342 21.3408C15.7268 21.4081 16.0465 21.6004 16.254 21.8196C16.6093 22.1947 16.1762 22.6313 15.6624 22.561Z" fill="#F9DD4A"/>
<path d="M29.1999 0.843682C26.8341 0.730181 20.4663 0.410432 18.7821 0.180163L18.2523 4.31187C18.2523 4.31187 22.1412 4.50382 24.7605 4.36088C26.3449 4.27442 28.4159 2.5064 29.4484 1.52635C29.7043 1.28344 29.5472 0.860341 29.1999 0.843682Z" fill="#3CADC6"/>
<path d="M5.93123 7.38981L28.3392 10.4536L27.3855 17.8906L16.1337 15.8283L4.97751 14.8269L5.93123 7.38981Z" fill="#44C2DE"/>
</g>
<defs>
<clipPath id="clip0_934_1481">
<path d="M0 16C0 7.16344 7.16344 0 16 0V0C24.8366 0 32 7.16344 32 16V16C32 24.8366 24.8366 32 16 32V32C7.16344 32 0 24.8366 0 16V16Z" fill="white"/>
</clipPath>
</defs>
</svg>
