<svg width="20" height="20" viewBox="0 0 20 20" fill="none" xmlns="http://www.w3.org/2000/svg">
<path fill-rule="evenodd" clip-rule="evenodd" d="M19.7069 10.797C18.2581 12.5327 14.4588 16.5 10 16.5C5.54119 16.5 1.74194 12.5327 0.293139 10.797C-0.0977119 10.3288 -0.0977134 9.67123 0.293137 9.20299C1.74194 7.46731 5.54119 3.5 10 3.5C14.4588 3.5 18.2581 7.46731 19.7069 9.20299C20.0977 9.67123 20.0977 10.3288 19.7069 10.797ZM14.4288 10C14.4288 12.3932 12.446 14.3333 10 14.3333C7.55404 14.3333 5.57119 12.3932 5.57119 10C5.57119 7.60677 7.55404 5.66667 10 5.66667C12.446 5.66667 14.4288 7.60677 14.4288 10Z" fill="white"/>
<path fill-rule="evenodd" clip-rule="evenodd" d="M10 7.83333C10 7.57276 9.92949 7.32831 9.80611 7.11724C8.72985 7.18551 7.81074 7.81801 7.35465 8.71548C7.62463 9.0575 8.04789 9.27778 8.52373 9.27778C9.33905 9.27778 10 8.63108 10 7.83333Z" fill="#EBEBEB"/>
<path d="M10 12.8889C11.6306 12.8889 12.9525 11.5955 12.9525 10C12.9525 8.40451 11.6306 7.11111 10 7.11111C9.93486 7.11111 9.8702 7.11318 9.80611 7.11724C9.92949 7.32831 10 7.57276 10 7.83333C10 8.63108 9.33905 9.27778 8.52373 9.27778C8.04789 9.27778 7.62463 9.0575 7.35465 8.71548C7.15803 9.1024 7.04746 9.53857 7.04746 10C7.04746 11.5955 8.36936 12.8889 10 12.8889Z" fill="white"/>
</svg>
