<svg width="20" height="20" viewBox="0 0 20 20" fill="none" xmlns="http://www.w3.org/2000/svg">
<path d="M16.2929 2.29289C16.6834 1.90237 17.3166 1.90237 17.7071 2.29289C18.0976 2.68342 18.0976 3.31658 17.7071 3.70711L15.8248 5.58937L13.7385 7.67571L12.6631 8.75108L8.78187 12.6323L7.70647 13.7077L5.94564 15.4686L3.70711 17.7071C3.31659 18.0976 2.68342 18.0976 2.2929 17.7071C1.90237 17.3166 1.90237 16.6834 2.2929 16.2929L4.17516 14.4106L6.2615 12.3243L7.33687 11.2489L11.2181 7.36766L12.2935 6.29225L14.0544 4.53143L16.2929 2.29289Z" fill="white"/>
<path fill-rule="evenodd" clip-rule="evenodd" d="M10 3.5C11.0698 3.5 12.1016 3.72837 13.0721 4.0995L11.3117 5.85988C10.8972 5.7343 10.4567 5.66667 10 5.66667C7.55404 5.66667 5.57119 7.60677 5.57119 10C5.57119 10.48 5.65095 10.9418 5.79822 11.3734L3.3644 13.8072C1.99081 12.7211 0.921153 11.5494 0.293139 10.797C-0.0977119 10.3288 -0.0977134 9.67123 0.293137 9.20299C1.74194 7.46731 5.54119 3.5 10 3.5ZM14.2018 8.62665L16.6356 6.19282C18.0092 7.27893 19.0788 8.45062 19.7069 9.20299C20.0977 9.67123 20.0977 10.3288 19.7069 10.797C18.2581 12.5327 14.4588 16.5 10 16.5C8.93023 16.5 7.89842 16.2716 6.92793 15.9005L8.68831 14.1401C9.1028 14.2657 9.54333 14.3333 10 14.3333C12.446 14.3333 14.4288 12.3932 14.4288 10C14.4288 9.51999 14.3491 9.0582 14.2018 8.62665ZM14.0544 4.53143C14.6785 4.84134 15.271 5.20274 15.8248 5.58937L13.7385 7.67571C13.3723 7.11301 12.8771 6.63855 12.2935 6.29225L14.0544 4.53143ZM11.2181 7.36766C11.8501 7.64808 12.3632 8.14 12.6631 8.75108L8.78187 12.6323C8.14988 12.3519 7.63676 11.86 7.33687 11.2489L11.2181 7.36766ZM9.94012 12.8883C9.96004 12.8887 9.98 12.8889 10 12.8889C11.6306 12.8889 12.9525 11.5955 12.9525 10C12.9525 9.95928 12.9517 9.91876 12.95 9.87845L9.94012 12.8883ZM6.2615 12.3243C6.6277 12.887 7.12295 13.3614 7.70647 13.7077L5.94564 15.4686C5.32153 15.1587 4.72898 14.7973 4.17516 14.4106L6.2615 12.3243ZM7.99079 9.18079L7.05002 10.1216C7.04832 10.0812 7.04746 10.0407 7.04746 10C7.04746 9.53857 7.15803 9.1024 7.35465 8.71548C7.51801 8.92243 7.73749 9.08481 7.99079 9.18079ZM9.88893 7.28265L10.0599 7.11169C10.04 7.11131 10.02 7.11111 10 7.11111C9.93486 7.11111 9.8702 7.11318 9.80611 7.11724C9.83716 7.17035 9.86486 7.22558 9.88893 7.28265Z" fill="white"/>
<path d="M9.80611 7.11724C8.72985 7.18551 7.81074 7.81801 7.35465 8.71548C7.51801 8.92243 7.73749 9.08481 7.99079 9.18079L9.88893 7.28265C9.86486 7.22558 9.83716 7.17035 9.80611 7.11724Z" fill="#EBEBEB"/>
</svg>
