<svg width="32" height="32" viewBox="0 0 32 32" fill="none" xmlns="http://www.w3.org/2000/svg">
<path fill-rule="evenodd" clip-rule="evenodd" d="M0 16C0 7.16344 7.16344 0 16 0C24.8366 0 32 7.16344 32 16C32 24.8366 24.8366 32 16 32C7.16344 32 0 24.8366 0 16Z" fill="#3876ED"/>
<path d="M11.5556 22C11.5556 20.5641 13.5454 19.4 16 19.4C18.4546 19.4 20.4444 20.5641 20.4444 22M21.3333 17.0162C22.903 17.4175 24 18.3337 24 19.3999M10.6667 17.0162C9.09697 17.4175 8 18.3337 8 19.3999M21.3333 13.538C21.8789 13.0619 22.2222 12.37 22.2222 11.6C22.2222 10.1641 21.0283 9 19.5556 9C18.8726 9 18.2496 9.25034 17.7778 9.66204M10.6667 13.538C10.1211 13.0619 9.77778 12.37 9.77778 11.6C9.77778 10.1641 10.9717 9 12.4444 9C13.1274 9 13.7504 9.25034 14.2222 9.66204M18.6667 14.2C18.6667 15.6359 17.4728 16.8 16 16.8C14.5272 16.8 13.3333 15.6359 13.3333 14.2C13.3333 12.7641 14.5272 11.6 16 11.6C17.4728 11.6 18.6667 12.7641 18.6667 14.2Z" stroke="white" stroke-width="2" stroke-linecap="round" stroke-linejoin="round"/>
</svg>
