<svg width="64" height="64" viewBox="0 0 64 64" fill="none" xmlns="http://www.w3.org/2000/svg">
<g clip-path="url(#clip0_835_1558)">
<circle cx="32" cy="32" r="32" fill="#C9ECF7"/>
<path d="M33.0001 80.4997C36.2257 80.4997 40.0946 80.0584 43.4969 79.5466C46.5032 79.0945 48.9163 77.2394 50.2531 74.7321L50.2703 74.6997C51.8081 71.8156 53.5195 68.6055 56.5927 67.5008C57.992 67.1428 59.6578 66.4153 61.055 65.7304C62.6564 64.9454 63.0687 62.92 61.9576 61.525C59.4199 58.3391 54.9467 53.012 51.0372 49.8446C50.0676 49.059 49.1401 47.2751 49.0145 47.0282C55.2368 43.0752 52.0003 35.8035 52.0003 28.9997C52.0003 26.1877 51.2995 23.3639 50.0003 20.9997C49.197 19.538 46.9258 16.0616 42.577 13.6202C43.6779 12.7337 44.6792 11.6222 45.3105 10.8663C45.5865 10.5358 45.327 10.0581 44.8979 10.0948C41.9748 10.3445 34.1047 10.9997 32.0003 10.9997C20.4397 10.9997 15.2995 18.6354 14.0003 20.9997C12.701 23.3639 12.0003 26.1877 12.0003 28.9997C12.0003 35.9969 8.5771 43.489 15.5397 47.3571L15.5001 47.6941C15.5001 48.6303 14.6467 49.3345 13.7275 49.1566L4.16313 47.3054C2.13096 46.9121 0.384587 48.6364 0.984504 50.6174C2.10511 54.3179 4.34535 59.6679 8.50014 62.9997C10.3408 64.4757 12.1659 65.5196 13.8511 66.257L13.6359 69.2257C13.2724 74.2425 16.6923 78.7605 21.6703 79.4818C25.3881 80.0206 29.6392 80.4997 33.0001 80.4997Z" fill="#3CADC6" fill-opacity="0.4"/>
<path d="M11.8953 45.5216C12.5391 46.4074 13.3837 47.1972 14.4639 47.8812C14.4471 47.9219 14.4249 47.9594 14.3984 47.9934L15.1869 48.6084C15.052 48.7814 14.8801 48.9232 14.6847 49.0228L14.2307 48.1317C14.1388 48.1786 14.0323 48.197 13.9175 48.1748L10.3309 47.4806L10.1408 48.4624L7.74976 47.9996L7.93978 47.0178L4.35315 46.3236C3.37273 46.1339 2.42254 46.3149 1.64841 46.7668L2.1526 47.6304C1.74694 47.8673 1.41244 48.2027 1.1861 48.6034L0.315406 48.1116C-0.140434 48.9186 -0.276263 49.9044 0.0274267 50.9072C0.498393 52.4625 1.1643 54.3091 2.08388 56.1873L2.98201 55.7475C3.5054 56.8165 4.11271 57.8939 4.81506 58.9286L3.98769 59.4902C5.04863 61.053 6.33056 62.5417 7.87454 63.7798C8.5381 64.3119 9.20039 64.7905 9.85603 65.2209L10.4048 64.3849C10.8558 64.681 11.3033 64.9531 11.7451 65.2031L11.2527 66.0735C11.7778 66.3706 12.2957 66.6379 12.8034 66.8785L12.773 67.298L13.7704 67.3703L13.7166 68.1124L12.7192 68.0402L12.6385 69.1534C12.4903 71.1988 12.9142 73.1727 13.7885 74.8882L14.6795 74.4341C15.2252 75.5049 15.9639 76.4634 16.8585 77.2547L16.1959 78.0037C17.6461 79.2865 19.4678 80.1731 21.5269 80.4715C22.8983 80.6702 24.3438 80.8612 25.7927 81.0234L25.904 80.0296C26.8544 80.136 27.8054 80.2299 28.7368 80.3052L28.6563 81.3019C30.1742 81.4247 31.6518 81.4997 33.0001 81.4997C34.2763 81.4997 35.642 81.4325 37.0308 81.3212L36.9509 80.3244C37.8184 80.2549 38.6987 80.1676 39.5757 80.068L39.6886 81.0616C41.0362 80.9085 42.3743 80.7267 43.6456 80.5355C44.8658 80.352 46.0008 79.9591 47.022 79.397L46.5397 78.521C47.1733 78.1722 47.7576 77.7514 48.285 77.2707L48.9587 78.0097C49.8389 77.2073 50.5739 76.256 51.1355 75.2026L51.142 75.1904L50.2596 74.7199L50.2639 74.7119L51.1463 75.1823L51.1528 75.1702C51.7218 74.1029 52.2903 73.0381 52.9333 72.0538L52.0961 71.5069C52.5501 70.812 53.0419 70.1522 53.5896 69.5648L54.321 70.2469C55.0766 69.4366 55.914 68.8164 56.8894 68.457C57.4639 68.3074 58.0659 68.1051 58.6629 67.8772L58.3063 66.9429C58.6762 66.8017 59.0497 66.6481 59.419 66.4881L59.8166 67.4056C60.3978 67.1538 60.9666 66.8874 61.4951 66.6283C62.3014 66.2331 62.8953 65.5982 63.2389 64.8554L62.3314 64.4355C62.5045 64.0612 62.5901 63.6505 62.5822 63.2358L63.582 63.2168C63.5666 62.4068 63.2895 61.5921 62.7398 60.9019C61.7104 59.6097 60.3635 57.9659 58.8632 56.2537L58.1111 56.9127C57.2509 55.931 56.3404 54.9272 55.411 53.9555L56.1336 53.2643C54.6654 51.7294 53.135 50.2572 51.6667 49.0676C51.4534 48.8948 51.209 48.6219 50.9575 48.2847L50.1559 48.8825C49.9778 48.6436 49.8115 48.3964 49.6637 48.1627L50.5089 47.6282C50.444 47.5256 50.3829 47.4257 50.3262 47.3308C51.2172 46.6466 51.911 45.8753 52.4373 45.0279L51.5878 44.5003C52.0206 43.8035 52.3187 43.057 52.5152 42.2708L53.4854 42.5133C54.0809 40.1312 53.8155 37.4699 53.5111 34.9177L52.5182 35.0362C52.4903 34.8023 52.4618 34.5677 52.4332 34.3325C52.3645 33.7671 52.2954 33.1981 52.2332 32.6277L53.2273 32.5193C53.0969 31.3234 53.0003 30.1484 53.0003 28.9997C53.0003 27.8963 52.8984 26.7922 52.7003 25.7121L51.7167 25.8924C51.5909 25.2063 51.424 24.5302 51.2176 23.8715L52.1718 23.5725C51.8376 22.506 51.4045 21.4786 50.8767 20.5181C50.4557 19.752 49.6721 18.4938 48.4503 17.1084L47.7003 17.7698C47.1652 17.1631 46.541 16.5298 45.8209 15.9047L46.4765 15.1496C45.8152 14.5755 45.0766 14.0076 44.2559 13.4703C44.2914 13.4362 44.3267 13.4022 44.3617 13.3682L43.6647 12.6511C43.9038 12.4187 44.1319 12.1849 44.3453 11.9576L45.0744 12.6419C45.4633 12.2276 45.8045 11.8349 46.0781 11.5072C46.3783 11.1478 46.4803 10.696 46.396 10.2759L45.4155 10.4727C45.3971 10.3808 45.3508 10.2956 45.2835 10.2293L45.9851 9.51674C45.6879 9.22411 45.2678 9.05953 44.8128 9.09839C43.7137 9.19229 41.9146 9.34355 39.9866 9.49565L40.0653 10.4926C38.9979 10.5768 37.8909 10.6612 36.8408 10.7364L36.7694 9.73899C34.6619 9.88989 32.8314 9.99966 32.0003 9.99966C30.5018 9.99966 29.1023 10.1232 27.7976 10.3458L27.9657 11.3316C27.0378 11.4899 26.1624 11.7 25.3374 11.9518L25.0455 10.9953C21.9176 11.95 19.4773 13.4756 17.6274 15.0604L18.278 15.8198C17.5396 16.4524 16.9 17.0949 16.352 17.7113L15.6046 17.047C14.3516 18.4566 13.551 19.7408 13.1239 20.5181C12.596 21.4786 12.1629 22.506 11.8287 23.5725L12.7829 23.8715C12.5765 24.5302 12.4096 25.2063 12.2838 25.8924L11.3002 25.7121C11.1021 26.7922 11.0003 27.8963 11.0003 28.9997C11.0003 30.1866 10.8971 31.4013 10.7602 32.6377L11.7541 32.7477C11.6954 33.2779 11.6312 33.8068 11.5673 34.3325C11.5306 34.6348 11.494 34.9361 11.4587 35.2361L10.4655 35.119C10.1531 37.7701 9.9011 40.5385 10.6466 42.9884L11.6033 42.6973C11.8446 43.4902 12.1995 44.2393 12.7042 44.9337L11.8953 45.5216ZM15.515 47.5677L15.4284 47.5575L15.4729 47.4774L15.5249 47.4835L15.515 47.5677Z" stroke="black" stroke-opacity="0.7" stroke-width="2" stroke-linejoin="round" stroke-dasharray="9 3"/>
</g>
<defs>
<clipPath id="clip0_835_1558">
<rect width="64" height="64" rx="32" fill="white"/>
</clipPath>
</defs>
</svg>
