<svg width="64" height="64" viewBox="0 0 64 64" fill="none" xmlns="http://www.w3.org/2000/svg">
<g clip-path="url(#clip0_835_1555)">
<circle cx="32" cy="32" r="32" fill="#C9ECF7"/>
<g opacity="0.25">
<path d="M14.9758 50.7334C15.2818 46.5113 18.4888 43.073 22.6795 42.4744L31.543 41.2081C32.5091 41.0701 33.4903 41.0743 34.4552 41.2205L42.3914 42.4229C46.5486 43.0528 49.7157 46.4772 50.0196 50.6709L51.3751 69.3766C51.7339 74.3284 48.4063 78.8085 43.4967 79.547C40.0944 80.0587 36.2255 80.5 33 80.5C29.6391 80.5 25.388 80.0209 21.6702 79.4822C16.6922 78.7609 13.2723 74.2429 13.6358 69.226L14.9758 50.7334Z" fill="#3CADC6"/>
<path d="M4.16299 47.3057L13.7273 49.1569C14.6465 49.3348 15.5 48.6307 15.5 47.6944C15.5 46.3537 17.1326 45.6954 18.0626 46.6612L26.8836 55.8214C27.8346 56.809 27.9951 58.3157 27.2734 59.4814L22.8034 66.7021C22.2986 67.5176 21.4341 68.0417 20.4779 67.9674C18.1255 67.7846 13.3674 66.9032 8.5 63C4.34521 59.6682 2.10497 54.3182 0.984364 50.6178C0.384447 48.6367 2.13082 46.9124 4.16299 47.3057Z" fill="#3CADC6"/>
<path d="M61.9574 61.5253C59.4197 58.3394 54.9465 53.0123 51.037 49.8449C49.9942 49 49 47 49 47L40.579 55.8252C39.6464 56.8026 39.4821 58.2827 40.1776 59.4409L44.296 66.2982C44.7539 67.0605 45.5236 67.5811 46.4071 67.6819C48.7136 67.9451 53.3964 68.3189 56.5926 67.5012C57.9919 67.1431 59.6576 66.4156 61.0548 65.7307C62.6562 64.9457 63.0686 62.9203 61.9574 61.5253Z" fill="#3CADC6"/>
<path d="M29.0972 62H22.9521C22.2953 62 21.8087 62.6276 22.0736 63.2724C22.5616 64.4608 23.6573 66.0526 26.0246 66.0526C28.392 66.0526 29.4876 64.4608 29.9757 63.2724C30.2405 62.6276 29.7539 62 29.0972 62Z" fill="#44C2DE"/>
<path d="M42.0479 62H35.9028C35.2461 62 34.7595 62.6276 35.0243 63.2724C35.5124 64.4608 36.608 66.0526 38.9754 66.0526C41.3427 66.0526 42.4384 64.4608 42.9264 63.2724C43.1913 62.6276 42.7047 62 42.0479 62Z" fill="#44C2DE"/>
<path d="M35.5726 68.9474H29.4274C28.7707 68.9474 28.2841 69.575 28.5489 70.2198C29.037 71.4082 30.1326 73 32.5 73C34.8674 73 35.963 71.4082 36.451 70.2198C36.7159 69.575 36.2293 68.9474 35.5726 68.9474Z" fill="#44C2DE"/>
<path d="M12.0001 29C12.0001 38.8275 5.24763 49.6312 30.0001 50H34.0001C58.7526 49.6312 52.0001 38.8275 52.0001 29C52.0001 26.188 51.2994 23.3642 50.0001 21C48.7009 18.6358 43.5606 11 32.0001 11C20.4396 11 15.2994 18.6358 14.0001 21C12.7009 23.3642 12.0001 26.188 12.0001 29Z" fill="#3CADC6"/>
<path d="M15.0002 33V28C15.0002 23.5817 18.582 20 23.0002 20H26.5281C28.0432 20 29.2119 21.1833 30.5571 21.8803C30.7026 21.9557 30.8514 22 31.0002 22H33.0002C33.1363 22 33.2705 21.9666 33.4013 21.9083C34.8128 21.2794 35.9853 20 37.5306 20H41.0002C45.4185 20 49.0002 23.5817 49.0002 28V33C49.0002 37.4183 45.4185 41 41.0002 41H39.0252C36.5584 41 34.3034 39.6063 33.2002 37.4C33.0777 37.1549 32.8271 37 32.553 37H32.0002H31.4475C31.1734 37 30.9228 37.1549 30.8002 37.4C29.6971 39.6063 27.4421 41 24.9753 41H23.0002C18.582 41 15.0002 37.4183 15.0002 33Z" fill="#44C2DE"/>
<rect x="18.0002" y="22" width="12" height="16.3828" rx="6" fill="white"/>
<rect x="21.0002" y="25" width="7" height="11" rx="3.5" fill="#4B4B4B"/>
<path d="M25.0002 28C25.0002 29.1046 24.1048 30 23.0002 30C21.8957 30 21.0002 29.1046 21.0002 28C21.0002 26.8954 21.8957 26 23.0002 26C24.1048 26 25.0002 26.8954 25.0002 28Z" fill="white"/>
<rect x="34.0002" y="22" width="12" height="16" rx="6" fill="white"/>
<rect x="36.0002" y="25" width="7" height="11" rx="3.5" fill="#4B4B4B"/>
<path d="M40.0002 28C40.0002 29.1046 39.1048 30 38.0002 30C36.8957 30 36.0002 29.1046 36.0002 28C36.0002 26.8954 36.8957 26 38.0002 26C39.1048 26 40.0002 26.8954 40.0002 28Z" fill="white"/>
<path d="M32.1241 43C28.9011 43 28.4446 40 28.4446 40H35.8036C35.8036 40 35.347 43 32.1241 43Z" fill="#E69435"/>
<path d="M32.124 37C34.6896 37 35.5644 38.6165 36.0002 39.708C36.2084 40.2293 35.8009 40.7346 35.2183 40.7962L34.2421 40.8993C32.6989 41.0624 31.3015 41.0624 29.7583 40.8993L28.7822 40.7962C28.1995 40.7346 27.7921 40.2293 28.0002 39.708C28.4361 38.6165 29.5585 37 32.124 37Z" fill="#F5C443"/>
<path d="M33.3677 38.8816H31.9315C31.2896 38.8816 30.8265 38.292 31.3218 37.9036C31.6112 37.6766 32.0341 37.5 32.6496 37.5C33.2651 37.5 33.688 37.6766 33.9774 37.9036C34.4727 38.292 34.0096 38.8816 33.3677 38.8816Z" fill="#F9DD4A"/>
<path d="M44.898 10.0951C41.9749 10.3448 34.1048 11 32.0003 11L32.0002 16C32.0002 16 36.8062 15.5959 40.0002 15C41.9323 14.6395 44.1971 12.2001 45.3106 10.8666C45.5866 10.5361 45.3271 10.0585 44.898 10.0951Z" fill="#3CADC6"/>
</g>
<path d="M15.0036 47.6357C15.0013 47.6551 15.0001 47.6746 15.0001 47.6941C15.0001 47.9265 14.922 48.135 14.7926 48.3009L15.1869 48.6084C15.052 48.7814 14.8801 48.9232 14.6847 49.0228L14.4577 48.5773C14.2702 48.6728 14.0507 48.7098 13.8225 48.6657L12.0292 48.3186L11.9342 48.8095L10.7386 48.5781L10.8336 48.0872L7.24699 47.393L7.15198 47.8839L5.95644 47.6525L6.05145 47.1616L4.25814 46.8145C3.39712 46.6479 2.57025 46.8076 1.9005 47.1986L2.1526 47.6304C1.74694 47.8673 1.41244 48.2027 1.1861 48.6034L0.750753 48.3575C0.36154 49.0466 0.242176 49.8913 0.505965 50.7623C0.634048 51.1853 0.776593 51.6296 0.93477 52.0899L1.40763 51.9275C1.5048 52.2103 1.60794 52.4991 1.71732 52.7929L1.24875 52.9674C1.55784 53.7974 1.91646 54.6664 2.33084 55.5465L2.7832 55.3335C2.91235 55.6078 3.04695 55.8831 3.18721 56.1585L2.74166 56.3854C3.15711 57.2012 3.62213 58.0197 4.14175 58.8186L4.5609 58.546C4.72722 58.8018 4.89915 59.0553 5.07687 59.3059L4.66902 59.5951C5.20849 60.3558 5.80154 61.0921 6.4529 61.7831L6.81674 61.4402C7.02642 61.6626 7.24214 61.8801 7.46407 62.0918L7.11892 62.4535C7.46015 62.7791 7.81611 63.092 8.18734 63.3897C8.50613 63.6454 8.82454 63.8884 9.14196 64.1193L9.43614 63.715C9.65078 63.8712 9.86491 64.0217 10.0783 64.1668L9.79723 64.5803C10.4905 65.0517 11.1769 65.467 11.8497 65.8329L12.0885 65.3936C12.3224 65.5208 12.5546 65.6419 12.7847 65.7571L12.5609 66.2042C12.8188 66.3333 13.0743 66.4553 13.327 66.5705L13.2717 67.3341L13.7704 67.3703L13.7166 68.1124L13.2179 68.0763L13.1372 69.1896C13.1028 69.6646 13.1007 70.1356 13.1293 70.6L13.6283 70.5693C13.6468 70.8696 13.6787 71.1668 13.7235 71.4603L13.2293 71.5358C13.3736 72.4804 13.6455 73.3883 14.0298 74.2366L14.4852 74.0303C14.6089 74.3032 14.7447 74.5695 14.8921 74.8285L14.4576 75.0759C14.9257 75.8982 15.5056 76.6504 16.1812 77.3081L16.53 76.9499C16.7439 77.1581 16.9678 77.3562 17.2011 77.5435L16.8882 77.9334C17.6175 78.5186 18.4349 79.0032 19.3243 79.3631L19.5119 78.8996C19.7868 79.0108 20.0689 79.1095 20.3578 79.1949L20.2161 79.6744C20.6627 79.8063 21.1241 79.9079 21.5986 79.9767C22.0625 80.0439 22.5348 80.1102 23.0126 80.1748L23.0796 79.6793C23.391 79.7214 23.7047 79.7627 24.02 79.8031L23.9565 80.299C24.8951 80.4192 25.8484 80.531 26.7962 80.6283L26.8473 80.131C27.163 80.1634 27.478 80.1942 27.7915 80.2232L27.7455 80.721C28.7178 80.8109 29.6779 80.8834 30.6037 80.9319L30.6298 80.4326C30.9505 80.4494 31.2668 80.4633 31.5779 80.474L31.5607 80.9737C32.0539 80.9906 32.535 80.9997 33.0001 80.9997C33.435 80.9997 33.8807 80.9917 34.3346 80.9769L34.3182 80.4771C34.6077 80.4676 34.9008 80.4553 35.1968 80.4402L35.2221 80.9396C36.0878 80.8957 36.9771 80.8294 37.8729 80.7466L37.8269 80.2487C38.1179 80.2218 38.4097 80.1932 38.7018 80.1629L38.7532 80.6603C39.6347 80.569 40.5177 80.4636 41.3861 80.3495L41.3209 79.8538C41.6131 79.8154 41.9036 79.776 42.1919 79.7358L42.261 80.231C42.7037 80.1693 43.1413 80.1058 43.5713 80.0411C44.1429 79.9551 44.6947 79.8209 45.2235 79.6429L45.064 79.1691C45.4071 79.0536 45.7397 78.9189 46.061 78.7662L46.2756 79.2178C47.3156 78.7236 48.2428 78.0518 49.0295 77.2463L48.6718 76.8969C48.9223 76.6404 49.158 76.3695 49.3777 76.0857L49.773 76.3918C50.1189 75.9451 50.4271 75.4685 50.6943 74.9673L50.7008 74.9552L50.2596 74.72L50.2639 74.7119L50.7051 74.9471L50.7116 74.935C50.9961 74.4013 51.2835 73.8622 51.5838 73.3281L51.148 73.083C51.3481 72.7271 51.5541 72.3729 51.768 72.025L52.1939 72.2869C52.8379 71.2396 53.5421 70.2726 54.3651 69.492L54.021 69.1292C54.3195 68.8461 54.6341 68.585 54.9674 68.3509L55.2547 68.7601C55.7127 68.4384 56.2052 68.1738 56.7403 67.9791C57.2988 67.8349 57.8908 67.6367 58.4846 67.41L58.3063 66.9429C58.6762 66.8017 59.0497 66.6481 59.419 66.4881L59.6178 66.9468C60.1904 66.6987 60.752 66.4357 61.2751 66.1793C61.9761 65.8357 62.4886 65.2864 62.7852 64.6454L62.3314 64.4355C62.5045 64.0612 62.5901 63.6505 62.5822 63.2358L63.0821 63.2263C63.0687 62.5246 62.8289 61.8163 62.3487 61.2134C62.058 60.8485 61.7419 60.4555 61.4043 60.041L61.0166 60.3567C60.8124 60.1059 60.6003 59.8473 60.3811 59.5821L60.7664 59.2635C60.1646 58.5356 59.5093 57.7586 58.8176 56.962L58.4401 57.2898C58.2236 57.0405 58.0035 56.7893 57.7804 56.537L58.1549 56.2058C57.4986 55.4637 56.8157 54.7125 56.1194 53.9752L55.7559 54.3184C55.5264 54.0754 55.2955 53.834 55.0637 53.595L55.4227 53.2469C54.7079 52.5098 53.9832 51.794 53.2625 51.1239L52.922 51.4901C52.6742 51.2597 52.427 51.0349 52.1811 50.8167L52.5129 50.4427C52.123 50.0968 51.7352 49.7666 51.3519 49.4561C51.0923 49.2457 50.8193 48.9357 50.5567 48.5836L50.1559 48.8825C49.9778 48.6436 49.8115 48.3964 49.6637 48.1627L50.0863 47.8954C49.9196 47.6319 49.7772 47.3862 49.6694 47.1924C49.972 46.9808 50.2523 46.7601 50.5117 46.5305L50.1803 46.1561C50.4297 45.9354 50.6575 45.7069 50.8653 45.4712L51.2404 45.8019C51.9607 44.9849 52.4556 44.0865 52.7829 43.1299L52.3098 42.9681C52.414 42.6635 52.5003 42.3522 52.571 42.0346L53.0591 42.1432C53.2736 41.1788 53.3482 40.1704 53.3413 39.14L52.8413 39.1434C52.8391 38.824 52.8289 38.5009 52.8122 38.1746L53.3116 38.1491C53.2626 37.1889 53.1593 36.2058 53.0432 35.2184L52.5467 35.2768C52.5098 34.9634 52.4716 34.6485 52.4332 34.3325C52.4324 34.3263 52.4317 34.32 52.4309 34.3138L52.9273 34.2535C52.8108 33.2945 52.6946 32.3355 52.6127 31.3784L52.1146 31.421C52.087 31.0983 52.0632 30.7757 52.0446 30.4535L52.5438 30.4247C52.5162 29.9465 52.5003 29.4712 52.5003 28.9997C52.5003 28.4637 52.4755 27.9275 52.4268 27.3941L51.9289 27.4396C51.8972 27.0936 51.8552 26.7488 51.8029 26.406L52.2972 26.3306C52.1347 25.2644 51.876 24.2168 51.5263 23.2127L51.0541 23.3772C50.9394 23.048 50.8147 22.7237 50.6802 22.4053L51.1407 22.2107C50.9301 21.7122 50.6958 21.2271 50.4385 20.7589C50.2671 20.4471 50.0328 20.0495 49.7302 19.5929L49.3134 19.8692C49.1626 19.6417 48.9942 19.3988 48.8074 19.1442L49.2105 18.8484C48.7428 18.2108 48.1633 17.5016 47.4614 16.7733L47.1014 17.1203C46.9027 16.9142 46.694 16.7066 46.475 16.4986L46.8192 16.136C46.204 15.5519 45.5092 14.9652 44.7295 14.4025L44.4369 14.808C44.2023 14.6387 43.9599 14.4717 43.7094 14.3077L43.9833 13.8894C43.8056 13.7731 43.624 13.6582 43.4384 13.5451C43.636 13.3692 43.8282 13.1895 44.0132 13.0096L43.6647 12.6511C43.9038 12.4187 44.1319 12.1849 44.3453 11.9576L44.7098 12.2998C45.0909 11.8938 45.4256 11.5085 45.6943 11.1868C45.8954 10.9459 45.9609 10.6489 45.9058 10.3743L45.4155 10.4727C45.3971 10.3808 45.3508 10.2956 45.2835 10.2293L45.6343 9.87302C45.4389 9.68057 45.1615 9.57043 44.8554 9.59658C44.4182 9.63393 43.8702 9.68035 43.2474 9.7323L43.2889 10.2306C42.9511 10.2588 42.5912 10.2886 42.2151 10.3194L42.1742 9.8211C41.1788 9.90276 40.0696 9.99182 38.9525 10.0778L38.9909 10.5763C38.6322 10.6039 38.2727 10.6312 37.9159 10.6578L37.8787 10.1592C36.7386 10.2442 35.627 10.3223 34.6583 10.3823L34.6892 10.8813C34.306 10.905 33.945 10.9259 33.6131 10.9433L33.587 10.444C32.9081 10.4795 32.3613 10.4997 32.0003 10.4997C31.4334 10.4997 30.8814 10.5177 30.3438 10.5523L30.3759 11.0512C30.0102 11.0748 29.6515 11.1062 29.2997 11.1449L29.245 10.6479C28.0891 10.7751 27.0051 10.9801 25.9899 11.247L26.117 11.7305C25.7618 11.8239 25.4154 11.925 25.0776 12.033L24.9253 11.5567C23.8128 11.9126 22.7912 12.3424 21.8557 12.8211L22.0835 13.2662C21.7567 13.4335 21.4407 13.6069 21.1353 13.7853L20.8831 13.3535C19.864 13.9488 18.9604 14.598 18.1644 15.2612L18.4845 15.6454C18.2007 15.8818 17.9309 16.1201 17.6747 16.3584L17.3342 15.9923C16.426 16.837 15.6846 17.6813 15.0939 18.4451L15.4894 18.751C15.2525 19.0572 15.0406 19.3501 14.8524 19.6242L14.4402 19.3413C14.0539 19.904 13.7641 20.3911 13.5621 20.7589C13.3047 21.2271 13.0704 21.7122 12.8598 22.2107L13.3203 22.4053C13.1858 22.7237 13.0611 23.048 12.9464 23.3772L12.4742 23.2127C12.1245 24.2168 11.8658 25.2644 11.7033 26.3306L12.1976 26.406C12.1453 26.7488 12.1033 27.0936 12.0717 27.4396L11.5737 27.3941C11.525 27.9275 11.5003 28.4637 11.5003 28.9997C11.5003 29.4868 11.4833 29.978 11.454 30.4721L11.9531 30.5017C11.9334 30.8346 11.9082 31.1679 11.879 31.5012L11.3809 31.4576C11.2988 32.396 11.1848 33.3353 11.0707 34.2746C11.0644 34.3262 11.0581 34.3778 11.0519 34.4294L11.5482 34.4897C11.5078 34.8228 11.4678 35.1546 11.4296 35.4846L10.9329 35.4272C10.8147 36.4507 10.7131 37.4688 10.675 38.461L11.1746 38.4802C11.1616 38.8179 11.1562 39.152 11.1601 39.4819L10.6601 39.4878C10.6728 40.5553 10.781 41.5972 11.0515 42.5884L11.5339 42.4567C11.6221 42.78 11.7283 43.0964 11.8547 43.4051L11.392 43.5946C11.7831 44.5499 12.3574 45.4379 13.1726 46.2362L13.5224 45.8789C13.7536 46.1053 14.0057 46.3243 14.2802 46.5353L13.9755 46.9317C14.2914 47.1745 14.6339 47.4062 15.0047 47.6264L15.0036 47.6357ZM15.5249 47.4835L15.515 47.5677L15.4284 47.5575L15.4729 47.4774L15.5249 47.4835Z" stroke="black" stroke-opacity="0.7" stroke-linejoin="round" stroke-dasharray="3 1"/>
</g>
<defs>
<clipPath id="clip0_835_1555">
<rect width="64" height="64" rx="32" fill="white"/>
</clipPath>
</defs>
</svg>
