<svg width="20" height="20" viewBox="0 0 20 20" fill="none" xmlns="http://www.w3.org/2000/svg">
<path d="M2.5 9.5C2.5 8.94772 2.94772 8.5 3.5 8.5H4.5C5.05228 8.5 5.5 8.94772 5.5 9.5V10.5C5.5 11.0523 5.05228 11.5 4.5 11.5H3.5C2.94772 11.5 2.5 11.0523 2.5 10.5V9.5Z" fill="black"/>
<path d="M2.5 15.5C2.5 14.9477 2.94772 14.5 3.5 14.5H4.5C5.05228 14.5 5.5 14.9477 5.5 15.5V16.5C5.5 17.0523 5.05228 17.5 4.5 17.5H3.5C2.94772 17.5 2.5 17.0523 2.5 16.5V15.5Z" fill="black"/>
<path d="M2.5 3.5C2.5 2.94772 2.94772 2.5 3.5 2.5H4.5C5.05228 2.5 5.5 2.94772 5.5 3.5V4.5C5.5 5.05228 5.05228 5.5 4.5 5.5H3.5C2.94772 5.5 2.5 5.05228 2.5 4.5V3.5Z" fill="black"/>
<path d="M7.5 9.5C7.5 8.94772 7.94772 8.5 8.5 8.5H16.5C17.0523 8.5 17.5 8.94772 17.5 9.5V10.5C17.5 11.0523 17.0523 11.5 16.5 11.5H8.5C7.94772 11.5 7.5 11.0523 7.5 10.5V9.5Z" fill="black"/>
<path d="M7.5 15.5C7.5 14.9477 7.94772 14.5 8.5 14.5H16.5C17.0523 14.5 17.5 14.9477 17.5 15.5V16.5C17.5 17.0523 17.0523 17.5 16.5 17.5H8.5C7.94772 17.5 7.5 17.0523 7.5 16.5V15.5Z" fill="black"/>
<path d="M7.5 3.5C7.5 2.94772 7.94772 2.5 8.5 2.5H16.5C17.0523 2.5 17.5 2.94772 17.5 3.5V4.5C17.5 5.05228 17.0523 5.5 16.5 5.5H8.5C7.94772 5.5 7.5 5.05228 7.5 4.5V3.5Z" fill="black"/>
<path fill-rule="evenodd" clip-rule="evenodd" d="M3.5 8.25H4.5C5.19036 8.25 5.75 8.80964 5.75 9.5V10.5C5.75 11.1904 5.19036 11.75 4.5 11.75H3.5C2.80964 11.75 2.25 11.1904 2.25 10.5V9.5C2.25 8.80964 2.80964 8.25 3.5 8.25ZM3.5 14.25H4.5C5.19036 14.25 5.75 14.8096 5.75 15.5V16.5C5.75 17.1904 5.19036 17.75 4.5 17.75H3.5C2.80964 17.75 2.25 17.1904 2.25 16.5V15.5C2.25 14.8096 2.80964 14.25 3.5 14.25ZM3.5 2.25H4.5C5.19036 2.25 5.75 2.80964 5.75 3.5V4.5C5.75 5.19036 5.19036 5.75 4.5 5.75H3.5C2.80964 5.75 2.25 5.19036 2.25 4.5V3.5C2.25 2.80964 2.80964 2.25 3.5 2.25ZM8.5 8.25H16.5C17.1904 8.25 17.75 8.80964 17.75 9.5V10.5C17.75 11.1904 17.1904 11.75 16.5 11.75H8.5C7.80964 11.75 7.25 11.1904 7.25 10.5V9.5C7.25 8.80964 7.80964 8.25 8.5 8.25ZM8.5 14.25H16.5C17.1904 14.25 17.75 14.8096 17.75 15.5V16.5C17.75 17.1904 17.1904 17.75 16.5 17.75H8.5C7.80964 17.75 7.25 17.1904 7.25 16.5V15.5C7.25 14.8096 7.80964 14.25 8.5 14.25ZM8.5 2.25H16.5C17.1904 2.25 17.75 2.80964 17.75 3.5V4.5C17.75 5.19036 17.1904 5.75 16.5 5.75H8.5C7.80964 5.75 7.25 5.19036 7.25 4.5V3.5C7.25 2.80964 7.80964 2.25 8.5 2.25ZM2.5 3.5C2.5 2.94772 2.94772 2.5 3.5 2.5H4.5C5.05228 2.5 5.5 2.94772 5.5 3.5V4.5C5.5 5.05228 5.05228 5.5 4.5 5.5H3.5C2.94772 5.5 2.5 5.05228 2.5 4.5V3.5ZM3.5 8.5C2.94772 8.5 2.5 8.94772 2.5 9.5V10.5C2.5 11.0523 2.94772 11.5 3.5 11.5H4.5C5.05228 11.5 5.5 11.0523 5.5 10.5V9.5C5.5 8.94772 5.05228 8.5 4.5 8.5H3.5ZM3.5 14.5C2.94772 14.5 2.5 14.9477 2.5 15.5V16.5C2.5 17.0523 2.94772 17.5 3.5 17.5H4.5C5.05228 17.5 5.5 17.0523 5.5 16.5V15.5C5.5 14.9477 5.05228 14.5 4.5 14.5H3.5ZM8.5 8.5C7.94772 8.5 7.5 8.94772 7.5 9.5V10.5C7.5 11.0523 7.94772 11.5 8.5 11.5H16.5C17.0523 11.5 17.5 11.0523 17.5 10.5V9.5C17.5 8.94772 17.0523 8.5 16.5 8.5H8.5ZM7.5 15.5C7.5 14.9477 7.94772 14.5 8.5 14.5H16.5C17.0523 14.5 17.5 14.9477 17.5 15.5V16.5C17.5 17.0523 17.0523 17.5 16.5 17.5H8.5C7.94772 17.5 7.5 17.0523 7.5 16.5V15.5ZM8.5 2.5C7.94772 2.5 7.5 2.94772 7.5 3.5V4.5C7.5 5.05228 7.94772 5.5 8.5 5.5H16.5C17.0523 5.5 17.5 5.05228 17.5 4.5V3.5C17.5 2.94772 17.0523 2.5 16.5 2.5H8.5Z" fill="black"/>
</svg>
