<svg width="20" height="20" viewBox="0 0 20 20" fill="none" xmlns="http://www.w3.org/2000/svg">
<path d="M1 11.5C1 9.84315 2.34315 8.5 4 8.5H16C17.6569 8.5 19 9.84315 19 11.5V16.5C19 18.1569 17.6569 19.5 16 19.5H4C2.34315 19.5 1 18.1569 1 16.5V11.5Z" fill="white"/>
<path fill-rule="evenodd" clip-rule="evenodd" d="M8 3C7.17157 3 6.5 3.67157 6.5 4.5V11.5C6.5 12.3284 5.82843 13 5 13C4.17157 13 3.5 12.3284 3.5 11.5V4.5C3.5 2.01472 5.51472 0 8 0H12C14.4853 0 16.5 2.01472 16.5 4.5V5C16.5 5.82843 15.8284 6.5 15 6.5C14.1716 6.5 13.5 5.82843 13.5 5V4.5C13.5 3.67157 12.8284 3 12 3H8Z" fill="white"/>
</svg>
