<svg width="64" height="64" viewBox="0 0 64 64" fill="none" xmlns="http://www.w3.org/2000/svg">
<g clip-path="url(#clip0_668_1188)">
<circle cx="32" cy="32" r="32" fill="#C9ECF7"/>
<path d="M14.9758 50.7334C15.2818 46.5113 18.4888 43.073 22.6795 42.4744L31.543 41.2081C32.5091 41.0701 33.4903 41.0743 34.4552 41.2205L42.3914 42.4229C46.5486 43.0528 49.7157 46.4772 50.0196 50.6709L51.3751 69.3766C51.7339 74.3284 48.4063 78.8085 43.4967 79.547C40.0944 80.0587 36.2255 80.5 33 80.5C29.6391 80.5 25.388 80.0209 21.6702 79.4822C16.6922 78.7609 13.2723 74.2429 13.6358 69.226L14.9758 50.7334Z" fill="#3CADC6"/>
<path d="M4.16299 47.3057L13.7273 49.1569C14.6465 49.3348 15.5 48.6307 15.5 47.6944C15.5 46.3537 17.1326 45.6954 18.0626 46.6612L26.8836 55.8214C27.8346 56.809 27.9951 58.3157 27.2734 59.4814L22.8034 66.7021C22.2986 67.5176 21.4341 68.0417 20.4779 67.9674C18.1255 67.7846 13.3674 66.9032 8.5 63C4.34521 59.6682 2.10497 54.3182 0.984364 50.6178C0.384447 48.6367 2.13082 46.9124 4.16299 47.3057Z" fill="#3CADC6"/>
<path d="M61.9574 61.5253C59.4197 58.3394 54.9465 53.0123 51.037 49.8449C49.9942 49 49 47 49 47L40.579 55.8252C39.6464 56.8026 39.4821 58.2827 40.1776 59.4409L44.296 66.2982C44.7539 67.0605 45.5236 67.5811 46.4071 67.6819C48.7136 67.9451 53.3964 68.3189 56.5926 67.5012C57.9919 67.1431 59.6576 66.4156 61.0548 65.7307C62.6562 64.9457 63.0686 62.9203 61.9574 61.5253Z" fill="#3CADC6"/>
<path d="M29.0972 62H22.9521C22.2953 62 21.8087 62.6276 22.0736 63.2724C22.5616 64.4608 23.6573 66.0526 26.0246 66.0526C28.392 66.0526 29.4876 64.4608 29.9757 63.2724C30.2405 62.6276 29.7539 62 29.0972 62Z" fill="#44C2DE"/>
<path d="M42.0479 62H35.9028C35.2461 62 34.7595 62.6276 35.0243 63.2724C35.5124 64.4608 36.608 66.0526 38.9754 66.0526C41.3427 66.0526 42.4384 64.4608 42.9264 63.2724C43.1913 62.6276 42.7047 62 42.0479 62Z" fill="#44C2DE"/>
<path d="M35.5726 68.9474H29.4274C28.7707 68.9474 28.2841 69.575 28.5489 70.2198C29.037 71.4082 30.1326 73 32.5 73C34.8674 73 35.963 71.4082 36.451 70.2198C36.7159 69.575 36.2293 68.9474 35.5726 68.9474Z" fill="#44C2DE"/>
<path d="M12.0001 29C12.0001 38.8275 5.24763 49.6312 30.0001 50H34.0001C58.7526 49.6312 52.0001 38.8275 52.0001 29C52.0001 26.188 51.2994 23.3642 50.0001 21C48.7009 18.6358 43.5606 11 32.0001 11C20.4396 11 15.2994 18.6358 14.0001 21C12.7009 23.3642 12.0001 26.188 12.0001 29Z" fill="#3CADC6"/>
<path d="M15 33V28C15 23.5817 18.5817 20 23 20H26.5279C28.043 20 29.2116 21.1833 30.5569 21.8803C30.7024 21.9557 30.8512 22 31 22H33C33.136 22 33.2703 21.9666 33.401 21.9083C34.8125 21.2794 35.985 20 37.5303 20H41C45.4183 20 49 23.5817 49 28V33C49 37.4183 45.4183 41 41 41H39.0249C36.5582 41 34.3032 39.6063 33.2 37.4C33.0774 37.1549 32.8269 37 32.5528 37H32H31.4472C31.1731 37 30.9226 37.1549 30.8 37.4C29.6968 39.6063 27.4418 41 24.9751 41H23C18.5817 41 15 37.4183 15 33Z" fill="#44C2DE"/>
<rect x="18" y="22" width="12" height="16.3828" rx="6" fill="white"/>
<rect x="21" y="25" width="7" height="11" rx="3.5" fill="#4B4B4B"/>
<path d="M25 28C25 29.1046 24.1046 30 23 30C21.8954 30 21 29.1046 21 28C21 26.8954 21.8954 26 23 26C24.1046 26 25 26.8954 25 28Z" fill="white"/>
<rect x="34" y="22" width="12" height="16" rx="6" fill="white"/>
<rect x="36" y="25" width="7" height="11" rx="3.5" fill="#4B4B4B"/>
<path d="M40 28C40 29.1046 39.1046 30 38 30C36.8954 30 36 29.1046 36 28C36 26.8954 36.8954 26 38 26C39.1046 26 40 26.8954 40 28Z" fill="white"/>
<path d="M32.1238 43C28.9008 43 28.4443 40 28.4443 40H35.8033C35.8033 40 35.3468 43 32.1238 43Z" fill="#E69435"/>
<path d="M32.1238 37C34.6894 37 35.5641 38.6165 36 39.708C36.2081 40.2293 35.8007 40.7346 35.218 40.7962L34.2419 40.8993C32.6987 41.0624 31.3013 41.0624 29.7581 40.8993L28.782 40.7962C28.1993 40.7346 27.7918 40.2293 28 39.708C28.4358 38.6165 29.5582 37 32.1238 37Z" fill="#F5C443"/>
<path d="M33.3674 38.8816H31.9313C31.2893 38.8816 30.8263 38.292 31.3216 37.9036C31.611 37.6766 32.0339 37.5 32.6494 37.5C33.2648 37.5 33.6878 37.6766 33.9772 37.9036C34.4725 38.292 34.0094 38.8816 33.3674 38.8816Z" fill="#F9DD4A"/>
<path d="M44.8978 10.0951C41.9747 10.3448 34.1045 11 32.0001 11L32 16C32 16 36.806 15.5959 40 15C41.9321 14.6395 44.1968 12.2001 45.3104 10.8666C45.5864 10.5361 45.3268 10.0585 44.8978 10.0951Z" fill="#3CADC6"/>
</g>
<defs>
<clipPath id="clip0_668_1188">
<rect width="64" height="64" rx="32" fill="white"/>
</clipPath>
</defs>
</svg>
