<svg width="64" height="64" viewBox="0 0 64 64" fill="none" xmlns="http://www.w3.org/2000/svg">
<g clip-path="url(#clip0_835_1561)">
<circle cx="32" cy="32" r="32" fill="#C9ECF7"/>
<path d="M14.9758 50.7334C15.2818 46.5113 18.4888 43.073 22.6795 42.4744L31.543 41.2081C32.5091 41.0701 33.4903 41.0743 34.4552 41.2205L42.3914 42.4229C46.5486 43.0528 49.7157 46.4772 50.0196 50.6709L51.3751 69.3766C51.7339 74.3284 48.4063 78.8085 43.4967 79.547C40.0944 80.0587 36.2255 80.5 33 80.5C29.6391 80.5 25.388 80.0209 21.6702 79.4822C16.6922 78.7609 13.2723 74.2429 13.6358 69.226L14.9758 50.7334Z" fill="#3CADC6"/>
<path d="M4.16299 47.3057L13.7273 49.1569C14.6465 49.3348 15.5 48.6307 15.5 47.6944C15.5 46.3537 17.1326 45.6954 18.0626 46.6612L26.8836 55.8214C27.8346 56.809 27.9951 58.3157 27.2734 59.4814L22.8034 66.7021C22.2986 67.5176 21.4341 68.0417 20.4779 67.9674C18.1255 67.7846 13.3674 66.9032 8.5 63C4.34521 59.6682 2.10497 54.3182 0.984364 50.6178C0.384447 48.6367 2.13082 46.9124 4.16299 47.3057Z" fill="#3CADC6"/>
<path d="M61.9574 61.5253C59.4197 58.3394 54.9465 53.0123 51.037 49.8449C49.9942 49 49 47 49 47L40.579 55.8252C39.6464 56.8026 39.4821 58.2827 40.1776 59.4409L44.296 66.2982C44.7539 67.0605 45.5236 67.5811 46.4071 67.6819C48.7136 67.9451 53.3964 68.3189 56.5926 67.5012C57.9919 67.1431 59.6576 66.4156 61.0548 65.7307C62.6562 64.9457 63.0686 62.9203 61.9574 61.5253Z" fill="#3CADC6"/>
<path d="M29.0972 62H22.9521C22.2953 62 21.8087 62.6276 22.0736 63.2724C22.5616 64.4608 23.6573 66.0526 26.0246 66.0526C28.392 66.0526 29.4876 64.4608 29.9757 63.2724C30.2405 62.6276 29.7539 62 29.0972 62Z" fill="#44C2DE"/>
<path d="M42.0479 62H35.9028C35.2461 62 34.7595 62.6276 35.0243 63.2724C35.5124 64.4608 36.608 66.0526 38.9754 66.0526C41.3427 66.0526 42.4384 64.4608 42.9264 63.2724C43.1913 62.6276 42.7047 62 42.0479 62Z" fill="#44C2DE"/>
<path d="M35.5726 68.9474H29.4274C28.7707 68.9474 28.2841 69.575 28.5489 70.2198C29.037 71.4082 30.1326 73 32.5 73C34.8674 73 35.963 71.4082 36.451 70.2198C36.7159 69.575 36.2293 68.9474 35.5726 68.9474Z" fill="#44C2DE"/>
<path d="M12.0001 29C12.0001 38.8275 5.24763 49.6312 30.0001 50H34.0001C58.7526 49.6312 52.0001 38.8275 52.0001 29C52.0001 26.188 51.2994 23.3642 50.0001 21C48.7009 18.6358 43.5606 11 32.0001 11C20.4396 11 15.2994 18.6358 14.0001 21C12.7009 23.3642 12.0001 26.188 12.0001 29Z" fill="#3CADC6"/>
<path d="M15.0002 33V28C15.0002 23.5817 18.582 20 23.0002 20H26.5281C28.0432 20 29.2119 21.1833 30.5571 21.8803C30.7026 21.9557 30.8514 22 31.0002 22H33.0002C33.1363 22 33.2705 21.9666 33.4013 21.9083C34.8128 21.2794 35.9853 20 37.5306 20H41.0002C45.4185 20 49.0002 23.5817 49.0002 28V33C49.0002 37.4183 45.4185 41 41.0002 41H39.0252C36.5584 41 34.3034 39.6063 33.2002 37.4C33.0777 37.1549 32.8271 37 32.553 37H32.0002H31.4475C31.1734 37 30.9228 37.1549 30.8002 37.4C29.6971 39.6063 27.4421 41 24.9753 41H23.0002C18.582 41 15.0002 37.4183 15.0002 33Z" fill="#44C2DE"/>
<rect x="18.0002" y="22" width="12" height="16.3828" rx="6" fill="white"/>
<rect x="21.0002" y="25" width="7" height="11" rx="3.5" fill="#4B4B4B"/>
<path d="M25.0002 28C25.0002 29.1046 24.1048 30 23.0002 30C21.8957 30 21.0002 29.1046 21.0002 28C21.0002 26.8954 21.8957 26 23.0002 26C24.1048 26 25.0002 26.8954 25.0002 28Z" fill="white"/>
<rect x="34.0002" y="22" width="12" height="16" rx="6" fill="white"/>
<rect x="36.0002" y="25" width="7" height="11" rx="3.5" fill="#4B4B4B"/>
<path d="M40.0002 28C40.0002 29.1046 39.1048 30 38.0002 30C36.8957 30 36.0002 29.1046 36.0002 28C36.0002 26.8954 36.8957 26 38.0002 26C39.1048 26 40.0002 26.8954 40.0002 28Z" fill="white"/>
<path d="M32.1241 43C28.9011 43 28.4446 40 28.4446 40H35.8036C35.8036 40 35.347 43 32.1241 43Z" fill="#E69435"/>
<path d="M32.124 37C34.6896 37 35.5644 38.6165 36.0002 39.708C36.2084 40.2293 35.8009 40.7346 35.2183 40.7962L34.2421 40.8993C32.6989 41.0624 31.3015 41.0624 29.7583 40.8993L28.7822 40.7962C28.1995 40.7346 27.7921 40.2293 28.0002 39.708C28.4361 38.6165 29.5585 37 32.124 37Z" fill="#F5C443"/>
<path d="M33.3677 38.8816H31.9315C31.2896 38.8816 30.8265 38.292 31.3218 37.9036C31.6112 37.6766 32.0341 37.5 32.6496 37.5C33.2651 37.5 33.688 37.6766 33.9774 37.9036C34.4727 38.292 34.0096 38.8816 33.3677 38.8816Z" fill="#F9DD4A"/>
<path d="M44.898 10.0951C41.9749 10.3448 34.1048 11 32.0003 11L32.0002 16C32.0002 16 36.8062 15.5959 40.0002 15C41.9323 14.6395 44.1971 12.2001 45.3106 10.8666C45.5866 10.5361 45.3271 10.0585 44.898 10.0951Z" fill="#3CADC6"/>
</g>
<defs>
<clipPath id="clip0_835_1561">
<rect width="64" height="64" rx="32" fill="white"/>
</clipPath>
</defs>
</svg>
