<svg width="20" height="20" viewBox="0 0 20 20" fill="none" xmlns="http://www.w3.org/2000/svg">
<path d="M6.5 15.0205C7.05228 15.0205 7.5 14.5728 7.5 14.0205C7.5 13.4682 7.05228 13.0205 6.5 13.0205V15.0205ZM3 14.0205V13.0205C2.44772 13.0205 2 13.4682 2 14.0205H3ZM2 17.5205C2 18.0728 2.44772 18.5205 3 18.5205C3.55228 18.5205 4 18.0728 4 17.5205H2ZM18.4257 13.3955C18.6346 12.8842 18.3894 12.3005 17.8782 12.0916C17.3669 11.8827 16.7831 12.1279 16.5743 12.6391L18.4257 13.3955ZM6.22126 17.0939L6.68439 16.2076L6.68439 16.2076L6.22126 17.0939ZM13.5 5.0205C12.9477 5.0205 12.5 5.46822 12.5 6.0205C12.5 6.57278 12.9477 7.0205 13.5 7.0205V5.0205ZM17 6.0205V7.0205C17.5523 7.0205 18 6.57278 18 6.0205H17ZM18 2.5205C18 1.96822 17.5523 1.5205 17 1.5205C16.4477 1.5205 16 1.96822 16 2.5205H18ZM1.57427 6.64547C1.36541 7.15674 1.61055 7.74052 2.12182 7.94938C2.63309 8.15825 3.21687 7.9131 3.42573 7.40183L1.57427 6.64547ZM5.23966 3.55247L5.8239 4.36406L5.8239 4.36406L5.23966 3.55247ZM13.7787 2.94711L14.2419 2.06082L14.2419 2.06082L13.7787 2.94711ZM6.5 13.0205H3V15.0205H6.5V13.0205ZM2 14.0205V17.5205H4V14.0205H2ZM16.5743 12.6391C16.0787 13.8522 15.2484 14.905 14.1761 15.6769L15.3446 17.3001C16.7194 16.3104 17.7875 14.9579 18.4257 13.3955L16.5743 12.6391ZM14.1761 15.6769C13.1037 16.4489 11.8328 16.9086 10.5077 17.0025L10.6491 18.9975C12.343 18.8774 13.9698 18.2897 15.3446 17.3001L14.1761 15.6769ZM10.5077 17.0025C9.18256 17.0964 7.85785 16.8208 6.68439 16.2076L5.75813 17.9802C7.26083 18.7654 8.95528 19.1176 10.6491 18.9975L10.5077 17.0025ZM6.68439 16.2076C5.51562 15.5968 4.53032 14.6493 3.86184 13.5133L2.13816 14.5277C2.99219 15.9789 4.25074 17.1925 5.75813 17.9802L6.68439 16.2076ZM13.5 7.0205H17V5.0205H13.5V7.0205ZM18 6.0205V2.5205H16V6.0205H18ZM3.42573 7.40183C3.92129 6.18877 4.75164 5.13595 5.8239 4.36406L4.65543 2.74089C3.28056 3.73062 2.21255 5.08305 1.57427 6.64547L3.42573 7.40183ZM5.8239 4.36406C6.89626 3.59209 8.16718 3.13242 9.4923 3.03847L9.35087 1.04348C7.65701 1.16356 6.03019 1.75123 4.65543 2.74089L5.8239 4.36406ZM9.4923 3.03847C10.8174 2.94453 12.1421 3.22022 13.3156 3.83341L14.2419 2.06082C12.7392 1.27559 11.0447 0.923399 9.35087 1.04348L9.4923 3.03847ZM13.3156 3.83341C14.4844 4.44414 15.4697 5.39174 16.1382 6.52768L17.8618 5.51332C17.0078 4.06209 15.7493 2.84851 14.2419 2.06082L13.3156 3.83341Z" fill="white"/>
</svg>
