<svg width="24" height="34" viewBox="0 0 24 34" fill="none" xmlns="http://www.w3.org/2000/svg">
<path d="M1.00339 8.80568L10.0034 0.780374C11.1411 -0.23416 12.8589 -0.23416 13.9966 0.780375L22.9966 8.80568C23.635 9.37489 24 10.1895 24 11.0448V22.9552C24 23.8105 23.635 24.6251 22.9966 25.1943L13.9966 33.2196C12.8589 34.2342 11.1411 34.2342 10.0034 33.2196L1.00339 25.1943C0.365047 24.6251 0 23.8105 0 22.9552V11.0448C0 10.1895 0.365047 9.37489 1.00339 8.80568Z" fill="#21BEE0"/>
<path d="M2.99364 9.72487L10.3379 3.23742C10.9835 2.66716 12 3.12551 12 3.98689V13.6349C12 14.3535 11.2647 14.8375 10.6047 14.5535L3.26038 11.3929C2.58665 11.103 2.44393 10.2104 2.99364 9.72487Z" fill="white" fill-opacity="0.3"/>
</svg>
