<svg width="44" height="55" viewBox="0 0 44 55" fill="none" xmlns="http://www.w3.org/2000/svg">
<path d="M31.3422 1.55865C32.1003 0.553126 33.5312 0.353458 34.5382 1.11268L42.5611 7.16129C43.5681 7.92051 43.7699 9.35111 43.0118 10.3566L39.7175 14.7262C38.9594 15.7317 37.5285 15.9314 36.5215 15.1722L28.4986 9.12357C27.4916 8.36435 27.2898 6.93374 28.0479 5.92822L31.3422 1.55865Z" fill="#FF769D"/>
<path d="M32.482 2.32277C32.7094 2.02111 33.1387 1.96121 33.4408 2.18898L40.0049 7.13785C40.307 7.36561 40.3676 7.79479 40.1402 8.09645C39.9127 8.39811 39.4835 8.45801 39.1814 8.23024L32.6172 3.28137C32.3151 3.05361 32.2545 2.62443 32.482 2.32277Z" fill="#FDACC3"/>
<path d="M25.1721 5.94938C25.8544 5.04441 27.1422 4.8647 28.0485 5.548L39.9613 14.5293C40.8676 15.2126 41.0492 16.5001 40.367 17.4051C39.6847 18.3101 38.3969 18.4898 37.4906 17.8065L25.5778 8.82518C24.6715 8.14189 24.4898 6.85434 25.1721 5.94938Z" fill="#CFCFCF"/>
<path d="M25.5184 8.01891L38.282 17.6417L13.5747 50.4135L0.811006 40.7907L25.5184 8.01891Z" fill="#FFD300"/>
<path d="M25.5184 8.01891L31.9002 12.8303L7.19284 45.6021L0.811006 40.7907L25.5184 8.01891Z" fill="#FFE600"/>
<path fill-rule="evenodd" clip-rule="evenodd" d="M4.30167 53.6071L13.5747 50.4135L0.811006 40.7907L0.29257 50.5845L4.30167 53.6071Z" fill="#FFBBA8"/>
<path d="M0.29257 50.5845L0.12682 53.7158C0.0925835 54.3625 0.724581 54.839 1.33694 54.6281L4.30167 53.6071L0.29257 50.5845Z" fill="#6D6D6D"/>
</svg>
