<svg width="98" height="98" viewBox="0 0 98 98" fill="none" xmlns="http://www.w3.org/2000/svg">
<path fill-rule="evenodd" clip-rule="evenodd" d="M46.3986 13.8539C47.087 11.3429 49.307 9.68674 52.1456 9.68674C54.8297 9.68674 57.0056 7.51829 57.0056 4.84337C57.0056 2.16845 54.8297 0 52.1456 0C44.9855 0 38.4432 4.62573 36.8188 12.1312L36.7375 12.5071L35.6472 32.6183C35.5024 35.2893 37.5577 37.5716 40.2379 37.7159C42.9181 37.8602 45.2082 35.8119 45.3531 33.1409L46.3986 13.8539Z" fill="#5A3D1B"/>
<path fill-rule="evenodd" clip-rule="evenodd" d="M40.7548 12.2371C41.7931 7.57667 45.8376 4.62658 50.5255 4.62658C50.9729 4.62658 51.3355 4.26518 51.3355 3.81936C51.3355 3.37354 50.9729 3.01213 50.5255 3.01213C45.1166 3.01213 40.3477 6.4595 39.1577 11.9582L39.1441 12.0208L38.0712 31.812C38.0471 32.2572 38.3896 32.6376 38.8363 32.6616C39.283 32.6857 39.6647 32.3443 39.6888 31.8991L40.7548 12.2371Z" fill="#825827"/>
<path d="M0.182617 37.6186C0.964587 23.4361 13.862 14.455 26.884 17.2413L41.1863 20.3015L53.9234 17.5762C67.5452 14.6616 80.8573 24.6135 80.9937 39.4744C81.031 43.5311 80.906 47.5274 80.5164 51.0495C79.6525 58.8589 77.0254 69.3177 74.6044 77.8542C72.0734 86.7779 63.6975 92.0734 55.0873 90.619L41.1863 88.2708L26.4441 90.7611C18.2167 92.1508 10.1437 87.3806 7.34593 78.9874C4.44881 70.2963 1.22714 59.2868 0.343576 51.0495C-0.0924484 46.9846 -0.0754079 42.2983 0.182617 37.6186Z" fill="#F73636"/>
<path fill-rule="evenodd" clip-rule="evenodd" d="M3.24782 39.5766C4.16496 26.3295 16.9302 16.8765 33.1835 20.9125C34.9198 21.3437 35.9766 23.0959 35.544 24.8263C35.1114 26.5567 33.3531 27.6099 31.6168 27.1787C18.7101 23.9738 10.3135 31.3399 9.71245 40.0211C9.58928 41.8001 8.04227 43.1428 6.25711 43.0201C4.47195 42.8973 3.12464 41.3556 3.24782 39.5766Z" fill="#F96767"/>
<path d="M81.3692 31.4367C82.5934 30.2124 84.5798 30.2139 85.8058 31.44L95.5738 41.208C96.7999 42.4341 96.8014 44.4204 95.5772 45.6447L90.2571 50.9647C89.0329 52.189 87.0465 52.1875 85.8204 50.9614L76.0524 41.1934C74.8264 39.9673 74.8249 37.981 76.0491 36.7567L81.3692 31.4367Z" fill="#FF769D"/>
<path d="M82.7751 32.6948C83.1423 32.3275 83.7382 32.328 84.1061 32.6958L92.0981 40.6878C92.4659 41.0556 92.4663 41.6515 92.0991 42.0188C91.7318 42.3861 91.1359 42.3856 90.768 42.0178L82.776 34.0258C82.4082 33.658 82.4078 33.0621 82.7751 32.6948Z" fill="#FDACC3"/>
<path d="M72.1297 36.2362C73.2315 35.1344 75.0192 35.1357 76.1227 36.2392L90.6267 50.7432C91.7301 51.8466 91.7315 53.6344 90.6297 54.7362C89.5278 55.838 87.7401 55.8367 86.6366 54.7332L72.1326 40.2292C71.0292 39.1257 71.0278 37.338 72.1297 36.2362Z" fill="#CFCFCF"/>
<path d="M72.2058 39.1201L87.7458 54.6601L47.8455 94.5604L32.3055 79.0204L72.2058 39.1201Z" fill="#FFD300"/>
<path d="M72.2058 39.1201L79.9758 46.8901L40.0755 86.7904L32.3055 79.0204L72.2058 39.1201Z" fill="#FFE600"/>
<path fill-rule="evenodd" clip-rule="evenodd" d="M34.6099 97.1371L47.8455 94.5604L32.3055 79.0204L29.7287 92.256L34.6099 97.1371Z" fill="#FFBBA8"/>
<path d="M29.7287 92.256L28.9049 96.4876C28.7347 97.3616 29.5042 98.1311 30.3782 97.961L34.6099 97.1371L29.7287 92.256Z" fill="#6D6D6D"/>
</svg>
