<svg width="32" height="32" viewBox="0 0 32 32" fill="none" xmlns="http://www.w3.org/2000/svg">
<path fill-rule="evenodd" clip-rule="evenodd" d="M10.1107 3.17776C10.2501 2.49294 10.862 2 11.5727 2H23.507C24.6348 2 25.3542 3.18294 24.8201 4.15901L19.7139 13.4894C19.5359 13.8148 19.7757 14.2091 20.1516 14.2091H21.2732C22.4793 14.2091 23.1863 15.5433 22.4946 16.5144L12.6259 30.3682C11.685 31.689 9.57976 30.7652 9.95259 29.1951L11.9771 20.6688C12.0499 20.3625 11.8132 20.0695 11.4932 20.0695H8.49143C7.55059 20.0695 6.84495 19.2236 7.02946 18.317L10.1107 3.17776Z" fill="#FFE608"/>
<path fill-rule="evenodd" clip-rule="evenodd" d="M11.1933 4.14301C11.3373 3.46361 11.9466 2.97673 12.6529 2.97673H15.7276C16.2765 2.97673 16.7215 3.41402 16.7215 3.95345C16.7215 4.49289 16.2765 4.93018 15.7276 4.93018H13.057L11.9794 10.013C11.8674 10.5411 11.341 10.88 10.8036 10.77C10.2662 10.66 9.9213 10.1427 10.0333 9.61461L11.1933 4.14301Z" fill="#FCED6E"/>
</svg>
