<svg width="32" height="32" viewBox="0 0 32 32" fill="none" xmlns="http://www.w3.org/2000/svg">
<path d="M0 3.90625C0 2.30117 1.34315 1 3 1H29C30.6569 1 32 2.30117 32 3.90625V29.0938C32 30.6988 30.6569 32 29 32H3C1.34315 32 0 30.6988 0 29.0938V3.90625Z" fill="white"/>
<path d="M0 4C0 2.34315 1.34315 1 3 1H29C30.6569 1 32 2.34315 32 4V8H0V4Z" fill="#EF5C5C"/>
<path d="M26 1C26 0.447715 26.4477 0 27 0C27.5523 0 28 0.447715 28 1V3C28 3.55228 27.5523 4 27 4C26.4477 4 26 3.55228 26 3V1Z" fill="#A3A3A3"/>
<path d="M4 1C4 0.447715 4.44772 0 5 0C5.55228 0 6 0.447715 6 1V3C6 3.55228 5.55228 4 5 4C4.44772 4 4 3.55228 4 3V1Z" fill="#A3A3A3"/>
<path d="M3 25C3 24.4477 3.44772 24 4 24H7C7.55228 24 8 24.4477 8 25V28C8 28.5523 7.55228 29 7 29H4C3.44772 29 3 28.5523 3 28V25Z" fill="#E3E3E3"/>
<path d="M10 25C10 24.4477 10.4477 24 11 24H14C14.5523 24 15 24.4477 15 25V28C15 28.5523 14.5523 29 14 29H11C10.4477 29 10 28.5523 10 28V25Z" fill="#E3E3E3"/>
<path d="M17 25C17 24.4477 17.4477 24 18 24H21C21.5523 24 22 24.4477 22 25V28C22 28.5523 21.5523 29 21 29H18C17.4477 29 17 28.5523 17 28V25Z" fill="#E3E3E3"/>
<path d="M24 25C24 24.4477 24.4477 24 25 24H28C28.5523 24 29 24.4477 29 25V28C29 28.5523 28.5523 29 28 29H25C24.4477 29 24 28.5523 24 28V25Z" fill="#E3E3E3"/>
<path d="M3 18C3 17.4477 3.44772 17 4 17H7C7.55228 17 8 17.4477 8 18V21C8 21.5523 7.55228 22 7 22H4C3.44772 22 3 21.5523 3 21V18Z" fill="#E3E3E3"/>
<path d="M10 18C10 17.4477 10.4477 17 11 17H14C14.5523 17 15 17.4477 15 18V21C15 21.5523 14.5523 22 14 22H11C10.4477 22 10 21.5523 10 21V18Z" fill="#E3E3E3"/>
<path d="M17 18C17 17.4477 17.4477 17 18 17H21C21.5523 17 22 17.4477 22 18V21C22 21.5523 21.5523 22 21 22H18C17.4477 22 17 21.5523 17 21V18Z" fill="#E3E3E3"/>
<path d="M24 18C24 17.4477 24.4477 17 25 17H28C28.5523 17 29 17.4477 29 18V21C29 21.5523 28.5523 22 28 22H25C24.4477 22 24 21.5523 24 21V18Z" fill="#E3E3E3"/>
<path d="M3 11C3 10.4477 3.44772 10 4 10H7C7.55228 10 8 10.4477 8 11V14C8 14.5523 7.55228 15 7 15H4C3.44772 15 3 14.5523 3 14V11Z" fill="#E3E3E3"/>
<path d="M10 11C10 10.4477 10.4477 10 11 10H14C14.5523 10 15 10.4477 15 11V14C15 14.5523 14.5523 15 14 15H11C10.4477 15 10 14.5523 10 14V11Z" fill="#59CCF1"/>
<path d="M17 11C17 10.4477 17.4477 10 18 10H21C21.5523 10 22 10.4477 22 11V14C22 14.5523 21.5523 15 21 15H18C17.4477 15 17 14.5523 17 14V11Z" fill="#E3E3E3"/>
<path d="M24 11C24 10.4477 24.4477 10 25 10H28C28.5523 10 29 10.4477 29 11V14C29 14.5523 28.5523 15 28 15H25C24.4477 15 24 14.5523 24 14V11Z" fill="#E3E3E3"/>
</svg>
