<svg width="24" height="36" viewBox="0 0 24 36" fill="none" xmlns="http://www.w3.org/2000/svg">
<path d="M1.00339 9.80568L10.0034 1.78037C11.1411 0.76584 12.8589 0.76584 13.9966 1.78037L22.9966 9.80568C23.635 10.3749 24 11.1895 24 12.0448V23.9552C24 24.8105 23.635 25.6251 22.9966 26.1943L13.9966 34.2196C12.8589 35.2342 11.1411 35.2342 10.0034 34.2196L1.00339 26.1943C0.365047 25.6251 0 24.8105 0 23.9552V12.0448C0 11.1895 0.365047 10.3749 1.00339 9.80568Z" fill="#21BEE0"/>
<path d="M2.99364 10.7249L10.3379 4.23742C10.9835 3.66716 12 4.12551 12 4.98689V14.6349C12 15.3535 11.2647 15.8375 10.6047 15.5535L3.26038 12.3929C2.58665 12.103 2.44393 11.2104 2.99364 10.7249Z" fill="white" fill-opacity="0.3"/>
</svg>
