<svg width="110" height="108" viewBox="0 0 110 108" fill="none" xmlns="http://www.w3.org/2000/svg">
<rect x="11" y="90" width="13" height="18" rx="3" fill="#333333"/>
<rect x="87" y="90" width="13" height="18" rx="3" fill="#333333"/>
<path d="M90 93V103.5" stroke="#747474" stroke-width="2" stroke-linecap="round"/>
<path d="M14 93V103.5" stroke="#747474" stroke-width="2" stroke-linecap="round"/>
<rect x="68" y="68" width="12" height="6" rx="3" fill="#E69435"/>
<rect x="54" y="68" width="12" height="6" rx="3" fill="#E69435"/>
<path d="M48.9758 40.7334C49.2818 36.5113 52.4888 33.073 56.6795 32.4744L65.543 31.2081C66.5091 31.0701 67.4903 31.0743 68.4552 31.2205L76.3914 32.4229C80.5486 33.0528 83.7157 36.4772 84.0196 40.6709L85.3751 59.3766C85.7339 64.3284 82.4063 68.8085 77.4967 69.547C74.0944 70.0587 70.2255 70.5 67 70.5C63.6391 70.5 59.388 70.0209 55.6702 69.4822C50.6922 68.7609 47.2723 64.2429 47.6358 59.226L48.9758 40.7334Z" fill="#3CADC6"/>
<path d="M63.0972 52H56.9521C56.2953 52 55.8087 52.6276 56.0736 53.2724C56.5616 54.4608 57.6573 56.0526 60.0246 56.0526C62.392 56.0526 63.4876 54.4608 63.9757 53.2724C64.2405 52.6276 63.7539 52 63.0972 52Z" fill="#44C2DE"/>
<path d="M76.0479 52H69.9028C69.2461 52 68.7595 52.6276 69.0243 53.2724C69.5124 54.4608 70.608 56.0526 72.9754 56.0526C75.3427 56.0526 76.4384 54.4608 76.9264 53.2724C77.1913 52.6276 76.7047 52 76.0479 52Z" fill="#44C2DE"/>
<path d="M69.5726 58.9474H63.4274C62.7707 58.9474 62.2841 59.575 62.5489 60.2198C63.037 61.4082 64.1326 63 66.5 63C68.8674 63 69.963 61.4082 70.451 60.2198C70.7159 59.575 70.2293 58.9474 69.5726 58.9474Z" fill="#44C2DE"/>
<path d="M46.0001 19C46.0001 28.8275 39.2476 39.6312 64.0001 40H68.0001C92.7526 39.6312 86.0001 28.8275 86.0001 19C86.0001 16.188 85.2994 13.3642 84.0001 11C82.7009 8.63576 77.5606 1 66.0001 1C54.4396 1 49.2994 8.63576 48.0001 11C46.7009 13.3642 46.0001 16.188 46.0001 19Z" fill="#3CADC6"/>
<path d="M49 23V18C49 13.5817 52.5817 10 57 10H60.5279C62.043 10 63.2116 11.1833 64.5569 11.8803C64.7024 11.9557 64.8512 12 65 12H67C67.136 12 67.2703 11.9666 67.401 11.9083C68.8125 11.2794 69.985 10 71.5303 10H75C79.4183 10 83 13.5817 83 18V23C83 27.4183 79.4183 31 75 31H73.0249C70.5582 31 68.3032 29.6063 67.2 27.4C67.0774 27.1549 66.8269 27 66.5528 27H66H65.4472C65.1731 27 64.9226 27.1549 64.8 27.4C63.6968 29.6063 61.4418 31 58.9751 31H57C52.5817 31 49 27.4183 49 23Z" fill="#44C2DE"/>
<rect x="52" y="12" width="12" height="16.3828" rx="6" fill="white"/>
<rect x="55" y="15" width="7" height="11" rx="3.5" fill="#4B4B4B"/>
<path d="M59 18C59 19.1046 58.1046 20 57 20C55.8954 20 55 19.1046 55 18C55 16.8954 55.8954 16 57 16C58.1046 16 59 16.8954 59 18Z" fill="white"/>
<rect x="68" y="12" width="12" height="16" rx="6" fill="white"/>
<rect x="70" y="15" width="7" height="11" rx="3.5" fill="#4B4B4B"/>
<path d="M74 18C74 19.1046 73.1046 20 72 20C70.8954 20 70 19.1046 70 18C70 16.8954 70.8954 16 72 16C73.1046 16 74 16.8954 74 18Z" fill="white"/>
<path d="M66.1238 33C62.9008 33 62.4443 30 62.4443 30H69.8033C69.8033 30 69.3468 33 66.1238 33Z" fill="#E69435"/>
<path d="M66.1238 27C68.6894 27 69.5641 28.6165 70 29.708C70.2081 30.2293 69.8007 30.7346 69.218 30.7962L68.2419 30.8993C66.6987 31.0624 65.3013 31.0624 63.7581 30.8993L62.782 30.7962C62.1993 30.7346 61.7918 30.2293 62 29.708C62.4358 28.6165 63.5582 27 66.1238 27Z" fill="#F5C443"/>
<path d="M67.3674 28.8816H65.9313C65.2893 28.8816 64.8263 28.292 65.3216 27.9036C65.611 27.6766 66.0339 27.5 66.6494 27.5C67.2648 27.5 67.6878 27.6766 67.9772 27.9036C68.4725 28.292 68.0094 28.8816 67.3674 28.8816Z" fill="#F9DD4A"/>
<path d="M78.8978 0.0951061C75.9747 0.344818 68.1045 0.999999 66.0001 1L66 6C66 6 70.806 5.59592 74 5C75.9321 4.63953 78.1968 2.20007 79.3104 0.866607C79.5864 0.536101 79.3268 0.0584556 78.8978 0.0951061Z" fill="#3CADC6"/>
<circle cx="65.5" cy="55.5" r="12.5" stroke="black" stroke-width="4"/>
<path d="M47.8856 55.175C57.3062 59.3609 64.0261 53.6121 64.3344 51.616C64.6426 49.6199 61.1345 48.135 51.965 43.2897C48.7949 41.6146 44.815 43.9571 43.7521 47.4138C42.7421 50.6988 44.7471 53.7805 47.8856 55.175Z" fill="#009EC2"/>
<path d="M85.3818 55.2869C75.929 59.441 69.1373 53.6261 68.8161 51.6184C68.4949 49.6107 72.0155 48.1379 81.2121 43.3198C84.3915 41.654 88.4081 44.0304 89.4964 47.5101C90.5308 50.8171 88.5311 53.9029 85.3818 55.2869Z" fill="#009EC2"/>
<path d="M17 50V16.5C17 12.634 20.134 9.5 24 9.5H84.5C88.366 9.5 91.5 12.634 91.5 16.5V50V52C91.5 55.866 88.366 59 84.5 59H24C20.134 59 17 55.866 17 52V50Z" fill="#19A9E6" fill-opacity="0.6" stroke="#F72828" stroke-width="6"/>
<mask id="mask0_599_852" style="mask-type:alpha" maskUnits="userSpaceOnUse" x="20" y="12" width="69" height="44">
<path fill-rule="evenodd" clip-rule="evenodd" d="M20 16.5V52C20 54.2091 21.7909 56 24 56H84.5C86.7091 56 88.5 54.2091 88.5 52V16.5C88.5 14.2909 86.7091 12.5 84.5 12.5H24C21.7909 12.5 20 14.2909 20 16.5Z" fill="#F72828"/>
</mask>
<g mask="url(#mask0_599_852)">
<rect x="71.4619" y="-6" width="18.351" height="64.8815" rx="5" transform="rotate(33.1762 71.4619 -6)" fill="white" fill-opacity="0.4"/>
<rect x="35.5044" y="29.6431" width="6.35673" height="64.8815" rx="3.17836" transform="rotate(33.1762 35.5044 29.6431)" fill="white" fill-opacity="0.4"/>
</g>
<path d="M2.99579 60.909L5.18655 84.909C5.65658 90.0582 9.97453 94 15.1451 94H93.8548C99.0255 94 103.343 90.0583 103.813 84.909L106.004 60.909C106.539 55.0516 101.927 50 96.0456 50H12.9544C7.07261 50 2.46112 55.0516 2.99579 60.909Z" fill="#F72828"/>
<path d="M0 47C0 44.7909 1.79086 43 4 43H9C11.2091 43 13 44.7909 13 47C13 49.2091 11.2091 51 9 51H4C1.79086 51 0 49.2091 0 47Z" fill="#F72828"/>
<path d="M97 48C97 45.7909 98.7909 44 101 44H106C108.209 44 110 45.7909 110 48C110 50.2091 108.209 52 106 52H101C98.7909 52 97 50.2091 97 48Z" fill="#F72828"/>
<path fill-rule="evenodd" clip-rule="evenodd" d="M101 47C100.448 47 100 47.4477 100 48C100 48.5523 99.5523 49 99 49C98.4477 49 98 48.5523 98 48C98 46.3431 99.3431 45 101 45C101.552 45 102 45.4477 102 46C102 46.5523 101.552 47 101 47Z" fill="#F45858"/>
<path fill-rule="evenodd" clip-rule="evenodd" d="M4 46C3.44772 46 3 46.4477 3 47C3 47.5523 2.55228 48 2 48C1.44772 48 1 47.5523 1 47C1 45.3431 2.34315 44 4 44C4.55228 44 5 44.4477 5 45C5 45.5523 4.55228 46 4 46Z" fill="#F45858"/>
<path fill-rule="evenodd" clip-rule="evenodd" d="M7.68375 68.4172L8.20808 73.4172C8.42164 75.4536 10.1386 77 12.1863 77H13.2643C14.8852 77 16.3459 76.0218 16.963 74.523L17.6773 72.7884C18.1986 71.5223 18.0361 70.0774 17.2464 68.9587L14.9414 65.6933C14.1927 64.6326 12.9709 64 11.6699 64C9.29209 64 7.43652 66.0595 7.68375 68.4172Z" fill="#B1DEF8"/>
<path fill-rule="evenodd" clip-rule="evenodd" d="M102.096 68.4171L101.572 73.4171C101.358 75.4536 99.6413 77 97.5936 77H96.5176C94.8966 77 93.4359 76.0217 92.8188 74.5228L92.1047 72.7881C91.5835 71.5221 91.746 70.0774 92.5354 68.9589L94.84 65.6935C95.5888 64.6325 96.8102 64 98.1112 64C100.488 64 102.343 66.0589 102.096 68.4171Z" fill="#B1DEF8"/>
<path fill-rule="evenodd" clip-rule="evenodd" d="M11.6696 66.5C10.7723 66.5 10.0778 67.2779 10.1699 68.1564L10.6942 73.1564C10.723 73.4311 10.5237 73.6771 10.2491 73.7059C9.97446 73.7347 9.72847 73.5354 9.69967 73.2607L9.17534 68.2607C9.02122 66.791 10.1797 65.5 11.6696 65.5C11.9458 65.5 12.1696 65.7239 12.1696 66C12.1696 66.2761 11.9458 66.5 11.6696 66.5Z" fill="#DDF0FB"/>
<path fill-rule="evenodd" clip-rule="evenodd" d="M98.6113 66C98.6113 65.7239 98.3875 65.5 98.1113 65.5C97.297 65.5 96.533 65.8963 96.0657 66.5585L93.7611 69.8238C93.6019 70.0494 93.6557 70.3614 93.8813 70.5206C94.1069 70.6798 94.4189 70.626 94.5781 70.4004L96.8827 67.1351C97.1623 66.7388 97.6214 66.5 98.1113 66.5C98.3875 66.5 98.6113 66.2761 98.6113 66Z" fill="#DDF0FB"/>
<path fill-rule="evenodd" clip-rule="evenodd" d="M12.9543 53C8.83702 53 5.60898 56.5361 5.98325 60.6363L6.55584 66.9091C6.60605 67.4591 6.20088 67.9457 5.65089 67.9959C5.10089 68.0461 4.61433 67.6409 4.56412 67.0909L3.99153 60.8181C3.51032 55.5464 7.66066 51 12.9543 51H33C33.5523 51 34 51.4477 34 52C34 52.5523 33.5523 53 33 53H12.9543Z" fill="#F45858"/>
<path d="M26.8638 71.5448C27.5316 68.8738 29.9315 67 32.6847 67H77.3153C80.0686 67 82.4684 68.8738 83.1362 71.5448L86.1362 83.5448C87.0829 87.3317 84.2188 91 80.3153 91H29.6847C25.7812 91 22.9171 87.3317 23.8638 83.5448L26.8638 71.5448Z" fill="#A0A0A0"/>
<path d="M43 76C43 74.8954 43.8954 74 45 74H65C66.1046 74 67 74.8954 67 76V83C67 84.1046 66.1046 85 65 85H45C43.8954 85 43 84.1046 43 83V76Z" fill="white"/>
<path fill-rule="evenodd" clip-rule="evenodd" d="M49.5 75.5C49.5 75.2239 49.7239 75 50 75H60C60.2761 75 60.5 75.2239 60.5 75.5C60.5 75.7761 60.2761 76 60 76H50C49.7239 76 49.5 75.7761 49.5 75.5Z" fill="#FF1717"/>
<path d="M45 78C45 77.4477 45.4477 77 46 77H49H53H57H61H64C64.5523 77 65 77.4477 65 78V82C65 82.5523 64.5523 83 64 83H61H57H53H49H46C45.4477 83 45 82.5523 45 82V78Z" fill="#383838"/>
<path fill-rule="evenodd" clip-rule="evenodd" d="M46 77.5C45.7239 77.5 45.5 77.7239 45.5 78V82C45.5 82.2761 45.7239 82.5 46 82.5H48.5V77.5H46ZM49.5 77.5V82.5H52.5V77.5H49.5ZM53.5 77.5V82.5H56.5V77.5H53.5ZM57.5 77.5V82.5H60.5V77.5H57.5ZM61.5 77.5V82.5H64C64.2761 82.5 64.5 82.2761 64.5 82V78C64.5 77.7239 64.2761 77.5 64 77.5H61.5ZM44.5 78C44.5 77.1716 45.1716 76.5 46 76.5H64C64.8284 76.5 65.5 77.1716 65.5 78V82C65.5 82.8284 64.8284 83.5 64 83.5H46C45.1716 83.5 44.5 82.8284 44.5 82V78Z" fill="white"/>
</svg>
