<svg width="63" height="81" viewBox="0 0 63 81" fill="none" xmlns="http://www.w3.org/2000/svg">
<rect x="33" y="75" width="12" height="6" rx="3" fill="#E69435"/>
<rect x="19" y="75" width="12" height="6" rx="3" fill="#E69435"/>
<path d="M13.9758 47.7334C14.2818 43.5113 17.4888 40.073 21.6795 39.4744L30.543 38.2081C31.5091 38.0701 32.4903 38.0743 33.4552 38.2205L41.3914 39.4229C45.5486 40.0528 48.7157 43.4772 49.0196 47.6709L50.3751 66.3766C50.7339 71.3284 47.4063 75.8085 42.4967 76.547C39.0944 77.0587 35.2255 77.5 32 77.5C28.6391 77.5 24.388 77.0209 20.6702 76.4822C15.6922 75.7609 12.2723 71.2429 12.6358 66.226L13.9758 47.7334Z" fill="#3CADC6"/>
<path d="M28.0972 59H21.9521C21.2953 59 20.8087 59.6276 21.0736 60.2724C21.5616 61.4608 22.6573 63.0526 25.0246 63.0526C27.392 63.0526 28.4876 61.4608 28.9757 60.2724C29.2405 59.6276 28.7539 59 28.0972 59Z" fill="#44C2DE"/>
<path d="M41.0479 59H34.9028C34.2461 59 33.7595 59.6276 34.0243 60.2724C34.5124 61.4608 35.608 63.0526 37.9754 63.0526C40.3427 63.0526 41.4384 61.4608 41.9264 60.2724C42.1913 59.6276 41.7047 59 41.0479 59Z" fill="#44C2DE"/>
<path d="M34.5726 65.9474H28.4274C27.7707 65.9474 27.2841 66.575 27.5489 67.2198C28.037 68.4082 29.1326 70 31.5 70C33.8674 70 34.963 68.4082 35.451 67.2198C35.7159 66.575 35.2293 65.9474 34.5726 65.9474Z" fill="#44C2DE"/>
<path d="M10.8414 23C10.8414 32.8275 4.08894 43.6312 28.8414 44H32.8414C57.5939 43.6312 50.8414 32.8275 50.8414 23C50.8414 20.188 50.1407 17.3642 48.8414 15C47.5422 12.6358 42.4019 5 30.8414 5C19.2809 5 14.1407 12.6358 12.8414 15C11.5422 17.3642 10.8414 20.188 10.8414 23Z" fill="#3CADC6"/>
<path d="M13.8413 27V22C13.8413 17.5817 17.423 14 21.8413 14H25.3692C26.8843 14 28.0529 15.1833 29.3982 15.8803C29.5437 15.9557 29.6925 16 29.8413 16H31.8413C31.9773 16 32.1116 15.9666 32.2423 15.9083C33.6538 15.2794 34.8264 14 36.3716 14H39.8413C44.2596 14 47.8413 17.5817 47.8413 22V27C47.8413 31.4183 44.2596 35 39.8413 35H37.8662C35.3995 35 33.1445 33.6063 32.0413 31.4C31.9187 31.1549 31.6682 31 31.3941 31H30.8413H30.2885C30.0144 31 29.7639 31.1549 29.6413 31.4C28.5381 33.6063 26.2831 35 23.8164 35H21.8413C17.423 35 13.8413 31.4183 13.8413 27Z" fill="#44C2DE"/>
<rect x="16.8413" y="16" width="12" height="16.3828" rx="6" fill="white"/>
<rect x="19.8413" y="19" width="7" height="11" rx="3.5" fill="#4B4B4B"/>
<path d="M23.8413 22C23.8413 23.1046 22.9459 24 21.8413 24C20.7367 24 19.8413 23.1046 19.8413 22C19.8413 20.8954 20.7367 20 21.8413 20C22.9459 20 23.8413 20.8954 23.8413 22Z" fill="white"/>
<rect x="32.8413" y="16" width="12" height="16" rx="6" fill="white"/>
<rect x="34.8413" y="19" width="7" height="11" rx="3.5" fill="#4B4B4B"/>
<path d="M38.8413 22C38.8413 23.1046 37.9459 24 36.8413 24C35.7367 24 34.8413 23.1046 34.8413 22C34.8413 20.8954 35.7367 20 36.8413 20C37.9459 20 38.8413 20.8954 38.8413 22Z" fill="white"/>
<path d="M30.9651 37C27.7422 37 27.2856 34 27.2856 34H34.6446C34.6446 34 34.1881 37 30.9651 37Z" fill="#E69435"/>
<path d="M30.9651 31C33.5307 31 34.4054 32.6165 34.8413 33.708C35.0494 34.2293 34.642 34.7346 34.0593 34.7962L33.0832 34.8993C31.54 35.0624 30.1426 35.0624 28.5994 34.8993L27.6233 34.7962C27.0406 34.7346 26.6331 34.2293 26.8413 33.708C27.2771 32.6165 28.3995 31 30.9651 31Z" fill="#F5C443"/>
<path d="M32.2087 32.8816H30.7726C30.1307 32.8816 29.6676 32.292 30.1629 31.9036C30.4523 31.6766 30.8752 31.5 31.4907 31.5C32.1062 31.5 32.5291 31.6766 32.8185 31.9036C33.3138 32.292 32.8507 32.8816 32.2087 32.8816Z" fill="#F9DD4A"/>
<path d="M43.7391 4.09511C40.816 4.34482 32.9458 5 30.8414 5L30.8413 10C30.8413 10 35.6473 9.59592 38.8413 9C40.7734 8.63953 43.0381 6.20007 44.1517 4.86661C44.4277 4.5361 44.1681 4.05846 43.7391 4.09511Z" fill="#3CADC6"/>
<path d="M28.0917 54.8879C28.3457 55.5033 28.333 56.5142 28.3016 57.0744C28.2915 57.2547 28.1018 57.3756 27.9713 57.2842C27.5325 56.9769 26.7442 56.3411 26.5427 55.6216C26.3832 55.0516 26.5164 54.1596 26.6161 53.6544C26.6508 53.4785 26.8429 53.3854 26.959 53.4875C27.295 53.7831 27.8655 54.34 28.0917 54.8879Z" fill="#D1BC94"/>
<path d="M23.7128 60.9769C23.9668 61.5923 23.9542 62.6032 23.9228 63.1634C23.9127 63.3437 23.723 63.4646 23.5925 63.3732C23.1536 63.0658 22.3653 62.4301 22.1639 61.7106C22.0043 61.1406 22.1375 60.2486 22.2372 59.7433C22.2719 59.5675 22.4641 59.4744 22.5801 59.5765C22.9161 59.8721 23.4867 60.4289 23.7128 60.9769Z" fill="#D1BC94"/>
<path d="M25.7563 58.1354C26.0103 58.7508 25.9977 59.7617 25.9662 60.3218C25.9561 60.5022 25.7664 60.6231 25.6359 60.5317C25.1971 60.2243 24.4088 59.5886 24.2073 58.869C24.0478 58.2991 24.181 57.407 24.2807 56.9018C24.3154 56.726 24.5075 56.6328 24.6236 56.735C24.9596 57.0306 25.5302 57.5874 25.7563 58.1354Z" fill="#D1BC94"/>
<path fill-rule="evenodd" clip-rule="evenodd" d="M30.7226 53.9491C30.5453 53.3803 30.2652 52.7558 29.8432 52.4523C29.4212 52.1488 28.74 52.0821 28.1444 52.095C27.3894 52.1114 26.6613 52.6163 26.1605 53.3126L19.4746 62.6097L23.0392 66.1743L30.1996 56.2173C30.7004 55.521 30.9473 54.6701 30.7226 53.9491ZM28.0917 54.8879C28.3457 55.5033 28.333 56.5142 28.3016 57.0744C28.2915 57.2547 28.1018 57.3756 27.9713 57.2842C27.5325 56.9769 26.7442 56.3411 26.5427 55.6216C26.3832 55.0516 26.5164 54.1596 26.6161 53.6544C26.6508 53.4785 26.8429 53.3854 26.959 53.4875C27.295 53.7831 27.8655 54.34 28.0917 54.8879ZM23.7128 60.9769C23.9668 61.5923 23.9542 62.6032 23.9228 63.1634C23.9127 63.3437 23.723 63.4646 23.5925 63.3732C23.1536 63.0658 22.3653 62.4301 22.1639 61.7106C22.0043 61.1406 22.1375 60.2486 22.2372 59.7433C22.2719 59.5675 22.4641 59.4744 22.5801 59.5765C22.9161 59.8721 23.4867 60.4289 23.7128 60.9769ZM25.7563 58.1354C26.0103 58.7508 25.9977 59.7617 25.9662 60.3218C25.9561 60.5022 25.7664 60.6231 25.6359 60.5317C25.1971 60.2243 24.4088 59.5886 24.2073 58.869C24.0478 58.2991 24.181 57.407 24.2807 56.9018C24.3154 56.726 24.5075 56.6328 24.6236 56.735C24.9596 57.0306 25.5302 57.5874 25.7563 58.1354Z" fill="#C3A977"/>
<path d="M23 63C23 60.2386 25.2386 58 28 58C30.7614 58 33 60.2386 33 63C33 65.7614 30.7614 68 28 68C25.2386 68 23 65.7614 23 63Z" fill="#FF881A"/>
<path fill-rule="evenodd" clip-rule="evenodd" d="M27.5455 59.3636C26.1124 59.3636 24.8994 60.3114 24.5016 61.6154C24.4283 61.8555 24.1743 61.9908 23.9342 61.9175C23.6941 61.8443 23.5588 61.5902 23.6321 61.3501C24.1433 59.6744 25.7014 58.4545 27.5455 58.4545C27.7965 58.4545 28 58.6581 28 58.9091C28 59.1601 27.7965 59.3636 27.5455 59.3636Z" fill="#FF9738"/>
<path fill-rule="evenodd" clip-rule="evenodd" d="M41.3231 59.0644C41.589 58.8022 41.9849 58.7565 42.3392 58.9611C42.6743 59.1546 43.1014 59.0421 43.2932 58.7099C43.485 58.3777 43.3688 57.9516 43.0338 57.7582C42.14 57.2421 40.9916 57.3451 40.2507 58.1601L40.2136 58.2009L38.6356 60.6198C38.426 60.9411 38.5189 61.3726 38.8432 61.5837C39.1674 61.7948 39.6001 61.7055 39.8097 61.3842L41.3231 59.0644Z" fill="#5A3D1B"/>
<path fill-rule="evenodd" clip-rule="evenodd" d="M40.7345 58.4569C41.1982 57.953 41.9146 57.8781 42.4998 58.216C42.5557 58.2482 42.6268 58.2295 42.6588 58.1741C42.6908 58.1187 42.6714 58.0477 42.6156 58.0155C41.9404 57.6256 41.0979 57.7101 40.5551 58.3071L40.5489 58.314L38.996 60.6944C38.9611 60.7479 38.9765 60.8199 39.0306 60.855C39.0846 60.8902 39.1567 60.8753 39.1917 60.8218L40.7345 58.4569Z" fill="#825827"/>
<path d="M33.85 58.6848C34.9645 56.9799 37.2184 56.7941 38.6442 58.0786L40.2101 59.4895L41.9955 60.069C43.9049 60.6888 44.8531 62.8841 43.8046 64.7394C43.5184 65.2459 43.2163 65.7331 42.9151 66.1424C42.2474 67.05 41.1696 68.1595 40.2553 69.0451C39.2995 69.9709 37.8743 70.0248 36.9038 69.2237L35.3369 67.9302L33.318 67.177C32.1914 66.7566 31.5256 65.5824 31.7782 64.3385C32.0397 63.0503 32.4269 61.451 32.9072 60.3643C33.1442 59.8281 33.4823 59.2474 33.85 58.6848Z" fill="#F73636"/>
<path fill-rule="evenodd" clip-rule="evenodd" d="M34.0923 59.1489C35.1566 57.5699 37.4278 57.316 39.1673 58.9886C39.3532 59.1673 39.3595 59.461 39.1814 59.6447C39.0033 59.8284 38.7083 59.8325 38.5225 59.6538C37.1411 58.3256 35.5648 58.6352 34.8674 59.67C34.7245 59.882 34.4351 59.9373 34.221 59.7934C34.007 59.6495 33.9493 59.3609 34.0923 59.1489Z" fill="#F96767"/>
<path d="M20.6497 67.6022C16.9665 64.7404 16.8265 60.1197 17.0806 57.5791C17.1462 56.9234 17.988 56.7908 18.3408 57.3557C19.6431 59.4412 22.0204 62.9998 23.9226 64.4605C25.4579 65.6395 28.7663 67.5228 30.6306 68.556C31.1765 68.8585 31.1069 69.5837 30.4913 69.7135C28.3707 70.1606 24.3278 70.46 20.6497 67.6022Z" fill="#F1DA0A"/>
<path fill-rule="evenodd" clip-rule="evenodd" d="M18.0277 57.7515C18.1649 57.7668 18.2638 57.8904 18.2486 58.0276V58.0276L18.2485 58.0287L18.248 58.0331L18.2461 58.0513C18.2444 58.0677 18.242 58.0923 18.2391 58.1244C18.2332 58.1888 18.2253 58.2836 18.2172 58.4037C18.2009 58.6441 18.1839 58.9854 18.1811 59.3875C18.1754 60.1943 18.227 61.2347 18.4509 62.1931C18.5892 62.7853 18.8996 63.4494 19.1831 63.9751C19.3238 64.2358 19.4555 64.4582 19.5519 64.6153C19.6001 64.6938 19.6394 64.7558 19.6665 64.798C19.6801 64.8191 19.6906 64.8352 19.6976 64.8459L19.7054 64.8578L19.7073 64.8606L19.4998 65M19.4998 65L19.2917 65.1387L19.2908 65.1372L19.2883 65.1335L19.2793 65.1199C19.2716 65.108 19.2603 65.0906 19.2459 65.0683C19.2171 65.0235 19.176 64.9586 19.1259 64.8769C19.0256 64.7137 18.889 64.483 18.7431 64.2125C18.4535 63.6757 18.1177 62.9648 17.964 62.3069C17.7274 61.294 17.6753 60.2094 17.6811 59.384C17.684 58.97 17.7015 58.6185 17.7183 58.37C17.7267 58.2457 17.735 58.147 17.7412 58.0791C17.7442 58.0451 17.7468 58.0188 17.7487 58.0009L17.7508 57.9802L17.7514 57.9746L17.7516 57.9731C17.7668 57.8359 17.8905 57.7363 18.0277 57.7515" fill="#F6E43E"/>
<path d="M14 62H49L46.3998 78.4679C46.1696 79.926 44.9127 81 43.4365 81H19.5635C18.0873 81 16.8304 79.926 16.6002 78.4679L14 62Z" fill="#F8B155"/>
<mask id="mask0_564_714" style="mask-type:alpha" maskUnits="userSpaceOnUse" x="14" y="60" width="35" height="21">
<path d="M14 62H49L46.3998 78.4679C46.1696 79.926 44.9127 81 43.4365 81H19.5635C18.0873 81 16.8304 79.926 16.6002 78.4679L14 62Z" fill="#F8B155"/>
</mask>
<g mask="url(#mask0_564_714)">
<path d="M41.5 81.5V56M32 56C32 56 32 60.4457 32 63M32 81.9593C32 81.9593 32 80.8905 32 80.5M22.5 81.5V55.5M14.5 67.5L15.5583 68.0292C16.1793 68.3396 16.8532 68.5173 17.5467 68.5485C20.1712 68.6665 27.1673 68.9593 32 68.9593M49.5 67.5L48.4417 68.0292C47.8207 68.3397 47.1468 68.5173 46.4533 68.5485C43.8288 68.6665 36.8328 68.9593 32 68.9593M15.5 74L16.9684 74.3671C17.3217 74.4554 17.6797 74.5048 18.0439 74.514C20.0513 74.5647 27.1771 74.7355 32 74.7355M48.5 74L47.0316 74.3671C46.6783 74.4554 46.3203 74.5048 45.9561 74.514C43.9487 74.5647 36.8229 74.7355 32 74.7355M15.5 80L18.5 80.5C18.5 80.5 26.7279 80.5 32 80.5M11 57L14.1875 60.8958C15.0278 61.9229 16.2412 62.5742 17.5631 62.6911C20.8455 62.9814 27.3596 63.5 32 63.5C36.6404 63.5 43.1545 62.9814 46.4369 62.6911C47.7588 62.5742 48.9722 61.9229 49.8125 60.8958L53 57M48.5 80L45.5 80.5C45.5 80.5 37.2721 80.5 32 80.5M32 74.7355C32 77.0787 32 78.1569 32 80.5M32 80.5C32 73.4865 32 70.0135 32 63M32 68.9593C32 66.632 32 65.3273 32 63" stroke="#E3942D" stroke-width="3" stroke-linecap="square"/>
</g>
<path d="M16 62C16 62 16 50 31.5 50C47 50 47 62 47 62" stroke="#F8B155" stroke-width="4"/>
<path d="M27.7929 71.2929L18.8536 62.3536C18.5386 62.0386 18.7617 61.5 19.2071 61.5H37.7929C38.2383 61.5 38.4614 62.0386 38.1464 62.3536L29.2071 71.2929C28.8166 71.6834 28.1834 71.6834 27.7929 71.2929Z" fill="#FC5353"/>
<mask id="mask1_564_714" style="mask-type:alpha" maskUnits="userSpaceOnUse" x="19" y="61" width="19" height="11">
<path d="M27.7929 71.2929L19.7071 63.2071C19.0771 62.5771 19.5233 61.5 20.4142 61.5H36.5858C37.4767 61.5 37.9229 62.5771 37.2929 63.2071L29.2071 71.2929C28.8166 71.6834 28.1834 71.6834 27.7929 71.2929Z" fill="#F33838"/>
</mask>
<g mask="url(#mask1_564_714)">
<path d="M30.1467 68.3535L28.8538 69.6464C28.6585 69.8417 28.3419 69.8417 28.1467 69.6464L26.8538 68.3535C26.6585 68.1583 26.6585 67.8417 26.8538 67.6464L28.1467 66.3535C28.3419 66.1583 28.6585 66.1583 28.8538 66.3535L30.1467 67.6464C30.3419 67.8417 30.3419 68.1583 30.1467 68.3535Z" fill="white" fill-opacity="0.2"/>
<path d="M27.1467 65.3535L25.8538 66.6464C25.6585 66.8417 25.3419 66.8417 25.1467 66.6464L23.8538 65.3535C23.6585 65.1583 23.6585 64.8417 23.8538 64.6464L25.1467 63.3535C25.3419 63.1583 25.6585 63.1583 25.8538 63.3535L27.1467 64.6464C27.3419 64.8417 27.3419 65.1583 27.1467 65.3535Z" fill="white" fill-opacity="0.2"/>
<path d="M33.1467 65.3535L31.8538 66.6464C31.6585 66.8417 31.3419 66.8417 31.1467 66.6464L29.8538 65.3535C29.6585 65.1583 29.6585 64.8417 29.8538 64.6464L31.1467 63.3535C31.3419 63.1583 31.6585 63.1583 31.8538 63.3535L33.1467 64.6464C33.3419 64.8417 33.3419 65.1583 33.1467 65.3535Z" fill="white" fill-opacity="0.2"/>
<path d="M30.1467 62.3535L28.8538 63.6464C28.6585 63.8417 28.3419 63.8417 28.1467 63.6464L26.8538 62.3535C26.6585 62.1583 26.6585 61.8417 26.8538 61.6464L28.1467 60.3535C28.3419 60.1583 28.6585 60.1583 28.8538 60.3535L30.1467 61.6464C30.3419 61.8417 30.3419 62.1583 30.1467 62.3535Z" fill="white" fill-opacity="0.2"/>
<path d="M24.2894 62.3535L22.9965 63.6464C22.8013 63.8417 22.4847 63.8417 22.2894 63.6464L20.9965 62.3535C20.8013 62.1583 20.8013 61.8417 20.9965 61.6464L22.2894 60.3535C22.4847 60.1583 22.8013 60.1583 22.9965 60.3535L24.2894 61.6464C24.4847 61.8417 24.4847 62.1583 24.2894 62.3535Z" fill="white" fill-opacity="0.2"/>
<path d="M36.1467 62.3535L34.8538 63.6464C34.6586 63.8416 34.342 63.8416 34.1467 63.6464L32.8538 62.3535C32.6586 62.1582 32.6586 61.8416 32.8538 61.6464L34.1467 60.3535C34.342 60.1582 34.6586 60.1582 34.8538 60.3535L36.1467 61.6464C36.342 61.8416 36.342 62.1582 36.1467 62.3535Z" fill="white" fill-opacity="0.2"/>
</g>
<path d="M12.6279 54.0262C23.0639 58.6633 30.508 52.2947 30.8495 50.0835C31.191 47.8723 27.3047 46.2273 17.147 40.8598C13.6352 39.0042 9.22627 41.5992 8.04889 45.4284C6.92995 49.0675 9.15106 52.4813 12.6279 54.0262Z" fill="#009EC2"/>
<path d="M50.835 54.0268C40.399 58.6639 32.9549 52.2953 32.6134 50.0841C32.2719 47.8729 36.1581 46.2279 46.3159 40.8605C49.8277 39.0048 54.2366 41.5998 55.414 45.429C56.5329 49.0681 54.3118 52.4819 50.835 54.0268Z" fill="#009EC2"/>
</svg>
