<svg width="63" height="74" viewBox="0 0 63 74" fill="none" xmlns="http://www.w3.org/2000/svg">
<rect x="33" y="68" width="12" height="6" rx="3" fill="#E69435"/>
<rect x="19" y="68" width="12" height="6" rx="3" fill="#E69435"/>
<path d="M13.9758 40.7334C14.2818 36.5113 17.4888 33.073 21.6795 32.4744L30.543 31.2081C31.5091 31.0701 32.4903 31.0743 33.4552 31.2205L41.3914 32.4229C45.5486 33.0528 48.7157 36.4772 49.0196 40.6709L50.3751 59.3766C50.7339 64.3284 47.4063 68.8085 42.4967 69.547C39.0944 70.0587 35.2255 70.5 32 70.5C28.6391 70.5 24.388 70.0209 20.6702 69.4822C15.6922 68.7609 12.2723 64.2429 12.6358 59.226L13.9758 40.7334Z" fill="#3CADC6"/>
<path d="M59.337 37.3057L49.7727 39.1569C48.8535 39.3348 48 38.6307 48 37.6944C48 36.3537 46.3674 35.6954 45.4374 36.6612L36.6164 45.8214C35.6654 46.809 35.5049 48.3157 36.2266 49.4814L40.6966 56.7021C41.2014 57.5176 42.0659 58.0417 43.0221 57.9674C45.3745 57.7846 50.1326 56.9032 55 53C59.1548 49.6682 61.395 44.3182 62.5156 40.6178C63.1156 38.6367 61.3692 36.9124 59.337 37.3057Z" fill="#3CADC6"/>
<path d="M2.04258 51.5253C4.58025 48.3394 9.05347 43.0123 12.963 39.8449C14.0058 39 15 37 15 37L23.421 45.8252C24.3536 46.8026 24.5179 48.2827 23.8224 49.4409L19.704 56.2982C19.2461 57.0605 18.4764 57.5811 17.5929 57.6819C15.2864 57.9451 10.6036 58.3189 7.40741 57.5012C6.00815 57.1431 4.34236 56.4156 2.94516 55.7307C1.34376 54.9457 0.931405 52.9203 2.04258 51.5253Z" fill="#3CADC6"/>
<path d="M28.0972 52H21.9521C21.2953 52 20.8087 52.6276 21.0736 53.2724C21.5616 54.4608 22.6573 56.0526 25.0246 56.0526C27.392 56.0526 28.4876 54.4608 28.9757 53.2724C29.2405 52.6276 28.7539 52 28.0972 52Z" fill="#44C2DE"/>
<path d="M41.0479 52H34.9028C34.2461 52 33.7595 52.6276 34.0243 53.2724C34.5124 54.4608 35.608 56.0526 37.9754 56.0526C40.3427 56.0526 41.4384 54.4608 41.9264 53.2724C42.1913 52.6276 41.7047 52 41.0479 52Z" fill="#44C2DE"/>
<path d="M34.5726 58.9474H28.4274C27.7707 58.9474 27.2841 59.575 27.5489 60.2198C28.037 61.4082 29.1326 63 31.5 63C33.8674 63 34.963 61.4082 35.451 60.2198C35.7159 59.575 35.2293 58.9474 34.5726 58.9474Z" fill="#44C2DE"/>
<path d="M11.0001 19C11.0001 28.8275 4.24763 39.6312 29.0001 40H33.0001C57.7526 39.6312 51.0001 28.8275 51.0001 19C51.0001 16.188 50.2994 13.3642 49.0001 11C47.7009 8.63576 42.5606 1 31.0001 1C19.4396 1 14.2994 8.63576 13.0001 11C11.7009 13.3642 11.0001 16.188 11.0001 19Z" fill="#3CADC6"/>
<path d="M14 23V18C14 13.5817 17.5817 10 22 10H25.5279C27.043 10 28.2116 11.1833 29.5569 11.8803C29.7024 11.9557 29.8512 12 30 12H32C32.136 12 32.2703 11.9666 32.401 11.9083C33.8125 11.2794 34.985 10 36.5303 10H40C44.4183 10 48 13.5817 48 18V23C48 27.4183 44.4183 31 40 31H38.0249C35.5582 31 33.3032 29.6063 32.2 27.4C32.0774 27.1549 31.8269 27 31.5528 27H31H30.4472C30.1731 27 29.9226 27.1549 29.8 27.4C28.6968 29.6063 26.4418 31 23.9751 31H22C17.5817 31 14 27.4183 14 23Z" fill="#44C2DE"/>
<rect x="17" y="12" width="12" height="16.3828" rx="6" fill="white"/>
<rect x="20" y="15" width="7" height="11" rx="3.5" fill="#4B4B4B"/>
<path d="M24 18C24 19.1046 23.1046 20 22 20C20.8954 20 20 19.1046 20 18C20 16.8954 20.8954 16 22 16C23.1046 16 24 16.8954 24 18Z" fill="white"/>
<rect x="33" y="12" width="12" height="16" rx="6" fill="white"/>
<rect x="35" y="15" width="7" height="11" rx="3.5" fill="#4B4B4B"/>
<path d="M39 18C39 19.1046 38.1046 20 37 20C35.8954 20 35 19.1046 35 18C35 16.8954 35.8954 16 37 16C38.1046 16 39 16.8954 39 18Z" fill="white"/>
<path d="M31.1238 33C27.9008 33 27.4443 30 27.4443 30H34.8033C34.8033 30 34.3468 33 31.1238 33Z" fill="#E69435"/>
<path d="M31.1238 27C33.6894 27 34.5641 28.6165 35 29.708C35.2081 30.2293 34.8007 30.7346 34.218 30.7962L33.2419 30.8993C31.6987 31.0624 30.3013 31.0624 28.7581 30.8993L27.782 30.7962C27.1993 30.7346 26.7918 30.2293 27 29.708C27.4358 28.6165 28.5582 27 31.1238 27Z" fill="#F5C443"/>
<path d="M32.3674 28.8816H30.9313C30.2893 28.8816 29.8263 28.292 30.3216 27.9036C30.611 27.6766 31.0339 27.5 31.6494 27.5C32.2648 27.5 32.6878 27.6766 32.9772 27.9036C33.4725 28.292 33.0094 28.8816 32.3674 28.8816Z" fill="#F9DD4A"/>
<path d="M43.8978 0.0951061C40.9747 0.344818 33.1045 0.999999 31.0001 1L31 6C31 6 35.806 5.59592 39 5C40.9321 4.63953 43.1968 2.20007 44.3104 0.866607C44.5864 0.536101 44.3268 0.0584556 43.8978 0.0951061Z" fill="#3CADC6"/>
</svg>
