<svg width="63" height="78" viewBox="0 0 63 78" fill="none" xmlns="http://www.w3.org/2000/svg">
<path d="M45.111 74.1436C44.5583 72.3308 45.9147 70.4996 47.8098 70.4998L48.9326 70.4999C49.6296 70.5 50.3121 70.3007 50.8995 69.9254L52.3747 68.983C53.9338 67.9869 56.013 68.7534 56.5525 70.5231C56.9443 71.8084 56.366 73.1907 55.1755 73.8139L52.0354 75.458C51.3534 75.815 50.6015 76.0182 49.8325 76.0531L47.9376 76.1392C46.6502 76.1977 45.4868 75.3764 45.111 74.1436Z" fill="#E69435"/>
<rect x="17.0259" y="70" width="12" height="6" rx="3" transform="rotate(9.8447 17.0259 70)" fill="#E69435"/>
<path d="M13.9758 40.7334C14.2818 36.5113 17.4888 33.073 21.6795 32.4744L30.543 31.2081C31.5091 31.0701 32.4903 31.0743 33.4552 31.2205L41.3914 32.4229C45.5486 33.0528 48.7157 36.4772 49.0196 40.6709L50.3751 59.3766C50.7339 64.3284 47.4063 68.8085 42.4967 69.547C39.0944 70.0587 35.2255 70.5 32 70.5C28.6391 70.5 24.388 70.0209 20.6702 69.4822C15.6922 68.7609 12.2723 64.2429 12.6358 59.226L13.9758 40.7334Z" fill="#3CADC6"/>
<path d="M6.16299 37.3057L15.7273 39.1569C16.6465 39.3348 17.5 38.6307 17.5 37.6944C17.5 36.3537 19.1326 35.6954 20.0626 36.6612L28.8836 45.8214C29.8346 46.809 29.9951 48.3157 29.2734 49.4814L24.8034 56.7021C24.2986 57.5176 23.4341 58.0417 22.4779 57.9674C20.1255 57.7846 15.3674 56.9032 10.5 53C6.34521 49.6682 4.10497 44.3182 2.98436 40.6178C2.38445 38.6367 4.13082 36.9124 6.16299 37.3057Z" fill="#3CADC6"/>
<path d="M61.3077 51.9669C58.8486 48.8535 54.1334 43.1637 50.037 39.8449C48.9942 39 48 37 48 37L39.579 45.8252C38.6464 46.8026 38.4821 48.2827 39.1776 49.4409L43.2723 56.2587C43.7437 57.0436 44.5466 57.5707 45.4577 57.6618C48.0925 57.925 53.7214 58.34 57 57.5012C58.359 57.1534 59.6926 56.4572 60.7561 55.79C62.0831 54.9573 62.2787 53.1963 61.3077 51.9669Z" fill="#3CADC6"/>
<path d="M37.4074 51H32.7254C32.225 51 31.8543 51.6276 32.056 52.2724C32.4279 53.4608 33.2627 55.0526 35.0664 55.0526C36.8701 55.0526 37.7048 53.4608 38.0767 52.2724C38.2785 51.6276 37.9078 51 37.4074 51Z" fill="#44C2DE"/>
<path d="M47.2746 51H42.5926C42.0922 51 41.7215 51.6276 41.9233 52.2724C42.2952 53.4608 43.1299 55.0526 44.9336 55.0526C46.7373 55.0526 47.5721 53.4608 47.944 52.2724C48.1457 51.6276 47.775 51 47.2746 51Z" fill="#44C2DE"/>
<path d="M42.341 57.9474H37.659C37.1586 57.9474 36.7879 58.575 36.9897 59.2198C37.3615 60.4082 38.1963 62 40 62C41.8037 62 42.6385 60.4082 43.0103 59.2198C43.2121 58.575 42.8414 57.9474 42.341 57.9474Z" fill="#44C2DE"/>
<path d="M11.0001 19C11.0001 28.8275 4.24763 39.6312 29.0001 40H33.0001C57.7526 39.6312 51.0001 28.8275 51.0001 19C51.0001 16.188 50.2994 13.3642 49.0001 11C47.7009 8.63576 42.5606 1 31.0001 1C19.4396 1 14.2994 8.63576 13.0001 11C11.7009 13.3642 11.0001 16.188 11.0001 19Z" fill="#3CADC6"/>
<mask id="mask0_427_940" style="mask-type:alpha" maskUnits="userSpaceOnUse" x="10" y="1" width="42" height="39">
<path d="M11.0001 19C11.0001 28.8275 4.24763 39.6312 29.0001 40H33.0001C57.7526 39.6312 51.0001 28.8275 51.0001 19C51.0001 16.188 50.2994 13.3642 49.0001 11C47.7009 8.63576 42.5606 1 31.0001 1C19.4396 1 14.2994 8.63576 13.0001 11C11.7009 13.3642 11.0001 16.188 11.0001 19Z" fill="#3CADC6"/>
</mask>
<g mask="url(#mask0_427_940)">
<path d="M19 23V18C19 13.5817 22.5817 10 27 10H30.5279C32.043 10 33.2116 11.1833 34.5569 11.8803C34.7024 11.9557 34.8512 12 35 12H37C37.136 12 37.2703 11.9666 37.401 11.9083C38.8125 11.2794 39.985 10 41.5303 10H45C49.4183 10 53 13.5817 53 18V23C53 27.4183 49.4183 31 45 31H43.0249C40.5582 31 38.3032 29.6063 37.2 27.4C37.0774 27.1549 36.8269 27 36.5528 27H36H35.4472C35.1731 27 34.9226 27.1549 34.8 27.4C33.6968 29.6063 31.4418 31 28.9751 31H27C22.5817 31 19 27.4183 19 23Z" fill="#44C2DE"/>
<rect x="22" y="12" width="12" height="16.3828" rx="6" fill="white"/>
<rect x="25" y="15" width="7" height="11" rx="3.5" fill="#4B4B4B"/>
<path d="M27 17.5C27 18.3284 26.3284 19 25.5 19C24.6716 19 24 18.3284 24 17.5C24 16.6716 24.6716 16 25.5 16C26.3284 16 27 16.6716 27 17.5Z" fill="white"/>
<rect x="38" y="12" width="12" height="16" rx="6" fill="white"/>
<rect x="40" y="15" width="7" height="11" rx="3.5" fill="#4B4B4B"/>
<path d="M42 17.5C42 18.3284 41.3284 19 40.5 19C39.6716 19 39 18.3284 39 17.5C39 16.6716 39.6716 16 40.5 16C41.3284 16 42 16.6716 42 17.5Z" fill="white"/>
<path d="M37.179 33C33.956 33 33.4995 30 33.4995 30H40.8585C40.8585 30 40.402 33 37.179 33Z" fill="#E69435"/>
<path d="M37.1789 27C39.7445 27 40.6193 28.6165 41.0551 29.708C41.2633 30.2293 40.8558 30.7346 40.2731 30.7962C39.8861 30.8648 39.5026 30.9608 39.1377 31.107C38.159 31.499 38.6023 31.4962 37.9999 31.5C37.2234 31.5048 35.6281 30.9855 34.8132 30.8993L33.8371 30.7962C33.2544 30.7346 32.847 30.2293 33.0551 29.708C33.491 28.6165 34.6133 27 37.1789 27Z" fill="#F5C443"/>
<path d="M38.4226 28.8816H36.9864C36.3445 28.8816 35.8814 28.292 36.3767 27.9036C36.6661 27.6766 37.089 27.5 37.7045 27.5C38.32 27.5 38.7429 27.6766 39.0323 27.9036C39.5276 28.292 39.0645 28.8816 38.4226 28.8816Z" fill="#F9DD4A"/>
</g>
<path d="M47.7264 0.0855814C44.089 0.327684 33.7412 0.999999 31.0003 1L31.0002 6C31.0002 6 37.1793 5.59592 41.286 5C43.7526 4.64206 46.6411 2.23414 48.0833 0.894787C48.4171 0.584761 48.1809 0.0553247 47.7264 0.0855814Z" fill="#3CADC6"/>
</svg>
