<svg width="64" height="74" viewBox="0 0 64 74" fill="none" xmlns="http://www.w3.org/2000/svg">
<rect x="34" y="68" width="12" height="6" rx="3" fill="#E69435"/>
<rect x="20" y="68" width="12" height="6" rx="3" fill="#E69435"/>
<path d="M14.9758 40.7334C15.2818 36.5113 18.4888 33.073 22.6795 32.4744L31.543 31.2081C32.5091 31.0701 33.4903 31.0743 34.4552 31.2205L42.3914 32.4229C46.5486 33.0528 49.7157 36.4772 50.0196 40.6709L51.3751 59.3766C51.7339 64.3284 48.4063 68.8085 43.4967 69.547C40.0944 70.0587 36.2255 70.5 33 70.5C29.6391 70.5 25.388 70.0209 21.6702 69.4822C16.6922 68.7609 13.2723 64.2429 13.6358 59.226L14.9758 40.7334Z" fill="#3CADC6"/>
<path d="M4.16299 37.3057L13.7273 39.1569C14.6465 39.3348 15.5 38.6307 15.5 37.6944C15.5 36.3537 17.1326 35.6954 18.0626 36.6612L26.8836 45.8214C27.8346 46.809 27.9951 48.3157 27.2734 49.4814L22.8034 56.7021C22.2986 57.5176 21.4341 58.0417 20.4779 57.9674C18.1255 57.7846 13.3674 56.9032 8.5 53C4.34521 49.6682 2.10497 44.3182 0.984364 40.6178C0.384447 38.6367 2.13082 36.9124 4.16299 37.3057Z" fill="#3CADC6"/>
<path d="M61.9574 51.5253C59.4197 48.3394 54.9465 43.0123 51.037 39.8449C49.9942 39 49 37 49 37L40.579 45.8252C39.6464 46.8026 39.4821 48.2827 40.1776 49.4409L44.296 56.2982C44.7539 57.0605 45.5236 57.5811 46.4071 57.6819C48.7136 57.9451 53.3964 58.3189 56.5926 57.5012C57.9919 57.1431 59.6576 56.4156 61.0548 55.7307C62.6562 54.9457 63.0686 52.9203 61.9574 51.5253Z" fill="#3CADC6"/>
<path d="M29.0972 52H22.9521C22.2953 52 21.8087 52.6276 22.0736 53.2724C22.5616 54.4608 23.6573 56.0526 26.0246 56.0526C28.392 56.0526 29.4876 54.4608 29.9757 53.2724C30.2405 52.6276 29.7539 52 29.0972 52Z" fill="#44C2DE"/>
<path d="M42.0479 52H35.9028C35.2461 52 34.7595 52.6276 35.0243 53.2724C35.5124 54.4608 36.608 56.0526 38.9754 56.0526C41.3427 56.0526 42.4384 54.4608 42.9264 53.2724C43.1913 52.6276 42.7047 52 42.0479 52Z" fill="#44C2DE"/>
<path d="M35.5726 58.9474H29.4274C28.7707 58.9474 28.2841 59.575 28.549 60.2198C29.037 61.4082 30.1326 63 32.5 63C34.8674 63 35.963 61.4082 36.451 60.2198C36.7159 59.575 36.2293 58.9474 35.5726 58.9474Z" fill="#44C2DE"/>
<path d="M12.0001 19C12.0001 28.8275 5.24763 39.6312 30.0001 40H34.0001C58.7526 39.6312 52.0001 28.8275 52.0001 19C52.0001 16.188 51.2994 13.3642 50.0001 11C48.7009 8.63576 43.5606 1 32.0001 1C20.4396 1 15.2994 8.63576 14.0001 11C12.7009 13.3642 12.0001 16.188 12.0001 19Z" fill="#3CADC6"/>
<path d="M15.0002 23V18C15.0002 13.5817 18.582 10 23.0002 10H26.5281C28.0432 10 29.2119 11.1833 30.5571 11.8803C30.7026 11.9557 30.8514 12 31.0002 12H33.0002C33.1363 12 33.2705 11.9666 33.4013 11.9083C34.8128 11.2794 35.9853 10 37.5306 10H41.0002C45.4185 10 49.0002 13.5817 49.0002 18V23C49.0002 27.4183 45.4185 31 41.0002 31H39.0252C36.5584 31 34.3034 29.6063 33.2002 27.4C33.0777 27.1549 32.8271 27 32.553 27H32.0002H31.4475C31.1734 27 30.9228 27.1549 30.8002 27.4C29.6971 29.6063 27.4421 31 24.9753 31H23.0002C18.582 31 15.0002 27.4183 15.0002 23Z" fill="#44C2DE"/>
<rect x="18.0002" y="12" width="12" height="16.3828" rx="6" fill="white"/>
<rect x="21.0002" y="15" width="7" height="11" rx="3.5" fill="#4B4B4B"/>
<path d="M25.0002 18C25.0002 19.1046 24.1048 20 23.0002 20C21.8957 20 21.0002 19.1046 21.0002 18C21.0002 16.8954 21.8957 16 23.0002 16C24.1048 16 25.0002 16.8954 25.0002 18Z" fill="white"/>
<rect x="34.0002" y="12" width="12" height="16" rx="6" fill="white"/>
<rect x="36.0002" y="15" width="7" height="11" rx="3.5" fill="#4B4B4B"/>
<path d="M40.0002 18C40.0002 19.1046 39.1048 20 38.0002 20C36.8957 20 36.0002 19.1046 36.0002 18C36.0002 16.8954 36.8957 16 38.0002 16C39.1048 16 40.0002 16.8954 40.0002 18Z" fill="white"/>
<path d="M32.1241 33C28.9011 33 28.4446 30 28.4446 30H35.8036C35.8036 30 35.347 33 32.1241 33Z" fill="#E69435"/>
<path d="M32.124 27C34.6896 27 35.5644 28.6165 36.0002 29.708C36.2084 30.2293 35.8009 30.7346 35.2183 30.7962L34.2421 30.8993C32.6989 31.0624 31.3015 31.0624 29.7583 30.8993L28.7822 30.7962C28.1995 30.7346 27.7921 30.2293 28.0002 29.708C28.4361 28.6165 29.5585 27 32.124 27Z" fill="#F5C443"/>
<path d="M33.3677 28.8816H31.9315C31.2896 28.8816 30.8265 28.292 31.3218 27.9036C31.6112 27.6766 32.0341 27.5 32.6496 27.5C33.2651 27.5 33.688 27.6766 33.9774 27.9036C34.4727 28.292 34.0096 28.8816 33.3677 28.8816Z" fill="#F9DD4A"/>
<path d="M44.898 0.0951061C41.9749 0.344818 34.1048 0.999999 32.0003 1L32.0002 6C32.0002 6 36.8062 5.59592 40.0002 5C41.9323 4.63953 44.1971 2.20007 45.3106 0.866607C45.5866 0.536101 45.3271 0.0584556 44.898 0.0951061Z" fill="#3CADC6"/>
</svg>
