<svg width="63" height="74" viewBox="0 0 63 74" fill="none" xmlns="http://www.w3.org/2000/svg">
<rect x="33" y="68" width="12" height="6" rx="3" fill="#E69435"/>
<rect x="19" y="68" width="12" height="6" rx="3" fill="#E69435"/>
<path d="M13.9758 40.7334C14.2818 36.5113 17.4888 33.073 21.6795 32.4744L30.543 31.2081C31.5091 31.0701 32.4903 31.0743 33.4552 31.2205L41.3914 32.4229C45.5486 33.0528 48.7157 36.4772 49.0196 40.6709L50.3751 59.3766C50.7339 64.3284 47.4063 68.8085 42.4967 69.547C39.0944 70.0587 35.2255 70.5 32 70.5C28.6391 70.5 24.388 70.0209 20.6702 69.4822C15.6922 68.7609 12.2723 64.2429 12.6358 59.226L13.9758 40.7334Z" fill="#3CADC6"/>
<path d="M28.0972 52H21.9521C21.2953 52 20.8087 52.6276 21.0736 53.2724C21.5616 54.4608 22.6573 56.0526 25.0246 56.0526C27.392 56.0526 28.4876 54.4608 28.9757 53.2724C29.2405 52.6276 28.7539 52 28.0972 52Z" fill="#44C2DE"/>
<path d="M41.0479 52H34.9028C34.2461 52 33.7595 52.6276 34.0243 53.2724C34.5124 54.4608 35.608 56.0526 37.9754 56.0526C40.3427 56.0526 41.4384 54.4608 41.9264 53.2724C42.1913 52.6276 41.7047 52 41.0479 52Z" fill="#44C2DE"/>
<path d="M34.5726 58.9474H28.4274C27.7707 58.9474 27.2841 59.575 27.5489 60.2198C28.037 61.4082 29.1326 63 31.5 63C33.8674 63 34.963 61.4082 35.451 60.2198C35.7159 59.575 35.2293 58.9474 34.5726 58.9474Z" fill="#44C2DE"/>
<path d="M10.8478 20.6154C10.8478 29.687 4.04397 39.6596 28.9848 40H33.0152C57.956 39.6596 51.1522 29.687 51.1522 20.6154C51.1522 18.0197 50.4461 15.4131 49.1369 13.2308C47.8278 11.0484 42.6485 4 31 4C19.3515 4 14.1722 11.0484 12.863 13.2308C11.5539 15.4131 10.8478 18.0197 10.8478 20.6154Z" fill="#3CADC6"/>
<path d="M14 27.2609V25C14 20.5817 17.5817 17 22 17H25.6859C27.1175 17 28.2657 18.0828 29.5818 18.646C29.7194 18.7049 29.8597 18.7391 30 18.7391H32C32.1255 18.7391 32.2495 18.7144 32.3707 18.6707C33.7481 18.1747 34.911 17 36.375 17H40C44.4183 17 48 20.5817 48 25V27.2609C48 31.6792 44.4183 35.2609 40 35.2609H37.611C35.3771 35.2609 33.3135 34.067 32.2 32.1304C32.0763 31.9153 31.847 31.7826 31.5988 31.7826H31H30.4012C30.153 31.7826 29.9237 31.9153 29.8 32.1304C28.6865 34.067 26.6229 35.2609 24.389 35.2609H22C17.5817 35.2609 14 31.6792 14 27.2609Z" fill="#44C2DE"/>
<rect x="17" y="18.7391" width="12" height="14.2459" rx="6" fill="white"/>
<rect x="20" y="23" width="7" height="8" rx="3.5" fill="#4B4B4B"/>
<path d="M24 25C24 26.1046 23.1046 27 22 27C20.8954 27 20 26.1046 20 25C20 23.8954 20.8954 23 22 23C23.1046 23 24 23.8954 24 25Z" fill="white"/>
<rect x="33" y="18.7391" width="12" height="13.9131" rx="6" fill="white"/>
<rect x="35" y="23" width="7" height="8" rx="3.5" fill="#4B4B4B"/>
<path d="M39 25C39 26.1046 38.1046 27 37 27C35.8954 27 35 26.1046 35 25C35 23.8954 35.8954 23 37 23C38.1046 23 39 23.8954 39 25Z" fill="white"/>
<path d="M31.1238 36.9999C27.9008 36.9999 27.4443 34.3912 27.4443 34.3912H34.8033C34.8033 34.3912 34.3468 36.9999 31.1238 36.9999Z" fill="#E69435"/>
<path d="M31.1238 31.7826C33.6894 31.7826 34.5641 33.1883 35 34.1374C35.2081 34.5907 34.8007 35.0301 34.218 35.0836L33.2419 35.1733C31.6987 35.3151 30.3013 35.3151 28.7581 35.1733L27.782 35.0836C27.1993 35.0301 26.7918 34.5907 27 34.1374C27.4358 33.1883 28.5582 31.7826 31.1238 31.7826Z" fill="#F5C443"/>
<path d="M32.3674 33.4187H30.9313C30.2893 33.4187 29.8263 32.9061 30.3216 32.5683C30.611 32.371 31.0339 32.2174 31.6494 32.2174C32.2648 32.2174 32.6878 32.371 32.9772 32.5683C33.4725 32.9061 33.0094 33.4187 32.3674 33.4187Z" fill="#F9DD4A"/>
<path d="M43.8978 3.09511C40.9747 3.34482 33.1045 4 31.0001 4L31 9C31 9 35.806 8.59592 39 8C40.9321 7.63953 43.1968 5.20007 44.3104 3.86661C44.5864 3.5361 44.3268 3.05846 43.8978 3.09511Z" fill="#3CADC6"/>
<path fill-rule="evenodd" clip-rule="evenodd" d="M32.738 40.8926C32.8825 40.3683 33.3484 40.0225 33.9441 40.0225C34.5075 40.0225 34.9641 39.5698 34.9641 39.0113C34.9641 38.4528 34.5075 38 33.9441 38C32.4414 38 31.0683 38.9658 30.7274 40.5329L30.7103 40.6114L30.4815 44.8104C30.4511 45.3681 30.8825 45.8446 31.445 45.8747C32.0075 45.9049 32.4882 45.4772 32.5185 44.9195L32.738 40.8926Z" fill="#5A3D1B"/>
<path fill-rule="evenodd" clip-rule="evenodd" d="M31.5535 40.555C31.7714 39.5819 32.6202 38.966 33.6041 38.966C33.698 38.966 33.7741 38.8905 33.7741 38.7974C33.7741 38.7044 33.698 38.6289 33.6041 38.6289C32.4689 38.6289 31.468 39.3487 31.2183 40.4968L31.2154 40.5098L30.9903 44.6421C30.9852 44.735 31.0571 44.8144 31.1508 44.8195C31.2446 44.8245 31.3247 44.7532 31.3298 44.6603L31.5535 40.555Z" fill="#825827"/>
<path d="M23.0383 45.8544C23.2024 42.8933 25.9093 41.0181 28.6423 41.5998L31.644 42.2388L34.3172 41.6698C37.1762 41.0612 39.9701 43.1391 39.9987 46.2419C40.0065 47.0889 39.9803 47.9233 39.8985 48.6587C39.7172 50.2892 39.1658 52.4729 38.6577 54.2553C38.1265 56.1185 36.3686 57.2241 34.5615 56.9204L31.644 56.4302L28.55 56.9501C26.8233 57.2403 25.1289 56.2443 24.5417 54.4919C23.9337 52.6772 23.2575 50.3786 23.0721 48.6587C22.9806 47.81 22.9842 46.8315 23.0383 45.8544Z" fill="#F73636"/>
<path fill-rule="evenodd" clip-rule="evenodd" d="M23.6816 46.2632C23.8741 43.4974 26.5532 41.5237 29.9644 42.3663C30.3288 42.4564 30.5507 42.8222 30.4599 43.1835C30.3691 43.5448 30 43.7647 29.6356 43.6747C26.9268 43.0055 25.1646 44.5435 25.0384 46.356C25.0126 46.7275 24.6879 47.0078 24.3132 46.9822C23.9386 46.9566 23.6558 46.6347 23.6816 46.2632Z" fill="#F96767"/>
<path d="M12.6279 56.0262C23.0639 60.6633 30.508 54.2947 30.8495 52.0835C31.191 49.8723 27.3047 48.2273 17.147 42.8598C13.6352 41.0042 9.22627 43.5992 8.04889 47.4284C6.92995 51.0675 9.15106 54.4813 12.6279 56.0262Z" fill="#009EC2"/>
<path d="M50.835 56.0268C40.399 60.6639 32.9549 54.2953 32.6134 52.0841C32.2719 49.8729 36.1581 48.2279 46.3159 42.8605C49.8277 41.0048 54.2366 43.5998 55.414 47.429C56.5329 51.0681 54.3118 54.4819 50.835 56.0268Z" fill="#009EC2"/>
</svg>
