<svg width="63" height="74" viewBox="0 0 63 74" fill="none" xmlns="http://www.w3.org/2000/svg">
<rect x="33" y="68" width="12" height="6" rx="3" fill="#E69435"/>
<rect x="19" y="68" width="12" height="6" rx="3" fill="#E69435"/>
<path d="M13.9758 40.7334C14.2818 36.5113 17.4888 33.073 21.6795 32.4744L30.543 31.2081C31.5091 31.0701 32.4903 31.0743 33.4552 31.2205L41.3914 32.4229C45.5486 33.0528 48.7157 36.4772 49.0196 40.6709L50.3751 59.3766C50.7339 64.3284 47.4063 68.8085 42.4967 69.547C39.0944 70.0587 35.2255 70.5 32 70.5C28.6391 70.5 24.388 70.0209 20.6702 69.4822C15.6922 68.7609 12.2723 64.2429 12.6358 59.226L13.9758 40.7334Z" fill="#3CADC6"/>
<path d="M6.73251 57.3018C8.07344 53.4558 10.5326 46.9489 13.1743 42.6665C13.8789 41.5242 14.1555 39.3079 14.1555 39.3079L25.0218 44.8507C26.2252 45.4645 26.8699 46.807 26.5966 48.13L24.9785 55.9636C24.7986 56.8345 24.2444 57.5803 23.4439 57.9678C21.3544 58.9791 17.0589 60.881 13.7721 61.1665C12.3332 61.2915 10.5205 61.156 8.97542 60.9719C7.2045 60.7608 6.14536 58.9858 6.73251 57.3018Z" fill="#3CADC6"/>
<path d="M55.8066 57.3027C54.4659 53.4566 52.007 46.9496 49.3656 42.6671C48.661 41.5248 48.3845 39.3085 48.3845 39.3085L37.518 44.8507C36.3145 45.4645 35.6698 46.8069 35.943 48.1299L37.5608 55.9636C37.7406 56.8345 38.2948 57.5804 39.0952 57.9678C41.1847 58.9793 45.4801 60.8813 48.7669 61.1671C50.2058 61.2921 52.0184 61.1567 53.5635 60.9726C55.3345 60.7616 56.3937 58.9867 55.8066 57.3027Z" fill="#3CADC6"/>
<path d="M28.0972 52H21.9521C21.2953 52 20.8087 52.6276 21.0736 53.2724C21.5616 54.4608 22.6573 56.0526 25.0246 56.0526C27.392 56.0526 28.4876 54.4608 28.9757 53.2724C29.2405 52.6276 28.7539 52 28.0972 52Z" fill="#44C2DE"/>
<path d="M41.0479 52H34.9028C34.2461 52 33.7595 52.6276 34.0243 53.2724C34.5124 54.4608 35.608 56.0526 37.9754 56.0526C40.3427 56.0526 41.4384 54.4608 41.9264 53.2724C42.1913 52.6276 41.7047 52 41.0479 52Z" fill="#44C2DE"/>
<path d="M34.5726 58.9474H28.4274C27.7707 58.9474 27.2841 59.575 27.549 60.2198C28.037 61.4082 29.1326 63 31.5 63C33.8674 63 34.963 61.4082 35.451 60.2198C35.7159 59.575 35.2293 58.9474 34.5726 58.9474Z" fill="#44C2DE"/>
<path d="M11.0001 19C11.0001 28.8275 4.24763 39.6312 29.0001 40H33.0001C57.7526 39.6312 51.0001 28.8275 51.0001 19C51.0001 16.188 50.2994 13.3642 49.0001 11C47.7009 8.63576 42.5606 1 31.0001 1C19.4396 1 14.2994 8.63576 13.0001 11C11.7009 13.3642 11.0001 16.188 11.0001 19Z" fill="#3CADC6"/>
<path d="M14.0002 23V18C14.0002 13.5817 17.582 10 22.0002 10H25.5281C27.0432 10 28.2119 11.1833 29.5571 11.8803C29.7026 11.9557 29.8514 12 30.0002 12H32.0002C32.1363 12 32.2705 11.9666 32.4013 11.9083C33.8128 11.2794 34.9853 10 36.5306 10H40.0002C44.4185 10 48.0002 13.5817 48.0002 18V23C48.0002 27.4183 44.4185 31 40.0002 31H38.0252C35.5584 31 33.3034 29.6063 32.2002 27.4C32.0777 27.1549 31.8271 27 31.553 27H31.0002H30.4475C30.1734 27 29.9228 27.1549 29.8002 27.4C28.6971 29.6063 26.4421 31 23.9753 31H22.0002C17.582 31 14.0002 27.4183 14.0002 23Z" fill="#44C2DE"/>
<rect x="17.0002" y="12" width="12" height="16.3828" rx="6" fill="white"/>
<rect x="20.0002" y="15" width="7" height="11" rx="3.5" fill="#4B4B4B"/>
<path d="M24.0002 18C24.0002 19.1046 23.1048 20 22.0002 20C20.8957 20 20.0002 19.1046 20.0002 18C20.0002 16.8954 20.8957 16 22.0002 16C23.1048 16 24.0002 16.8954 24.0002 18Z" fill="white"/>
<rect x="33.0002" y="12" width="12" height="16" rx="6" fill="white"/>
<rect x="35.0002" y="15" width="7" height="11" rx="3.5" fill="#4B4B4B"/>
<path d="M39.0002 18C39.0002 19.1046 38.1048 20 37.0002 20C35.8957 20 35.0002 19.1046 35.0002 18C35.0002 16.8954 35.8957 16 37.0002 16C38.1048 16 39.0002 16.8954 39.0002 18Z" fill="white"/>
<path d="M31.1241 33C27.9011 33 27.4446 30 27.4446 30H34.8036C34.8036 30 34.347 33 31.1241 33Z" fill="#E69435"/>
<path d="M31.124 27C33.6896 27 34.5644 28.6165 35.0002 29.708C35.2084 30.2293 34.8009 30.7346 34.2183 30.7962L33.2421 30.8993C31.6989 31.0624 30.3015 31.0624 28.7583 30.8993L27.7822 30.7962C27.1995 30.7346 26.7921 30.2293 27.0002 29.708C27.4361 28.6165 28.5585 27 31.124 27Z" fill="#F5C443"/>
<path d="M32.3677 28.8816H30.9315C30.2896 28.8816 29.8265 28.292 30.3218 27.9036C30.6112 27.6766 31.0341 27.5 31.6496 27.5C32.2651 27.5 32.688 27.6766 32.9774 27.9036C33.4727 28.292 33.0096 28.8816 32.3677 28.8816Z" fill="#F9DD4A"/>
<path d="M43.898 0.0951061C40.9749 0.344818 33.1048 0.999999 31.0003 1L31.0002 6C31.0002 6 35.8062 5.59592 39.0002 5C40.9323 4.63953 43.1971 2.20007 44.3106 0.866607C44.5866 0.536101 44.3271 0.0584556 43.898 0.0951061Z" fill="#3CADC6"/>
</svg>
