<svg width="104" height="74" viewBox="0 0 104 74" fill="none" xmlns="http://www.w3.org/2000/svg">
<rect x="33" y="68" width="12" height="6" rx="3" fill="#E69435"/>
<rect x="19" y="68" width="12" height="6" rx="3" fill="#E69435"/>
<path d="M13.9758 40.7334C14.2818 36.5113 17.4888 33.073 21.6795 32.4744L30.543 31.2081C31.5091 31.0701 32.4903 31.0743 33.4552 31.2205L41.3914 32.4229C45.5486 33.0528 48.7157 36.4772 49.0196 40.6709L50.3751 59.3766C50.7339 64.3284 47.4063 68.8085 42.4967 69.547C39.0944 70.0587 35.2255 70.5 32 70.5C28.6391 70.5 24.388 70.0209 20.6702 69.4822C15.6922 68.7609 12.2723 64.2429 12.6358 59.226L13.9758 40.7334Z" fill="#3CADC6"/>
<path d="M2.04258 51.5253C4.58025 48.3394 9.05347 43.0123 12.963 39.8449C14.0058 39 15 37 15 37L23.421 45.8252C24.3536 46.8026 24.5179 48.2827 23.8224 49.4409L19.704 56.2982C19.2461 57.0605 18.4764 57.5811 17.5929 57.6819C15.2864 57.9451 10.6036 58.3189 7.40741 57.5012C6.00815 57.1431 4.34236 56.4156 2.94516 55.7307C1.34376 54.9457 0.931405 52.9203 2.04258 51.5253Z" fill="#3CADC6"/>
<path d="M60.9574 51.5253C58.4197 48.3394 53.9465 43.0123 50.037 39.8449C48.9942 39 48 37 48 37L39.579 45.8252C38.6464 46.8026 38.4821 48.2827 39.1776 49.4409L43.296 56.2982C43.7539 57.0605 44.5236 57.5811 45.4071 57.6819C47.7136 57.9451 52.3964 58.3189 55.5926 57.5012C56.9919 57.1431 58.6576 56.4156 60.0548 55.7307C61.6562 54.9457 62.0686 52.9203 60.9574 51.5253Z" fill="#3CADC6"/>
<path d="M28.0972 52H21.9521C21.2953 52 20.8087 52.6276 21.0736 53.2724C21.5616 54.4608 22.6573 56.0526 25.0246 56.0526C27.392 56.0526 28.4876 54.4608 28.9757 53.2724C29.2405 52.6276 28.7539 52 28.0972 52Z" fill="#44C2DE"/>
<path d="M41.0479 52H34.9028C34.2461 52 33.7595 52.6276 34.0243 53.2724C34.5124 54.4608 35.608 56.0526 37.9754 56.0526C40.3427 56.0526 41.4384 54.4608 41.9264 53.2724C42.1913 52.6276 41.7047 52 41.0479 52Z" fill="#44C2DE"/>
<path d="M34.5726 58.9474H28.4274C27.7707 58.9474 27.2841 59.575 27.5489 60.2198C28.037 61.4082 29.1326 63 31.5 63C33.8674 63 34.963 61.4082 35.451 60.2198C35.7159 59.575 35.2293 58.9474 34.5726 58.9474Z" fill="#44C2DE"/>
<path d="M11.0001 19C11.0001 28.8275 4.24763 39.6312 29.0001 40H33.0001C57.7526 39.6312 51.0001 28.8275 51.0001 19C51.0001 16.188 50.2994 13.3642 49.0001 11C47.7009 8.63576 42.5606 1 31.0001 1C19.4396 1 14.2994 8.63576 13.0001 11C11.7009 13.3642 11.0001 16.188 11.0001 19Z" fill="#3CADC6"/>
<path d="M14 23V18C14 13.5817 17.5817 10 22 10H25.5279C27.043 10 28.2116 11.1833 29.5569 11.8803C29.7024 11.9557 29.8512 12 30 12H32C32.136 12 32.2703 11.9666 32.401 11.9083C33.8125 11.2794 34.985 10 36.5303 10H40C44.4183 10 48 13.5817 48 18V23C48 27.4183 44.4183 31 40 31H38.0249C35.5582 31 33.3032 29.6063 32.2 27.4C32.0774 27.1549 31.8269 27 31.5528 27H31H30.4472C30.1731 27 29.9226 27.1549 29.8 27.4C28.6968 29.6063 26.4418 31 23.9751 31H22C17.5817 31 14 27.4183 14 23Z" fill="#44C2DE"/>
<rect x="17" y="12" width="12" height="16.3828" rx="6" fill="white"/>
<rect x="20" y="15" width="7" height="11" rx="3.5" fill="#4B4B4B"/>
<path d="M24 18C24 19.1046 23.1046 20 22 20C20.8954 20 20 19.1046 20 18C20 16.8954 20.8954 16 22 16C23.1046 16 24 16.8954 24 18Z" fill="white"/>
<rect x="33" y="12" width="12" height="16" rx="6" fill="white"/>
<rect x="35" y="15" width="7" height="11" rx="3.5" fill="#4B4B4B"/>
<path d="M39 18C39 19.1046 38.1046 20 37 20C35.8954 20 35 19.1046 35 18C35 16.8954 35.8954 16 37 16C38.1046 16 39 16.8954 39 18Z" fill="white"/>
<path d="M31.1238 33C27.9008 33 27.4443 30 27.4443 30H34.8033C34.8033 30 34.3468 33 31.1238 33Z" fill="#E69435"/>
<path d="M31.1238 27C33.6894 27 34.5641 28.6165 35 29.708C35.2081 30.2293 34.8007 30.7346 34.218 30.7962L33.2419 30.8993C31.6987 31.0624 30.3013 31.0624 28.7581 30.8993L27.782 30.7962C27.1993 30.7346 26.7918 30.2293 27 29.708C27.4358 28.6165 28.5582 27 31.1238 27Z" fill="#F5C443"/>
<path d="M32.3674 28.8816H30.9313C30.2893 28.8816 29.8263 28.292 30.3216 27.9036C30.611 27.6766 31.0339 27.5 31.6494 27.5C32.2648 27.5 32.6878 27.6766 32.9772 27.9036C33.4725 28.292 33.0094 28.8816 32.3674 28.8816Z" fill="#F9DD4A"/>
<path d="M43.8978 0.0951061C40.9747 0.344818 33.1045 0.999999 31.0001 1L31 6C31 6 35.806 5.59592 39 5C40.9321 4.63953 43.1968 2.20007 44.3104 0.866607C44.5864 0.536101 44.3268 0.0584556 43.8978 0.0951061Z" fill="#3CADC6"/>
<path d="M80.4302 12.4142L80.1906 11.9799L80.4302 12.4142C82.5243 11.2588 85.0555 11.2192 87.1847 12.3085L90.8369 14.1772C91.9147 14.7287 93.0797 15.09 94.2805 15.2451L94.9533 15.332C99.8001 15.9583 103.22 20.3975 102.588 25.2435L102.574 25.3543C102.439 26.3888 102.482 27.4419 102.7 28.4618C103.64 32.874 100.83 37.2313 96.4203 38.1713L96.1435 38.2303C94.3693 38.6086 92.7672 39.5562 91.5811 40.9288C89.7315 43.0693 86.8145 43.9531 84.0879 43.1991L77.9053 41.4892C76.4282 41.0806 74.8702 40.9751 73.352 41.1743C69.3202 41.7032 65.3096 39.8281 63.1677 36.3774L60.9793 32.8518C59.6245 30.6692 60.0148 27.8314 61.9085 26.0956C63.5454 24.595 64.2784 22.3476 63.841 20.1705L63.4375 18.162C63.1767 16.8643 63.4368 15.5161 64.1616 14.4085C65.2802 12.6991 67.3198 11.8337 69.3264 12.2172L74.932 13.2885C76.8106 13.6475 78.7556 13.3382 80.4302 12.4142ZM52.5 16.5C53.0523 16.5 53.5 16.9478 53.5 17.5C53.5 18.0523 53.0523 18.5 52.5 18.5C51.9477 18.5 51.5 18.0523 51.5 17.5C51.5 16.9478 51.9477 16.5 52.5 16.5ZM57 19.5C58.3807 19.5 59.5 20.6193 59.5 22C59.5 23.3808 58.3807 24.5 57 24.5C55.6193 24.5 54.5 23.3808 54.5 22C54.5 20.6193 55.6193 19.5 57 19.5Z" fill="white" stroke="#F2F2F2"/>
</svg>
