<svg width="67" height="76" viewBox="0 0 67 76" fill="none" xmlns="http://www.w3.org/2000/svg">
<rect x="38" y="70" width="12" height="6" rx="3" fill="#E69435"/>
<rect x="16" y="70" width="12" height="6" rx="3" fill="#E69435"/>
<path d="M1.70241 50.178L13.0175 40.4555C13.0723 40.4084 13.122 40.3555 13.1658 40.2979C13.6212 39.6973 14.5479 39.7794 14.8906 40.4508L18.428 47.3797C18.7939 48.0963 18.8566 48.9299 18.6019 49.6932L14.6542 61.5255C14.5521 61.8316 14.5 62.1522 14.5 62.475V64C14.5 65.1046 13.6046 66 12.5 66C11.3954 66 10.5 65.1046 10.5 64V63.2731C10.5 62.4591 10.1364 61.6877 9.50848 61.1697L1.74837 54.7675C0.312776 53.5831 0.290821 51.3909 1.70241 50.178Z" fill="#009EC2"/>
<path d="M65.2976 50.178L53.9825 40.4555C53.9277 40.4084 53.878 40.3555 53.8342 40.2979C53.3788 39.6973 52.4521 39.7794 52.1094 40.4508L48.572 47.3797C48.2061 48.0963 48.1434 48.9299 48.3981 49.6932L52.3458 61.5255C52.4479 61.8316 52.5 62.1522 52.5 62.475V64C52.5 65.1046 53.3954 66 54.5 66C55.6046 66 56.5 65.1046 56.5 64V63.2731C56.5 62.4591 56.8636 61.6877 57.4915 61.1697L65.2516 54.7675C66.6872 53.5831 66.7092 51.3909 65.2976 50.178Z" fill="#009EC2"/>
<path d="M13.5887 46.2586C13.8393 42.7495 16.1116 39.7081 19.4057 38.4729L30.2951 34.3893C32.6752 33.4968 35.306 33.5442 37.6525 34.5219L46.8796 38.3665C50.019 39.6746 52.1529 42.6406 52.3952 46.033L53 54.5V61.9671C53 66.6592 49.7392 70.7346 45.1027 71.4544C41.56 72.0043 37.4187 72.5 34 72.5C30.2911 72.5 25.4983 71.9166 21.5343 71.3134C17.07 70.6341 13.7981 66.8711 13.5074 62.3648L13 54.5L13.5887 46.2586Z" fill="#3CADC6"/>
<path d="M30.0972 56H23.9521C23.2953 56 22.8087 56.5135 23.0736 57.0411C23.5616 58.0134 24.6573 59.3158 27.0246 59.3158C29.392 59.3158 30.4876 58.0134 30.9757 57.0411C31.2405 56.5135 30.7539 56 30.0972 56Z" fill="#44C2DE"/>
<path d="M43.0479 56H36.9028C36.2461 56 35.7595 56.5135 36.0243 57.0411C36.5124 58.0134 37.608 59.3158 39.9754 59.3158C42.3427 59.3158 43.4384 58.0134 43.9264 57.0411C44.1913 56.5135 43.7047 56 43.0479 56Z" fill="#44C2DE"/>
<path d="M36.5726 61.6842H30.4274C29.7707 61.6842 29.2841 62.1977 29.549 62.7253C30.037 63.6976 31.1326 65 33.5 65C35.8674 65 36.963 63.6976 37.451 62.7253C37.7159 62.1977 37.2293 61.6842 36.5726 61.6842Z" fill="#44C2DE"/>
<path d="M12.8414 32C12.8414 41.8275 6.08894 52.6312 30.8414 53H34.8414C59.5939 52.6312 52.8414 41.8275 52.8414 32C52.8414 29.188 52.1407 26.3642 50.8414 24C49.5422 21.6358 44.4019 14 32.8414 14C21.2809 14 16.1407 21.6358 14.8414 24C13.5422 26.3642 12.8414 29.188 12.8414 32Z" fill="#3CADC6"/>
<path d="M15.8416 36V28.7463C15.8416 25.4226 18.2272 22.5784 21.5001 22L27.7031 22.7436C29.0381 22.9037 30.0703 23.8817 31.1318 24.7069C31.359 24.8836 31.6003 25 31.8416 25H33.8416C34.0728 25 34.2991 24.9033 34.5113 24.7524C35.6365 23.9527 36.6749 22.9038 38.0462 22.7454L44.5001 22C47.597 22.5798 49.8416 25.2835 49.8416 28.4342V36C49.8416 40.4183 46.2598 44 41.8416 44H39.8665C37.3997 44 35.1447 42.6063 34.0416 40.4C33.919 40.1549 33.6684 40 33.3943 40H32.8416H32.2888C32.0147 40 31.7641 40.1549 31.6416 40.4C30.5384 42.6063 28.2834 44 25.8166 44H23.8416C19.4233 44 15.8416 40.4183 15.8416 36Z" fill="#44C2DE"/>
<rect x="18.8416" y="25" width="12" height="16.3828" rx="6" fill="white"/>
<rect x="23" y="28" width="6" height="9" rx="3" fill="#4B4B4B"/>
<rect x="34.8416" y="25" width="12" height="16" rx="6" fill="white"/>
<rect x="37" y="28" width="6" height="9" rx="3" fill="#4B4B4B"/>
<path d="M19.5541 41.2605L17 37.0699C17 37.0699 21.664 36.8265 24.2973 37.5181C26.6462 38.135 29.4054 40.028 29.4054 40.028L26.4865 42L19.5541 41.2605Z" fill="#44C2DE"/>
<path d="M46.5 40.5699L49.4054 37.0699C49.4054 37.0699 44.4681 36.7388 41.7432 37.5181C39.5268 38.152 37 40.028 37 40.028L39.9189 42L46.5 40.5699Z" fill="#44C2DE"/>
<path d="M19.7941 26.35L18 29L31.5 34V27.5L28.7353 25L24 24L19.7941 26.35Z" fill="#44C2DE"/>
<path d="M47.2059 26.35L48.5 29L34 34V27.5L35.5 25.5L42.5 24.5L47.2059 26.35Z" fill="#44C2DE"/>
<path d="M32.9654 46C29.7424 46 29.2859 43 29.2859 43H33.3416V42H35.8416L36.6449 43C36.6449 43 36.1883 46 32.9654 46Z" fill="#E69435"/>
<path d="M32.9653 40C35.5309 40 36.4056 41.6165 36.8415 42.708C37.0496 43.2293 36.6422 43.7346 36.0595 43.7962C35.6348 42.7337 34.612 42.3224 33.8077 43.1362C33.3525 43.5967 32.966 44.0217 32.8415 44.0217C32.1064 44.0217 31.3712 43.9809 30.5996 43.8993L29.6235 43.7962C29.0408 43.7346 28.6334 43.2293 28.8415 42.708C29.2774 41.6165 30.3997 40 32.9653 40Z" fill="#F5C443"/>
<path d="M34.5038 41.4952C34.3965 41.5019 34.2895 41.5173 34.1875 41.5513L32.9954 41.9487C32.8935 41.9827 32.7858 42.0046 32.68 41.9852C32.1162 41.8814 31.7101 41.2588 32.1631 40.9036C32.4525 40.6766 32.8754 40.5 33.4909 40.5C34.1064 40.5 34.5293 40.6766 34.8187 40.9036C35.2703 41.2577 35.0354 41.4619 34.5038 41.4952Z" fill="#F9DD4A"/>
<path d="M45.7393 13.0951C42.8162 13.3448 34.9461 14 32.8416 14L32.8416 19C32.8416 19 37.6475 18.5959 40.8416 18C42.7736 17.6395 45.0384 15.2001 46.152 13.8666C46.428 13.5361 46.1684 13.0585 45.7393 13.0951Z" fill="#3CADC6"/>
<path d="M34.9589 3.31175C34.649 0.691952 33.2393 -0.200671 32.7894 0.0367451C32.3395 0.274161 32.4795 2.98405 31.8596 4.29395C31.2397 5.60385 30 6.48163 30 8.87858C30 10.6519 31.6963 12.3108 32.83 12.9214C33.3239 13.1873 33.6482 12.7398 33.5659 12.1606C33.4019 11.0082 33.193 9.13274 33.4093 8.22363C33.7342 6.85787 35.2688 5.93155 34.9589 3.31175Z" fill="black" fill-opacity="0.12"/>
</svg>
