<svg width="63" height="74" viewBox="0 0 63 74" fill="none" xmlns="http://www.w3.org/2000/svg">
<rect x="33" y="66" width="12" height="7" rx="3.5" fill="#E69435"/>
<rect x="19" y="66" width="12" height="7" rx="3.5" fill="#E69435"/>
<path d="M13.9758 40.7334C14.2818 36.5113 17.4888 33.073 21.6795 32.4744L30.543 31.2081C31.5091 31.0701 32.4903 31.0743 33.4552 31.2205L41.3914 32.4229C45.5486 33.0528 48.7157 36.4772 49.0196 40.6709L50.3751 59.3766C50.7339 64.3284 47.4063 68.8085 42.4967 69.547C39.0944 70.0587 35.2255 70.5 32 70.5C28.6391 70.5 24.388 70.0209 20.6702 69.4822C15.6922 68.7609 12.2723 64.2429 12.6358 59.226L13.9758 40.7334Z" fill="#3CADC6"/>
<path d="M28.0972 52H21.9521C21.2953 52 20.8087 52.6276 21.0736 53.2724C21.5616 54.4608 22.6573 56.0526 25.0246 56.0526C27.392 56.0526 28.4876 54.4608 28.9757 53.2724C29.2405 52.6276 28.7539 52 28.0972 52Z" fill="#44C2DE"/>
<path d="M41.0479 52H34.9028C34.2461 52 33.7595 52.6276 34.0243 53.2724C34.5124 54.4608 35.608 56.0526 37.9754 56.0526C40.3427 56.0526 41.4384 54.4608 41.9264 53.2724C42.1913 52.6276 41.7047 52 41.0479 52Z" fill="#44C2DE"/>
<path d="M34.5726 58.9474H28.4274C27.7707 58.9474 27.2841 59.575 27.549 60.2198C28.037 61.4082 29.1326 63 31.5 63C33.8674 63 34.963 61.4082 35.451 60.2198C35.7159 59.575 35.2293 58.9474 34.5726 58.9474Z" fill="#44C2DE"/>
<path d="M11.0001 19C11.0001 28.8275 4.24763 39.6312 29.0001 40H33.0001C57.7526 39.6312 51.0001 28.8275 51.0001 19C51.0001 16.188 50.2994 13.3642 49.0001 11C47.7009 8.63576 42.5606 1 31.0001 1C19.4396 1 14.2994 8.63576 13.0001 11C11.7009 13.3642 11.0001 16.188 11.0001 19Z" fill="#3CADC6"/>
<path d="M12 24V19C12 14.5817 15.5817 11 20 11H23.5279C25.043 11 26.2116 12.1833 27.5569 12.8803C27.7024 12.9557 27.8512 13 28 13H30C30.136 13 30.2703 12.9666 30.401 12.9083C31.8125 12.2794 32.985 11 34.5303 11H38C42.4183 11 46 14.5817 46 19V24C46 28.4183 42.4183 32 38 32H36.0249C33.5582 32 31.3032 30.6063 30.2 28.4C30.0774 28.1549 29.8269 28 29.5528 28H29H28.4472C28.1731 28 27.9226 28.1549 27.8 28.4C26.6968 30.6063 24.4418 32 21.9751 32H20C15.5817 32 12 28.4183 12 24Z" fill="#44C2DE"/>
<path d="M15 18.6172C15 15.3035 17.6863 12.6172 21 12.6172C24.3137 12.6172 27 15.3035 27 18.6172V23C27 26.3137 24.3137 29 21 29C17.6863 29 15 26.3137 15 23V18.6172Z" fill="white"/>
<rect x="16" y="18" width="9" height="9" rx="4.5" fill="#4B4B4B"/>
<path d="M22 19C22 20.6569 20.6569 22 19 22C17.3431 22 16 20.6569 16 19C16 17.3431 17.3431 16 19 16C20.6569 16 22 17.3431 22 19Z" fill="white"/>
<rect x="31" y="13" width="12" height="16" rx="6" fill="white"/>
<rect x="31" y="18" width="9" height="9" rx="4.5" fill="#4B4B4B"/>
<path d="M37 19C37 20.6569 35.6569 22 34 22C32.3431 22 31 20.6569 31 19C31 17.3431 32.3431 16 34 16C35.6569 16 37 17.3431 37 19Z" fill="white"/>
<path d="M16.5 12.6667L13 18.8882C13 18.8882 18.7004 19.2777 21.9189 18.1711C24.7898 17.184 28.1622 14.1553 28.1622 14.1553L24 12L16.5 12.6667Z" fill="#44C2DE"/>
<path d="M42 12.6667L46 18.8882C46 18.8882 39.9655 19.418 36.6351 18.1711C33.9261 17.1569 30.8378 14.1553 30.8378 14.1553L34.5 12L42 12.6667Z" fill="#44C2DE"/>
<mask id="mask0_428_1125" style="mask-type:alpha" maskUnits="userSpaceOnUse" x="15" y="13" width="28" height="16">
<path d="M15 19C15 15.6863 17.6863 13 21 13C24.3137 13 27 15.6863 27 19V23C27 26.3137 24.3137 29 21 29C17.6863 29 15 26.3137 15 23V19Z" fill="white"/>
<path d="M31 19C31 15.6863 33.6863 13 37 13C40.3137 13 43 15.6863 43 19V23C43 26.3137 40.3137 29 37 29C33.6863 29 31 26.3137 31 23V19Z" fill="white"/>
</mask>
<g mask="url(#mask0_428_1125)">
<path fill-rule="evenodd" clip-rule="evenodd" d="M21.8658 29C24.7013 29 27 26.7013 27 23.8658C27 23.4126 26.593 23.0678 26.146 23.1423L21.2052 23.9658C21.0698 23.9884 20.9313 23.9828 20.7982 23.9496L15.9753 22.7438C15.4799 22.62 15 22.9947 15 23.5053C15 26.54 17.46 29 20.4947 29H21.8658Z" fill="#42AFFF" fill-opacity="0.75"/>
<path fill-rule="evenodd" clip-rule="evenodd" d="M36.1904 29C33.3238 29 31 26.6762 31 23.8096C31 23.3477 31.4178 22.9982 31.8725 23.0798L36.7796 23.9606C36.9247 23.9866 37.0738 23.9803 37.2162 23.9419L41.9964 22.655C42.5025 22.5187 43 22.9 43 23.4241C43 26.5036 40.5036 29 37.4241 29H37H36.1904Z" fill="#42AFFF" fill-opacity="0.75"/>
</g>
<path d="M29.1238 32C25.9008 32 25.4443 29 25.4443 29H32.8033C32.8033 29 32.3468 32 29.1238 32Z" fill="#E69435"/>
<path d="M29.1238 26C31.6894 26 32.5641 27.6165 33 28.708C33.2081 29.2293 32.8007 29.7346 32.218 29.7962L31.2419 29.8993C29.6987 30.0624 28.3013 30.0624 26.7581 29.8993L25.782 29.7962C25.1993 29.7346 24.7918 29.2293 25 28.708C25.4358 27.6165 26.5582 26 29.1238 26Z" fill="#F5C443"/>
<path d="M30.3674 27.8816H28.9313C28.2893 27.8816 27.8263 27.292 28.3216 26.9036C28.611 26.6766 29.0339 26.5 29.6494 26.5C30.2648 26.5 30.6878 26.6766 30.9772 26.9036C31.4725 27.292 31.0094 27.8816 30.3674 27.8816Z" fill="#F9DD4A"/>
<path d="M23.9105 42.3406C36.5293 33.158 34.0787 19.9963 31.6951 18.0813C29.3114 16.1662 24.7091 19.6416 11.416 27.9957C6.82023 30.884 6.87881 37.8751 10.6062 41.885C14.1486 45.6958 19.7065 45.3998 23.9105 42.3406Z" fill="#009EC2"/>
<path d="M43.8978 0.0951061C40.9747 0.344818 33.1045 0.999999 31.0001 1L31 6C31 6 35.806 5.59592 39 5C40.9321 4.63953 43.1968 2.20007 44.3104 0.866607C44.5864 0.536101 44.3268 0.0584556 43.8978 0.0951061Z" fill="#3CADC6"/>
<path d="M54.8545 51.6884C53.7599 47.8749 51.5548 40.8219 49.0232 36.1975C48.3787 35.0202 48.2173 32.7926 48.2173 32.7926L37.0784 37.7648C35.8448 38.3154 35.1314 39.6227 35.3358 40.958L36.5388 48.8194C36.6773 49.7245 37.2203 50.5168 38.0288 50.9465C40.3669 52.1894 45.4179 54.7082 48.7697 55.1754C50.159 55.3691 51.6571 55.2307 52.8942 55.0166C54.4379 54.7495 55.2867 53.1942 54.8545 51.6884Z" fill="#3CADC6"/>
</svg>
