<svg width="480" height="480" viewBox="0 0 480 480" fill="none" xmlns="http://www.w3.org/2000/svg">
<path d="M253.5 159.5C237.752 175.107 223.816 193.572 234.5 213C244.14 230.531 283 229.5 283 229.5L321.211 206.812C327.28 203.209 331 196.673 331 189.615V173.5L325.982 157.329C323.574 149.57 316.716 144.024 308.592 144.105C292.621 144.263 266.475 146.641 253.5 159.5Z" fill="#54C02E"/>
<path d="M240 480C320.08 480 390.999 440.78 434.597 380.5C434.597 380.5 457.551 185.03 388 201C352.57 209.135 314.5 277.5 283 277.5C235.174 277.5 206.176 278.234 182 319.5C161.96 353.708 126.5 451.519 126.5 451.519C129.61 453.191 132.76 454.796 135.95 456.333C167.427 471.5 202.721 480 240 480Z" fill="#54C02E"/>
<path d="M85 309.5C62.1142 289.048 7.18017 298.5 7.18017 298.5C18.3273 343.005 41.901 382.583 74 413.333C74 413.333 103.371 392.037 108 371.5C113.679 346.307 104.256 326.708 85 309.5Z" fill="#54C02E"/>
<path d="M314 11.6251C314 11.6251 337.11 67.0923 361 96.5C394.991 138.342 472.048 178.5 472.048 178.5C451.189 99.5894 391.147 36.605 314 11.6251Z" fill="#54C02E"/>
<path d="M248 55.5C230.596 11.6251 166 11.6251 166 11.6251C95.1525 34.5652 38.7306 89.5567 13.8338 159.5C13.8338 159.5 21.86 199.682 74 213C118.692 224.415 119.873 127 166 127C213 127 265.404 99.3749 248 55.5Z" fill="#54C02E"/>
<path fill-rule="evenodd" clip-rule="evenodd" d="M240 0C214.178 0 189.308 4.078 166 11.6251C166 11.6251 230.596 11.6251 248 55.5C265.404 99.3749 213 127 166 127C119.873 127 118.692 224.415 74 213C21.86 199.682 13.8338 159.5 13.8338 159.5C13.417 160.671 13.0091 161.846 12.6101 163.025C4.43343 187.188 0 213.076 0 240C0 260.178 2.49024 279.775 7.18017 298.5C7.18017 298.5 62.1142 289.048 85 309.5C104.256 326.708 113.679 346.307 108 371.5C103.371 392.037 74 413.333 74 413.333C89.629 428.304 107.279 441.183 126.5 451.519C126.5 451.519 161.96 353.708 182 319.5C206.176 278.234 235.174 277.5 283 277.5C314.5 277.5 352.57 209.135 388 201C457.551 185.03 434.597 380.5 434.597 380.5C436.102 378.42 437.573 376.315 439.012 374.186C464.89 335.882 480 289.706 480 240C480 218.741 477.236 198.128 472.048 178.5C472.048 178.5 394.991 138.342 361 96.5C337.11 67.0923 314 11.6251 314 11.6251C290.692 4.078 265.822 0 240 0ZM234.5 213C223.816 193.572 237.752 175.107 253.5 159.5C266.475 146.641 292.621 144.263 308.592 144.105C316.716 144.024 323.574 149.57 325.982 157.329L331 173.5V189.615C331 196.673 327.28 203.209 321.211 206.812L283 229.5C283 229.5 244.14 230.531 234.5 213Z" fill="#54C02E"/>
<path fill-rule="evenodd" clip-rule="evenodd" d="M240 0C214.178 0 189.308 4.078 166 11.6251C166 11.6251 230.596 11.6251 248 55.5C265.404 99.3749 213 127 166 127C119.873 127 118.692 224.415 74 213C21.86 199.682 13.8338 159.5 13.8338 159.5C13.417 160.671 13.0091 161.846 12.6101 163.025C4.43343 187.188 0 213.076 0 240C0 260.178 2.49024 279.775 7.18017 298.5C7.18017 298.5 62.1142 289.048 85 309.5C104.256 326.708 113.679 346.307 108 371.5C103.371 392.037 74 413.333 74 413.333C89.629 428.304 107.279 441.183 126.5 451.519C126.5 451.519 161.96 353.708 182 319.5C206.176 278.234 235.174 277.5 283 277.5C314.5 277.5 352.57 209.135 388 201C457.551 185.03 434.597 380.5 434.597 380.5C436.102 378.42 437.573 376.315 439.012 374.186C464.89 335.882 480 289.706 480 240C480 218.741 477.236 198.128 472.048 178.5C472.048 178.5 394.991 138.342 361 96.5C337.11 67.0923 314 11.6251 314 11.6251C290.692 4.078 265.822 0 240 0ZM234.5 213C223.816 193.572 237.752 175.107 253.5 159.5C266.475 146.641 292.621 144.263 308.592 144.105C316.716 144.024 323.574 149.57 325.982 157.329L331 173.5V189.615C331 196.673 327.28 203.209 321.211 206.812L283 229.5C283 229.5 244.14 230.531 234.5 213Z" fill="#2E8CC0"/>
</svg>
