<svg width="36" height="36" viewBox="0 0 36 36" fill="none" xmlns="http://www.w3.org/2000/svg">
<circle cx="18" cy="18" r="18" fill="#3CADC6"/>
<path fill-rule="evenodd" clip-rule="evenodd" d="M8.65087 19.5713C7.78304 18.7035 7.78304 17.2965 8.65087 16.4287L16.4287 8.65087C17.2965 7.78304 18.7035 7.78304 19.5713 8.65087C20.4392 9.5187 20.4392 10.9257 19.5713 11.7936L15.5871 15.7778L25.7778 15.7778C27.0051 15.7778 28 16.7727 28 18C28 19.2273 27.0051 20.2222 25.7778 20.2222L15.5871 20.2222L19.5713 24.2064C20.4392 25.0743 20.4392 26.4813 19.5713 27.3491C18.7035 28.217 17.2965 28.217 16.4287 27.3491L8.65087 19.5713Z" fill="white"/>
</svg>
