<svg width="35" height="35" viewBox="0 0 35 35" fill="none" xmlns="http://www.w3.org/2000/svg">
<path d="M16.6575 12.2707C14.6121 11.799 12.4129 12.158 10.6007 13.3485C10.5993 13.3494 10.5979 13.3503 10.5965 13.3513C10.1599 13.6386 9.74587 13.9741 9.36204 14.3578L5.15744 18.5608C2.11419 21.603 2.11419 26.529 5.15744 29.5711C7.35627 31.7692 9.83844 32.4247 12.1864 32.0056C13.7165 31.7324 15.0871 31.0234 16.2236 30.1718C16.2518 30.1507 16.2799 30.1294 16.3079 30.1081C16.7915 29.739 17.2321 29.3444 17.6238 28.9473C18.1359 28.428 20.0736 26.4059 22.254 24.125L22.5382 23.8276L22.1366 23.9166C20.6197 24.2525 19.0347 24.2065 17.5366 23.7785L17.4641 23.7578L17.412 23.8122C16.2018 25.0754 15.2766 26.0376 14.9569 26.3618C13.9578 27.3747 12.7302 28.1509 11.5255 28.366C10.4438 28.559 9.18325 28.3439 7.80577 26.967C6.20474 25.3665 6.20474 22.7654 7.80577 21.165L12.0104 16.9619C12.1668 16.8055 12.3327 16.6646 12.5061 16.539C12.6447 16.4731 12.7768 16.3893 12.8988 16.2876C13.651 15.8652 14.5084 15.7002 15.343 15.793C16.2296 15.8916 17.0902 16.2811 17.7712 16.9619C18.2728 17.4633 18.9918 17.62 19.6289 17.432C19.9137 17.348 20.1823 17.1951 20.4079 16.9735C21.14 16.2545 21.1452 15.0831 20.4196 14.3578C19.346 13.2845 18.0366 12.5887 16.6575 12.2707Z" fill="white" stroke="white" stroke-width="0.25" stroke-linecap="round"/>
<path d="M25.6379 20.3763L28.0266 17.9885C28.0684 17.9985 28.1143 17.9866 28.1461 17.9532L29.8582 16.1575C29.8585 16.1572 29.8588 16.1569 29.8591 16.1566C30.2797 15.7337 30.6418 15.2746 30.9453 14.7894C32.8256 11.7836 32.4581 7.77757 29.8425 5.16293C26.7908 2.11236 21.8367 2.11236 18.785 5.16293L13.4697 10.4763L13.205 10.7409L13.5756 10.6884C15.0488 10.48 16.5626 10.6237 17.9797 11.1195L18.0538 11.1454L18.1093 11.0899L21.4333 7.76711C23.0259 6.1751 25.6016 6.1751 27.1942 7.76711C28.3725 8.94502 28.6839 10.6652 28.1272 12.1298C27.9278 12.6546 27.6168 13.1466 27.1942 13.5691L22.9896 17.7721C21.397 19.3642 18.8213 19.3642 17.2287 17.7721C16.5037 17.0474 15.3235 17.0422 14.5921 17.7606C13.86 18.4796 13.8548 19.6509 14.5804 20.3763C15.7916 21.587 17.3027 22.3174 18.8755 22.567C21.2648 22.9463 23.7974 22.2162 25.6379 20.3763Z" fill="#3CADC6" stroke="#3CADC6" stroke-width="0.25" stroke-linecap="round"/>
</svg>
