<svg width="36" height="36" viewBox="0 0 36 36" fill="none" xmlns="http://www.w3.org/2000/svg">
<path d="M11.1574 29C11.1574 28.4751 11.518 27.6702 12.8061 26.8909C13.8782 26.2423 15.3946 25.7579 17.164 25.6321C17.3653 24.1663 17.8856 22.8017 18.6529 21.6098C18.4612 21.6033 18.2685 21.6 18.075 21.6C15.3043 21.6 12.6992 22.2753 10.7207 23.4723C8.77828 24.6474 7.14073 26.5426 7.14073 29C7.14073 30.1046 8.03988 31 9.14905 31C10.2582 31 11.1574 30.1046 11.1574 29Z" fill="white"/>
<path d="M33.9981 19.1277C32.7625 18.0074 31.1124 17.1948 29.3013 16.7161C28.7046 16.5583 28.0993 16.6854 27.6308 17.0131C31.2675 17.1972 34.3935 19.3082 36 22.3411C35.6929 21.0717 34.9411 19.9828 33.9981 19.1277Z" fill="white"/>
<path fill-rule="evenodd" clip-rule="evenodd" d="M18.075 5.4C13.9846 5.4 10.7111 8.73659 10.7111 12.8C10.7111 16.8634 13.9846 20.2 18.075 20.2C18.7397 20.2 19.3829 20.1119 19.994 19.9468C21.0245 18.9155 22.2794 18.1068 23.6797 17.5995C24.7782 16.3041 25.4388 14.6254 25.4388 12.8C25.4388 8.73659 22.1654 5.4 18.075 5.4ZM18.075 9.4C16.2498 9.4 14.7277 10.8987 14.7277 12.8C14.7277 14.7013 16.2498 16.2 18.075 16.2C19.9001 16.2 21.4222 14.7013 21.4222 12.8C21.4222 10.8987 19.9001 9.4 18.075 9.4Z" fill="white"/>
<path fill-rule="evenodd" clip-rule="evenodd" d="M3.57036 7.4C3.57036 3.33659 6.84383 0 10.9342 0C12.8265 0 14.553 0.719629 15.8532 1.89301C16.6751 2.63473 16.7376 3.89953 15.9928 4.71802C15.248 5.5365 13.9779 5.59873 13.156 4.85701C12.5612 4.32024 11.7853 4 10.9342 4C9.10907 4 7.58702 5.49874 7.58702 7.4C7.58702 8.41567 8.02254 9.32036 8.71247 9.94299C9.53437 10.6847 9.59686 11.9495 8.85205 12.768C8.10723 13.5865 6.83717 13.6487 6.01527 12.907C4.51389 11.5521 3.57036 9.58293 3.57036 7.4ZM25.2157 4C24.3646 4 23.5887 4.32024 22.9939 4.85701C22.172 5.59873 20.902 5.5365 20.1571 4.71802C19.4123 3.89953 19.4748 2.63473 20.2967 1.89301C21.5969 0.719629 23.3235 0 25.2157 0C29.3061 0 32.5796 3.33659 32.5796 7.4C32.5796 9.58293 31.636 11.5521 30.1346 12.907C29.3128 13.6487 28.0427 13.5865 27.2979 12.768C26.5531 11.9495 26.6156 10.6847 27.4374 9.94299C28.1274 9.32036 28.5629 8.41567 28.5629 7.4C28.5629 5.49874 27.0409 4 25.2157 4ZM9.30499 18.136C9.58954 19.2036 8.95115 20.2988 7.8791 20.5822C6.53779 20.9367 5.51014 21.4923 4.85604 22.0854C4.20807 22.6729 4.01666 23.2003 4.01666 23.5998C4.01666 24.7044 3.1175 25.5998 2.00833 25.5998C0.899159 25.5998 0 24.7044 0 23.5998C0 21.785 0.91013 20.2536 2.15182 19.1277C3.38738 18.0074 5.03749 17.1948 6.84865 16.7161C7.92069 16.4327 9.02044 17.0684 9.30499 18.136Z" fill="white"/>
<path fill-rule="evenodd" clip-rule="evenodd" d="M27.1124 19C22.6758 19 19.0791 22.5817 19.0791 27C19.0791 31.4183 22.6758 35 27.1124 35C31.5491 35 35.1458 31.4183 35.1458 27C35.1458 22.5817 31.5491 19 27.1124 19Z" fill="#3CADC6"/>
<path d="M29.9091 26H24.0909C23.4884 26 23 26.4477 23 27C23 27.5523 23.4884 28 24.0909 28H29.9091C30.5116 28 31 27.5523 31 27C31 26.4477 30.5116 26 29.9091 26Z" fill="white"/>
</svg>
