<svg width="36" height="36" viewBox="0 0 36 36" fill="none" xmlns="http://www.w3.org/2000/svg">
<path fill-rule="evenodd" clip-rule="evenodd" d="M6 4C4.89543 4 4 4.89543 4 6V30C4 31.1046 4.89543 32 6 32H30C31.1046 32 32 31.1046 32 30V6C32 4.89543 31.1046 4 30 4H26.5714C25.4669 4 24.5714 3.10457 24.5714 2C24.5714 0.89543 25.4669 0 26.5714 0H30C33.3137 0 36 2.68629 36 6V30C36 33.3137 33.3137 36 30 36H6C2.68629 36 0 33.3137 0 30V6C0 2.68629 2.68629 0 6 0H9.42857C10.5331 0 11.4286 0.89543 11.4286 2C11.4286 3.10457 10.5331 4 9.42857 4H6Z" fill="white"/>
<path fill-rule="evenodd" clip-rule="evenodd" d="M16.5858 2.58579C17.3668 1.80474 18.6332 1.80474 19.4142 2.58579L26.4142 9.58579C27.1953 10.3668 27.1953 11.6332 26.4142 12.4142C25.6332 13.1953 24.3668 13.1953 23.5858 12.4142L20 8.82843V21C20 22.1046 19.1046 23 18 23C16.8954 23 16 22.1046 16 21V8.82843L12.4142 12.4142C11.6332 13.1953 10.3668 13.1953 9.58579 12.4142C8.80474 11.6332 8.80474 10.3668 9.58579 9.58579L16.5858 2.58579Z" fill="#3CADC6"/>
</svg>
