<svg width="350" height="130" viewBox="0 0 350 130" fill="none" xmlns="http://www.w3.org/2000/svg">
<g clip-path="url(#clip0_540_645)">
<rect width="350" height="130" fill="#3BB6C9"/>
<path fill-rule="evenodd" clip-rule="evenodd" d="M323.263 -30.2635C332.246 -21.2814 332.246 -6.71861 323.263 2.26345L238.263 87.2635C229.281 96.2455 214.719 96.2455 205.737 87.2635C196.754 78.2814 196.754 63.7186 205.737 54.7365L290.737 -30.2635C299.719 -39.2455 314.281 -39.2455 323.263 -30.2635ZM380.763 37.2365C389.746 46.2186 389.746 60.7814 380.763 69.7635L277.763 172.763C268.781 181.746 254.219 181.746 245.237 172.763C236.254 163.781 236.254 149.219 245.237 140.237L348.237 37.2365C357.219 28.2545 371.781 28.2545 380.763 37.2365ZM156.263 42.2365C165.246 51.2186 165.246 65.7814 156.263 74.7635L64.2635 166.763C55.2814 175.746 40.7186 175.746 31.7365 166.763C22.7545 157.781 22.7545 143.219 31.7365 134.237L123.737 42.2365C132.719 33.2545 147.281 33.2545 156.263 42.2365Z" fill="#46CDE1"/>
<path fill-rule="evenodd" clip-rule="evenodd" d="M298.414 -22.4142C299.195 -21.6332 299.195 -20.3668 298.414 -19.5858L213.414 65.4142C212.633 66.1953 211.367 66.1953 210.586 65.4142C209.805 64.6332 209.805 63.3668 210.586 62.5858L295.586 -22.4142C296.367 -23.1953 297.633 -23.1953 298.414 -22.4142ZM355.914 45.0858C356.695 45.8668 356.695 47.1332 355.914 47.9142L252.914 150.914C252.133 151.695 250.867 151.695 250.086 150.914C249.305 150.133 249.305 148.867 250.086 148.086L353.086 45.0858C353.867 44.3047 355.133 44.3047 355.914 45.0858ZM131.414 50.0858C132.195 50.8668 132.195 52.1332 131.414 52.9142L39.4142 144.914C38.6332 145.695 37.3668 145.695 36.5858 144.914C35.8047 144.133 35.8047 142.867 36.5858 142.086L128.586 50.0858C129.367 49.3047 130.633 49.3047 131.414 50.0858Z" fill="#4BDAF0"/>
</g>
<defs>
<clipPath id="clip0_540_645">
<rect width="350" height="130" fill="white"/>
</clipPath>
</defs>
</svg>
