<svg width="125" height="125" viewBox="0 0 125 125" fill="none" xmlns="http://www.w3.org/2000/svg">
<path fill-rule="evenodd" clip-rule="evenodd" d="M62.3986 25.8539C63.087 23.3429 65.307 21.6867 68.1456 21.6867C70.8297 21.6867 73.0056 19.5183 73.0056 16.8434C73.0056 14.1685 70.8297 12 68.1456 12C60.9855 12 54.4432 16.6257 52.8188 24.1312L52.7375 24.5071L51.6472 44.6183C51.5024 47.2893 53.5577 49.5716 56.2379 49.7159C58.9181 49.8602 61.2082 47.8119 61.3531 45.1409L62.3986 25.8539Z" fill="#5A3D1B"/>
<path fill-rule="evenodd" clip-rule="evenodd" d="M56.7548 24.2371C57.7931 19.5767 61.8376 16.6266 66.5255 16.6266C66.9729 16.6266 67.3355 16.2652 67.3355 15.8194C67.3355 15.3735 66.9729 15.0121 66.5255 15.0121C61.1166 15.0121 56.3477 18.4595 55.1577 23.9582L55.1441 24.0208L54.0712 43.812C54.0471 44.2572 54.3896 44.6376 54.8363 44.6616C55.283 44.6857 55.6647 44.3443 55.6888 43.8991L56.7548 24.2371Z" fill="#825827"/>
<path d="M16.1826 49.6186C16.9646 35.4361 29.862 26.455 42.884 29.2413L57.1863 32.3015L69.9234 29.5762C83.5452 26.6616 96.8573 36.6135 96.9937 51.4744C97.031 55.5311 96.906 59.5274 96.5164 63.0495C95.6525 70.8589 93.0254 81.3177 90.6044 89.8542C88.0734 98.7779 79.6975 104.073 71.0873 102.619L57.1863 100.271L42.4441 102.761C34.2167 104.151 26.1437 99.3806 23.3459 90.9874C20.4488 82.2963 17.2271 71.2868 16.3436 63.0495C15.9076 58.9846 15.9246 54.2983 16.1826 49.6186Z" fill="#F73636"/>
<path fill-rule="evenodd" clip-rule="evenodd" d="M19.2478 51.5766C20.165 38.3295 32.9302 28.8765 49.1835 32.9125C50.9198 33.3437 51.9766 35.0959 51.544 36.8263C51.1114 38.5567 49.3531 39.6099 47.6168 39.1787C34.7101 35.9738 26.3135 43.3399 25.7124 52.0211C25.5893 53.8001 24.0423 55.1428 22.2571 55.0201C20.472 54.8973 19.1246 53.3556 19.2478 51.5766Z" fill="#F96767"/>
<path d="M97.3692 43.4367C98.5934 42.2124 100.58 42.2139 101.806 43.44L111.574 53.208C112.8 54.4341 112.801 56.4204 111.577 57.6447L106.257 62.9647C105.033 64.189 103.047 64.1875 101.82 62.9614L92.0524 53.1934C90.8264 51.9673 90.8249 49.981 92.0491 48.7567L97.3692 43.4367Z" fill="#FF769D"/>
<path d="M98.7751 44.6948C99.1423 44.3275 99.7382 44.328 100.106 44.6958L108.098 52.6878C108.466 53.0556 108.466 53.6515 108.099 54.0188C107.732 54.3861 107.136 54.3856 106.768 54.0178L98.776 46.0258C98.4082 45.658 98.4078 45.0621 98.7751 44.6948Z" fill="#FDACC3"/>
<path d="M88.1297 48.2362C89.2315 47.1344 91.0192 47.1357 92.1227 48.2392L106.627 62.7432C107.73 63.8466 107.731 65.6344 106.63 66.7362C105.528 67.838 103.74 67.8367 102.637 66.7332L88.1326 52.2292C87.0292 51.1257 87.0278 49.338 88.1297 48.2362Z" fill="#CFCFCF"/>
<path d="M88.2058 51.1201L103.746 66.6601L63.8455 106.56L48.3055 91.0204L88.2058 51.1201Z" fill="#FFD300"/>
<path d="M88.2058 51.1201L95.9758 58.8901L56.0755 98.7904L48.3055 91.0204L88.2058 51.1201Z" fill="#FFE600"/>
<path fill-rule="evenodd" clip-rule="evenodd" d="M50.6099 109.137L63.8455 106.56L48.3055 91.0204L45.7287 104.256L50.6099 109.137Z" fill="#FFBBA8"/>
<path d="M45.7287 104.256L44.9049 108.488C44.7347 109.362 45.5042 110.131 46.3782 109.961L50.6099 109.137L45.7287 104.256Z" fill="#6D6D6D"/>
</svg>
