<svg width="71" height="54" viewBox="0 0 71 54" fill="none" xmlns="http://www.w3.org/2000/svg">
<path d="M0 4.00012C0 1.79098 1.79086 0.00012207 4 0.00012207H67C69.2091 0.00012207 71 1.79098 71 4.00012V47.7947C71 50.0038 69.2091 51.7947 67 51.7947H47.5242H23.4758H4C1.79086 51.7947 0 50.0038 0 47.7947V4.00012Z" fill="#34BB28"/>
<path d="M23.4758 51.7947V52.0001C23.4758 53.1047 24.3712 54.0001 25.4758 54.0001H45.5242C46.6288 54.0001 47.5242 53.1047 47.5242 52.0001V51.7947H23.4758Z" fill="#34BB28"/>
<path d="M4 9.13526C4 8.50834 4.51404 8.00012 5.14815 8.00012H30.9815C33.2008 8.00012 35 9.77888 35 11.9731V47.7299H26.3889H5.14815C4.51404 47.7299 4 47.2216 4 46.5947V9.13526Z" fill="#E4EAEC"/>
<path d="M35 11.9731C35 9.77888 36.7992 8.00012 39.0185 8.00012H64.8519C65.486 8.00012 66 8.50834 66 9.13526V46.5947C66 47.2216 65.486 47.7299 64.8519 47.7299H43.6111H35V11.9731Z" fill="#E4EAEC"/>
<path d="M35 47.7299H30.9815H26.3889V48.0001C26.3889 49.1047 27.2843 50.0001 28.3889 50.0001H41.6111C42.7157 50.0001 43.6111 49.1047 43.6111 48.0001V47.7299H39.0185H35Z" fill="#E4EAEC"/>
<path d="M29.2593 41.3751C31.4786 41.3751 35 44.8255 35 47.0001C35 44.8255 38.5214 41.3751 40.7407 41.3751H29.2593Z" fill="white"/>
<path d="M35 5.93762V41.3751H40.7407H64.8519H66V40.2501V3.12512C66 2.5038 65.486 2.00012 64.8519 2.00012H39.0185C36.7992 2.00012 35 3.763 35 5.93762Z" fill="white"/>
<path d="M30.9815 2.00012H5.14815C4.51404 2.00012 4 2.5038 4 3.12512V40.2501V41.3751H5.14815H29.2593H35V5.93762C35 3.763 33.2008 2.00012 30.9815 2.00012Z" fill="white"/>
<path d="M9.5 6.00012H27.75C28.0261 6.00012 28.25 6.22398 28.25 6.50012V7.00012C28.25 7.27626 28.0261 7.50012 27.75 7.50012H9.5C9.22386 7.50012 9 7.27626 9 7.00012V6.50012C9 6.22398 9.22386 6.00012 9.5 6.00012Z" stroke="#E4EAEC" stroke-width="2"/>
<path d="M9.5 13.5001H23C23.2761 13.5001 23.5 13.724 23.5 14.0001V14.5001C23.5 14.7763 23.2761 15.0001 23 15.0001H9.5C9.22386 15.0001 9 14.7763 9 14.5001V14.0001C9 13.724 9.22386 13.5001 9.5 13.5001Z" stroke="#E4EAEC" stroke-width="2"/>
<path d="M9.5 21.0001H26.25C26.5261 21.0001 26.75 21.224 26.75 21.5001V22.0001C26.75 22.2763 26.5261 22.5001 26.25 22.5001H9.5C9.22386 22.5001 9 22.2763 9 22.0001V21.5001C9 21.224 9.22386 21.0001 9.5 21.0001Z" stroke="#E4EAEC" stroke-width="2"/>
<path d="M9.5 28.5001H29.5C29.7761 28.5001 30 28.724 30 29.0001V29.5001C30 29.7763 29.7761 30.0001 29.5 30.0001H9.5C9.22386 30.0001 9 29.7763 9 29.5001V29.0001C9 28.724 9.22386 28.5001 9.5 28.5001Z" stroke="#E4EAEC" stroke-width="2"/>
<path d="M22 36.0001H9.5C9.22386 36.0001 9 36.224 9 36.5001V37.0001C9 37.2763 9.22386 37.5001 9.5 37.5001H22C22.2761 37.5001 22.5 37.2763 22.5 37.0001V36.5001C22.5 36.224 22.2761 36.0001 22 36.0001Z" stroke="#E4EAEC" stroke-width="2"/>
<path d="M39.5 6.00012H57.75C58.0261 6.00012 58.25 6.22398 58.25 6.50012V7.00012C58.25 7.27626 58.0261 7.50012 57.75 7.50012H39.5C39.2239 7.50012 39 7.27626 39 7.00012V6.50012C39 6.22398 39.2239 6.00012 39.5 6.00012Z" stroke="#E4EAEC" stroke-width="2"/>
<path d="M39.5 13.5001H61C61.2761 13.5001 61.5 13.724 61.5 14.0001V14.5001C61.5 14.7763 61.2761 15.0001 61 15.0001H39.5C39.2239 15.0001 39 14.7763 39 14.5001V14.0001C39 13.724 39.2239 13.5001 39.5 13.5001Z" stroke="#E4EAEC" stroke-width="2"/>
<path d="M39.5 21.0001H53.5C53.7761 21.0001 54 21.224 54 21.5001V22.0001C54 22.2763 53.7761 22.5001 53.5 22.5001H39.5C39.2239 22.5001 39 22.2763 39 22.0001V21.5001C39 21.224 39.2239 21.0001 39.5 21.0001Z" stroke="#E4EAEC" stroke-width="2"/>
<path d="M39.5 28.5001H58.5C58.7761 28.5001 59 28.724 59 29.0001V29.5001C59 29.7763 58.7761 30.0001 58.5 30.0001H39.5C39.2239 30.0001 39 29.7763 39 29.5001V29.0001C39 28.724 39.2239 28.5001 39.5 28.5001Z" stroke="#E4EAEC" stroke-width="2"/>
<path d="M55 36.0001H39.5C39.2239 36.0001 39 36.224 39 36.5001V37.0001C39 37.2763 39.2239 37.5001 39.5 37.5001H55C55.2761 37.5001 55.5 37.2763 55.5 37.0001V36.5001C55.5 36.224 55.2761 36.0001 55 36.0001Z" stroke="#E4EAEC" stroke-width="2"/>
</svg>
