<svg width="79" height="50" viewBox="0 0 79 50" fill="none" xmlns="http://www.w3.org/2000/svg">
<path d="M39.5 50.0001C49.165 50.0001 57 46.0027 57 41.0716C57 36.1404 49.165 32.143 39.5 32.143C29.835 32.143 22 36.1404 22 41.0716C22 46.0027 29.835 50.0001 39.5 50.0001Z" fill="#343434"/>
<path d="M22 41.0716C22 36.1404 29.835 32.143 39.5 32.143C49.165 32.143 57 36.1404 57 41.0716V25.0001H39.5H22V41.0716Z" fill="#343434"/>
<path d="M3.9209 21.0001H75.0792V19.0001H3.9209V21.0001Z" fill="#272727"/>
<path d="M46.0021 36.8725L73.3796 23.7036C74.5126 23.1586 75.0792 22.0793 75.0792 21.0001H3.9209C3.92092 22.0793 4.48745 23.1586 5.62048 23.7036L32.998 36.8725C37.1073 38.8491 41.8928 38.8491 46.0021 36.8725Z" fill="#272727"/>
<path d="M32.9979 3.12771L5.62043 16.2966C3.35433 17.3867 3.35433 20.6136 5.62044 21.7036L32.9979 34.8725C37.1073 36.8492 41.8927 36.8492 46.0021 34.8725L73.3796 21.7036C75.6457 20.6136 75.6457 17.3866 73.3796 16.2966L46.0021 3.12771C41.8927 1.15104 37.1073 1.15105 32.9979 3.12771Z" fill="#343434"/>
<path d="M40 21.0001C42.2091 21.0001 44 20.2539 44 19.3335V18.5001H36V19.3335C36 20.2539 37.7909 21.0001 40 21.0001Z" fill="#C1A038"/>
<path d="M11.6809 22.0579L36.5888 18.032C36.7181 18.011 36.8506 18.022 36.9748 18.0638C37.7683 18.331 37.6792 19.481 36.8539 19.6228L14.8758 23.3971C13.9159 23.562 13.2143 24.3943 13.2143 25.3683V39.393C13.2143 40.2806 12.4947 41.0001 11.6071 41.0001C10.7195 41.0001 10 40.2806 10 39.393V24.0322C10 23.0508 10.7121 22.2144 11.6809 22.0579Z" fill="#CDA93D"/>
<path d="M11.6809 22.0579L36.5888 18.032C36.7181 18.011 36.8506 18.022 36.9748 18.0638C37.7683 18.331 37.6792 19.481 36.8539 19.6228L14.8758 23.3971C13.9159 23.562 13.2143 24.3943 13.2143 25.3683V39.393C13.2143 40.2806 12.4947 41.0001 11.6071 41.0001C10.7195 41.0001 10 40.2806 10 39.393V24.0322C10 23.0508 10.7121 22.2144 11.6809 22.0579Z" fill="#F6CA44"/>
<ellipse cx="40" cy="18.5001" rx="4" ry="1.5" fill="#F6CA44"/>
</svg>
