<svg width="61" height="88" viewBox="0 0 61 88" fill="none" xmlns="http://www.w3.org/2000/svg">
<rect x="31.6666" y="70.2972" width="9.33333" height="4.7027" rx="2.35135" fill="#E69435"/>
<rect x="20.7777" y="70.2972" width="9.33333" height="4.7027" rx="2.35135" fill="#E69435"/>
<path d="M16.7578 50.4865C17.0613 46.266 20.2639 42.8268 24.4522 42.2239L29.4207 41.5086C30.3941 41.3685 31.3829 41.3727 32.355 41.5211L36.6191 42.1722C40.7736 42.8065 43.9361 46.2317 44.2375 50.4236L45.0478 61.6925C45.4033 66.6362 42.0853 71.1362 37.1701 71.7755C35.0421 72.0523 32.8176 72.2567 30.8888 72.2567C28.8384 72.2567 26.362 72.0257 23.9939 71.7223C19.0124 71.084 15.6027 66.5503 15.9629 61.5411L16.7578 50.4865Z" fill="#3CADC6"/>
<path d="M9.38541 46.42L15.8925 47.6892C16.6104 47.8292 17.2777 47.2795 17.2777 46.5481C17.2777 45.4995 18.5565 44.9868 19.2809 45.7449L25.7909 52.5575C26.7325 53.5428 26.8916 55.0391 26.1782 56.2004L23.1351 61.1541C22.6315 61.9739 21.7634 62.5026 20.8065 62.4024C18.8829 62.2008 15.3958 61.4193 11.8333 58.5405C8.91487 56.1821 7.21098 52.5335 6.26621 49.7123C5.60879 47.7491 7.35342 46.0237 9.38541 46.42Z" fill="#3CADC6"/>
<path d="M52.9705 56.8306C50.9475 54.3052 47.7433 50.5366 44.9177 48.2297C44.1066 47.5674 43.3333 45.9999 43.3333 45.9999L37.1164 52.5655C36.1931 53.5406 36.0303 55.0105 36.7178 56.1641L39.5162 60.8595C39.9726 61.6253 40.746 62.1502 41.6325 62.245C43.512 62.446 46.891 62.6737 49.2387 62.0683C50.1187 61.8414 51.1344 61.4252 52.0655 60.9903C53.6737 60.2391 54.0803 58.2159 52.9705 56.8306Z" fill="#3CADC6"/>
<path d="M27.8533 57.7567H23.0737C22.5629 57.7567 22.1845 58.2486 22.3905 58.754C22.7701 59.6854 23.6222 60.9331 25.4635 60.9331C27.3048 60.9331 28.1569 59.6854 28.5365 58.754C28.7425 58.2486 28.3641 57.7567 27.8533 57.7567Z" fill="#44C2DE"/>
<path d="M37.9261 57.7567H33.1466C32.6357 57.7567 32.2573 58.2486 32.4633 58.754C32.8429 59.6854 33.6951 60.9331 35.5363 60.9331C37.3776 60.9331 38.2298 59.6854 38.6094 58.754C38.8153 58.2486 38.4369 57.7567 37.9261 57.7567Z" fill="#44C2DE"/>
<path d="M32.8897 63.2019H28.1101C27.5993 63.2019 27.2209 63.6939 27.4269 64.1993C27.8065 65.1307 28.6586 66.3783 30.4999 66.3783C32.3412 66.3783 33.1933 65.1307 33.573 64.1993C33.7789 63.6939 33.4005 63.2019 32.8897 63.2019Z" fill="#44C2DE"/>
<path d="M14.5556 31.8919C14.5556 39.5946 9.30363 48.0623 28.5556 48.3514H31.6667C50.9186 48.0623 45.6667 39.5946 45.6667 31.8919C45.6667 29.6879 45.1216 27.4747 44.1111 25.6217C43.1006 23.7686 39.1026 17.7838 30.1111 17.7838C21.1196 17.7838 17.1216 23.7686 16.1111 25.6217C15.1006 27.4747 14.5556 29.6879 14.5556 31.8919Z" fill="#3CADC6"/>
<path d="M16.8889 34.8834V32.8379C16.8889 28.4196 20.4706 24.8379 24.8889 24.8379H25.4855C26.8897 24.8379 27.9292 26.4055 29.3334 26.4055H30.8889C32.2924 26.4055 33.3403 24.8379 34.7438 24.8379H35.3334C39.7516 24.8379 43.3334 28.4196 43.3334 32.8379V34.8834C43.3334 38.4257 40.4617 41.2973 36.9194 41.2973H35.5943C33.6649 41.2973 31.902 40.2041 31.0445 38.4757C30.9492 38.2837 30.7533 38.1622 30.5389 38.1622H30.1111H29.6833C29.469 38.1622 29.2731 38.2837 29.1778 38.4757C28.3202 40.2041 26.5574 41.2973 24.628 41.2973H23.3029C19.7606 41.2973 16.8889 38.4257 16.8889 34.8834Z" fill="#44C2DE"/>
<rect x="19.2223" y="26.4055" width="9.33333" height="12.8406" rx="4.66667" fill="white"/>
<rect x="21.5557" y="28.7568" width="5.44444" height="8.62162" rx="2.72222" fill="#4B4B4B"/>
<path d="M24.6668 31.1082C24.6668 31.974 23.9703 32.6758 23.1112 32.6758C22.2521 32.6758 21.5557 31.974 21.5557 31.1082C21.5557 30.2425 22.2521 29.5406 23.1112 29.5406C23.9703 29.5406 24.6668 30.2425 24.6668 31.1082Z" fill="white"/>
<rect x="31.6667" y="26.4055" width="9.33333" height="12.5405" rx="4.66667" fill="white"/>
<rect x="33.2223" y="28.7568" width="5.44445" height="8.62162" rx="2.72222" fill="#4B4B4B"/>
<path d="M36.3334 31.1082C36.3334 31.974 35.637 32.6758 34.7778 32.6758C33.9187 32.6758 33.2223 31.974 33.2223 31.1082C33.2223 30.2425 33.9187 29.5406 34.7778 29.5406C35.637 29.5406 36.3334 30.2425 36.3334 31.1082Z" fill="white"/>
<path d="M30.2075 42.8649C27.7008 42.8649 27.3457 40.5135 27.3457 40.5135H33.0693C33.0693 40.5135 32.7143 42.8649 30.2075 42.8649Z" fill="#E69435"/>
<path d="M30.2075 38.1622C32.2029 38.1622 32.8833 39.4293 33.2223 40.2847C33.3842 40.6933 33.0672 41.0893 32.6141 41.1376L31.8549 41.2185C30.6546 41.3463 29.5677 41.3463 28.3675 41.2185L27.6083 41.1376C27.1551 41.0893 26.8382 40.6933 27.0001 40.2847C27.3391 39.4293 28.212 38.1622 30.2075 38.1622Z" fill="#F5C443"/>
<path d="M31.1747 39.637H30.0577C29.5584 39.637 29.1983 39.1749 29.5835 38.8704C29.8086 38.6926 30.1375 38.5541 30.6162 38.5541C31.0949 38.5541 31.4239 38.6926 31.649 38.8704C32.0342 39.1749 31.674 39.637 31.1747 39.637Z" fill="#F9DD4A"/>
<path d="M39.9008 17.0953C37.4628 17.3042 31.6929 17.7838 30.1111 17.7838L30.1111 21.7027C30.1111 21.7027 33.849 21.386 36.3333 20.9189C37.7525 20.6521 39.4026 18.9318 40.3112 17.861C40.5893 17.5332 40.3291 17.0586 39.9008 17.0953Z" fill="#3CADC6"/>
<path fill-rule="evenodd" clip-rule="evenodd" d="M31.3377 83.9258C46.0082 83.9258 58.4025 73.6531 55.6022 55.811V55.811C55.545 55.4468 55.1154 55.2856 54.8291 55.5177L46.0877 62.6041C45.5006 63.08 44.6953 63.1844 44.0063 62.8737L32.1006 57.5066C31.6125 57.2866 31.0566 57.2714 30.5572 57.4645L18.5709 62.0999C18.234 62.2302 17.8681 62.2668 17.512 62.2059L8.15583 60.6041C7.55022 60.5005 6.99387 60.965 7.01086 61.5792C7.40555 75.8487 18.5056 83.9258 31.3377 83.9258Z" fill="#9BE4F4"/>
<mask id="mask0_508_572" style="mask-type:alpha" maskUnits="userSpaceOnUse" x="7" y="55" width="49" height="29">
<path fill-rule="evenodd" clip-rule="evenodd" d="M31.3377 83.9258C46.0082 83.9258 58.4025 73.6531 55.6022 55.811V55.811C55.545 55.4468 55.1154 55.2856 54.8291 55.5177L46.0877 62.6041C45.5006 63.08 44.6953 63.1844 44.0063 62.8737L32.1006 57.5066C31.6125 57.2866 31.0566 57.2714 30.5572 57.4645L18.5709 62.0999C18.234 62.2302 17.8681 62.2668 17.512 62.2059L8.15583 60.6041C7.55022 60.5005 6.99387 60.965 7.01086 61.5792C7.40555 75.8487 18.5056 83.9258 31.3377 83.9258Z" fill="#9BE4F4"/>
</mask>
<g mask="url(#mask0_508_572)">
<circle cx="17.8443" cy="77.901" r="9.23771" fill="#74D1E5"/>
<circle cx="37.5245" cy="62.2371" r="10.4426" fill="#74D1E5"/>
</g>
<path d="M37.7411 1.52178C29.6285 -0.976533 16.5992 4.79879 9.37659 19.5743C8.86771 20.6153 8.43402 21.6437 8.07186 22.6574C7.90628 23.1209 8.12036 23.6302 8.55952 23.8523L16.4167 27.8266C16.739 27.9896 17.0995 28.0623 17.4598 28.037L29.0094 27.224C29.5435 27.1864 30.0703 27.3645 30.472 27.7184L39.2559 35.4576C39.823 35.9573 40.6233 36.0946 41.3245 35.8125L50.8779 31.9693C51.2145 31.8339 51.4527 31.5233 51.4932 31.1628C53.2449 15.5548 45.74 3.98506 37.7411 1.52178Z" fill="#9BE4F4"/>
<mask id="mask1_508_572" style="mask-type:alpha" maskUnits="userSpaceOnUse" x="8" y="0" width="44" height="36">
<path d="M37.7411 1.52191C29.6285 -0.976411 16.5992 4.79891 9.37659 19.5744C8.86771 20.6155 8.43402 21.6439 8.07186 22.6576C7.90628 23.121 8.12036 23.6303 8.55952 23.8524L16.4167 27.8267C16.739 27.9898 17.0995 28.0625 17.4598 28.0371L29.0094 27.2241C29.5435 27.1865 30.0703 27.3646 30.472 27.7185L39.2559 35.4578C39.823 35.9574 40.6233 36.0947 41.3245 35.8126L50.8779 31.9694C51.2145 31.834 51.4527 31.5234 51.4932 31.1629C53.2449 15.5549 45.74 3.98518 37.7411 1.52191Z" fill="#9BE4F4"/>
</mask>
<g mask="url(#mask1_508_572)">
<circle cx="47.9898" cy="13.4796" r="8.41176" transform="rotate(17.1163 47.9898 13.4796)" fill="#74D1E5"/>
<circle cx="18.3318" cy="11.6172" r="9.50895" transform="rotate(17.1163 18.3318 11.6172)" fill="#74D1E5"/>
<circle cx="33.8684" cy="33.2395" r="9.50895" transform="rotate(17.1163 33.8684 33.2395)" fill="#74D1E5"/>
</g>
</svg>
