<svg width="56" height="56" viewBox="0 0 56 56" fill="none" xmlns="http://www.w3.org/2000/svg">
<path d="M43.0023 3.10898C43.8602 2.25113 45.2521 2.25217 46.1112 3.1113L52.9558 9.9559C53.8149 10.815 53.8159 12.2069 52.9581 13.0648L49.2303 16.7926C48.3724 17.6504 46.9805 17.6494 46.1214 16.7903L39.2768 9.94567C38.4177 9.08655 38.4166 7.69466 39.2745 6.83682L43.0023 3.10898Z" fill="#FF769D"/>
<path d="M43.9875 3.99056C44.2448 3.7332 44.6624 3.73352 44.9201 3.99125L50.5202 9.59138C50.778 9.84912 50.7783 10.2667 50.5209 10.524C50.2636 10.7814 49.846 10.7811 49.5883 10.5233L43.9882 4.92321C43.7304 4.66548 43.7301 4.24791 43.9875 3.99056Z" fill="#FDACC3"/>
<path d="M36.5281 6.47206C37.3001 5.7 38.5528 5.70094 39.326 6.47416L49.4892 16.6373C50.2624 17.4106 50.2634 18.6633 49.4913 19.4353C48.7192 20.2074 47.4666 20.2064 46.6933 19.4332L36.5301 9.27004C35.7569 8.49682 35.756 7.24413 36.5281 6.47206Z" fill="#CFCFCF"/>
<path d="M36.5814 8.49286L47.4705 19.382L19.5117 47.3408L8.62259 36.4517L36.5814 8.49286Z" fill="#FFD300"/>
<path d="M36.5814 8.49286L42.0259 13.9374L14.0672 41.8962L8.62259 36.4517L36.5814 8.49286Z" fill="#FFE600"/>
<path fill-rule="evenodd" clip-rule="evenodd" d="M10.2373 49.1464L19.5117 47.3408L8.62259 36.4517L6.81702 45.7261L10.2373 49.1464Z" fill="#FFBBA8"/>
<path d="M6.81702 45.7261L6.23975 48.6912C6.12052 49.3037 6.6597 49.8429 7.27215 49.7236L10.2373 49.1464L6.81702 45.7261Z" fill="#6D6D6D"/>
</svg>
