<svg width="27" height="25" viewBox="0 0 27 25" fill="none" xmlns="http://www.w3.org/2000/svg">
<path fill-rule="evenodd" clip-rule="evenodd" d="M21.2037 2.66962C21.0342 2.05818 20.2896 1.79254 19.759 2.18497L5.97554 12.3802L6.85938 15.568L23.9249 17.2103C24.5817 17.2735 25.0832 16.6624 24.9137 16.0509L21.2037 2.66962ZM4.97283 16.2494L3.96488 12.6139L2.27741 13.3442L2.21082 13.3627C2.05379 13.4062 1.97121 13.5637 2.01051 13.7054L2.69275 16.1661C2.72497 16.2823 2.80927 16.4028 2.90966 16.4748C2.95562 16.5078 2.99079 16.5204 3.00905 16.5245C3.02303 16.5277 3.02828 16.5259 3.02828 16.5259L3.09301 16.508L4.97283 16.2494ZM4.92716 10.668L18.5697 0.57703C20.2135 -0.638809 22.5818 0.154387 23.131 2.13527L26.841 15.5166C27.3902 17.4975 25.7684 19.3969 23.7333 19.2011L11.9097 18.0633L13.154 20.5777C14.031 22.3501 12.6023 24.3715 10.6529 24.1839C9.79026 24.1009 9.02952 23.5799 8.6444 22.8016L6.26943 18.0021C6.11934 18.0795 5.95336 18.1333 5.77528 18.1578L3.48743 18.4725C2.82002 18.6308 2.19733 18.4253 1.74363 18.0998C1.27878 17.7662 0.921636 17.2638 0.765457 16.7005L0.0832154 14.2398C-0.2472 13.048 0.436411 11.8234 1.60101 11.4577L3.51497 10.6293C3.99066 10.4234 4.50321 10.4563 4.92716 10.668ZM8.36225 17.7219L10.4369 21.9146C10.5133 22.0689 10.6662 22.1759 10.8445 22.1931C11.2582 22.2329 11.5319 21.8092 11.3614 21.4647L9.5667 17.8378L8.36225 17.7219Z" fill="#37464F"/>
<path d="M8.18043 11.4631L16.6531 5.38833C17.0769 5.08441 17.6649 5.16759 17.9878 5.57716C18.3536 6.04102 18.2265 6.72094 17.718 7.02142L8.74211 12.3245C8.53265 12.4482 8.26515 12.4084 8.10082 12.229C7.89238 12.0015 7.92965 11.6429 8.18043 11.4631Z" fill="#37464F" fill-opacity="0.5"/>
</svg>
