<svg width="393" height="786" viewBox="0 0 393 786" fill="none" xmlns="http://www.w3.org/2000/svg">
<rect width="393" height="786" fill="white"/>
<path d="M124 286.718C124 270.053 137.578 256.544 154.328 256.544C154.942 256.544 155.552 256.562 156.158 256.598C163.8 239.736 180.842 228 200.639 228C222.604 228 241.177 242.446 247.284 262.31C247.851 262.272 248.423 262.252 249 262.252C262.807 262.252 274 273.389 274 287.126V287.126C274 300.864 262.864 312 249.126 312H149.282C135.319 312 124 300.681 124 286.718V286.718Z" fill="#E7E7E7"/>
<path fill-rule="evenodd" clip-rule="evenodd" d="M200.447 236.16C182.306 236.16 170.185 246.555 162.754 262.182C161.993 263.782 160.363 264.735 158.649 264.708C158.495 264.705 158.341 264.704 158.186 264.704C150.289 264.704 143.948 267.053 139.601 271.129C135.272 275.188 132.682 281.182 132.682 288.96C132.682 290.286 131.602 291.36 130.27 291.36C128.938 291.36 127.858 290.286 127.858 288.96C127.858 280.073 130.851 272.739 136.293 267.636C141.717 262.55 149.334 259.904 158.186 259.904C158.291 259.904 158.396 259.904 158.501 259.905C166.504 243.221 180.032 231.36 200.447 231.36C201.779 231.36 202.858 232.435 202.858 233.76C202.858 235.086 201.779 236.16 200.447 236.16Z" fill="#EEEEEE"/>
<rect x="124" y="485" width="150" height="73" rx="10" fill="#E7E7E7"/>
<rect x="133.89" y="487.461" width="130.22" height="68.0787" rx="7" fill="#EEEEEE"/>
<mask id="mask0_683_1154" style="mask-type:alpha" maskUnits="userSpaceOnUse" x="133" y="487" width="132" height="69">
<rect x="133.89" y="487.461" width="130.22" height="68.0787" rx="7" fill="#263C42"/>
</mask>
<g mask="url(#mask0_683_1154)">
<path d="M247.18 438.217C252.762 429.719 264.209 427.334 272.748 432.89C281.286 438.446 283.683 449.838 278.1 458.336L226.842 536.362C221.259 544.86 209.812 547.245 201.274 541.689C192.735 536.133 190.339 524.741 195.921 516.243L247.18 438.217Z" fill="white" fill-opacity="0.44"/>
<path d="M174.838 497.422C176.965 494.185 181.325 493.277 184.577 495.393C187.829 497.509 188.742 501.848 186.616 505.085L115.726 612.994C113.6 616.23 109.24 617.139 105.988 615.023C102.735 612.907 101.823 608.568 103.949 605.331L174.838 497.422Z" fill="white" fill-opacity="0.44"/>
</g>
<path d="M216.5 462C216.5 463.381 217.619 464.5 219 464.5C220.381 464.5 221.5 463.381 221.5 462H216.5ZM221.5 400C221.5 398.619 220.381 397.5 219 397.5C217.619 397.5 216.5 398.619 216.5 400H221.5ZM176.5 387C176.5 388.381 177.619 389.5 179 389.5C180.381 389.5 181.5 388.381 181.5 387H176.5ZM181.5 325C181.5 323.619 180.381 322.5 179 322.5C177.619 322.5 176.5 323.619 176.5 325H181.5ZM221.5 462V400H216.5V462H221.5ZM181.5 387V325H176.5V387H181.5Z" fill="#EEEEEE"/>
<path d="M216.5 387C216.5 388.381 217.619 389.5 219 389.5C220.381 389.5 221.5 388.381 221.5 387H216.5ZM221.5 325C221.5 323.619 220.381 322.5 219 322.5C217.619 322.5 216.5 323.619 216.5 325H221.5ZM210.232 329.232C209.256 330.209 209.256 331.791 210.232 332.768C211.209 333.744 212.791 333.744 213.768 332.768L210.232 329.232ZM219 324L220.768 322.232C219.791 321.256 218.209 321.256 217.232 322.232L219 324ZM224.232 332.768C225.209 333.744 226.791 333.744 227.768 332.768C228.744 331.791 228.744 330.209 227.768 329.232L224.232 332.768ZM176.5 462C176.5 463.381 177.619 464.5 179 464.5C180.381 464.5 181.5 463.381 181.5 462H176.5ZM181.5 400C181.5 398.619 180.381 397.5 179 397.5C177.619 397.5 176.5 398.619 176.5 400H181.5ZM173.768 454.232C172.791 453.256 171.209 453.256 170.232 454.232C169.256 455.209 169.256 456.791 170.232 457.768L173.768 454.232ZM179 463L177.232 464.768C178.209 465.744 179.791 465.744 180.768 464.768L179 463ZM187.768 457.768C188.744 456.791 188.744 455.209 187.768 454.232C186.791 453.256 185.209 453.256 184.232 454.232L187.768 457.768ZM221.5 387V325H216.5V387H221.5ZM213.768 332.768L220.768 325.768L217.232 322.232L210.232 329.232L213.768 332.768ZM217.232 325.768L224.232 332.768L227.768 329.232L220.768 322.232L217.232 325.768ZM181.5 462V400H176.5V462H181.5ZM170.232 457.768L177.232 464.768L180.768 461.232L173.768 454.232L170.232 457.768ZM180.768 464.768L187.768 457.768L184.232 454.232L177.232 461.232L180.768 464.768Z" fill="#E7E7E7"/>
<rect x="169.5" y="365.5" width="59" height="59" rx="29.5" fill="white" stroke="#E7E7E7" stroke-width="5"/>
<rect x="164.5" y="360.5" width="69" height="69" rx="34.5" stroke="white" stroke-width="5"/>
<path d="M175.899 414.566C174.923 415.542 174.923 417.125 175.899 418.101C176.876 419.077 178.458 419.077 179.435 418.101L175.899 414.566ZM222.101 375.435C223.078 374.458 223.078 372.875 222.101 371.899C221.125 370.923 219.542 370.923 218.566 371.899L222.101 375.435ZM218.566 371.899L175.899 414.566L179.435 418.101L222.101 375.435L218.566 371.899Z" fill="#E7E7E7"/>
</svg>
