<svg width="411" height="47" viewBox="0 0 411 47" fill="none" xmlns="http://www.w3.org/2000/svg">
<rect width="411" height="47" rx="23.5" fill="#273238"/>
<circle cx="23.5" cy="23.5" r="17.5" fill="white"/>
<path d="M26 18L20 24L26 30" stroke="#666666" stroke-width="2"/>
<line x1="360.5" y1="12" x2="360.5" y2="35" stroke="#3B464C"/>
<rect x="319" y="9" width="29" height="29" rx="4" fill="#414A51"/>
<path d="M334.424 29.08C333.571 29.08 332.808 28.888 332.136 28.504C331.464 28.12 330.936 27.592 330.552 26.92C330.168 26.248 329.976 25.4853 329.976 24.632C329.976 23.768 330.168 23 330.552 22.328C330.936 21.656 331.464 21.128 332.136 20.744C332.808 20.36 333.571 20.168 334.424 20.168C335.277 20.168 336.035 20.36 336.696 20.744C337.368 21.128 337.896 21.656 338.28 22.328C338.664 23 338.861 23.768 338.872 24.632C338.872 25.4853 338.675 26.248 338.28 26.92C337.896 27.592 337.368 28.12 336.696 28.504C336.035 28.888 335.277 29.08 334.424 29.08ZM334.424 27.96C335.043 27.96 335.597 27.816 336.088 27.528C336.579 27.24 336.963 26.8453 337.24 26.344C337.517 25.8427 337.656 25.272 337.656 24.632C337.656 23.992 337.517 23.4213 337.24 22.92C336.963 22.408 336.579 22.008 336.088 21.72C335.597 21.432 335.043 21.288 334.424 21.288C333.805 21.288 333.251 21.432 332.76 21.72C332.269 22.008 331.88 22.408 331.592 22.92C331.315 23.4213 331.176 23.992 331.176 24.632C331.176 25.272 331.315 25.8427 331.592 26.344C331.88 26.8453 332.269 27.24 332.76 27.528C333.251 27.816 333.805 27.96 334.424 27.96ZM332.568 18.856C332.387 18.856 332.232 18.808 332.104 18.712C331.987 18.6053 331.928 18.4667 331.928 18.296C331.928 18.072 332.029 17.8907 332.232 17.752L334.12 16.504C334.205 16.4507 334.307 16.424 334.424 16.424C334.531 16.424 334.637 16.4507 334.744 16.504L336.616 17.752C336.819 17.8907 336.92 18.072 336.92 18.296C336.92 18.456 336.861 18.5893 336.744 18.696C336.627 18.8027 336.477 18.856 336.296 18.856C336.221 18.856 336.152 18.8453 336.088 18.824C336.035 18.8027 335.976 18.7707 335.912 18.728L334.424 17.704L332.936 18.728C332.819 18.8133 332.696 18.856 332.568 18.856Z" fill="#BFC1C4"/>
<rect x="281" y="9" width="29" height="29" rx="4" fill="#414A51"/>
<path d="M295.32 29C295.128 29 294.973 28.9467 294.856 28.84C294.749 28.7227 294.696 28.568 294.696 28.376V20.872C294.696 20.68 294.749 20.5307 294.856 20.424C294.973 20.3067 295.128 20.248 295.32 20.248C295.501 20.248 295.645 20.3067 295.752 20.424C295.869 20.5307 295.928 20.68 295.928 20.872V28.376C295.928 28.568 295.869 28.7227 295.752 28.84C295.645 28.9467 295.501 29 295.32 29ZM293.64 18.856C293.48 18.856 293.341 18.808 293.224 18.712C293.117 18.6053 293.064 18.4667 293.064 18.296C293.064 18.072 293.155 17.8907 293.336 17.752L295.048 16.504C295.123 16.4507 295.213 16.424 295.32 16.424C295.416 16.424 295.512 16.4507 295.608 16.504L297.288 17.752C297.469 17.8907 297.56 18.072 297.56 18.296C297.56 18.456 297.507 18.5893 297.4 18.696C297.293 18.8027 297.16 18.856 297 18.856C296.936 18.856 296.877 18.8453 296.824 18.824C296.771 18.8027 296.712 18.7707 296.648 18.728L295.32 17.704L293.976 18.728C293.869 18.8133 293.757 18.856 293.64 18.856Z" fill="#BFC1C4"/>
<rect x="243" y="9" width="29" height="29" rx="4" fill="#414A51"/>
<path d="M258.408 29.08C257.544 29.08 256.776 28.8933 256.104 28.52C255.443 28.136 254.92 27.608 254.536 26.936C254.163 26.264 253.976 25.496 253.976 24.632C253.976 23.7573 254.152 22.9893 254.504 22.328C254.867 21.656 255.363 21.128 255.992 20.744C256.621 20.36 257.347 20.168 258.168 20.168C258.979 20.168 259.683 20.3547 260.28 20.728C260.888 21.0907 261.357 21.5973 261.688 22.248C262.019 22.8987 262.184 23.64 262.184 24.472C262.184 24.6427 262.131 24.7813 262.024 24.888C261.917 24.984 261.779 25.032 261.608 25.032H255.144C255.208 25.608 255.384 26.12 255.672 26.568C255.96 27.0053 256.339 27.352 256.808 27.608C257.277 27.8533 257.811 27.976 258.408 27.976C258.792 27.976 259.176 27.912 259.56 27.784C259.955 27.6453 260.269 27.4747 260.504 27.272C260.621 27.176 260.755 27.128 260.904 27.128C261.053 27.1173 261.181 27.1547 261.288 27.24C261.427 27.368 261.496 27.5067 261.496 27.656C261.507 27.8053 261.448 27.9333 261.32 28.04C260.968 28.3387 260.52 28.5893 259.976 28.792C259.432 28.984 258.909 29.08 258.408 29.08ZM258.168 21.272C257.347 21.272 256.669 21.528 256.136 22.04C255.603 22.5413 255.283 23.1973 255.176 24.008H261.032C260.947 23.1973 260.648 22.5413 260.136 22.04C259.635 21.528 258.979 21.272 258.168 21.272ZM256.232 18.856C256.051 18.856 255.896 18.808 255.768 18.712C255.651 18.6053 255.592 18.4667 255.592 18.296C255.592 18.072 255.693 17.8907 255.896 17.752L257.784 16.504C257.869 16.4507 257.971 16.424 258.088 16.424C258.195 16.424 258.301 16.4507 258.408 16.504L260.28 17.752C260.483 17.8907 260.584 18.072 260.584 18.296C260.584 18.456 260.525 18.5893 260.408 18.696C260.291 18.8027 260.141 18.856 259.96 18.856C259.885 18.856 259.816 18.8453 259.752 18.824C259.699 18.8027 259.64 18.7707 259.576 18.728L258.088 17.704L256.6 18.728C256.483 18.8133 256.36 18.856 256.232 18.856Z" fill="#BFC1C4"/>
<rect x="205" y="9" width="29" height="29" rx="4" fill="#414A51"/>
<path d="M220.296 29.08C219.475 29.08 218.739 28.888 218.088 28.504C217.437 28.1093 216.92 27.576 216.536 26.904C216.163 26.232 215.976 25.4747 215.976 24.632C215.976 23.7787 216.168 23.016 216.552 22.344C216.947 21.672 217.48 21.144 218.152 20.76C218.824 20.3653 219.581 20.168 220.424 20.168C221.267 20.168 222.019 20.3653 222.68 20.76C223.352 21.144 223.88 21.672 224.264 22.344C224.659 23.016 224.861 23.7787 224.872 24.632V28.392C224.872 28.5733 224.813 28.7227 224.696 28.84C224.579 28.9467 224.429 29 224.248 29C224.067 29 223.917 28.9467 223.8 28.84C223.683 28.7227 223.624 28.5733 223.624 28.392V27.416C223.261 27.928 222.792 28.3333 222.216 28.632C221.64 28.9307 221 29.08 220.296 29.08ZM220.424 27.96C221.043 27.96 221.592 27.816 222.072 27.528C222.563 27.24 222.947 26.8453 223.224 26.344C223.512 25.832 223.656 25.2613 223.656 24.632C223.656 23.992 223.512 23.4213 223.224 22.92C222.947 22.4187 222.563 22.024 222.072 21.736C221.592 21.4373 221.043 21.288 220.424 21.288C219.816 21.288 219.267 21.4373 218.776 21.736C218.285 22.024 217.896 22.4187 217.608 22.92C217.32 23.4213 217.176 23.992 217.176 24.632C217.176 25.2613 217.32 25.832 217.608 26.344C217.896 26.8453 218.285 27.24 218.776 27.528C219.267 27.816 219.816 27.96 220.424 27.96ZM218.568 18.856C218.387 18.856 218.232 18.808 218.104 18.712C217.987 18.6053 217.928 18.4667 217.928 18.296C217.928 18.072 218.029 17.8907 218.232 17.752L220.12 16.504C220.205 16.4507 220.307 16.424 220.424 16.424C220.531 16.424 220.637 16.4507 220.744 16.504L222.616 17.752C222.819 17.8907 222.92 18.072 222.92 18.296C222.92 18.456 222.861 18.5893 222.744 18.696C222.627 18.8027 222.477 18.856 222.296 18.856C222.221 18.856 222.152 18.8453 222.088 18.824C222.035 18.8027 221.976 18.7707 221.912 18.728L220.424 17.704L218.936 18.728C218.819 18.8133 218.696 18.856 218.568 18.856Z" fill="#BFC1C4"/>
<rect x="167" y="9" width="29" height="29" rx="4" fill="#414A51"/>
<path d="M182.296 29.08C181.475 29.08 180.739 28.888 180.088 28.504C179.437 28.1093 178.92 27.576 178.536 26.904C178.163 26.232 177.976 25.4747 177.976 24.632C177.976 23.7787 178.168 23.016 178.552 22.344C178.947 21.672 179.48 21.144 180.152 20.76C180.824 20.3653 181.581 20.168 182.424 20.168C183.267 20.168 184.019 20.3653 184.68 20.76C185.352 21.144 185.88 21.672 186.264 22.344C186.659 23.016 186.861 23.7787 186.872 24.632V28.392C186.872 28.5733 186.813 28.7227 186.696 28.84C186.579 28.9467 186.429 29 186.248 29C186.067 29 185.917 28.9467 185.8 28.84C185.683 28.7227 185.624 28.5733 185.624 28.392V27.416C185.261 27.928 184.792 28.3333 184.216 28.632C183.64 28.9307 183 29.08 182.296 29.08ZM182.424 27.96C183.043 27.96 183.592 27.816 184.072 27.528C184.563 27.24 184.947 26.8453 185.224 26.344C185.512 25.832 185.656 25.2613 185.656 24.632C185.656 23.992 185.512 23.4213 185.224 22.92C184.947 22.4187 184.563 22.024 184.072 21.736C183.592 21.4373 183.043 21.288 182.424 21.288C181.816 21.288 181.267 21.4373 180.776 21.736C180.285 22.024 179.896 22.4187 179.608 22.92C179.32 23.4213 179.176 23.992 179.176 24.632C179.176 25.2613 179.32 25.832 179.608 26.344C179.896 26.8453 180.285 27.24 180.776 27.528C181.267 27.816 181.816 27.96 182.424 27.96ZM182.408 18.824C182.248 18.824 182.109 18.7653 181.992 18.648L180.184 16.856C180.077 16.728 180.024 16.584 180.024 16.424C180.024 16.2427 180.083 16.0933 180.2 15.976C180.317 15.848 180.461 15.784 180.632 15.784C180.803 15.784 180.952 15.848 181.08 15.976L182.872 17.784C182.979 17.8693 183.032 18.0027 183.032 18.184C183.032 18.3653 182.973 18.52 182.856 18.648C182.739 18.7653 182.589 18.824 182.408 18.824Z" fill="#BFC1C4"/>
<rect x="129" y="9" width="29" height="29" rx="4" fill="#414A51"/>
<path d="M144.408 29.08C143.544 29.08 142.776 28.8933 142.104 28.52C141.443 28.136 140.92 27.608 140.536 26.936C140.163 26.264 139.976 25.496 139.976 24.632C139.976 23.7573 140.152 22.9893 140.504 22.328C140.867 21.656 141.363 21.128 141.992 20.744C142.621 20.36 143.347 20.168 144.168 20.168C144.979 20.168 145.683 20.3547 146.28 20.728C146.888 21.0907 147.357 21.5973 147.688 22.248C148.019 22.8987 148.184 23.64 148.184 24.472C148.184 24.6427 148.131 24.7813 148.024 24.888C147.917 24.984 147.779 25.032 147.608 25.032H141.144C141.208 25.608 141.384 26.12 141.672 26.568C141.96 27.0053 142.339 27.352 142.808 27.608C143.277 27.8533 143.811 27.976 144.408 27.976C144.792 27.976 145.176 27.912 145.56 27.784C145.955 27.6453 146.269 27.4747 146.504 27.272C146.621 27.176 146.755 27.128 146.904 27.128C147.053 27.1173 147.181 27.1547 147.288 27.24C147.427 27.368 147.496 27.5067 147.496 27.656C147.507 27.8053 147.448 27.9333 147.32 28.04C146.968 28.3387 146.52 28.5893 145.976 28.792C145.432 28.984 144.909 29.08 144.408 29.08ZM144.168 21.272C143.347 21.272 142.669 21.528 142.136 22.04C141.603 22.5413 141.283 23.1973 141.176 24.008H147.032C146.947 23.1973 146.648 22.5413 146.136 22.04C145.635 21.528 144.979 21.272 144.168 21.272ZM144.072 18.824C143.912 18.824 143.773 18.7653 143.656 18.648L141.848 16.856C141.741 16.728 141.688 16.584 141.688 16.424C141.688 16.2427 141.747 16.0933 141.864 15.976C141.981 15.848 142.125 15.784 142.296 15.784C142.467 15.784 142.616 15.848 142.744 15.976L144.536 17.784C144.643 17.8693 144.696 18.0027 144.696 18.184C144.696 18.3653 144.637 18.52 144.52 18.648C144.403 18.7653 144.253 18.824 144.072 18.824Z" fill="#BFC1C4"/>
<rect x="91" y="9" width="29" height="29" rx="4" fill="#414A51"/>
<path d="M106.408 29.08C105.544 29.08 104.776 28.8933 104.104 28.52C103.443 28.136 102.92 27.608 102.536 26.936C102.163 26.264 101.976 25.496 101.976 24.632C101.976 23.7573 102.152 22.9893 102.504 22.328C102.867 21.656 103.363 21.128 103.992 20.744C104.621 20.36 105.347 20.168 106.168 20.168C106.979 20.168 107.683 20.3547 108.28 20.728C108.888 21.0907 109.357 21.5973 109.688 22.248C110.019 22.8987 110.184 23.64 110.184 24.472C110.184 24.6427 110.131 24.7813 110.024 24.888C109.917 24.984 109.779 25.032 109.608 25.032H103.144C103.208 25.608 103.384 26.12 103.672 26.568C103.96 27.0053 104.339 27.352 104.808 27.608C105.277 27.8533 105.811 27.976 106.408 27.976C106.792 27.976 107.176 27.912 107.56 27.784C107.955 27.6453 108.269 27.4747 108.504 27.272C108.621 27.176 108.755 27.128 108.904 27.128C109.053 27.1173 109.181 27.1547 109.288 27.24C109.427 27.368 109.496 27.5067 109.496 27.656C109.507 27.8053 109.448 27.9333 109.32 28.04C108.968 28.3387 108.52 28.5893 107.976 28.792C107.432 28.984 106.909 29.08 106.408 29.08ZM106.168 21.272C105.347 21.272 104.669 21.528 104.136 22.04C103.603 22.5413 103.283 23.1973 103.176 24.008H109.032C108.947 23.1973 108.648 22.5413 108.136 22.04C107.635 21.528 106.979 21.272 106.168 21.272ZM105.976 18.92C105.805 18.92 105.656 18.8613 105.528 18.744C105.411 18.616 105.352 18.4667 105.352 18.296C105.352 18.1253 105.4 17.9867 105.496 17.88L107.304 16.072C107.421 15.9547 107.565 15.896 107.736 15.896C107.917 15.896 108.067 15.96 108.184 16.088C108.301 16.2053 108.36 16.3547 108.36 16.536C108.36 16.6107 108.344 16.6853 108.312 16.76C108.291 16.8347 108.248 16.8987 108.184 16.952L106.392 18.76C106.285 18.8667 106.147 18.92 105.976 18.92Z" fill="#BFC1C4"/>
<rect x="53" y="9" width="29" height="29" rx="4" fill="#414A51"/>
<path d="M68.344 29.08C67.5013 29.08 66.7493 28.888 66.088 28.504C65.4373 28.1093 64.92 27.576 64.536 26.904C64.1627 26.232 63.976 25.4747 63.976 24.632C63.976 23.7787 64.1573 23.016 64.52 22.344C64.8827 21.672 65.3787 21.144 66.008 20.76C66.6373 20.3653 67.3627 20.168 68.184 20.168C69.5173 20.168 70.6 20.68 71.432 21.704C71.5493 21.832 71.592 21.9707 71.56 22.12C71.528 22.2587 71.4373 22.3813 71.288 22.488C71.1707 22.5733 71.0373 22.6053 70.888 22.584C70.7493 22.552 70.6267 22.472 70.52 22.344C69.9013 21.64 69.1227 21.288 68.184 21.288C67.5867 21.288 67.0587 21.432 66.6 21.72C66.152 22.008 65.8 22.4027 65.544 22.904C65.2987 23.4053 65.176 23.9813 65.176 24.632C65.176 25.272 65.3093 25.8427 65.576 26.344C65.8427 26.8453 66.216 27.24 66.696 27.528C67.176 27.816 67.7253 27.96 68.344 27.96C69.1973 27.96 69.8853 27.7307 70.408 27.272C70.536 27.1653 70.6693 27.1067 70.808 27.096C70.9467 27.0853 71.0747 27.128 71.192 27.224C71.32 27.3413 71.3893 27.4747 71.4 27.624C71.4213 27.7733 71.3733 27.9013 71.256 28.008C70.4773 28.7227 69.5067 29.08 68.344 29.08ZM67.944 32.728C67.368 32.728 66.8987 32.6053 66.536 32.36C66.1733 32.1147 65.992 31.8427 65.992 31.544C65.992 31.384 66.0507 31.2453 66.168 31.128C66.2853 31.0107 66.424 30.952 66.584 30.952C66.7013 30.952 66.8027 30.9787 66.888 31.032C66.984 31.096 67.0693 31.1813 67.144 31.288C67.2293 31.4053 67.336 31.496 67.464 31.56C67.592 31.6347 67.7573 31.672 67.96 31.672C68.2053 31.672 68.408 31.6187 68.568 31.512C68.728 31.4053 68.808 31.256 68.808 31.064C68.808 30.8613 68.744 30.7013 68.616 30.584C68.4987 30.4667 68.2853 30.3707 67.976 30.296C67.72 30.2427 67.5387 30.152 67.432 30.024C67.3253 29.9067 67.3253 29.704 67.432 29.416L67.688 28.76C67.7413 28.6107 67.8213 28.4933 67.928 28.408C68.0453 28.3227 68.2 28.28 68.392 28.28C68.5947 28.28 68.744 28.3547 68.84 28.504C68.9467 28.6427 68.9573 28.808 68.872 29L68.632 29.576C69.1867 29.7147 69.5707 29.9067 69.784 30.152C70.008 30.408 70.12 30.712 70.12 31.064C70.12 31.3627 70.024 31.6347 69.832 31.88C69.64 32.136 69.3787 32.3387 69.048 32.488C68.728 32.648 68.36 32.728 67.944 32.728Z" fill="#BFC1C4"/>
<rect x="373" y="9" width="29" height="29" rx="14.5" fill="#6EACA7"/>
<path d="M383 28.25C382.586 28.25 382.25 28.5858 382.25 29C382.25 29.4142 382.586 29.75 383 29.75V28.25ZM392 29.75C392.414 29.75 392.75 29.4142 392.75 29C392.75 28.5858 392.414 28.25 392 28.25V29.75ZM383 25.25C382.586 25.25 382.25 25.5858 382.25 26C382.25 26.4142 382.586 26.75 383 26.75V25.25ZM392 26.75C392.414 26.75 392.75 26.4142 392.75 26C392.75 25.5858 392.414 25.25 392 25.25V26.75ZM382.443 22.4983C382.165 22.8062 382.19 23.2804 382.498 23.5575C382.806 23.8346 383.28 23.8096 383.557 23.5017L382.443 22.4983ZM387.5 18L388.057 17.4983C387.915 17.3402 387.713 17.25 387.5 17.25C387.287 17.25 387.085 17.3402 386.943 17.4983L387.5 18ZM391.443 23.5017C391.72 23.8096 392.194 23.8346 392.502 23.5575C392.81 23.2804 392.835 22.8062 392.557 22.4983L391.443 23.5017ZM383 29.75H392V28.25H383V29.75ZM383 26.75H392V25.25H383V26.75ZM383.557 23.5017L388.057 18.5017L386.943 17.4983L382.443 22.4983L383.557 23.5017ZM386.943 18.5017L391.443 23.5017L392.557 22.4983L388.057 17.4983L386.943 18.5017Z" fill="white"/>
</svg>
