<svg width="289" height="212" viewBox="0 0 289 212" fill="none" xmlns="http://www.w3.org/2000/svg">
<path d="M1 1.04541H289V211.045H1V1.04541Z" fill="#ADD8E6"/>
<path d="M145.5 5.04541C145.5 10.016 141.471 14.0454 136.5 14.0454H127.5H119C114.029 14.0454 110 10.016 110 5.04541V1.04541H145.5V5.04541Z" fill="white"/>
<path d="M9 57.5454V60.0454V62.5454C9 67.178 5.49995 70.993 1 71.4905V48.6003C5.49995 49.0978 9 52.9129 9 57.5454Z" fill="white"/>
<path d="M237.5 147.545C237.5 142.575 241.529 138.545 246.5 138.545H255.25H289V162.545H269.75H246.5C241.529 162.545 237.5 158.516 237.5 153.545V150.545V147.545Z" fill="white"/>
<path d="M235.5 196.545H272C276.971 196.545 281 200.575 281 205.545V210.545C281 210.713 280.995 210.88 280.986 211.045H253.75H226.514C226.505 210.88 226.5 210.713 226.5 210.545V208.045V205.545C226.5 205.462 226.501 205.378 226.503 205.295C226.636 200.44 230.613 196.545 235.5 196.545Z" fill="white"/>
<path d="M88 88.0454C88 81.9703 92.9249 77.0454 99 77.0454H100H145H173.5H191C197.075 77.0454 202 81.9703 202 88.0454V91.0454V113.045V124.045C202 130.121 197.075 135.045 191 135.045H180.5H161H129.5H104.5H99C92.9249 135.045 88 130.121 88 124.045V119.045V104.045V89.0454V88.0454Z" fill="white"/>
<path d="M226.5 53.5454V56.5454C226.5 61.516 230.529 65.5454 235.5 65.5454H245.5H253C257.971 65.5454 262 61.516 262 56.5454V54.0454V51.5454C262 46.5748 257.971 42.5454 253 42.5454H235.5C230.529 42.5454 226.5 46.5748 226.5 51.5454V53.5454Z" fill="white"/>
<path d="M227.5 31.0454H245C249.971 31.0454 254 27.016 254 22.0454V19.5454V17.0454C254 12.0748 249.971 8.04541 245 8.04541H236.25H227.5C222.529 8.04541 218.5 12.0748 218.5 17.0454V19.5454V22.0454C218.5 27.016 222.529 31.0454 227.5 31.0454Z" fill="white"/>
<path d="M82.5 42.0454C82.5 47.016 86.5294 51.0454 91.5 51.0454H100H109C113.971 51.0454 118 47.016 118 42.0454V39.5454V37.0454C118 32.0748 113.971 28.0454 109 28.0454H91.5C86.5294 28.0454 82.5 32.0748 82.5 37.0454V42.0454Z" fill="white"/>
<path d="M40 13.5454H22.5C17.5294 13.5454 13.5 17.5748 13.5 22.5454V27.5454C13.5 32.516 17.5294 36.5454 22.5 36.5454H40C44.9706 36.5454 49 32.516 49 27.5454V25.0454V22.5454C49 17.5748 44.9706 13.5454 40 13.5454Z" fill="white"/>
<path d="M49.5 146.045H13C8.02944 146.045 4 150.075 4 155.045V160.045C4 165.016 8.02944 169.045 13 169.045H20.5H42H49.5C54.4706 169.045 58.5 165.016 58.5 160.045V157.545V155.045C58.5 150.075 54.4706 146.045 49.5 146.045Z" fill="white"/>
<path d="M94 188.045V182.045C94 177.075 89.9706 173.045 85 173.045H67.5C62.5294 173.045 58.5 177.075 58.5 182.045V185.045V188.045C58.5 193.016 62.5294 197.045 67.5 197.045H85C89.9706 197.045 94 193.016 94 188.045Z" fill="white"/>
<path d="M157.5 185.045V188.045C157.5 193.016 161.529 197.045 166.5 197.045H175H184C188.971 197.045 193 193.016 193 188.045V185.545V183.045C193 178.075 188.971 174.045 184 174.045H175.25H166.5C161.529 174.045 157.5 178.075 157.5 183.045V185.045Z" fill="white"/>
<path fill-rule="evenodd" clip-rule="evenodd" d="M145 77.0454H173.5H191C197.075 77.0454 202 81.9703 202 88.0454V91.0454V113.045V124.045C202 130.121 197.075 135.045 191 135.045H180.5H161H129.5H104.5H99C92.9249 135.045 88 130.121 88 124.045V119.045V104.045V89.0454V88.0454C88 81.9703 92.9249 77.0454 99 77.0454H100H145ZM13 146.045H29H49.5C54.4706 146.045 58.5 150.075 58.5 155.045V157.545V160.045C58.5 165.016 54.4706 169.045 49.5 169.045H42H20.5H13C8.02944 169.045 4 165.016 4 160.045V155.045C4 150.075 8.02944 146.045 13 146.045ZM94 185.045V182.045C94 177.075 89.9706 173.045 85 173.045H67.5C62.5294 173.045 58.5 177.075 58.5 182.045V185.045V188.045C58.5 193.016 62.5294 197.045 67.5 197.045H85C89.9706 197.045 94 193.016 94 188.045V185.045ZM175 197.045H184C188.971 197.045 193 193.016 193 188.045V185.545V183.045C193 178.075 188.971 174.045 184 174.045H175.25H166.5C161.529 174.045 157.5 178.075 157.5 183.045V185.045V188.045C157.5 193.016 161.529 197.045 166.5 197.045H175ZM262 51.5454V54.0454V56.5454C262 61.516 257.971 65.5454 253 65.5454H245.5H235.5C230.529 65.5454 226.5 61.516 226.5 56.5454V53.5454V51.5454C226.5 46.5748 230.529 42.5454 235.5 42.5454H253C257.971 42.5454 262 46.5748 262 51.5454ZM254 19.5454V17.0454C254 12.0748 249.971 8.04541 245 8.04541H236.25H227.5C222.529 8.04541 218.5 12.0748 218.5 17.0454V19.5454V22.0454C218.5 27.016 222.529 31.0454 227.5 31.0454H245C249.971 31.0454 254 27.016 254 22.0454V19.5454ZM118 37.0454V39.5454V42.0454C118 47.016 113.971 51.0454 109 51.0454H100H91.5C86.5294 51.0454 82.5 47.016 82.5 42.0454V37.0454C82.5 32.0748 86.5294 28.0454 91.5 28.0454H109C113.971 28.0454 118 32.0748 118 37.0454ZM49 27.5454V25.0454V22.5454C49 17.5748 44.9706 13.5454 40 13.5454H22.5C17.5294 13.5454 13.5 17.5748 13.5 22.5454V27.5454C13.5 32.516 17.5294 36.5454 22.5 36.5454H40C44.9706 36.5454 49 32.516 49 27.5454Z" fill="white"/>
<path d="M145 77.0454V50.5454C145 44.4703 140.075 39.5454 134 39.5454H127.5M145 77.0454H173.5M145 77.0454H100M118 39.5454H127.5M118 39.5454V37.0454C118 32.0748 113.971 28.0454 109 28.0454H91.5C86.5294 28.0454 82.5 32.0748 82.5 37.0454V42.0454C82.5 47.016 86.5294 51.0454 91.5 51.0454H100M118 39.5454V42.0454C118 47.016 113.971 51.0454 109 51.0454H100M104.5 135.045H99C92.9249 135.045 88 130.121 88 124.045V119.045M104.5 135.045V146.545C104.5 152.621 99.5751 157.545 93.5 157.545H58.5M104.5 135.045H129.5M58.5 157.545V155.045C58.5 150.075 54.4706 146.045 49.5 146.045M58.5 157.545V160.045C58.5 165.016 54.4706 169.045 49.5 169.045H42M129.5 135.045V167.545M129.5 135.045H161M157.5 185.045V188.045C157.5 193.016 161.529 197.045 166.5 197.045H175M157.5 185.045V183.045C157.5 178.075 161.529 174.045 166.5 174.045H175.25M157.5 185.045H147M173.5 77.0454H191C197.075 77.0454 202 81.9703 202 88.0454V91.0454M173.5 77.0454V32.0454M218.5 19.5454H206M218.5 19.5454V22.0454C218.5 27.016 222.529 31.0454 227.5 31.0454H245C249.971 31.0454 254 27.016 254 22.0454V19.5454M218.5 19.5454V17.0454C218.5 12.0748 222.529 8.04541 227.5 8.04541H236.25M202 91.0454H234.5C240.575 91.0454 245.5 86.1205 245.5 80.0454V65.5454M202 91.0454V113.045M245.5 65.5454H235.5C230.529 65.5454 226.5 61.516 226.5 56.5454V53.5454M245.5 65.5454H253C257.971 65.5454 262 61.516 262 56.5454V54.0454M202 113.045V124.045C202 130.121 197.075 135.045 191 135.045H180.5M202 113.045H255.25M180.5 135.045V139.545C180.5 145.621 185.425 150.545 191.5 150.545H218.5M180.5 135.045H161M237.5 150.545H218.5M237.5 150.545V147.545C237.5 142.575 241.529 138.545 246.5 138.545M237.5 150.545V153.545C237.5 158.516 241.529 162.545 246.5 162.545H269.75M88 89.0454V88.0454C88 81.9703 92.9249 77.0454 99 77.0454H100M88 89.0454H70.5M88 89.0454V104.045M9 60.0454H23C29.0751 60.0454 34 64.9703 34 71.0454V78.0454C34 84.1205 38.9249 89.0454 45 89.0454H70.5M9 60.0454V57.5454C9 52.9129 5.49995 49.0978 1 48.6003M9 60.0454V62.5454C9 67.178 5.49995 70.993 1 71.4905M70.5 89.0454V35.7954C70.5 29.8583 65.6871 25.0454 59.75 25.0454M88 119.045H40C33.9249 119.045 29 123.97 29 130.045V146.045M88 119.045V104.045M29 146.045H13M29 146.045H49.5M218.5 150.545V174.259C218.5 180.25 213.706 185.139 207.716 185.257L193 185.545M193 185.545V188.045C193 193.016 188.971 197.045 184 197.045H175M193 185.545V183.045C193 178.075 188.971 174.045 184 174.045H175.25M127.5 39.5454V32.0454M127.5 14.0454H119C114.029 14.0454 110 10.016 110 5.04541V1.04541M127.5 14.0454H136.5C141.471 14.0454 145.5 10.016 145.5 5.04541V1.04541M127.5 14.0454V32.0454M49 25.0454V22.5454C49 17.5748 44.9706 13.5454 40 13.5454H22.5C17.5294 13.5454 13.5 17.5748 13.5 22.5454V27.5454C13.5 32.516 17.5294 36.5454 22.5 36.5454H40C44.9706 36.5454 49 32.516 49 27.5454V25.0454ZM49 25.0454H59.75M100 77.0454V51.0454M206 19.5454V42.5454C206 48.6205 210.925 53.5454 217 53.5454H226.5M206 19.5454H192.5M226.5 53.5454V51.5454C226.5 46.5748 230.529 42.5454 235.5 42.5454H253C257.971 42.5454 262 46.5748 262 51.5454V54.0454M13 146.045H49.5M13 146.045C8.02944 146.045 4 150.075 4 155.045V160.045C4 165.016 8.02944 169.045 13 169.045H20.5M20.5 169.045V177.545C20.5 183.621 15.5751 188.545 9.5 188.545H1M20.5 169.045H42M42 169.045V185.045M255.25 113.045V138.545M255.25 113.045H277.5M255.25 138.545H246.5M255.25 138.545H289H246.5M129.5 167.545V174.045C129.5 180.121 134.425 185.045 140.5 185.045H147M129.5 167.545H120.5C114.425 167.545 109.5 172.47 109.5 178.545V185.045M109.5 185.045H94M109.5 185.045V211.045M94 185.045V182.045M94 185.045V188.045M42 185.045V193.545C42 199.621 46.9249 204.545 53 204.545H72.5C76.9719 204.545 80.8205 207.214 82.5404 211.045M42 185.045H58.5M58.5 185.045V182.045C58.5 177.075 62.5294 173.045 67.5 173.045H85C89.9706 173.045 94 177.075 94 182.045M58.5 185.045V188.045C58.5 193.016 62.5294 197.045 67.5 197.045H85C89.9706 197.045 94 193.016 94 188.045M94 182.045V188.045M262 54.0454H266.5C272.575 54.0454 277.5 58.9703 277.5 65.0454V113.045M277.5 113.045H289M236.25 8.04541H245C249.971 8.04541 254 12.0748 254 17.0454V19.5454M236.25 8.04541V1.29541M254 19.5454H258.5C264.575 19.5454 269.5 14.6205 269.5 8.54541V1.04541M192.5 19.5454H184.5C178.425 19.5454 173.5 24.4703 173.5 30.5454V32.0454M192.5 19.5454V16.0454C192.5 10.7987 188.247 6.54541 183 6.54541C179.182 6.54541 175.891 4.29344 174.381 1.04541M173.5 32.0454H127.5M175 197.045V211.045V208.045M175 197.045V208.045M269.75 162.545V196.045M269.75 162.545H289M226.5 208.045V205.545C226.5 205.462 226.501 205.378 226.503 205.295C226.636 200.44 230.613 196.545 235.5 196.545H272C276.971 196.545 281 200.575 281 205.545V210.545C281 210.713 280.995 210.88 280.986 211.045M226.5 208.045V210.545C226.5 210.713 226.505 210.88 226.514 211.045M226.5 208.045H175M175.25 174.045V167.17C175.25 163.235 172.06 160.045 168.125 160.045C164.19 160.045 161 156.855 161 152.92V135.045M147 185.045V211.045M88 104.045H1M59.75 25.0454V1.04541" stroke="#273238" stroke-width="2"/>
</svg>
