<svg width="514" height="884" viewBox="0 0 514 884" fill="none" xmlns="http://www.w3.org/2000/svg">
<g filter="url(#filter0_di_180:236)">
<path d="M45 87.9223C45 62.0078 66.0465 41 92.0087 41H421.991C447.953 41 469 62.0079 469 87.9224V788.078C469 813.992 447.953 835 421.991 835H92.0087C66.0465 835 45 813.992 45 788.078V87.9223Z" fill="white"/>
</g>
<rect x="172.2" y="56.6408" width="179.739" height="32.2016" fill="white"/>
<mask id="mask0_180:236" style="mask-type:alpha" maskUnits="userSpaceOnUse" x="58" y="55" width="398" height="764">
<path d="M455.174 777.877V96.1228C455.174 73.7652 437.016 55.6408 414.617 55.6408H350.557C346.484 55.6408 343.183 58.9361 343.183 63.0011V69.4415C343.183 79.604 334.929 87.8424 324.748 87.8424H198.931C188.749 87.8424 180.496 79.604 180.496 69.4415V63.0011C180.496 58.9361 177.194 55.6408 173.122 55.6408H99.3827C76.9839 55.6408 58.8262 73.7652 58.8262 96.1228V777.877C58.8262 800.235 76.9839 818.359 99.3827 818.359H414.617C437.016 818.359 455.174 800.235 455.174 777.877Z" fill="#3B464C"/>
</mask>
<g mask="url(#mask0_180:236)">
<rect x="53" y="49" width="407" height="845" fill="#3B464C"/>
<rect x="150" y="219" width="115" height="34" rx="5" fill="#6EACA7"/>
<rect x="267" y="258" width="69" height="34" rx="5" fill="#6EACA7"/>
<rect x="250" y="180" width="68" height="34" rx="5" fill="#6EACA7"/>
<path d="M133.035 204.223C131.833 204.223 130.706 203.993 129.653 203.533C128.614 203.073 127.695 202.435 126.894 201.619C126.108 200.789 125.492 199.839 125.047 198.771C124.602 197.688 124.38 196.531 124.38 195.3C124.38 194.084 124.595 192.942 125.025 191.874C125.47 190.791 126.085 189.842 126.872 189.026C127.673 188.21 128.592 187.572 129.631 187.112C130.684 186.638 131.818 186.4 133.035 186.4C134.103 186.4 135.074 186.556 135.95 186.867C136.825 187.179 137.67 187.676 138.486 188.358C138.679 188.507 138.76 188.699 138.731 188.937C138.701 189.159 138.59 189.315 138.397 189.404C138.353 189.582 138.212 189.693 137.974 189.738C137.752 189.782 137.529 189.715 137.307 189.537C136.728 189.033 136.098 188.662 135.416 188.425C134.733 188.173 133.94 188.047 133.035 188.047C132.071 188.047 131.166 188.24 130.32 188.625C129.49 189.011 128.755 189.537 128.118 190.205C127.48 190.872 126.975 191.644 126.605 192.519C126.249 193.394 126.071 194.321 126.071 195.3C126.071 196.309 126.249 197.251 126.605 198.126C126.975 199.001 127.48 199.772 128.118 200.44C128.755 201.107 129.49 201.634 130.32 202.02C131.166 202.391 132.071 202.576 133.035 202.576C134.637 202.576 136.098 202.057 137.418 201.018C137.685 200.811 137.967 200.781 138.264 200.929C138.575 201.078 138.731 201.33 138.731 201.686C138.731 201.923 138.649 202.131 138.486 202.309C137.73 203.006 136.884 203.503 135.95 203.8C135.015 204.082 134.043 204.223 133.035 204.223ZM146.817 204.111C145.631 204.111 144.57 203.844 143.636 203.31C142.701 202.776 141.967 202.042 141.433 201.107C140.899 200.173 140.632 199.112 140.632 197.926C140.632 196.724 140.899 195.656 141.433 194.722C141.967 193.787 142.701 193.053 143.636 192.519C144.57 191.985 145.631 191.718 146.817 191.718C148.004 191.718 149.057 191.985 149.977 192.519C150.911 193.053 151.646 193.787 152.18 194.722C152.714 195.656 152.988 196.724 153.003 197.926C153.003 199.112 152.728 200.173 152.18 201.107C151.646 202.042 150.911 202.776 149.977 203.31C149.057 203.844 148.004 204.111 146.817 204.111ZM146.817 202.554C147.678 202.554 148.449 202.353 149.131 201.953C149.814 201.552 150.348 201.004 150.733 200.306C151.119 199.609 151.312 198.816 151.312 197.926C151.312 197.036 151.119 196.242 150.733 195.545C150.348 194.833 149.814 194.277 149.131 193.876C148.449 193.476 147.678 193.275 146.817 193.275C145.957 193.275 145.186 193.476 144.503 193.876C143.821 194.277 143.28 194.833 142.879 195.545C142.493 196.242 142.301 197.036 142.301 197.926C142.301 198.816 142.493 199.609 142.879 200.306C143.28 201.004 143.821 201.552 144.503 201.953C145.186 202.353 145.957 202.554 146.817 202.554ZM157.203 204C156.936 204 156.721 203.926 156.558 203.777C156.409 203.614 156.335 203.407 156.335 203.154V192.697C156.335 192.43 156.409 192.222 156.558 192.074C156.721 191.911 156.936 191.829 157.203 191.829C157.455 191.829 157.655 191.911 157.804 192.074C157.967 192.222 158.048 192.43 158.048 192.697V193.453C158.523 192.905 159.109 192.474 159.806 192.163C160.518 191.851 161.282 191.696 162.098 191.696C163.151 191.696 164.093 191.918 164.924 192.363C165.754 192.793 166.407 193.431 166.882 194.277C167.371 195.122 167.616 196.153 167.616 197.369V203.154C167.616 203.392 167.534 203.592 167.371 203.755C167.208 203.918 167.008 204 166.77 204C166.518 204 166.31 203.918 166.147 203.755C165.984 203.592 165.903 203.392 165.903 203.154V197.369C165.903 195.99 165.517 194.974 164.746 194.321C163.989 193.654 163.047 193.32 161.92 193.32C161.193 193.32 160.533 193.461 159.94 193.743C159.361 194.025 158.901 194.41 158.56 194.9C158.219 195.389 158.048 195.945 158.048 196.568V203.154C158.048 203.407 157.967 203.614 157.804 203.777C157.655 203.926 157.455 204 157.203 204ZM168.167 209.207C167.914 209.207 167.707 209.125 167.544 208.962C167.38 208.813 167.299 208.606 167.299 208.339C167.299 208.087 167.38 207.879 167.544 207.716C167.707 207.553 167.914 207.471 168.167 207.471C169.19 207.471 170.028 207.145 170.681 206.492C171.334 205.839 171.66 205.009 171.66 204V192.697C171.66 192.43 171.734 192.222 171.882 192.074C172.046 191.911 172.253 191.829 172.505 191.829C172.758 191.829 172.965 191.911 173.128 192.074C173.292 192.222 173.373 192.43 173.373 192.697V204C173.373 205.009 173.151 205.906 172.706 206.692C172.261 207.478 171.645 208.094 170.859 208.539C170.073 208.984 169.175 209.207 168.167 209.207ZM172.483 189.515C172.157 189.515 171.875 189.397 171.638 189.159C171.4 188.922 171.282 188.633 171.282 188.291C171.282 187.921 171.4 187.631 171.638 187.424C171.89 187.201 172.179 187.09 172.505 187.09C172.817 187.09 173.091 187.201 173.329 187.424C173.581 187.631 173.707 187.921 173.707 188.291C173.707 188.633 173.588 188.922 173.351 189.159C173.114 189.397 172.824 189.515 172.483 189.515ZM183.033 204.134C181.98 204.134 181.038 203.918 180.207 203.488C179.377 203.043 178.717 202.398 178.227 201.552C177.752 200.707 177.515 199.676 177.515 198.46V192.675C177.515 192.437 177.597 192.237 177.76 192.074C177.923 191.911 178.123 191.829 178.361 191.829C178.613 191.829 178.82 191.911 178.984 192.074C179.147 192.237 179.228 192.437 179.228 192.675V198.46C179.228 199.824 179.607 200.84 180.363 201.508C181.12 202.175 182.069 202.509 183.211 202.509C183.938 202.509 184.591 202.368 185.169 202.086C185.762 201.805 186.23 201.419 186.571 200.929C186.912 200.44 187.083 199.884 187.083 199.261V192.675C187.083 192.423 187.157 192.222 187.305 192.074C187.468 191.911 187.676 191.829 187.928 191.829C188.18 191.829 188.388 191.911 188.551 192.074C188.714 192.222 188.796 192.423 188.796 192.675V203.132C188.796 203.399 188.714 203.614 188.551 203.777C188.388 203.926 188.18 204 187.928 204C187.676 204 187.468 203.926 187.305 203.777C187.157 203.614 187.083 203.399 187.083 203.132V202.376C186.593 202.925 186 203.355 185.303 203.666C184.605 203.978 183.849 204.134 183.033 204.134ZM198.158 204.111C196.986 204.111 195.948 203.852 195.043 203.332C194.138 202.798 193.426 202.064 192.907 201.13C192.402 200.195 192.15 199.127 192.15 197.926C192.15 196.709 192.417 195.634 192.951 194.699C193.485 193.765 194.219 193.038 195.154 192.519C196.088 191.985 197.149 191.718 198.336 191.718C199.537 191.718 200.598 191.985 201.517 192.519C202.452 193.038 203.179 193.765 203.698 194.699C204.232 195.634 204.506 196.709 204.521 197.926V202.465C204.521 203.666 204.254 204.742 203.72 205.691C203.186 206.655 202.459 207.412 201.54 207.961C200.62 208.524 199.567 208.806 198.38 208.806C197.208 208.806 196.177 208.584 195.287 208.139C194.397 207.708 193.663 207.115 193.085 206.359C192.922 206.181 192.847 205.988 192.862 205.78C192.892 205.572 193.003 205.402 193.196 205.268C193.389 205.135 193.604 205.09 193.841 205.135C194.079 205.179 194.264 205.291 194.397 205.468C194.828 206.003 195.376 206.433 196.044 206.759C196.726 207.085 197.512 207.249 198.402 207.249C199.233 207.249 199.982 207.048 200.65 206.648C201.317 206.247 201.844 205.684 202.229 204.957C202.63 204.23 202.83 203.377 202.83 202.398V201.374C202.385 202.22 201.755 202.887 200.939 203.377C200.138 203.866 199.211 204.111 198.158 204.111ZM198.336 202.554C199.211 202.554 199.982 202.361 200.65 201.975C201.332 201.575 201.866 201.026 202.252 200.329C202.637 199.632 202.83 198.831 202.83 197.926C202.83 197.021 202.637 196.22 202.252 195.523C201.866 194.811 201.332 194.262 200.65 193.876C199.982 193.476 199.211 193.275 198.336 193.275C197.461 193.275 196.682 193.476 195.999 193.876C195.317 194.262 194.783 194.811 194.397 195.523C194.012 196.22 193.819 197.021 193.819 197.926C193.819 198.831 194.012 199.632 194.397 200.329C194.783 201.026 195.317 201.575 195.999 201.975C196.682 202.361 197.461 202.554 198.336 202.554ZM213.216 204.111C212.073 204.111 211.05 203.844 210.145 203.31C209.24 202.761 208.521 202.02 207.987 201.085C207.468 200.151 207.208 199.098 207.208 197.926C207.208 196.739 207.475 195.678 208.009 194.744C208.558 193.809 209.3 193.075 210.234 192.541C211.169 191.992 212.222 191.718 213.394 191.718C214.565 191.718 215.611 191.992 216.531 192.541C217.465 193.075 218.2 193.809 218.734 194.744C219.282 195.678 219.564 196.739 219.579 197.926V203.154C219.579 203.407 219.497 203.614 219.334 203.777C219.171 203.926 218.963 204 218.711 204C218.459 204 218.251 203.926 218.088 203.777C217.925 203.614 217.844 203.407 217.844 203.154V201.797C217.339 202.509 216.687 203.073 215.886 203.488C215.085 203.904 214.195 204.111 213.216 204.111ZM213.394 202.554C214.254 202.554 215.018 202.353 215.685 201.953C216.368 201.552 216.902 201.004 217.287 200.306C217.688 199.594 217.888 198.801 217.888 197.926C217.888 197.036 217.688 196.242 217.287 195.545C216.902 194.848 216.368 194.299 215.685 193.898C215.018 193.483 214.254 193.275 213.394 193.275C212.548 193.275 211.784 193.483 211.102 193.898C210.419 194.299 209.878 194.848 209.478 195.545C209.077 196.242 208.877 197.036 208.877 197.926C208.877 198.801 209.077 199.594 209.478 200.306C209.878 201.004 210.419 201.552 211.102 201.953C211.784 202.353 212.548 202.554 213.394 202.554ZM227.673 204C226.887 204 226.182 203.815 225.559 203.444C224.951 203.073 224.469 202.569 224.113 201.931C223.757 201.278 223.579 200.536 223.579 199.706V193.765H222.132C221.91 193.765 221.725 193.698 221.576 193.565C221.428 193.416 221.354 193.238 221.354 193.031C221.354 192.808 221.428 192.63 221.576 192.497C221.725 192.348 221.91 192.274 222.132 192.274H223.579V188.825C223.579 188.573 223.653 188.366 223.801 188.202C223.964 188.039 224.172 187.958 224.424 187.958C224.676 187.958 224.884 188.039 225.047 188.202C225.21 188.366 225.292 188.573 225.292 188.825V192.274H227.806C228.029 192.274 228.214 192.348 228.362 192.497C228.511 192.63 228.585 192.808 228.585 193.031C228.585 193.238 228.511 193.416 228.362 193.565C228.214 193.698 228.029 193.765 227.806 193.765H225.292V199.706C225.292 200.462 225.514 201.085 225.959 201.575C226.404 202.049 226.976 202.287 227.673 202.287H228.273C228.511 202.287 228.704 202.368 228.852 202.532C229 202.695 229.074 202.902 229.074 203.154C229.074 203.407 228.985 203.614 228.807 203.777C228.629 203.926 228.407 204 228.14 204H227.673ZM237.381 204.111C236.18 204.111 235.112 203.852 234.177 203.332C233.258 202.798 232.531 202.064 231.997 201.13C231.478 200.195 231.218 199.127 231.218 197.926C231.218 196.709 231.463 195.641 231.952 194.722C232.457 193.787 233.146 193.053 234.022 192.519C234.897 191.985 235.905 191.718 237.048 191.718C238.175 191.718 239.154 191.978 239.985 192.497C240.83 193.001 241.483 193.706 241.943 194.61C242.402 195.515 242.632 196.546 242.632 197.703C242.632 197.941 242.558 198.133 242.41 198.282C242.262 198.415 242.069 198.482 241.831 198.482H232.842C232.931 199.283 233.176 199.995 233.577 200.618C233.977 201.226 234.504 201.708 235.156 202.064C235.809 202.405 236.551 202.576 237.381 202.576C237.915 202.576 238.449 202.487 238.983 202.309C239.532 202.116 239.97 201.879 240.296 201.597C240.459 201.463 240.645 201.397 240.852 201.397C241.06 201.382 241.238 201.434 241.386 201.552C241.579 201.73 241.676 201.923 241.676 202.131C241.69 202.339 241.609 202.517 241.431 202.665C240.941 203.08 240.318 203.429 239.562 203.711C238.805 203.978 238.079 204.111 237.381 204.111ZM237.048 193.253C235.905 193.253 234.964 193.609 234.222 194.321C233.48 195.018 233.035 195.931 232.887 197.058H241.03C240.912 195.931 240.496 195.018 239.784 194.321C239.087 193.609 238.175 193.253 237.048 193.253Z" fill="white"/>
<path d="M261.988 204C261.617 204 261.35 203.815 261.187 203.444L254.579 187.98C254.415 187.565 254.401 187.238 254.534 187.001C254.682 186.749 254.935 186.623 255.291 186.623C255.661 186.623 255.928 186.808 256.092 187.179L261.988 201.285L267.862 187.223C268.025 186.823 268.314 186.623 268.73 186.623C269.071 186.623 269.301 186.756 269.419 187.023C269.538 187.275 269.531 187.565 269.397 187.891L262.767 203.444C262.603 203.815 262.344 204 261.988 204ZM274.992 204.111C273.791 204.111 272.723 203.852 271.788 203.332C270.869 202.798 270.142 202.064 269.608 201.13C269.089 200.195 268.829 199.127 268.829 197.926C268.829 196.709 269.074 195.641 269.563 194.722C270.068 193.787 270.757 193.053 271.632 192.519C272.508 191.985 273.516 191.718 274.658 191.718C275.786 191.718 276.765 191.978 277.595 192.497C278.441 193.001 279.094 193.706 279.553 194.61C280.013 195.515 280.243 196.546 280.243 197.703C280.243 197.941 280.169 198.133 280.021 198.282C279.872 198.415 279.68 198.482 279.442 198.482H270.453C270.542 199.283 270.787 199.995 271.187 200.618C271.588 201.226 272.115 201.708 272.767 202.064C273.42 202.405 274.162 202.576 274.992 202.576C275.526 202.576 276.06 202.487 276.594 202.309C277.143 202.116 277.581 201.879 277.907 201.597C278.07 201.463 278.256 201.397 278.463 201.397C278.671 201.382 278.849 201.434 278.997 201.552C279.19 201.73 279.286 201.923 279.286 202.131C279.301 202.339 279.22 202.517 279.042 202.665C278.552 203.08 277.929 203.429 277.173 203.711C276.416 203.978 275.689 204.111 274.992 204.111ZM274.658 193.253C273.516 193.253 272.574 193.609 271.833 194.321C271.091 195.018 270.646 195.931 270.498 197.058H278.641C278.523 195.931 278.107 195.018 277.395 194.321C276.698 193.609 275.786 193.253 274.658 193.253ZM284.009 204C283.742 204 283.527 203.926 283.364 203.777C283.216 203.614 283.141 203.407 283.141 203.154V192.697C283.141 192.43 283.216 192.222 283.364 192.074C283.527 191.911 283.742 191.829 284.009 191.829C284.261 191.829 284.462 191.911 284.61 192.074C284.773 192.222 284.855 192.43 284.855 192.697V193.453C285.329 192.905 285.915 192.474 286.612 192.163C287.324 191.851 288.088 191.696 288.904 191.696C289.957 191.696 290.899 191.918 291.73 192.363C292.561 192.793 293.213 193.431 293.688 194.277C294.177 195.122 294.422 196.153 294.422 197.369V203.154C294.422 203.392 294.341 203.592 294.177 203.755C294.014 203.918 293.814 204 293.577 204C293.325 204 293.117 203.918 292.954 203.755C292.791 203.592 292.709 203.392 292.709 203.154V197.369C292.709 195.99 292.323 194.974 291.552 194.321C290.795 193.654 289.853 193.32 288.726 193.32C287.999 193.32 287.339 193.461 286.746 193.743C286.167 194.025 285.708 194.41 285.366 194.9C285.025 195.389 284.855 195.945 284.855 196.568V203.154C284.855 203.407 284.773 203.614 284.61 203.777C284.462 203.926 284.261 204 284.009 204ZM299.423 204C299.156 204 298.941 203.926 298.778 203.777C298.629 203.614 298.555 203.399 298.555 203.132V192.697C298.555 192.43 298.629 192.222 298.778 192.074C298.941 191.911 299.156 191.829 299.423 191.829C299.675 191.829 299.875 191.911 300.024 192.074C300.187 192.222 300.269 192.43 300.269 192.697V203.132C300.269 203.399 300.187 203.614 300.024 203.777C299.875 203.926 299.675 204 299.423 204ZM299.401 189.515C299.074 189.515 298.793 189.397 298.555 189.159C298.318 188.922 298.199 188.633 298.199 188.291C298.199 187.921 298.318 187.631 298.555 187.424C298.807 187.201 299.097 187.09 299.423 187.09C299.735 187.09 300.009 187.201 300.246 187.424C300.498 187.631 300.625 187.921 300.625 188.291C300.625 188.633 300.506 188.922 300.269 189.159C300.031 189.397 299.742 189.515 299.401 189.515ZM305.476 204C304.913 204 304.631 203.718 304.631 203.154V192.675C304.631 192.111 304.913 191.829 305.476 191.829C306.04 191.829 306.322 192.111 306.322 192.675V193.631C306.767 193.038 307.316 192.571 307.968 192.23C308.621 191.874 309.341 191.696 310.127 191.696C310.809 191.696 311.336 191.792 311.706 191.985C312.077 192.178 312.218 192.46 312.129 192.83C312.055 193.172 311.877 193.35 311.595 193.364C311.328 193.364 311.009 193.35 310.638 193.32C309.808 193.246 309.066 193.335 308.413 193.587C307.776 193.824 307.264 194.195 306.878 194.699C306.507 195.204 306.322 195.805 306.322 196.502V203.154C306.322 203.718 306.04 204 305.476 204Z" fill="white"/>
<path d="M327.226 204C326.959 204 326.744 203.926 326.581 203.777C326.433 203.614 326.359 203.399 326.359 203.132V192.697C326.359 192.43 326.433 192.222 326.581 192.074C326.744 191.911 326.959 191.829 327.226 191.829C327.478 191.829 327.679 191.911 327.827 192.074C327.99 192.222 328.072 192.43 328.072 192.697V203.132C328.072 203.399 327.99 203.614 327.827 203.777C327.679 203.926 327.478 204 327.226 204ZM327.204 189.515C326.878 189.515 326.596 189.397 326.359 189.159C326.121 188.922 326.003 188.633 326.003 188.291C326.003 187.921 326.121 187.631 326.359 187.424C326.611 187.201 326.9 187.09 327.226 187.09C327.538 187.09 327.812 187.201 328.05 187.424C328.302 187.631 328.428 187.921 328.428 188.291C328.428 188.633 328.309 188.922 328.072 189.159C327.834 189.397 327.545 189.515 327.204 189.515ZM333.302 204C333.035 204 332.82 203.926 332.657 203.777C332.508 203.614 332.434 203.407 332.434 203.154V192.697C332.434 192.43 332.508 192.222 332.657 192.074C332.82 191.911 333.035 191.829 333.302 191.829C333.554 191.829 333.754 191.911 333.903 192.074C334.066 192.222 334.147 192.43 334.147 192.697V193.453C334.622 192.905 335.208 192.474 335.905 192.163C336.617 191.851 337.381 191.696 338.197 191.696C339.25 191.696 340.192 191.918 341.023 192.363C341.853 192.793 342.506 193.431 342.981 194.277C343.47 195.122 343.715 196.153 343.715 197.369V203.154C343.715 203.392 343.633 203.592 343.47 203.755C343.307 203.918 343.107 204 342.869 204C342.617 204 342.41 203.918 342.246 203.755C342.083 203.592 342.002 203.392 342.002 203.154V197.369C342.002 195.99 341.616 194.974 340.845 194.321C340.088 193.654 339.146 193.32 338.019 193.32C337.292 193.32 336.632 193.461 336.039 193.743C335.46 194.025 335 194.41 334.659 194.9C334.318 195.389 334.147 195.945 334.147 196.568V203.154C334.147 203.407 334.066 203.614 333.903 203.777C333.754 203.926 333.554 204 333.302 204ZM358.772 204C357.986 204 357.281 203.815 356.658 203.444C356.05 203.073 355.568 202.569 355.212 201.931C354.856 201.278 354.678 200.536 354.678 199.706V193.765H353.232C353.009 193.765 352.824 193.698 352.676 193.565C352.527 193.416 352.453 193.238 352.453 193.031C352.453 192.808 352.527 192.63 352.676 192.497C352.824 192.348 353.009 192.274 353.232 192.274H354.678V188.825C354.678 188.573 354.752 188.366 354.901 188.202C355.064 188.039 355.271 187.958 355.524 187.958C355.776 187.958 355.983 188.039 356.147 188.202C356.31 188.366 356.391 188.573 356.391 188.825V192.274H358.906C359.128 192.274 359.313 192.348 359.462 192.497C359.61 192.63 359.684 192.808 359.684 193.031C359.684 193.238 359.61 193.416 359.462 193.565C359.313 193.698 359.128 193.765 358.906 193.765H356.391V199.706C356.391 200.462 356.614 201.085 357.059 201.575C357.504 202.049 358.075 202.287 358.772 202.287H359.373C359.61 202.287 359.803 202.368 359.951 202.532C360.1 202.695 360.174 202.902 360.174 203.154C360.174 203.407 360.085 203.614 359.907 203.777C359.729 203.926 359.506 204 359.239 204H358.772ZM363.83 204C363.563 204 363.348 203.926 363.185 203.777C363.037 203.614 362.963 203.407 362.963 203.154V192.697C362.963 192.43 363.037 192.222 363.185 192.074C363.348 191.911 363.563 191.829 363.83 191.829C364.083 191.829 364.283 191.911 364.431 192.074C364.594 192.222 364.676 192.43 364.676 192.697V193.453C365.151 192.905 365.737 192.474 366.434 192.163C367.146 191.851 367.91 191.696 368.725 191.696C369.779 191.696 370.721 191.918 371.551 192.363C372.382 192.793 373.035 193.431 373.509 194.277C373.999 195.122 374.243 196.153 374.243 197.369V203.154C374.243 203.392 374.162 203.592 373.999 203.755C373.836 203.918 373.635 204 373.398 204C373.146 204 372.938 203.918 372.775 203.755C372.612 203.592 372.53 203.392 372.53 203.154V197.369C372.53 195.99 372.145 194.974 371.373 194.321C370.617 193.654 369.675 193.32 368.547 193.32C367.821 193.32 367.161 193.461 366.567 193.743C365.989 194.025 365.529 194.41 365.188 194.9C364.847 195.389 364.676 195.945 364.676 196.568V203.154C364.676 203.407 364.594 203.614 364.431 203.777C364.283 203.926 364.083 204 363.83 204ZM363.83 199.038C363.563 199.038 363.348 198.957 363.185 198.793C363.037 198.63 362.963 198.423 362.963 198.17V187.49C362.963 187.223 363.037 187.016 363.185 186.867C363.348 186.704 363.563 186.623 363.83 186.623C364.083 186.623 364.283 186.704 364.431 186.867C364.594 187.016 364.676 187.223 364.676 187.49V198.17C364.676 198.423 364.594 198.63 364.431 198.793C364.283 198.957 364.083 199.038 363.83 199.038ZM383.539 204.111C382.337 204.111 381.269 203.852 380.335 203.332C379.415 202.798 378.688 202.064 378.154 201.13C377.635 200.195 377.375 199.127 377.375 197.926C377.375 196.709 377.62 195.641 378.11 194.722C378.614 193.787 379.304 193.053 380.179 192.519C381.054 191.985 382.063 191.718 383.205 191.718C384.332 191.718 385.311 191.978 386.142 192.497C386.987 193.001 387.64 193.706 388.1 194.61C388.56 195.515 388.79 196.546 388.79 197.703C388.79 197.941 388.715 198.133 388.567 198.282C388.419 198.415 388.226 198.482 387.989 198.482H379C379.089 199.283 379.333 199.995 379.734 200.618C380.134 201.226 380.661 201.708 381.314 202.064C381.966 202.405 382.708 202.576 383.539 202.576C384.073 202.576 384.607 202.487 385.141 202.309C385.689 202.116 386.127 201.879 386.453 201.597C386.616 201.463 386.802 201.397 387.01 201.397C387.217 201.382 387.395 201.434 387.544 201.552C387.736 201.73 387.833 201.923 387.833 202.131C387.848 202.339 387.766 202.517 387.588 202.665C387.099 203.08 386.476 203.429 385.719 203.711C384.963 203.978 384.236 204.111 383.539 204.111ZM383.205 193.253C382.063 193.253 381.121 193.609 380.379 194.321C379.637 195.018 379.192 195.931 379.044 197.058H387.188C387.069 195.931 386.654 195.018 385.942 194.321C385.244 193.609 384.332 193.253 383.205 193.253Z" fill="white"/>
<path d="M158.093 243C157.841 243 157.633 242.918 157.47 242.755C157.307 242.592 157.225 242.384 157.225 242.132V226.49C157.225 226.238 157.307 226.031 157.47 225.867C157.633 225.704 157.841 225.623 158.093 225.623C158.345 225.623 158.553 225.704 158.716 225.867C158.879 226.031 158.961 226.238 158.961 226.49V242.132C158.961 242.384 158.879 242.592 158.716 242.755C158.553 242.918 158.345 243 158.093 243ZM164.063 243C163.796 243 163.581 242.926 163.418 242.777C163.269 242.614 163.195 242.407 163.195 242.154V231.697C163.195 231.445 163.269 231.237 163.418 231.074C163.581 230.911 163.796 230.829 164.063 230.829C164.315 230.829 164.515 230.911 164.664 231.074C164.827 231.237 164.908 231.445 164.908 231.697V232.186C165.324 231.712 165.813 231.348 166.377 231.096C166.941 230.829 167.564 230.696 168.246 230.696C169.077 230.696 169.811 230.881 170.449 231.252C171.101 231.623 171.62 232.135 172.006 232.787C172.421 232.135 172.978 231.623 173.675 231.252C174.372 230.881 175.151 230.696 176.011 230.696C176.886 230.696 177.658 230.903 178.325 231.319C179.007 231.734 179.534 232.32 179.905 233.076C180.291 233.833 180.483 234.723 180.483 235.746V242.154C180.483 242.407 180.402 242.614 180.239 242.777C180.09 242.926 179.89 243 179.638 243C179.386 243 179.178 242.926 179.015 242.777C178.852 242.614 178.77 242.407 178.77 242.154V235.746C178.77 234.693 178.496 233.863 177.947 233.254C177.398 232.631 176.693 232.32 175.833 232.32C174.913 232.32 174.157 232.631 173.564 233.254C172.985 233.863 172.703 234.678 172.718 235.702V235.746V242.154C172.718 242.407 172.637 242.614 172.473 242.777C172.325 242.926 172.125 243 171.873 243C171.62 243 171.413 242.926 171.25 242.777C171.086 242.614 171.005 242.407 171.005 242.154V235.746C171.005 234.693 170.73 233.863 170.182 233.254C169.633 232.631 168.928 232.32 168.068 232.32C167.148 232.32 166.392 232.624 165.798 233.232C165.205 233.826 164.908 234.604 164.908 235.568V242.154C164.908 242.407 164.827 242.614 164.664 242.777C164.515 242.926 164.315 243 164.063 243ZM185.14 248.207C184.873 248.207 184.657 248.125 184.494 247.962C184.346 247.813 184.272 247.606 184.272 247.339V236.837C184.287 235.68 184.561 234.641 185.095 233.722C185.644 232.787 186.378 232.053 187.298 231.519C188.232 230.985 189.278 230.718 190.435 230.718C191.622 230.718 192.682 230.992 193.617 231.541C194.551 232.075 195.286 232.809 195.82 233.744C196.368 234.678 196.643 235.739 196.643 236.926C196.643 238.098 196.376 239.151 195.842 240.085C195.323 241.02 194.611 241.761 193.706 242.31C192.801 242.844 191.777 243.111 190.635 243.111C189.641 243.111 188.737 242.904 187.921 242.488C187.12 242.058 186.475 241.494 185.985 240.797V247.339C185.985 247.606 185.903 247.813 185.74 247.962C185.592 248.125 185.392 248.207 185.14 248.207ZM190.435 241.554C191.295 241.554 192.067 241.353 192.749 240.953C193.431 240.552 193.965 240.004 194.351 239.306C194.752 238.594 194.952 237.801 194.952 236.926C194.952 236.036 194.752 235.242 194.351 234.545C193.965 233.848 193.431 233.299 192.749 232.898C192.067 232.483 191.295 232.275 190.435 232.275C189.59 232.275 188.826 232.483 188.143 232.898C187.461 233.299 186.927 233.848 186.541 234.545C186.156 235.242 185.963 236.036 185.963 236.926C185.963 237.801 186.156 238.594 186.541 239.306C186.927 240.004 187.461 240.552 188.143 240.953C188.826 241.353 189.59 241.554 190.435 241.554ZM205.365 243.111C204.223 243.111 203.2 242.844 202.295 242.31C201.39 241.761 200.671 241.02 200.137 240.085C199.618 239.151 199.358 238.098 199.358 236.926C199.358 235.739 199.625 234.678 200.159 233.744C200.708 232.809 201.449 232.075 202.384 231.541C203.318 230.992 204.372 230.718 205.543 230.718C206.715 230.718 207.761 230.992 208.681 231.541C209.615 232.075 210.349 232.809 210.883 233.744C211.432 234.678 211.714 235.739 211.729 236.926V242.154C211.729 242.407 211.647 242.614 211.484 242.777C211.321 242.926 211.113 243 210.861 243C210.609 243 210.401 242.926 210.238 242.777C210.075 242.614 209.993 242.407 209.993 242.154V240.797C209.489 241.509 208.836 242.073 208.035 242.488C207.234 242.904 206.344 243.111 205.365 243.111ZM205.543 241.554C206.404 241.554 207.168 241.353 207.835 240.953C208.518 240.552 209.052 240.004 209.437 239.306C209.838 238.594 210.038 237.801 210.038 236.926C210.038 236.036 209.838 235.242 209.437 234.545C209.052 233.848 208.518 233.299 207.835 232.898C207.168 232.483 206.404 232.275 205.543 232.275C204.698 232.275 203.934 232.483 203.252 232.898C202.569 233.299 202.028 233.848 201.627 234.545C201.227 235.242 201.027 236.036 201.027 236.926C201.027 237.801 201.227 238.594 201.627 239.306C202.028 240.004 202.569 240.552 203.252 240.953C203.934 241.353 204.698 241.554 205.543 241.554ZM215.907 243C215.343 243 215.061 242.718 215.061 242.154V231.675C215.061 231.111 215.343 230.829 215.907 230.829C216.47 230.829 216.752 231.111 216.752 231.675V232.631C217.197 232.038 217.746 231.571 218.399 231.23C219.051 230.874 219.771 230.696 220.557 230.696C221.239 230.696 221.766 230.792 222.137 230.985C222.507 231.178 222.648 231.46 222.559 231.83C222.485 232.172 222.307 232.35 222.025 232.364C221.758 232.364 221.439 232.35 221.069 232.32C220.238 232.246 219.496 232.335 218.844 232.587C218.206 232.824 217.694 233.195 217.308 233.699C216.938 234.204 216.752 234.805 216.752 235.502V242.154C216.752 242.718 216.47 243 215.907 243ZM226.765 243C226.542 243 226.349 242.926 226.186 242.777C226.023 242.614 225.942 242.399 225.942 242.132V232.765H224.518C224.28 232.765 224.087 232.698 223.939 232.565C223.806 232.416 223.739 232.238 223.739 232.031C223.739 231.808 223.806 231.63 223.939 231.497C224.087 231.348 224.28 231.274 224.518 231.274H225.942V230.851C225.942 229.294 226.342 228.033 227.143 227.069C227.944 226.105 229.101 225.623 230.614 225.623C230.866 225.623 231.074 225.697 231.237 225.845C231.4 225.994 231.482 226.179 231.482 226.401C231.482 226.624 231.4 226.809 231.237 226.958C231.074 227.106 230.866 227.18 230.614 227.18C229.605 227.18 228.856 227.521 228.367 228.204C227.892 228.871 227.655 229.724 227.655 230.762V231.274H230.325C230.562 231.274 230.748 231.348 230.881 231.497C231.029 231.63 231.104 231.808 231.104 232.031C231.104 232.238 231.029 232.416 230.881 232.565C230.748 232.698 230.562 232.765 230.325 232.765H227.655V242.132C227.655 242.399 227.573 242.614 227.41 242.777C227.262 242.926 227.047 243 226.765 243ZM238.328 243.111C237.185 243.111 236.162 242.844 235.257 242.31C234.352 241.761 233.633 241.02 233.099 240.085C232.58 239.151 232.32 238.098 232.32 236.926C232.32 235.739 232.587 234.678 233.121 233.744C233.67 232.809 234.412 232.075 235.346 231.541C236.281 230.992 237.334 230.718 238.506 230.718C239.677 230.718 240.723 230.992 241.643 231.541C242.577 232.075 243.312 232.809 243.846 233.744C244.394 234.678 244.676 235.739 244.691 236.926V242.154C244.691 242.407 244.61 242.614 244.446 242.777C244.283 242.926 244.076 243 243.823 243C243.571 243 243.364 242.926 243.2 242.777C243.037 242.614 242.956 242.407 242.956 242.154V240.797C242.451 241.509 241.799 242.073 240.998 242.488C240.197 242.904 239.307 243.111 238.328 243.111ZM238.506 241.554C239.366 241.554 240.13 241.353 240.797 240.953C241.48 240.552 242.014 240.004 242.399 239.306C242.8 238.594 243 237.801 243 236.926C243 236.036 242.8 235.242 242.399 234.545C242.014 233.848 241.48 233.299 240.797 232.898C240.13 232.483 239.366 232.275 238.506 232.275C237.66 232.275 236.896 232.483 236.214 232.898C235.532 233.299 234.99 233.848 234.59 234.545C234.189 235.242 233.989 236.036 233.989 236.926C233.989 237.801 234.189 238.594 234.59 239.306C234.99 240.004 235.532 240.552 236.214 240.953C236.896 241.353 237.66 241.554 238.506 241.554ZM249.247 243C248.98 243 248.765 242.926 248.602 242.777C248.453 242.614 248.379 242.399 248.379 242.132V231.697C248.379 231.43 248.453 231.222 248.602 231.074C248.765 230.911 248.98 230.829 249.247 230.829C249.499 230.829 249.699 230.911 249.848 231.074C250.011 231.222 250.093 231.43 250.093 231.697V242.132C250.093 242.399 250.011 242.614 249.848 242.777C249.699 242.926 249.499 243 249.247 243ZM249.225 228.515C248.898 228.515 248.617 228.397 248.379 228.159C248.142 227.922 248.023 227.633 248.023 227.291C248.023 226.921 248.142 226.631 248.379 226.424C248.631 226.201 248.921 226.09 249.247 226.09C249.559 226.09 249.833 226.201 250.07 226.424C250.322 226.631 250.449 226.921 250.449 227.291C250.449 227.633 250.33 227.922 250.093 228.159C249.855 228.397 249.566 228.515 249.225 228.515ZM259.216 243C258.43 243 257.726 242.815 257.103 242.444C256.494 242.073 256.012 241.569 255.656 240.931C255.3 240.278 255.122 239.536 255.122 238.706V232.765H253.676C253.454 232.765 253.268 232.698 253.12 232.565C252.972 232.416 252.897 232.238 252.897 232.031C252.897 231.808 252.972 231.63 253.12 231.497C253.268 231.348 253.454 231.274 253.676 231.274H255.122V227.825C255.122 227.573 255.197 227.366 255.345 227.202C255.508 227.039 255.716 226.958 255.968 226.958C256.22 226.958 256.428 227.039 256.591 227.202C256.754 227.366 256.836 227.573 256.836 227.825V231.274H259.35C259.572 231.274 259.758 231.348 259.906 231.497C260.054 231.63 260.129 231.808 260.129 232.031C260.129 232.238 260.054 232.416 259.906 232.565C259.758 232.698 259.572 232.765 259.35 232.765H256.836V238.706C256.836 239.462 257.058 240.085 257.503 240.575C257.948 241.049 258.519 241.287 259.216 241.287H259.817C260.054 241.287 260.247 241.368 260.396 241.532C260.544 241.695 260.618 241.902 260.618 242.154C260.618 242.407 260.529 242.614 260.351 242.777C260.173 242.926 259.951 243 259.684 243H259.216Z" fill="white"/>
<path d="M282.762 243C282.346 243 282.072 242.815 281.938 242.444L278.467 232.031C278.274 231.23 278.49 230.829 279.113 230.829C279.513 230.829 279.795 231.044 279.958 231.474L282.806 240.152L285.432 231.497C285.491 231.304 285.587 231.148 285.721 231.029C285.869 230.896 286.055 230.829 286.277 230.829C286.707 230.829 286.989 231.052 287.123 231.497L289.681 240.107L292.507 231.474C292.655 231.044 292.93 230.829 293.33 230.829C293.657 230.829 293.879 230.955 293.998 231.207C294.116 231.445 294.116 231.719 293.998 232.031L290.527 242.444C290.408 242.815 290.141 243 289.726 243C289.533 243 289.355 242.948 289.192 242.844C289.043 242.74 288.947 242.607 288.903 242.444L286.233 233.588L283.562 242.444C283.429 242.815 283.162 243 282.762 243ZM297.696 243C297.429 243 297.214 242.926 297.051 242.777C296.903 242.614 296.829 242.399 296.829 242.132V231.697C296.829 231.43 296.903 231.222 297.051 231.074C297.214 230.911 297.429 230.829 297.696 230.829C297.949 230.829 298.149 230.911 298.297 231.074C298.46 231.222 298.542 231.43 298.542 231.697V242.132C298.542 242.399 298.46 242.614 298.297 242.777C298.149 242.926 297.949 243 297.696 243ZM297.674 228.515C297.348 228.515 297.066 228.397 296.829 228.159C296.591 227.922 296.473 227.633 296.473 227.291C296.473 226.921 296.591 226.631 296.829 226.424C297.081 226.201 297.37 226.09 297.696 226.09C298.008 226.09 298.282 226.201 298.52 226.424C298.772 226.631 298.898 226.921 298.898 227.291C298.898 227.633 298.779 227.922 298.542 228.159C298.305 228.397 298.015 228.515 297.674 228.515ZM307.666 243C306.88 243 306.175 242.815 305.552 242.444C304.944 242.073 304.462 241.569 304.106 240.931C303.75 240.278 303.572 239.536 303.572 238.706V232.765H302.126C301.903 232.765 301.718 232.698 301.569 232.565C301.421 232.416 301.347 232.238 301.347 232.031C301.347 231.808 301.421 231.63 301.569 231.497C301.718 231.348 301.903 231.274 302.126 231.274H303.572V227.825C303.572 227.573 303.646 227.366 303.794 227.202C303.958 227.039 304.165 226.958 304.417 226.958C304.67 226.958 304.877 227.039 305.04 227.202C305.204 227.366 305.285 227.573 305.285 227.825V231.274H307.799C308.022 231.274 308.207 231.348 308.356 231.497C308.504 231.63 308.578 231.808 308.578 232.031C308.578 232.238 308.504 232.416 308.356 232.565C308.207 232.698 308.022 232.765 307.799 232.765H305.285V238.706C305.285 239.462 305.508 240.085 305.953 240.575C306.398 241.049 306.969 241.287 307.666 241.287H308.267C308.504 241.287 308.697 241.368 308.845 241.532C308.993 241.695 309.068 241.902 309.068 242.154C309.068 242.407 308.979 242.614 308.801 242.777C308.623 242.926 308.4 243 308.133 243H307.666ZM312.724 243C312.457 243 312.242 242.926 312.079 242.777C311.931 242.614 311.857 242.407 311.857 242.154V231.697C311.857 231.43 311.931 231.222 312.079 231.074C312.242 230.911 312.457 230.829 312.724 230.829C312.976 230.829 313.177 230.911 313.325 231.074C313.488 231.222 313.57 231.43 313.57 231.697V232.453C314.044 231.905 314.63 231.474 315.328 231.163C316.04 230.851 316.803 230.696 317.619 230.696C318.672 230.696 319.614 230.918 320.445 231.363C321.276 231.793 321.928 232.431 322.403 233.277C322.893 234.122 323.137 235.153 323.137 236.369V242.154C323.137 242.392 323.056 242.592 322.893 242.755C322.729 242.918 322.529 243 322.292 243C322.04 243 321.832 242.918 321.669 242.755C321.506 242.592 321.424 242.392 321.424 242.154V236.369C321.424 234.99 321.038 233.974 320.267 233.321C319.511 232.654 318.569 232.32 317.441 232.32C316.714 232.32 316.054 232.461 315.461 232.743C314.883 233.025 314.423 233.41 314.082 233.9C313.74 234.389 313.57 234.945 313.57 235.568V242.154C313.57 242.407 313.488 242.614 313.325 242.777C313.177 242.926 312.976 243 312.724 243ZM312.724 238.038C312.457 238.038 312.242 237.957 312.079 237.793C311.931 237.63 311.857 237.423 311.857 237.17V226.49C311.857 226.223 311.931 226.016 312.079 225.867C312.242 225.704 312.457 225.623 312.724 225.623C312.976 225.623 313.177 225.704 313.325 225.867C313.488 226.016 313.57 226.223 313.57 226.49V237.17C313.57 237.423 313.488 237.63 313.325 237.793C313.177 237.957 312.976 238.038 312.724 238.038ZM338.194 243C337.408 243 336.704 242.815 336.081 242.444C335.473 242.073 334.99 241.569 334.634 240.931C334.278 240.278 334.1 239.536 334.1 238.706V232.765H332.654C332.432 232.765 332.246 232.698 332.098 232.565C331.95 232.416 331.875 232.238 331.875 232.031C331.875 231.808 331.95 231.63 332.098 231.497C332.246 231.348 332.432 231.274 332.654 231.274H334.1V227.825C334.1 227.573 334.175 227.366 334.323 227.202C334.486 227.039 334.694 226.958 334.946 226.958C335.198 226.958 335.406 227.039 335.569 227.202C335.732 227.366 335.814 227.573 335.814 227.825V231.274H338.328C338.55 231.274 338.736 231.348 338.884 231.497C339.033 231.63 339.107 231.808 339.107 232.031C339.107 232.238 339.033 232.416 338.884 232.565C338.736 232.698 338.55 232.765 338.328 232.765H335.814V238.706C335.814 239.462 336.036 240.085 336.481 240.575C336.926 241.049 337.497 241.287 338.194 241.287H338.795C339.033 241.287 339.225 241.368 339.374 241.532C339.522 241.695 339.596 241.902 339.596 242.154C339.596 242.407 339.507 242.614 339.329 242.777C339.151 242.926 338.929 243 338.662 243H338.194ZM343.253 243C342.986 243 342.771 242.926 342.608 242.777C342.459 242.614 342.385 242.407 342.385 242.154V231.697C342.385 231.43 342.459 231.222 342.608 231.074C342.771 230.911 342.986 230.829 343.253 230.829C343.505 230.829 343.705 230.911 343.854 231.074C344.017 231.222 344.098 231.43 344.098 231.697V232.453C344.573 231.905 345.159 231.474 345.856 231.163C346.568 230.851 347.332 230.696 348.148 230.696C349.201 230.696 350.143 230.918 350.974 231.363C351.804 231.793 352.457 232.431 352.932 233.277C353.421 234.122 353.666 235.153 353.666 236.369V242.154C353.666 242.392 353.584 242.592 353.421 242.755C353.258 242.918 353.058 243 352.82 243C352.568 243 352.36 242.918 352.197 242.755C352.034 242.592 351.953 242.392 351.953 242.154V236.369C351.953 234.99 351.567 233.974 350.796 233.321C350.039 232.654 349.097 232.32 347.97 232.32C347.243 232.32 346.583 232.461 345.99 232.743C345.411 233.025 344.951 233.41 344.61 233.9C344.269 234.389 344.098 234.945 344.098 235.568V242.154C344.098 242.407 344.017 242.614 343.854 242.777C343.705 242.926 343.505 243 343.253 243ZM343.253 238.038C342.986 238.038 342.771 237.957 342.608 237.793C342.459 237.63 342.385 237.423 342.385 237.17V226.49C342.385 226.223 342.459 226.016 342.608 225.867C342.771 225.704 342.986 225.623 343.253 225.623C343.505 225.623 343.705 225.704 343.854 225.867C344.017 226.016 344.098 226.223 344.098 226.49V237.17C344.098 237.423 344.017 237.63 343.854 237.793C343.705 237.957 343.505 238.038 343.253 238.038ZM362.961 243.111C361.759 243.111 360.691 242.852 359.757 242.332C358.837 241.798 358.11 241.064 357.576 240.13C357.057 239.195 356.798 238.127 356.798 236.926C356.798 235.709 357.042 234.641 357.532 233.722C358.036 232.787 358.726 232.053 359.601 231.519C360.476 230.985 361.485 230.718 362.627 230.718C363.755 230.718 364.734 230.978 365.564 231.497C366.41 232.001 367.062 232.706 367.522 233.61C367.982 234.515 368.212 235.546 368.212 236.703C368.212 236.941 368.138 237.133 367.989 237.282C367.841 237.415 367.648 237.482 367.411 237.482H358.422C358.511 238.283 358.756 238.995 359.156 239.618C359.557 240.226 360.083 240.708 360.736 241.064C361.389 241.405 362.13 241.576 362.961 241.576C363.495 241.576 364.029 241.487 364.563 241.309C365.112 241.116 365.549 240.879 365.876 240.597C366.039 240.463 366.224 240.397 366.432 240.397C366.64 240.382 366.818 240.434 366.966 240.552C367.159 240.73 367.255 240.923 367.255 241.131C367.27 241.339 367.188 241.517 367.01 241.665C366.521 242.08 365.898 242.429 365.141 242.711C364.385 242.978 363.658 243.111 362.961 243.111ZM362.627 232.253C361.485 232.253 360.543 232.609 359.801 233.321C359.06 234.018 358.615 234.931 358.466 236.058H366.61C366.491 234.931 366.076 234.018 365.364 233.321C364.667 232.609 363.755 232.253 362.627 232.253Z" fill="white"/>
<path d="M183.252 283.111C182.377 283.111 181.509 282.963 180.649 282.666C179.789 282.37 179.092 281.925 178.558 281.331C178.394 281.153 178.328 280.953 178.357 280.73C178.387 280.508 178.498 280.315 178.691 280.152C178.899 280.004 179.114 279.944 179.336 279.974C179.559 280.004 179.744 280.1 179.893 280.263C180.249 280.679 180.716 280.997 181.294 281.22C181.888 281.442 182.54 281.554 183.252 281.554C184.35 281.554 185.144 281.368 185.633 280.997C186.123 280.612 186.375 280.152 186.39 279.618C186.39 279.084 186.137 278.646 185.633 278.305C185.129 277.949 184.298 277.675 183.141 277.482C181.643 277.245 180.545 276.829 179.848 276.236C179.151 275.643 178.802 274.938 178.802 274.122C178.802 273.366 179.003 272.735 179.403 272.231C179.804 271.727 180.338 271.348 181.005 271.096C181.673 270.844 182.407 270.718 183.208 270.718C184.202 270.718 185.055 270.889 185.767 271.23C186.493 271.571 187.079 272.031 187.524 272.609C187.673 272.802 187.732 273.002 187.702 273.21C187.673 273.418 187.554 273.588 187.346 273.722C187.168 273.826 186.961 273.863 186.723 273.833C186.501 273.788 186.308 273.677 186.145 273.499C185.418 272.669 184.424 272.253 183.163 272.253C182.347 272.253 181.695 272.424 181.205 272.765C180.716 273.091 180.471 273.507 180.471 274.011C180.471 274.515 180.686 274.931 181.116 275.257C181.561 275.583 182.392 275.85 183.608 276.058C184.721 276.236 185.596 276.503 186.234 276.859C186.886 277.2 187.346 277.608 187.613 278.083C187.895 278.543 188.036 279.047 188.036 279.596C188.036 280.293 187.828 280.908 187.413 281.442C187.013 281.962 186.449 282.37 185.722 282.666C185.01 282.963 184.187 283.111 183.252 283.111ZM196.292 283.134C195.239 283.134 194.297 282.918 193.466 282.488C192.636 282.043 191.976 281.398 191.486 280.552C191.011 279.707 190.774 278.676 190.774 277.46V271.675C190.774 271.437 190.856 271.237 191.019 271.074C191.182 270.911 191.382 270.829 191.62 270.829C191.872 270.829 192.079 270.911 192.243 271.074C192.406 271.237 192.487 271.437 192.487 271.675V277.46C192.487 278.824 192.866 279.84 193.622 280.508C194.379 281.175 195.328 281.509 196.47 281.509C197.197 281.509 197.85 281.368 198.428 281.086C199.021 280.805 199.489 280.419 199.83 279.929C200.171 279.44 200.342 278.884 200.342 278.261V271.675C200.342 271.423 200.416 271.222 200.564 271.074C200.727 270.911 200.935 270.829 201.187 270.829C201.439 270.829 201.647 270.911 201.81 271.074C201.973 271.222 202.055 271.423 202.055 271.675V282.132C202.055 282.399 201.973 282.614 201.81 282.777C201.647 282.926 201.439 283 201.187 283C200.935 283 200.727 282.926 200.564 282.777C200.416 282.614 200.342 282.399 200.342 282.132V281.376C199.852 281.925 199.259 282.355 198.562 282.666C197.864 282.978 197.108 283.134 196.292 283.134ZM212.218 283.111C211.061 283.111 210.015 282.844 209.081 282.31C208.161 281.776 207.427 281.049 206.878 280.13C206.344 279.195 206.069 278.149 206.055 276.992V266.49C206.055 266.223 206.129 266.016 206.277 265.867C206.44 265.704 206.655 265.623 206.922 265.623C207.174 265.623 207.375 265.704 207.523 265.867C207.686 266.016 207.768 266.223 207.768 266.49V273.032C208.257 272.335 208.903 271.779 209.704 271.363C210.519 270.933 211.424 270.718 212.418 270.718C213.56 270.718 214.584 270.992 215.489 271.541C216.393 272.075 217.105 272.809 217.625 273.744C218.159 274.678 218.426 275.732 218.426 276.903C218.426 278.09 218.151 279.151 217.602 280.085C217.068 281.02 216.334 281.761 215.4 282.31C214.465 282.844 213.404 283.111 212.218 283.111ZM212.218 281.554C213.078 281.554 213.849 281.353 214.532 280.953C215.214 280.538 215.748 279.981 216.134 279.284C216.534 278.587 216.735 277.793 216.735 276.903C216.735 276.028 216.534 275.242 216.134 274.545C215.748 273.833 215.214 273.277 214.532 272.876C213.849 272.476 213.078 272.275 212.218 272.275C211.372 272.275 210.608 272.476 209.926 272.876C209.244 273.277 208.71 273.833 208.324 274.545C207.938 275.242 207.746 276.028 207.746 276.903C207.746 277.793 207.938 278.587 208.324 279.284C208.71 279.981 209.244 280.538 209.926 280.953C210.608 281.353 211.372 281.554 212.218 281.554ZM218.56 288.207C218.308 288.207 218.1 288.125 217.937 287.962C217.774 287.813 217.692 287.606 217.692 287.339C217.692 287.087 217.774 286.879 217.937 286.716C218.1 286.553 218.308 286.471 218.56 286.471C219.583 286.471 220.421 286.145 221.074 285.492C221.727 284.839 222.053 284.009 222.053 283V271.697C222.053 271.43 222.127 271.222 222.275 271.074C222.439 270.911 222.646 270.829 222.898 270.829C223.151 270.829 223.358 270.911 223.521 271.074C223.685 271.222 223.766 271.43 223.766 271.697V283C223.766 284.009 223.544 284.906 223.099 285.692C222.654 286.478 222.038 287.094 221.252 287.539C220.466 287.984 219.568 288.207 218.56 288.207ZM222.876 268.515C222.55 268.515 222.268 268.397 222.031 268.159C221.793 267.922 221.675 267.633 221.675 267.291C221.675 266.921 221.793 266.631 222.031 266.424C222.283 266.201 222.572 266.09 222.898 266.09C223.21 266.09 223.484 266.201 223.722 266.424C223.974 266.631 224.1 266.921 224.1 267.291C224.1 267.633 223.981 267.922 223.744 268.159C223.507 268.397 223.217 268.515 222.876 268.515ZM232.758 283.111C231.556 283.111 230.488 282.852 229.554 282.332C228.634 281.798 227.907 281.064 227.373 280.13C226.854 279.195 226.595 278.127 226.595 276.926C226.595 275.709 226.839 274.641 227.329 273.722C227.833 272.787 228.523 272.053 229.398 271.519C230.273 270.985 231.282 270.718 232.424 270.718C233.551 270.718 234.53 270.978 235.361 271.497C236.207 272.001 236.859 272.706 237.319 273.61C237.779 274.515 238.009 275.546 238.009 276.703C238.009 276.941 237.935 277.133 237.786 277.282C237.638 277.415 237.445 277.482 237.208 277.482H228.219C228.308 278.283 228.553 278.995 228.953 279.618C229.354 280.226 229.88 280.708 230.533 281.064C231.185 281.405 231.927 281.576 232.758 281.576C233.292 281.576 233.826 281.487 234.36 281.309C234.909 281.116 235.346 280.879 235.673 280.597C235.836 280.463 236.021 280.397 236.229 280.397C236.436 280.382 236.614 280.434 236.763 280.552C236.956 280.73 237.052 280.923 237.052 281.131C237.067 281.339 236.985 281.517 236.807 281.665C236.318 282.08 235.695 282.429 234.938 282.711C234.182 282.978 233.455 283.111 232.758 283.111ZM232.424 272.253C231.282 272.253 230.34 272.609 229.598 273.321C228.857 274.018 228.412 274.931 228.263 276.058H236.407C236.288 274.931 235.873 274.018 235.161 273.321C234.464 272.609 233.551 272.253 232.424 272.253ZM245.901 283.111C244.73 283.111 243.684 282.844 242.764 282.31C241.859 281.761 241.14 281.02 240.606 280.085C240.087 279.151 239.827 278.098 239.827 276.926C239.827 275.739 240.079 274.678 240.584 273.744C241.088 272.809 241.778 272.075 242.653 271.541C243.528 270.992 244.537 270.718 245.679 270.718C247.533 270.718 249.039 271.43 250.196 272.854C250.359 273.032 250.418 273.225 250.374 273.432C250.329 273.625 250.203 273.796 249.995 273.944C249.832 274.063 249.647 274.107 249.439 274.078C249.246 274.033 249.076 273.922 248.927 273.744C248.067 272.765 246.984 272.275 245.679 272.275C244.848 272.275 244.114 272.476 243.476 272.876C242.853 273.277 242.364 273.826 242.008 274.523C241.667 275.22 241.496 276.021 241.496 276.926C241.496 277.816 241.681 278.609 242.052 279.306C242.423 280.004 242.942 280.552 243.61 280.953C244.277 281.353 245.041 281.554 245.901 281.554C247.088 281.554 248.045 281.235 248.772 280.597C248.95 280.449 249.135 280.367 249.328 280.352C249.521 280.337 249.699 280.397 249.862 280.53C250.04 280.693 250.136 280.879 250.151 281.086C250.181 281.294 250.114 281.472 249.951 281.62C248.868 282.614 247.518 283.111 245.901 283.111ZM258.488 283C257.702 283 256.998 282.815 256.375 282.444C255.766 282.073 255.284 281.569 254.928 280.931C254.572 280.278 254.394 279.536 254.394 278.706V272.765H252.948C252.726 272.765 252.54 272.698 252.392 272.565C252.244 272.416 252.169 272.238 252.169 272.031C252.169 271.808 252.244 271.63 252.392 271.497C252.54 271.348 252.726 271.274 252.948 271.274H254.394V267.825C254.394 267.573 254.469 267.366 254.617 267.202C254.78 267.039 254.988 266.958 255.24 266.958C255.492 266.958 255.7 267.039 255.863 267.202C256.026 267.366 256.108 267.573 256.108 267.825V271.274H258.622C258.844 271.274 259.03 271.348 259.178 271.497C259.326 271.63 259.401 271.808 259.401 272.031C259.401 272.238 259.326 272.416 259.178 272.565C259.03 272.698 258.844 272.765 258.622 272.765H256.108V278.706C256.108 279.462 256.33 280.085 256.775 280.575C257.22 281.049 257.791 281.287 258.488 281.287H259.089C259.326 281.287 259.519 281.368 259.668 281.532C259.816 281.695 259.89 281.902 259.89 282.154C259.89 282.407 259.801 282.614 259.623 282.777C259.445 282.926 259.223 283 258.956 283H258.488Z" fill="white"/>
<path d="M275.093 283C274.841 283 274.633 282.918 274.47 282.755C274.307 282.592 274.225 282.384 274.225 282.132V266.49C274.225 266.238 274.307 266.031 274.47 265.867C274.633 265.704 274.841 265.623 275.093 265.623C275.36 265.623 275.582 265.727 275.76 265.934L286.396 279.907V266.49C286.396 266.238 286.477 266.031 286.641 265.867C286.804 265.704 287.011 265.623 287.264 265.623C287.501 265.623 287.701 265.704 287.864 265.867C288.042 266.031 288.131 266.238 288.131 266.49V282.132C288.131 282.384 288.042 282.592 287.864 282.755C287.701 282.918 287.501 283 287.264 283C286.982 283 286.767 282.904 286.618 282.711L275.961 268.738V282.132C275.961 282.384 275.872 282.592 275.694 282.755C275.53 282.918 275.33 283 275.093 283ZM297.903 283.111C296.717 283.111 295.656 282.844 294.722 282.31C293.787 281.776 293.053 281.042 292.519 280.107C291.985 279.173 291.718 278.112 291.718 276.926C291.718 275.724 291.985 274.656 292.519 273.722C293.053 272.787 293.787 272.053 294.722 271.519C295.656 270.985 296.717 270.718 297.903 270.718C299.09 270.718 300.143 270.985 301.063 271.519C301.997 272.053 302.732 272.787 303.266 273.722C303.8 274.656 304.074 275.724 304.089 276.926C304.089 278.112 303.814 279.173 303.266 280.107C302.732 281.042 301.997 281.776 301.063 282.31C300.143 282.844 299.09 283.111 297.903 283.111ZM297.903 281.554C298.764 281.554 299.535 281.353 300.217 280.953C300.9 280.552 301.434 280.004 301.819 279.306C302.205 278.609 302.398 277.816 302.398 276.926C302.398 276.036 302.205 275.242 301.819 274.545C301.434 273.833 300.9 273.277 300.217 272.876C299.535 272.476 298.764 272.275 297.903 272.275C297.043 272.275 296.272 272.476 295.589 272.876C294.907 273.277 294.366 273.833 293.965 274.545C293.579 275.242 293.387 276.036 293.387 276.926C293.387 277.816 293.579 278.609 293.965 279.306C294.366 280.004 294.907 280.552 295.589 280.953C296.272 281.353 297.043 281.554 297.903 281.554ZM312.716 283.134C311.663 283.134 310.721 282.918 309.891 282.488C309.06 282.043 308.4 281.398 307.91 280.552C307.436 279.707 307.198 278.676 307.198 277.46V271.675C307.198 271.437 307.28 271.237 307.443 271.074C307.606 270.911 307.807 270.829 308.044 270.829C308.296 270.829 308.504 270.911 308.667 271.074C308.83 271.237 308.912 271.437 308.912 271.675V277.46C308.912 278.824 309.29 279.84 310.046 280.508C310.803 281.175 311.752 281.509 312.894 281.509C313.621 281.509 314.274 281.368 314.852 281.086C315.446 280.805 315.913 280.419 316.254 279.929C316.595 279.44 316.766 278.884 316.766 278.261V271.675C316.766 271.423 316.84 271.222 316.988 271.074C317.152 270.911 317.359 270.829 317.611 270.829C317.864 270.829 318.071 270.911 318.234 271.074C318.398 271.222 318.479 271.423 318.479 271.675V282.132C318.479 282.399 318.398 282.614 318.234 282.777C318.071 282.926 317.864 283 317.611 283C317.359 283 317.152 282.926 316.988 282.777C316.84 282.614 316.766 282.399 316.766 282.132V281.376C316.276 281.925 315.683 282.355 314.986 282.666C314.289 282.978 313.532 283.134 312.716 283.134ZM326.729 283.111C325.853 283.111 324.986 282.963 324.125 282.666C323.265 282.37 322.568 281.925 322.034 281.331C321.871 281.153 321.804 280.953 321.834 280.73C321.863 280.508 321.974 280.315 322.167 280.152C322.375 280.004 322.59 279.944 322.813 279.974C323.035 280.004 323.22 280.1 323.369 280.263C323.725 280.679 324.192 280.997 324.771 281.22C325.364 281.442 326.017 281.554 326.729 281.554C327.826 281.554 328.62 281.368 329.109 280.997C329.599 280.612 329.851 280.152 329.866 279.618C329.866 279.084 329.614 278.646 329.109 278.305C328.605 277.949 327.774 277.675 326.617 277.482C325.119 277.245 324.021 276.829 323.324 276.236C322.627 275.643 322.279 274.938 322.279 274.122C322.279 273.366 322.479 272.735 322.879 272.231C323.28 271.727 323.814 271.348 324.481 271.096C325.149 270.844 325.883 270.718 326.684 270.718C327.678 270.718 328.531 270.889 329.243 271.23C329.97 271.571 330.556 272.031 331.001 272.609C331.149 272.802 331.208 273.002 331.179 273.21C331.149 273.418 331.03 273.588 330.823 273.722C330.645 273.826 330.437 273.863 330.2 273.833C329.977 273.788 329.784 273.677 329.621 273.499C328.894 272.669 327.9 272.253 326.64 272.253C325.824 272.253 325.171 272.424 324.682 272.765C324.192 273.091 323.947 273.507 323.947 274.011C323.947 274.515 324.162 274.931 324.593 275.257C325.038 275.583 325.868 275.85 327.085 276.058C328.197 276.236 329.072 276.503 329.71 276.859C330.363 277.2 330.823 277.608 331.09 278.083C331.371 278.543 331.512 279.047 331.512 279.596C331.512 280.293 331.305 280.908 330.889 281.442C330.489 281.962 329.925 282.37 329.198 282.666C328.486 282.963 327.663 283.111 326.729 283.111Z" fill="white"/>
<g filter="url(#filter1_d_180:236)">
<rect x="93" y="381" width="327" height="36" rx="18" fill="#273238"/>
<rect x="92" y="380" width="329" height="38" rx="19" stroke="#6EACA7" stroke-width="2"/>
</g>
<circle cx="402" cy="399" r="15" fill="#6EACA7"/>
<path d="M409.4 398.525C409.341 398.372 409.251 398.231 409.137 398.113L402.888 391.863C402.771 391.746 402.633 391.654 402.48 391.59C402.328 391.527 402.165 391.495 402 391.495C401.667 391.495 401.348 391.627 401.112 391.863C400.996 391.979 400.904 392.117 400.84 392.27C400.777 392.422 400.745 392.585 400.745 392.75C400.745 393.083 400.877 393.402 401.112 393.638L405.238 397.75H395.75C395.418 397.75 395.101 397.882 394.866 398.116C394.632 398.351 394.5 398.668 394.5 399C394.5 399.332 394.632 399.649 394.866 399.884C395.101 400.118 395.418 400.25 395.75 400.25H405.238L401.112 404.363C400.995 404.479 400.902 404.617 400.839 404.769C400.775 404.922 400.743 405.085 400.743 405.25C400.743 405.415 400.775 405.578 400.839 405.731C400.902 405.883 400.995 406.021 401.112 406.138C401.229 406.255 401.367 406.348 401.519 406.411C401.672 406.475 401.835 406.507 402 406.507C402.165 406.507 402.328 406.475 402.481 406.411C402.633 406.348 402.771 406.255 402.888 406.138L409.137 399.888C409.251 399.769 409.341 399.628 409.4 399.475C409.525 399.171 409.525 398.829 409.4 398.525Z" fill="white"/>
</g>
<defs>
<filter id="filter0_di_180:236" x="0" y="0" width="514" height="884" filterUnits="userSpaceOnUse" color-interpolation-filters="sRGB">
<feFlood flood-opacity="0" result="BackgroundImageFix"/>
<feColorMatrix in="SourceAlpha" type="matrix" values="0 0 0 0 0 0 0 0 0 0 0 0 0 0 0 0 0 0 127 0" result="hardAlpha"/>
<feOffset dy="4"/>
<feGaussianBlur stdDeviation="22.5"/>
<feComposite in2="hardAlpha" operator="out"/>
<feColorMatrix type="matrix" values="0 0 0 0 0 0 0 0 0 0 0 0 0 0 0 0 0 0 1 0"/>
<feBlend mode="normal" in2="BackgroundImageFix" result="effect1_dropShadow_180:236"/>
<feBlend mode="normal" in="SourceGraphic" in2="effect1_dropShadow_180:236" result="shape"/>
<feColorMatrix in="SourceAlpha" type="matrix" values="0 0 0 0 0 0 0 0 0 0 0 0 0 0 0 0 0 0 127 0" result="hardAlpha"/>
<feOffset/>
<feGaussianBlur stdDeviation="7"/>
<feComposite in2="hardAlpha" operator="arithmetic" k2="-1" k3="1"/>
<feColorMatrix type="matrix" values="0 0 0 0 0 0 0 0 0 0 0 0 0 0 0 0 0 0 0.5 0"/>
<feBlend mode="normal" in2="shape" result="effect2_innerShadow_180:236"/>
</filter>
<filter id="filter1_d_180:236" x="78" y="366" width="357" height="66" filterUnits="userSpaceOnUse" color-interpolation-filters="sRGB">
<feFlood flood-opacity="0" result="BackgroundImageFix"/>
<feColorMatrix in="SourceAlpha" type="matrix" values="0 0 0 0 0 0 0 0 0 0 0 0 0 0 0 0 0 0 127 0" result="hardAlpha"/>
<feOffset/>
<feGaussianBlur stdDeviation="6.5"/>
<feComposite in2="hardAlpha" operator="out"/>
<feColorMatrix type="matrix" values="0 0 0 0 1 0 0 0 0 1 0 0 0 0 1 0 0 0 0.31 0"/>
<feBlend mode="normal" in2="BackgroundImageFix" result="effect1_dropShadow_180:236"/>
<feBlend mode="normal" in="SourceGraphic" in2="effect1_dropShadow_180:236" result="shape"/>
</filter>
</defs>
</svg>
