<svg width="328" height="66" viewBox="0 0 328 66" fill="none" xmlns="http://www.w3.org/2000/svg" xmlns:xlink="http://www.w3.org/1999/xlink">
<path d="M0 0H328V36C328 52.5685 314.569 66 298 66H30C13.4314 66 0 52.5685 0 36V0Z" fill="#273238"/>
<path d="M72.5457 44C71.929 44 71.485 43.6917 71.2137 43.075L60.2247 17.36C59.9534 16.6693 59.9287 16.1267 60.1507 15.732C60.3974 15.3127 60.8167 15.103 61.4087 15.103C62.0254 15.103 62.4694 15.4113 62.7407 16.028L72.5457 39.486L82.3137 16.102C82.585 15.436 83.066 15.103 83.7567 15.103C84.324 15.103 84.7064 15.325 84.9037 15.769C85.101 16.1883 85.0887 16.6693 84.8667 17.212L73.8407 43.075C73.5694 43.6917 73.1377 44 72.5457 44ZM90.891 44C90.4717 44 90.1264 43.8643 89.855 43.593C89.5837 43.3217 89.448 42.9763 89.448 42.557V16.546C89.448 16.1267 89.5837 15.7813 89.855 15.51C90.1264 15.2387 90.4717 15.103 90.891 15.103C91.3104 15.103 91.6557 15.2387 91.927 15.51C92.1984 15.7813 92.334 16.1267 92.334 16.546V42.557C92.334 42.9763 92.1984 43.3217 91.927 43.593C91.6557 43.8643 91.3104 44 90.891 44ZM108.145 44C107.75 44 107.405 43.8643 107.109 43.593C106.838 43.297 106.702 42.9517 106.702 42.557V17.73H97.9329C97.5382 17.73 97.2176 17.6067 96.9709 17.36C96.7242 17.1133 96.6009 16.805 96.6009 16.435C96.6009 16.0403 96.7242 15.7197 96.9709 15.473C97.2176 15.2263 97.5382 15.103 97.9329 15.103H118.394C118.789 15.103 119.109 15.2263 119.356 15.473C119.603 15.7197 119.726 16.0403 119.726 16.435C119.726 16.805 119.603 17.1133 119.356 17.36C119.109 17.6067 118.789 17.73 118.394 17.73H109.588V42.557C109.588 42.9517 109.452 43.297 109.181 43.593C108.91 43.8643 108.564 44 108.145 44ZM125.434 44C125.015 44 124.669 43.8643 124.398 43.593C124.127 43.3217 123.991 42.9763 123.991 42.557V16.546C123.991 16.1267 124.127 15.7813 124.398 15.51C124.669 15.2387 125.015 15.103 125.434 15.103H142.787C143.182 15.103 143.515 15.2387 143.786 15.51C144.082 15.7567 144.23 16.0897 144.23 16.509C144.23 16.879 144.082 17.1997 143.786 17.471C143.515 17.7423 143.182 17.878 142.787 17.878H126.877V28.09H138.458C138.877 28.09 139.223 28.2257 139.494 28.497C139.765 28.7683 139.901 29.1013 139.901 29.496C139.901 29.8907 139.765 30.2237 139.494 30.495C139.223 30.7663 138.877 30.902 138.458 30.902H126.877V41.225H142.787C143.182 41.225 143.515 41.3607 143.786 41.632C144.082 41.9033 144.23 42.224 144.23 42.594C144.23 43.0133 144.082 43.3587 143.786 43.63C143.515 43.8767 143.182 44 142.787 44H125.434ZM149.905 37.451C149.511 37.451 149.165 37.3153 148.869 37.044C148.598 36.748 148.462 36.4027 148.462 36.008V16.546C148.462 16.1267 148.598 15.7813 148.869 15.51C149.165 15.214 149.511 15.066 149.905 15.066C150.325 15.066 150.67 15.214 150.941 15.51C151.213 15.7813 151.348 16.1267 151.348 16.546V36.008C151.348 36.4027 151.2 36.748 150.904 37.044C150.608 37.3153 150.275 37.451 149.905 37.451ZM149.905 44C149.313 44 148.808 43.7903 148.388 43.371C147.969 42.9517 147.759 42.446 147.759 41.854C147.759 41.2373 147.969 40.7193 148.388 40.3C148.808 39.8807 149.313 39.671 149.905 39.671C150.497 39.671 151.003 39.893 151.422 40.337C151.842 40.7563 152.051 41.262 152.051 41.854C152.051 42.446 151.842 42.9517 151.422 43.371C151.003 43.7903 150.497 44 149.905 44Z" fill="white"/>
<line x1="216" y1="17" x2="216" y2="49" stroke="#3B464C" stroke-width="2"/>
<rect x="217" y="13" width="111" height="40" fill="url(#pattern0)"/>
<defs>
<pattern id="pattern0" patternContentUnits="objectBoundingBox" width="1" height="1">
<use xlink:href="#image0_179:119" transform="translate(0.31982) scale(0.000351914 0.000976562)"/>
</pattern>
<image id="image0_179:119" width="1024" height="1024" xlink:href="/img/icon/icon-512x512.png"/>
</defs>
</svg>
