<svg width="47" height="35" viewBox="0 0 47 35" fill="none" xmlns="http://www.w3.org/2000/svg">
<path d="M4 1H42.0185C43.6754 1 45.0185 2.34315 45.0185 4V29.5705C45.0185 31.2274 43.6754 32.5705 42.0185 32.5705H31.9463C31.0128 32.5705 30.2187 33.1672 29.9245 34H16.094C15.7998 33.1672 15.0057 32.5705 14.0722 32.5705H4C2.34315 32.5705 1 31.2274 1 29.5705V4C1 2.34314 2.34314 1 4 1Z" stroke="#C8C8C8" stroke-width="2"/>
<path d="M3.88892 28.0981C3.88892 28.4142 4.2006 28.6704 4.58507 28.6704H17.464C17.464 29.3025 17.9764 29.8149 18.6085 29.8149H26.7619C27.394 29.8149 27.9064 29.3025 27.9064 28.6704H40.7853C41.1698 28.6704 41.4815 28.4142 41.4815 28.0981V25.2778H22.6852H3.88892V28.0981Z" fill="#D7D7D7" stroke="#D7D7D7" stroke-width="2"/>
<path d="M20.2486 3.24072H4.58507C4.2006 3.24072 3.88892 3.52365 3.88892 3.87267V24.7268V25.3588H4.58507H19.2044C20.5501 25.3588 22.6852 27.297 22.6852 28.5185C22.6852 27.297 24.8203 25.3588 26.166 25.3588H40.7853H41.4815V24.7268V3.87267C41.4815 3.52365 41.1698 3.24072 40.7853 3.24072H25.1218C23.7761 3.24072 22.6852 4.23098 22.6852 5.45253C22.6852 4.23098 21.5943 3.24072 20.2486 3.24072Z" stroke="#C8C8C8" stroke-width="2"/>
</svg>
