<svg width="53" height="32" viewBox="0 0 53 32" fill="none" xmlns="http://www.w3.org/2000/svg">
<path d="M0 12.503C0 11.3154 0.962745 10.3526 2.15035 10.3526C3.18353 10.3526 4.04653 11.0813 4.25349 12.0527C4.28442 12.1979 4.3007 12.3486 4.3007 12.503V16.8037C4.3007 17.1273 4.22919 17.4343 4.10111 17.7096C3.75924 18.4445 2.91855 19.2228 2.0546 19.2228C0.866997 19.2228 0 17.9913 0 16.8037V12.503Z" fill="#EB6C6C"/>
<path fill-rule="evenodd" clip-rule="evenodd" d="M14.9317 28.9875L13.4838 21.3732L7.91399 19.2228L9.95099 29.9346C10.1147 30.7953 10.7111 31.5104 11.5283 31.8259C13.3834 32.5421 15.3032 30.941 14.9317 28.9875Z" fill="#E84141"/>
<path d="M6.98864 18.8656L4.56842 17.9312C4.40267 17.8672 4.2469 17.7929 4.10111 17.7096C3.75924 18.4445 2.91855 19.2228 2.0546 19.2228L5.97272 19.7532C6.51028 19.826 6.98864 19.408 6.98864 18.8656V18.8656Z" fill="#EB6C6C"/>
<path d="M4.56842 11.9131L6.98864 10.9787V10.826C6.98864 10.2187 6.45172 9.7516 5.85025 9.83564L2.15035 10.3526C3.18353 10.3526 4.04653 11.0813 4.25349 12.0527C4.35412 12.0019 4.4591 11.9553 4.56842 11.9131Z" fill="#EB6C6C"/>
<path fill-rule="evenodd" clip-rule="evenodd" d="M6.98864 10.9787L34.8567 0.219505C36.97 -0.596397 39.2439 0.963209 39.2439 3.22856V26.6157C39.2439 28.881 36.97 30.4406 34.8566 29.6247L13.4838 21.3732L7.91399 19.2228L6.98864 18.8656V10.9787Z" fill="#E84141"/>
<path d="M4.3007 12.503V16.8037C4.3007 17.1273 4.22919 17.4343 4.10111 17.7096C4.2469 17.7929 4.40267 17.8672 4.56842 17.9312L6.98864 18.8656V10.9787L4.56842 11.9131C4.4591 11.9553 4.35412 12.0019 4.25349 12.0527C4.28442 12.1979 4.3007 12.3486 4.3007 12.503Z" fill="#EB6C6C"/>
<path d="M9.09033 12.1492L32.2711 3.48569C33.4611 3.04094 34.7894 3.62024 35.2731 4.79494C35.8118 6.10327 35.0834 7.58791 33.7189 7.96246L9.85491 14.5134C9.2825 14.6705 8.67884 14.4012 8.41338 13.8703C8.08295 13.2094 8.39821 12.4079 9.09033 12.1492Z" fill="#EC7A7A"/>
<path d="M42.4434 8.49202L49.9164 6.19929M50.9125 14.8907L42.9404 14.9788M42.4434 22.3099L48.5673 24.6583" stroke="#E84141" stroke-width="3" stroke-linecap="round"/>
</svg>
