<svg width="40" height="40" viewBox="0 0 40 40" fill="none" xmlns="http://www.w3.org/2000/svg">
<path d="M30.8362 33.1858L26.1922 35.8866C25.656 36.1984 24.993 36.1935 24.4614 35.8738L21.8635 34.311C21.3342 33.9926 20.7285 33.8244 20.1111 33.8244H19.8869C19.2708 33.8244 18.6663 33.9918 18.1378 34.3089L15.5518 35.8605C15.0221 36.1783 14.3622 36.1838 13.8273 35.875L9.16856 33.185C8.73597 32.9352 8.44001 32.5115 8.34721 32.0315L8.31642 33.8591C8.30597 34.4792 8.63227 35.0561 9.16857 35.3658L13.8273 38.0558C14.3622 38.3647 15.0221 38.3591 15.5518 38.0413L18.1378 36.4898C18.6663 36.1727 19.2708 36.0052 19.8869 36.0052H20.1111C20.7285 36.0052 21.3342 36.1734 21.8635 36.4918L24.4614 38.0546C24.993 38.3744 25.656 38.3793 26.1922 38.0674L30.8362 35.3667C31.3699 35.0563 31.6942 34.4809 31.6838 33.8627L31.6531 32.0345C31.5607 32.5129 31.2665 32.9356 30.8362 33.1858Z" fill="#D7D7D7"/>
<path d="M36.1441 23.9412L33.4971 25.411C32.9569 25.711 32.5082 26.1526 32.1993 26.6886L32.0888 26.8802C31.78 27.4158 31.6224 28.0255 31.6328 28.644L31.661 30.3253C31.7189 29.8814 31.8637 29.4515 32.0888 29.061L32.1993 28.8694C32.5082 28.3335 32.9569 27.8918 33.4971 27.5918L36.1441 26.122C36.6867 25.8208 37.0227 25.2477 37.0213 24.6261L37.0213 22.4531C37.0199 23.0716 36.6844 23.6412 36.1441 23.9412Z" fill="#D7D7D7"/>
<path d="M8.33906 30.3341L8.36737 28.6536C8.37771 28.0396 8.22247 27.4342 7.91803 26.9013L7.79968 26.6941C7.4915 26.1546 7.04209 25.7098 6.49997 25.4076L3.86571 23.9392C3.32696 23.6389 2.99235 23.0701 2.99095 22.4524L2.99096 24.6332C2.99236 25.251 3.32697 25.8197 3.86572 26.12L6.49998 27.5884C7.04209 27.8906 7.49151 28.3355 7.79968 28.8749L7.91804 29.0821C8.13924 29.4694 8.28167 29.8948 8.33906 30.3341Z" fill="#D7D7D7"/>
<path d="M32.0888 12.6412L31.2225 13.1406L31.2225 13.1406L32.0888 12.6412ZM32.2008 12.8354L33.0671 12.336L33.0671 12.336L32.2008 12.8354ZM33.4938 14.1103L33.9807 13.2368L33.9807 13.2368L33.4938 14.1103ZM36.1344 15.5822L35.6475 16.4557L35.6475 16.4557L36.1344 15.5822ZM37.0091 17.069L36.0091 17.0712L36.0091 17.0712L37.0091 17.069ZM36.1441 23.9412L35.6586 23.0669L35.6586 23.0669L36.1441 23.9412ZM33.4971 25.411L33.9826 26.2853L33.9826 26.2853L33.4971 25.411ZM32.1993 26.6886L33.0656 27.188L33.0656 27.188L32.1993 26.6886ZM32.0888 26.8802L31.2225 26.3807L31.2225 26.3807L32.0888 26.8802ZM31.6328 28.644L30.6329 28.6608L30.6329 28.6608L31.6328 28.644ZM31.6838 31.6818L32.6836 31.6651L32.6836 31.6651L31.6838 31.6818ZM30.8362 33.1858L30.3335 32.3214L30.3335 32.3214L30.8362 33.1858ZM26.1922 35.8866L26.6949 36.751L26.6949 36.751L26.1922 35.8866ZM24.4614 35.8738L24.9769 35.0169L24.9769 35.0169L24.4614 35.8738ZM21.8635 34.311L22.379 33.4541L22.379 33.4541L21.8635 34.311ZM18.1378 34.3089L18.6523 35.1664L18.6523 35.1664L18.1378 34.3089ZM15.5518 35.8605L16.0663 36.718L16.0663 36.718L15.5518 35.8605ZM13.8273 35.875L14.3273 35.009L14.3273 35.009L13.8273 35.875ZM9.16856 33.185L8.66852 34.051L8.66852 34.051L9.16856 33.185ZM8.31641 31.6782L9.31627 31.6951L9.31627 31.6951L8.31641 31.6782ZM8.36737 28.6536L7.36751 28.6368L7.36751 28.6368L8.36737 28.6536ZM7.91803 26.9013L7.04972 27.3973L7.04972 27.3973L7.91803 26.9013ZM7.79968 26.6941L8.66799 26.1981L8.66799 26.1981L7.79968 26.6941ZM6.49997 25.4076L6.98686 24.5341L6.98686 24.5341L6.49997 25.4076ZM3.86571 23.9392L3.37882 24.8126L3.37882 24.8126L3.86571 23.9392ZM2.97876 17.0761L3.97876 17.0738L2.97876 17.0761ZM3.85596 15.5802L4.34142 16.4545L4.34142 16.4545L3.85596 15.5802ZM6.50293 14.1104L6.01747 13.2361L6.01747 13.2361L6.50293 14.1104ZM7.8008 12.8328L6.93445 12.3334L6.93445 12.3334L7.8008 12.8328ZM7.91126 12.6412L8.77761 13.1406L8.77761 13.1406L7.91126 12.6412ZM8.3673 10.8774L9.36716 10.8606L9.36716 10.8606L8.3673 10.8774ZM8.31629 7.83953L7.31643 7.85632L7.31643 7.85632L8.31629 7.83953ZM9.16388 6.33553L9.6666 7.19997L9.6666 7.19997L9.16388 6.33553ZM13.8079 3.63477L14.3106 4.49922L14.3106 4.49922L13.8079 3.63477ZM15.5386 3.64761L15.0232 4.50451L15.0232 4.50451L15.5386 3.64761ZM18.1365 5.2104L18.652 4.35349L18.652 4.35349L18.1365 5.2104ZM21.8623 5.21243L21.3478 4.35493L21.3478 4.35493L21.8623 5.21243ZM24.4483 3.66088L23.9338 2.80337L23.9338 2.80337L24.4483 3.66088ZM26.1728 3.64641L26.6728 2.78041L26.6728 2.78041L26.1728 3.64641ZM30.8316 6.33644L30.3315 7.20244L30.3315 7.20244L30.8316 6.33644ZM31.6837 7.84309L30.6839 7.8263L30.6839 7.8263L31.6837 7.84309ZM31.6328 10.8774L30.6329 10.8606L30.6329 10.8606L31.6328 10.8774ZM36.1441 26.122L35.6587 25.2478L35.6587 25.2478L36.1441 26.122ZM33.4971 27.5918L33.9826 28.4661L33.9826 28.4661L33.4971 27.5918ZM32.1993 28.8694L33.0656 29.3688L33.0656 29.3688L32.1993 28.8694ZM32.0888 29.061L31.2225 28.5616L31.2225 28.5616L32.0888 29.061ZM31.6328 30.8248L32.6326 30.808L32.6326 30.808L31.6328 30.8248ZM31.6838 33.8627L32.6836 33.8459L32.6836 33.8459L31.6838 33.8627ZM30.8362 35.3667L30.3335 34.5022L30.3335 34.5022L30.8362 35.3667ZM26.1922 38.0674L26.6949 38.9319L26.6949 38.9319L26.1922 38.0674ZM24.4614 38.0546L24.9769 37.1977L24.9769 37.1977L24.4614 38.0546ZM21.8635 36.4918L22.379 35.6349L22.379 35.6349L21.8635 36.4918ZM18.1378 36.4898L18.6523 37.3473L18.6523 37.3473L18.1378 36.4898ZM15.5518 38.0413L15.0373 37.1838L15.0373 37.1838L15.5518 38.0413ZM13.8273 38.0558L14.3273 37.1898L14.3273 37.1898L13.8273 38.0558ZM9.16857 35.3658L8.66853 36.2318L8.66853 36.2318L9.16857 35.3658ZM8.31642 33.8591L9.31628 33.8759L9.31628 33.8759L8.31642 33.8591ZM8.36738 30.8345L7.36752 30.8176L7.36752 30.8176L8.36738 30.8345ZM7.91804 29.0821L7.04972 29.5781L7.04972 29.5781L7.91804 29.0821ZM7.79968 28.8749L8.668 28.3789L8.66799 28.3789L7.79968 28.8749ZM6.49998 27.5884L6.98687 26.715L6.98687 26.715L6.49998 27.5884ZM3.86572 26.12L3.37883 26.9935L3.37883 26.9935L3.86572 26.12ZM2.99096 24.6332L1.99096 24.6332L1.99096 24.6355L2.99096 24.6332ZM37.0213 24.6261L36.0213 24.6261L36.0213 24.6284L37.0213 24.6261ZM31.2225 13.1406L31.3344 13.3349L33.0671 12.336L32.9552 12.1418L31.2225 13.1406ZM33.0069 14.9837L35.6475 16.4557L36.6213 14.7087L33.9807 13.2368L33.0069 14.9837ZM36.0091 17.0712L36.0213 22.4476L38.0213 22.443L38.0091 17.0667L36.0091 17.0712ZM35.6586 23.0669L33.0117 24.5367L33.9826 26.2853L36.6296 24.8154L35.6586 23.0669ZM31.3329 26.1891L31.2225 26.3807L32.9552 27.3796L33.0656 27.188L31.3329 26.1891ZM30.3335 32.3214L25.6895 35.0222L26.6949 36.751L31.3389 34.0503L30.3335 32.3214ZM24.9769 35.0169L22.379 33.4541L21.3481 35.1679L23.946 36.7307L24.9769 35.0169ZM20.1111 32.8244H19.8869V34.8244H20.1111V32.8244ZM17.6233 33.4514L15.0373 35.003L16.0663 36.718L18.6523 35.1664L17.6233 33.4514ZM14.3273 35.009L9.6686 32.319L8.66852 34.051L13.3272 36.741L14.3273 35.009ZM8.78634 26.4053L8.66799 26.1981L6.93136 27.1901L7.04972 27.3973L8.78634 26.4053ZM6.98686 24.5341L4.3526 23.0657L3.37882 24.8126L6.01308 26.281L6.98686 24.5341ZM3.99095 22.4501L3.97876 17.0738L1.97877 17.0783L1.99095 22.4547L3.99095 22.4501ZM4.34142 16.4545L6.98839 14.9846L6.01747 13.2361L3.3705 14.7059L4.34142 16.4545ZM8.66715 13.3323L8.77761 13.1406L7.04491 12.1418L6.93445 12.3334L8.66715 13.3323ZM9.36716 10.8606L9.31615 7.82274L7.31643 7.85632L7.36744 10.8942L9.36716 10.8606ZM9.6666 7.19997L14.3106 4.49922L13.3052 2.77033L8.66115 5.47108L9.6666 7.19997ZM15.0232 4.50451L17.6211 6.0673L18.652 4.35349L16.0541 2.7907L15.0232 4.50451ZM19.889 6.69702H20.1132V4.69702H19.889V6.69702ZM22.3767 6.06993L24.9628 4.51838L23.9338 2.80337L21.3478 4.35493L22.3767 6.06993ZM25.6727 4.51241L30.3315 7.20244L31.3316 5.47043L26.6728 2.78041L25.6727 4.51241ZM30.6839 7.8263L30.6329 10.8606L32.6326 10.8942L32.6836 7.85988L30.6839 7.8263ZM30.3315 7.20244C30.5526 7.33011 30.6882 7.56872 30.6839 7.8263L32.6836 7.85988C32.7001 6.87726 32.183 5.96207 31.3316 5.47043L30.3315 7.20244ZM24.9628 4.51838C25.1809 4.38748 25.4524 4.38521 25.6727 4.51241L26.6728 2.78041C25.8233 2.28987 24.775 2.29867 23.9338 2.80337L24.9628 4.51838ZM20.1132 6.69702C20.9106 6.69702 21.6929 6.48023 22.3767 6.06993L21.3478 4.35493C20.9746 4.57885 20.5479 4.69702 20.1132 4.69702V6.69702ZM17.6211 6.0673C18.3059 6.47929 19.0899 6.69702 19.889 6.69702V4.69702C19.4534 4.69702 19.0258 4.57833 18.652 4.35349L17.6211 6.0673ZM14.3106 4.49922C14.5314 4.37079 14.8042 4.37281 15.0232 4.50451L16.0541 2.7907C15.21 2.2829 14.1567 2.27508 13.3051 2.77033L14.3106 4.49922ZM9.31615 7.82274C9.31184 7.56595 9.44657 7.32794 9.6666 7.19997L8.66115 5.47108C7.81383 5.96384 7.29998 6.8767 7.31643 7.85632L9.31615 7.82274ZM8.77761 13.1406C9.17685 12.4481 9.38058 11.66 9.36716 10.8606L7.36744 10.8942C7.37479 11.3318 7.26325 11.763 7.04491 12.1418L8.77761 13.1406ZM6.98839 14.9846C7.68744 14.5965 8.26768 14.0252 8.66715 13.3323L6.93445 12.3334C6.716 12.7123 6.39895 13.0243 6.01747 13.2361L6.98839 14.9846ZM3.97876 17.0738C3.97818 16.8156 4.11778 16.5786 4.34142 16.4545L3.3705 14.7059C2.50907 15.1843 1.97653 16.0935 1.97877 17.0783L3.97876 17.0738ZM4.3526 23.0657C4.13052 22.9419 3.99153 22.7067 3.99095 22.4501L1.99095 22.4547C1.99317 23.4336 2.52341 24.3358 3.37882 24.8126L4.3526 23.0657ZM8.66799 26.1981C8.26953 25.5006 7.68831 24.9251 6.98686 24.5341L6.01308 26.281C6.39587 26.4944 6.71347 26.8087 6.93136 27.1901L8.66799 26.1981ZM9.36723 28.6705C9.3806 27.8769 9.17996 27.0943 8.78634 26.4053L7.04972 27.3973C7.26498 27.7741 7.37483 28.2024 7.36751 28.6368L9.36723 28.6705ZM15.0373 35.003C14.8191 35.1339 14.5476 35.1362 14.3273 35.009L13.3272 36.741C14.1768 37.2315 15.2251 37.2227 16.0663 36.718L15.0373 35.003ZM19.8869 32.8244C19.0895 32.8244 18.3072 33.0411 17.6233 33.4514L18.6523 35.1664C19.0255 34.9425 19.4522 34.8244 19.8869 34.8244V32.8244ZM22.379 33.4541C21.6941 33.0421 20.9102 32.8244 20.1111 32.8244V34.8244C20.5467 34.8244 20.9743 34.943 21.3481 35.1679L22.379 33.4541ZM25.6895 35.0222C25.4686 35.1506 25.1958 35.1486 24.9769 35.0169L23.946 36.7307C24.7901 37.2385 25.8433 37.2463 26.6949 36.751L25.6895 35.0222ZM31.2225 26.3807C30.8232 27.0733 30.6195 27.8614 30.6329 28.6608L32.6326 28.6272C32.6253 28.1896 32.7368 27.7583 32.9552 27.3796L31.2225 26.3807ZM33.0117 24.5367C32.3126 24.9249 31.7324 25.4962 31.3329 26.1891L33.0656 27.188C33.2841 26.8091 33.6011 26.4971 33.9826 26.2853L33.0117 24.5367ZM35.6475 16.4557C35.8696 16.5795 36.0085 16.8146 36.0091 17.0712L38.0091 17.0667C38.0069 16.0878 37.4767 15.1856 36.6212 14.7087L35.6475 16.4557ZM31.3344 13.3349C31.7327 14.0257 32.3106 14.5956 33.0069 14.9837L33.9807 13.2368C33.6007 13.025 33.2849 12.7137 33.0671 12.336L31.3344 13.3349ZM32.9552 12.1418C32.7368 11.763 32.6253 11.3318 32.6326 10.8942L30.6329 10.8606C30.6195 11.66 30.8232 12.4481 31.2225 13.1406L32.9552 12.1418ZM25.9346 20.0752C25.9346 23.5165 23.1385 26.3098 19.6848 26.3098V28.3098C24.2391 28.3098 27.9346 24.625 27.9346 20.0752H25.9346ZM19.6848 26.3098C16.2312 26.3098 13.435 23.5165 13.435 20.0752H11.435C11.435 24.625 15.1306 28.3098 19.6848 28.3098V26.3098ZM13.435 20.0752C13.435 16.634 16.2312 13.8407 19.6848 13.8407V11.8407C15.1306 11.8407 11.435 15.5254 11.435 20.0752H13.435ZM19.6848 13.8407C23.1385 13.8407 25.9346 16.634 25.9346 20.0752H27.9346C27.9346 15.5254 24.2391 11.8407 19.6848 11.8407V13.8407ZM35.6587 25.2478L33.0117 26.7176L33.9826 28.4661L36.6296 26.9963L35.6587 25.2478ZM31.3329 28.37L31.2225 28.5616L32.9552 29.5605L33.0656 29.3688L31.3329 28.37ZM30.3335 34.5022L25.6895 37.203L26.6949 38.9319L31.3389 36.2311L30.3335 34.5022ZM24.9769 37.1977L22.379 35.6349L21.3481 37.3487L23.946 38.9115L24.9769 37.1977ZM20.1111 35.0052H19.8869V37.0052H20.1111V35.0052ZM17.6233 35.6323L15.0373 37.1838L16.0663 38.8988L18.6523 37.3473L17.6233 35.6323ZM14.3273 37.1898L9.66861 34.4998L8.66853 36.2318L13.3273 38.9218L14.3273 37.1898ZM8.78635 28.5861L8.668 28.3789L6.93137 29.371L7.04972 29.5781L8.78635 28.5861ZM6.98687 26.715L4.35261 25.2465L3.37883 26.9935L6.01309 28.4619L6.98687 26.715ZM4.35261 25.2465C4.13052 25.1227 3.99154 24.8876 3.99096 24.631L1.99096 24.6355C1.99318 25.6144 2.52341 26.5166 3.37883 26.9935L4.35261 25.2465ZM8.66799 28.3789C8.26954 27.6814 7.68831 27.106 6.98687 26.715L6.01309 28.4619C6.39587 28.6753 6.71348 28.9895 6.93137 29.371L8.66799 28.3789ZM9.66861 34.4998C9.4475 34.3721 9.31194 34.1335 9.31628 33.8759L7.31656 33.8422C7.3 34.8249 7.81704 35.7401 8.66853 36.2318L9.66861 34.4998ZM15.0373 37.1838C14.8191 37.3147 14.5476 37.317 14.3273 37.1898L13.3273 38.9218C14.1768 39.4123 15.2251 39.4035 16.0663 38.8988L15.0373 37.1838ZM19.8869 35.0052C19.0895 35.0052 18.3072 35.222 17.6233 35.6323L18.6523 37.3473C19.0255 37.1234 19.4522 37.0052 19.8869 37.0052V35.0052ZM22.379 35.6349C21.6941 35.2229 20.9102 35.0052 20.1111 35.0052V37.0052C20.5467 37.0052 20.9743 37.1239 21.3481 37.3487L22.379 35.6349ZM25.6895 37.203C25.4686 37.3314 25.1959 37.3294 24.9769 37.1977L23.946 38.9115C24.7901 39.4193 25.8433 39.4271 26.6949 38.9319L25.6895 37.203ZM30.6839 33.8795C30.6882 34.1363 30.5535 34.3743 30.3335 34.5022L31.3389 36.2311C32.1862 35.7384 32.7001 34.8255 32.6836 33.8459L30.6839 33.8795ZM33.0117 26.7176C32.3126 27.1058 31.7324 27.677 31.3329 28.37L33.0656 29.3688C33.2841 28.9899 33.6011 28.6779 33.9826 28.4661L33.0117 26.7176ZM36.0213 24.6284C36.0219 24.8866 35.8823 25.1236 35.6587 25.2478L36.6296 26.9963C37.491 26.5179 38.0235 25.6087 38.0213 24.6239L36.0213 24.6284ZM3.99096 24.6332L3.99095 22.4524L1.99095 22.4524L1.99096 24.6332L3.99096 24.6332ZM9.6686 32.319C9.49042 32.2161 9.36756 32.041 9.32903 31.8417L7.36539 32.2213C7.51245 32.982 7.98151 33.6543 8.66852 34.051L9.6686 32.319ZM7.34735 32.0147L7.31656 33.8422L9.31628 33.8759L9.34707 32.0483L7.34735 32.0147ZM32.6836 33.8459L32.6529 32.0177L30.6532 32.0513L30.6839 33.8795L32.6836 33.8459ZM30.6712 31.845C30.6329 32.0437 30.5107 32.2183 30.3335 32.3214L31.3389 34.0503C32.0224 33.6528 32.4886 32.9822 32.635 32.224L30.6712 31.845ZM30.6329 30.8416L30.6532 32.0513L32.6529 32.0177L32.6326 30.808L30.6329 30.8416ZM9.34707 32.0483L9.36723 30.8513L7.36752 30.8176L7.34735 32.0147L9.34707 32.0483ZM30.6839 31.6986C30.6848 31.7485 30.6804 31.7975 30.6712 31.845L32.635 32.224C32.6701 32.0417 32.6868 31.8545 32.6836 31.6651L30.6839 31.6986ZM9.32903 31.8417C9.31983 31.7941 9.31543 31.7451 9.31627 31.6951L7.31655 31.6614C7.31335 31.8512 7.33009 32.0388 7.36539 32.2213L9.32903 31.8417ZM30.6329 28.6608L30.6611 30.3421L32.6609 30.3086L32.6326 28.6272L30.6329 28.6608ZM32.6526 30.4547C32.6936 30.1406 32.796 29.8366 32.9552 29.5604L31.2225 28.5616C30.9314 29.0665 30.7442 29.6222 30.6694 30.196L32.6526 30.4547ZM38.0213 24.6261L38.0213 22.4531L36.0213 22.4531L36.0213 24.6261L38.0213 24.6261ZM36.0213 22.4508C36.0207 22.7077 35.8814 22.9433 35.6586 23.0669L36.6296 24.8154C37.4874 24.3391 38.0191 23.4355 38.0213 22.4553L36.0213 22.4508ZM38.0213 22.4531V22.4453H36.0213V22.4531H38.0213ZM36.0213 22.4476C36.0213 22.4487 36.0213 22.4497 36.0213 22.4508L38.0213 22.4553C38.0213 22.4512 38.0213 22.4471 38.0213 22.443L36.0213 22.4476ZM30.6694 30.196C30.6416 30.4093 30.6293 30.625 30.6329 30.8416L32.6326 30.808C32.6306 30.6895 32.6374 30.5714 32.6526 30.4547L30.6694 30.196ZM30.6611 30.3421L30.6839 31.6986L32.6836 31.6651L32.6609 30.3086L30.6611 30.3421ZM9.33892 30.3509L9.36723 28.6705L7.36751 28.6368L7.3392 30.3172L9.33892 30.3509ZM7.04972 29.5781C7.20612 29.8519 7.30689 30.1529 7.34749 30.4636L9.33063 30.2045C9.25646 29.6368 9.07235 29.0868 8.78635 28.5861L7.04972 29.5781ZM9.36723 30.8513C9.37089 30.6343 9.35855 30.4182 9.33063 30.2045L7.34749 30.4636C7.36276 30.5805 7.36952 30.6989 7.36752 30.8176L9.36723 30.8513ZM9.31627 31.6951L9.33892 30.3509L7.3392 30.3172L7.31655 31.6614L9.31627 31.6951Z" fill="#C8C8C8"/>
<path d="M7.65967 16.5957L9.8026 15.2417C10.6726 14.6919 11.2001 13.7346 11.2001 12.7055V10.6275C11.2001 9.63749 11.6885 8.7112 12.5055 8.15196L14.4682 6.80847" stroke="#D7D7D7" stroke-width="2" stroke-linecap="round"/>
</svg>
