<svg width="40" height="40" viewBox="0 0 40 40" fill="none" xmlns="http://www.w3.org/2000/svg">
<path fill-rule="evenodd" clip-rule="evenodd" d="M32.6932 13.9879L32.8108 14.1925C33.1342 14.7555 33.6034 15.2197 34.1685 15.5358L36.9411 17.0867C37.5068 17.4031 37.8581 18.0024 37.8596 18.6533L37.8724 24.3181C37.8738 24.9729 37.521 25.5768 36.9513 25.8942L34.172 27.4429C33.6047 27.759 33.1336 28.2243 32.8092 28.789L32.6932 28.9909C32.369 29.5553 32.2035 30.1977 32.2144 30.8494L32.268 34.0502C32.2789 34.7016 31.9384 35.3079 31.378 35.6349L26.5018 38.4806C25.9388 38.8092 25.2426 38.804 24.6845 38.4671L21.9567 36.8204C21.4009 36.4849 20.7649 36.3077 20.1166 36.3077H19.8812C19.2344 36.3077 18.5996 36.4842 18.0447 36.8183L15.3294 38.4531C14.7732 38.788 14.0803 38.7938 13.5186 38.4684L8.62698 35.634C8.06386 35.3077 7.72125 34.6998 7.73222 34.0464L7.78573 30.8595C7.79659 30.2126 7.63359 29.5747 7.31392 29.0132L7.18965 28.7949C6.86606 28.2264 6.39418 27.7577 5.82496 27.4393L3.05899 25.8921C2.4933 25.5757 2.14196 24.9764 2.14049 24.3256L2.12769 18.6607C2.12621 18.0059 2.47908 17.402 3.04874 17.0846L5.82806 15.5359C6.39534 15.2198 6.86642 14.7545 7.19083 14.1898L7.30681 13.9879C7.63104 13.4235 7.79656 12.7811 7.78566 12.1294L7.7321 8.92859C7.7212 8.27721 8.0617 7.6709 8.62206 7.34388L13.4983 4.49821C14.0613 4.16965 14.7574 4.17483 15.3156 4.51174L18.0434 6.15838C18.5991 6.49388 19.2352 6.67111 19.8834 6.67111H20.1188C20.7657 6.67111 21.4004 6.49465 21.9554 6.16052L24.6707 4.52572C25.2269 4.19086 25.9197 4.18503 26.4814 4.51048L31.3731 7.34484C31.9362 7.67111 32.2788 8.27897 32.2679 8.93234L32.2144 12.1294C32.2035 12.7811 32.369 13.4235 32.6932 13.9879ZM19.6691 29.4436C23.8732 29.4436 27.2814 26.0308 27.2814 21.8208C27.2814 17.6109 23.8732 14.1981 19.6691 14.1981C15.4649 14.1981 12.0568 17.6109 12.0568 21.8208C12.0568 26.0308 15.4649 29.4436 19.6691 29.4436Z" fill="#26958E"/>
<path fill-rule="evenodd" clip-rule="evenodd" d="M32.6932 12.2858L32.8108 12.4904C33.1342 13.0534 33.6034 13.5176 34.1685 13.8337L36.9411 15.3846C37.5068 15.701 37.8581 16.3002 37.8596 16.9511L37.8724 22.6159C37.8738 23.2708 37.521 23.8746 36.9513 24.1921L34.172 25.7408C33.6047 26.0569 33.1336 26.5222 32.8092 27.0869L32.6932 27.2888C32.369 27.8531 32.2035 28.4956 32.2144 29.1472L32.268 32.3481C32.2789 32.9995 31.9384 33.6058 31.378 33.9328L26.5018 36.7785C25.9388 37.107 25.2426 37.1019 24.6845 36.7649L21.9567 35.1183C21.4009 34.7828 20.7649 34.6056 20.1166 34.6056H19.8812C19.2344 34.6056 18.5996 34.782 18.0447 35.1162L15.3294 36.751C14.7732 37.0858 14.0803 37.0916 13.5186 36.7662L8.62698 33.9319C8.06386 33.6056 7.72125 32.9977 7.73222 32.3443L7.78573 29.1574C7.79659 28.5105 7.63359 27.8726 7.31392 27.311L7.18965 27.0927C6.86606 26.5243 6.39418 26.0556 5.82496 25.7372L3.05899 24.19C2.4933 23.8735 2.14196 23.2743 2.14049 22.6234L2.12769 16.9586C2.12621 16.3037 2.47908 15.6999 3.04874 15.3825L5.82806 13.8338C6.39534 13.5177 6.86642 13.0524 7.19083 12.4877L7.30681 12.2858C7.63104 11.7214 7.79656 11.079 7.78566 10.4273L7.7321 7.22644C7.7212 6.57506 8.0617 5.96875 8.62206 5.64174L13.4983 2.79607C14.0613 2.4675 14.7574 2.47268 15.3156 2.80959L18.0434 4.45623C18.5991 4.79173 19.2352 4.96897 19.8834 4.96897H20.1188C20.7657 4.96897 21.4004 4.7925 21.9554 4.45838L24.6707 2.82357C25.2269 2.48872 25.9197 2.48288 26.4814 2.80833L31.3731 5.6427C31.9362 5.96896 32.2788 6.57682 32.2679 7.23019L32.2144 10.4273C32.2035 11.079 32.369 11.7214 32.6932 12.2858ZM19.6691 27.7414C23.8732 27.7414 27.2814 24.3286 27.2814 20.1187C27.2814 15.9088 23.8732 12.4959 19.6691 12.4959C15.4649 12.4959 12.0568 15.9088 12.0568 20.1187C12.0568 24.3286 15.4649 27.7414 19.6691 27.7414Z" fill="#36BEB6"/>
<path d="M6.80859 16.5957L9.15214 15.1414C10.0339 14.5942 10.5703 13.6301 10.5703 12.5923V10.3154C10.5703 9.31643 11.0675 8.38301 11.8966 7.82568L14.0426 6.38293" stroke="#40E3DA" stroke-width="3" stroke-linecap="round"/>
</svg>
