<svg width="11" height="13" viewBox="0 0 11 13" fill="none" xmlns="http://www.w3.org/2000/svg">
<path d="M1 11.25C0.585786 11.25 0.25 11.5858 0.25 12C0.25 12.4142 0.585786 12.75 1 12.75V11.25ZM10 12.75C10.4142 12.75 10.75 12.4142 10.75 12C10.75 11.5858 10.4142 11.25 10 11.25V12.75ZM1 8.25C0.585786 8.25 0.25 8.58579 0.25 9C0.25 9.41421 0.585786 9.75 1 9.75V8.25ZM10 9.75C10.4142 9.75 10.75 9.41421 10.75 9C10.75 8.58579 10.4142 8.25 10 8.25V9.75ZM0.442529 5.49828C0.165435 5.80616 0.190394 6.28038 0.498276 6.55747C0.806159 6.83456 1.28038 6.80961 1.55747 6.50172L0.442529 5.49828ZM5.5 1L6.05747 0.498276C5.91524 0.340241 5.71262 0.25 5.5 0.25C5.28738 0.25 5.08476 0.340241 4.94253 0.498276L5.5 1ZM9.44253 6.50172C9.71962 6.80961 10.1938 6.83456 10.5017 6.55747C10.8096 6.28038 10.8346 5.80616 10.5575 5.49828L9.44253 6.50172ZM1 12.75H10V11.25H1V12.75ZM1 9.75H10V8.25H1V9.75ZM1.55747 6.50172L6.05747 1.50172L4.94253 0.498276L0.442529 5.49828L1.55747 6.50172ZM4.94253 1.50172L9.44253 6.50172L10.5575 5.49828L6.05747 0.498276L4.94253 1.50172Z" fill="white"/>
</svg>
