<svg width="37" height="37" viewBox="0 0 37 37" fill="none" xmlns="http://www.w3.org/2000/svg">
<path d="M16.9 15.08C17.38 15.08 17.6067 15.2867 17.58 15.7C17.5533 16.14 17.2467 16.36 16.66 16.36H15.08L14.48 19.8H16.1C16.3267 19.8 16.4933 19.86 16.6 19.98C16.7067 20.0867 16.76 20.2267 16.76 20.4C16.76 20.5733 16.68 20.7333 16.52 20.88C16.3733 21.0133 16.1467 21.08 15.84 21.08H14.2L13.48 25.22C13.3733 25.74 13.0733 26 12.58 26C12.3667 26 12.2 25.9333 12.08 25.8C11.9733 25.6533 11.9467 25.46 12 25.22L12.7 21.08H8.82L8.1 25.22C8.06 25.4333 7.96 25.62 7.8 25.78C7.64 25.9267 7.44667 26 7.22 26C7.00667 26 6.84 25.9333 6.72 25.8C6.61333 25.6667 6.58 25.4733 6.62 25.22L7.34 21.08H5.66C5.44667 21.08 5.28 21.0267 5.16 20.92C5.05333 20.8133 5.00667 20.6733 5.02 20.5C5.03333 20.2733 5.12 20.1 5.28 19.98C5.44 19.86 5.64 19.8 5.88 19.8H7.62L8.2 16.36H6.54C6.06 16.36 5.82 16.16 5.82 15.76C5.82 15.3067 6.12 15.08 6.72 15.08H8.48L9.2 11.06C9.24 10.8333 9.34 10.6467 9.5 10.5C9.66 10.34 9.85333 10.26 10.08 10.26C10.2933 10.26 10.4533 10.3333 10.56 10.48C10.68 10.6267 10.72 10.8133 10.68 11.04L9.96 15.08H13.86L14.58 11.06C14.6067 10.8333 14.7 10.6467 14.86 10.5C15.0333 10.34 15.2333 10.26 15.46 10.26C15.7133 10.26 15.88 10.34 15.96 10.5C16.0533 10.6467 16.08 10.8267 16.04 11.04L15.34 15.08H16.9ZM12.98 19.8L13.58 16.36H9.68L9.1 19.8H12.98ZM31.3727 15.08C31.8527 15.08 32.0793 15.2867 32.0527 15.7C32.026 16.14 31.7193 16.36 31.1327 16.36H29.5527L28.9527 19.8H30.5727C30.7993 19.8 30.966 19.86 31.0727 19.98C31.1793 20.0867 31.2327 20.2267 31.2327 20.4C31.2327 20.5733 31.1527 20.7333 30.9927 20.88C30.846 21.0133 30.6193 21.08 30.3127 21.08H28.6727L27.9527 25.22C27.846 25.74 27.546 26 27.0527 26C26.8393 26 26.6727 25.9333 26.5527 25.8C26.446 25.6533 26.4193 25.46 26.4727 25.22L27.1727 21.08H23.2927L22.5727 25.22C22.5327 25.4333 22.4327 25.62 22.2727 25.78C22.1127 25.9267 21.9193 26 21.6927 26C21.4793 26 21.3127 25.9333 21.1927 25.8C21.086 25.6667 21.0527 25.4733 21.0927 25.22L21.8127 21.08H20.1327C19.9193 21.08 19.7527 21.0267 19.6327 20.92C19.526 20.8133 19.4793 20.6733 19.4927 20.5C19.506 20.2733 19.5927 20.1 19.7527 19.98C19.9127 19.86 20.1127 19.8 20.3527 19.8H22.0927L22.6727 16.36H21.0127C20.5327 16.36 20.2927 16.16 20.2927 15.76C20.2927 15.3067 20.5927 15.08 21.1927 15.08H22.9527L23.6727 11.06C23.7127 10.8333 23.8127 10.6467 23.9727 10.5C24.1327 10.34 24.326 10.26 24.5527 10.26C24.766 10.26 24.926 10.3333 25.0327 10.48C25.1527 10.6267 25.1927 10.8133 25.1527 11.04L24.4327 15.08H28.3327L29.0527 11.06C29.0793 10.8333 29.1727 10.6467 29.3327 10.5C29.506 10.34 29.706 10.26 29.9327 10.26C30.186 10.26 30.3527 10.34 30.4327 10.5C30.526 10.6467 30.5527 10.8267 30.5127 11.04L29.8127 15.08H31.3727ZM27.4527 19.8L28.0527 16.36H24.1527L23.5727 19.8H27.4527Z" fill="#00B000" fill-opacity="0.66"/>
</svg>
