<svg width="481" height="481" viewBox="0 0 481 481" fill="none" xmlns="http://www.w3.org/2000/svg">
<path d="M383.617 323.672L417.392 343.172M403.396 270.169L441.804 276.942M241 74V35M184.775 83.6221L171.437 46.9741M133.471 112.335L108.403 82.459M96.5859 155.846L62.8109 136.346M77.6328 209.86L39.2253 203.087M76.8467 268.647L38.4392 275.419M96.0859 322.346L62.3109 341.846M133.387 365.767L108.318 395.642M183.904 395.841L170.566 432.489M240.029 406.029V445.029M296.283 395.436L309.622 432.084M347.587 366.724L372.655 396.599M404.182 211.383L442.59 204.61M384.943 157.683L418.718 138.183M347.643 114.262L372.711 84.3866M297.125 84.1881L310.464 47.5401" stroke="#FFEF5C" stroke-width="16" stroke-linecap="round"/>
<path d="M390 240.5C390 323.067 323.067 390 240.5 390C157.933 390 91 323.067 91 240.5C91 157.933 157.933 91 240.5 91C323.067 91 390 157.933 390 240.5Z" fill="#FFEF5C"/>
</svg>
