<svg width="37" height="37" viewBox="0 0 37 37" fill="none" xmlns="http://www.w3.org/2000/svg">
<path d="M27.8401 10.4776L25.3765 12.8159L23.6509 12.5565L23.6828 12.7795C23.7896 13.5239 23.6847 14.2833 23.3799 14.9714L23.3578 15.0213L25.948 15.2657C26.2675 15.2958 26.5844 15.1864 26.8166 14.9657L29.6397 12.2827C29.8698 12.064 30 11.7611 30 11.4443C30 10.751 29.4358 10.189 28.7397 10.189H28.564C28.2945 10.189 28.0352 10.2923 27.8401 10.4776Z" stroke="white" stroke-width="0.75"/>
<path d="M20.4926 10.7403H14.7666C14.4719 10.7403 14.1894 10.8574 13.9816 11.0655L9.56358 15.4911C9.0114 16.0443 8.99512 16.9326 9.52665 17.5055C10.0911 18.1138 11.0507 18.1309 11.6367 17.5432L15.3156 13.8537H17.4645L13.8814 18.7408C12.7691 20.258 13.3242 22.4092 15.0332 23.204L20.5903 25.7884L18.0839 29.5332C17.5968 30.261 17.7898 31.2439 18.5163 31.7352C19.2393 32.2242 20.2255 32.0157 20.6868 31.2764L23.9931 25.9766C24.4245 25.2851 24.248 24.3792 23.5883 23.8985L19.06 20.5994L22.2546 15.0164C22.5082 14.5733 22.6415 14.072 22.6415 13.5619V12.8808C22.6415 11.6987 21.6794 10.7403 20.4926 10.7403Z" stroke="white" stroke-width="0.75"/>
<path d="M15.4784 24.4263L15.3992 24.4076C14.2319 24.1317 13.2474 23.3547 12.7108 22.2859L9.82004 26.6823C9.72922 26.8205 9.61502 26.9419 9.48252 27.0411L6.61859 29.1859C5.92378 29.7063 5.79438 30.6939 6.33185 31.3745C6.85451 32.0362 7.81314 32.1588 8.48668 31.65L11.8975 29.0735C12.0482 28.9596 12.1822 28.8252 12.2954 28.6741L15.4784 24.4263Z" stroke="white" stroke-width="0.75"/>
<path d="M24.2369 7.0756V8.59987C24.2369 9.74619 23.304 10.6755 22.1531 10.6755C21.0023 10.6755 20.0693 9.74619 20.0693 8.59987V7.0756C20.0693 5.92928 21.0023 5 22.1531 5C23.304 5 24.2369 5.92928 24.2369 7.0756Z" stroke="white" stroke-width="0.75"/>
</svg>
