<svg width="32" height="32" viewBox="0 0 32 32" fill="none" xmlns="http://www.w3.org/2000/svg">
<path fill-rule="evenodd" clip-rule="evenodd" d="M0 16C0 7.16344 7.16344 0 16 0C24.8366 0 32 7.16344 32 16C32 24.8366 24.8366 32 16 32C7.16344 32 0 24.8366 0 16Z" fill="#3876ED"/>
<path d="M24 23.25V11.25C24 10.1954 23.1837 9.33138 22.1484 9.25543C22.2141 9.43168 22.25 9.62208 22.25 9.82143C22.25 10.7598 21.4549 11.5 20.5 11.5H11.5C10.5451 11.5 9.75 10.7598 9.75 9.82143C9.75 9.62208 9.78588 9.43168 9.85155 9.25543C8.81631 9.33138 8 10.1954 8 11.25V23.25C8 24.3546 8.89543 25.25 10 25.25H22C23.1046 25.25 24 24.3546 24 23.25Z" fill="white"/>
<path d="M10.25 9.82143C10.25 10.461 10.798 11 11.5 11H20.5C21.202 11 21.75 10.461 21.75 9.82143C21.75 9.61568 21.6933 9.42034 21.593 9.25H10.407C10.3067 9.42034 10.25 9.61568 10.25 9.82143Z" fill="white"/>
<path d="M10.5 13.75C10.5 13.4739 10.7239 13.25 11 13.25H21C21.2761 13.25 21.5 13.4739 21.5 13.75C21.5 14.0261 21.2761 14.25 21 14.25H11C10.7239 14.25 10.5 14.0261 10.5 13.75Z" fill="#3876ED"/>
<path d="M10 16.75C10 16.4739 10.2239 16.25 10.5 16.25H21.5C21.7761 16.25 22 16.4739 22 16.75C22 17.0261 21.7761 17.25 21.5 17.25H10.5C10.2239 17.25 10 17.0261 10 16.75Z" fill="#3876ED"/>
<path d="M11 19.75C11 19.4739 11.2239 19.25 11.5 19.25H20.5C20.7761 19.25 21 19.4739 21 19.75C21 20.0261 20.7761 20.25 20.5 20.25H11.5C11.2239 20.25 11 20.0261 11 19.75Z" fill="#3876ED"/>
<path d="M11 22.75C11 22.4739 11.2239 22.25 11.5 22.25H20.5C20.7761 22.25 21 22.4739 21 22.75C21 23.0261 20.7761 23.25 20.5 23.25H11.5C11.2239 23.25 11 23.0261 11 22.75Z" fill="#3876ED"/>
<path fill-rule="evenodd" clip-rule="evenodd" d="M21.8752 9.25H21.593C21.3815 8.89085 20.9762 8.64286 20.5 8.64286H19.4884C19.0922 8.64286 18.75 8.33402 18.75 7.92769C18.75 7.37439 18.5059 6.91209 18.0328 6.7641C17.5878 6.62487 16.9297 6.5 16 6.5C15.0703 6.5 14.4122 6.62487 13.9672 6.7641C13.4941 6.91209 13.25 7.37439 13.25 7.92769C13.25 8.33402 12.9078 8.64286 12.5116 8.64286H11.5C11.0238 8.64286 10.6185 8.89085 10.407 9.25H10.1248C10.3563 8.74546 10.8849 8.39286 11.5 8.39286H12.5116C12.7813 8.39286 13 8.18459 13 7.92769C13 7.31083 13.2772 6.718 13.8925 6.5255C14.3643 6.37792 15.0478 6.25 16 6.25C16.9522 6.25 17.6357 6.37792 18.1075 6.5255C18.7228 6.718 19 7.31083 19 7.92769C19 8.18459 19.2187 8.39286 19.4884 8.39286H20.5C21.1151 8.39286 21.6437 8.74546 21.8752 9.25Z" fill="#3876ED"/>
<path d="M16 6.5C15.0703 6.5 14.4122 6.62487 13.9672 6.7641C13.4941 6.91209 13.25 7.37439 13.25 7.92769C13.25 8.33402 12.9078 8.64286 12.5116 8.64286H11.5C11.0238 8.64286 10.6185 8.89085 10.407 9.25H21.593C21.3815 8.89085 20.9762 8.64286 20.5 8.64286H19.4884C19.0922 8.64286 18.75 8.33402 18.75 7.92769C18.75 7.37439 18.5059 6.91209 18.0328 6.7641C17.5878 6.62487 16.9297 6.5 16 6.5Z" fill="white"/>
</svg>
