<svg width="32" height="32" viewBox="0 0 32 32" fill="none" xmlns="http://www.w3.org/2000/svg">
<g clip-path="url(#clip0_651_1109)">
<path fill-rule="evenodd" clip-rule="evenodd" d="M28.9406 1.83156C29.5859 2.35101 29.688 3.29526 29.1685 3.9406L16.2897 19.9406C16.0129 20.2845 15.5986 20.489 15.1572 20.4996C14.7158 20.5102 14.2922 20.3258 13.9992 19.9955L9.87797 15.3504C9.32817 14.7307 9.38483 13.7826 10.0045 13.2328C10.6242 12.683 11.5723 12.7397 12.1221 13.3594L15.0655 16.6771L26.8315 2.05951C27.351 1.41417 28.2952 1.31211 28.9406 1.83156Z" fill="#4DCC11"/>
<path fill-rule="evenodd" clip-rule="evenodd" d="M29.5 6.71821V21.739C29.5 26.0252 26.0253 29.4999 21.7391 29.4999H10.2609C5.97466 29.4999 2.5 26.0252 2.5 21.739V10.2607C2.5 5.97454 5.97466 2.49988 10.2609 2.49988H23.9095L14.9912 13.5795L13.6181 12.0319C12.3353 10.586 10.1231 10.4537 8.67719 11.7366C7.23124 13.0194 7.09903 15.2316 8.38188 16.6775L12.5031 21.3227C13.1868 22.0933 14.1753 22.5236 15.2051 22.4989C16.235 22.4742 17.2017 21.997 17.8477 21.1945L29.5 6.71821Z" fill="#4DCC11"/>
<path d="M5 13V10C5 7.23858 7.23858 5 10 5H11" stroke="#89F258" stroke-width="2" stroke-linecap="round"/>
</g>
<defs>
<clipPath id="clip0_651_1109">
<rect width="32" height="32" fill="white"/>
</clipPath>
</defs>
</svg>
