<svg width="20" height="20" viewBox="0 0 20 20" fill="none" xmlns="http://www.w3.org/2000/svg">
<path d="M5.55556 17C5.55556 15.5641 7.5454 14.4 10 14.4C12.4546 14.4 14.4444 15.5641 14.4444 17M15.3333 12.0162C16.903 12.4175 18 13.3337 18 14.3999M4.66667 12.0162C3.09697 12.4175 2 13.3337 2 14.3999M15.3333 8.53796C15.8789 8.06188 16.2222 7.37003 16.2222 6.6C16.2222 5.16406 15.0283 4 13.5556 4C12.8726 4 12.2496 4.25034 11.7778 4.66204M4.66667 8.53796C4.12111 8.06188 3.77778 7.37003 3.77778 6.6C3.77778 5.16406 4.97169 4 6.44444 4C7.12743 4 7.75044 4.25034 8.22222 4.66204M12.6667 9.2C12.6667 10.6359 11.4728 11.8 10 11.8C8.52724 11.8 7.33333 10.6359 7.33333 9.2C7.33333 7.76406 8.52724 6.6 10 6.6C11.4728 6.6 12.6667 7.76406 12.6667 9.2Z" stroke="white" stroke-width="2" stroke-linecap="round" stroke-linejoin="round"/>
</svg>
