<svg width="32" height="32" viewBox="0 0 32 32" fill="none" xmlns="http://www.w3.org/2000/svg">
<path d="M11 24C11 22.3431 13.2386 21 16 21C18.7614 21 21 22.3431 21 24" stroke="white" stroke-width="2" stroke-linecap="round" stroke-linejoin="round"/>
<path d="M22 18.2495C23.7659 18.7124 25 19.7697 25 20.9999" stroke="white" stroke-width="2" stroke-linecap="round" stroke-linejoin="round"/>
<path d="M10 18.2495C8.2341 18.7124 7 19.7697 7 20.9999" stroke="white" stroke-width="2" stroke-linecap="round" stroke-linejoin="round"/>
<path d="M16 18C17.6569 18 19 16.6569 19 15C19 13.3431 17.6569 12 16 12C14.3431 12 13 13.3431 13 15C13 16.6569 14.3431 18 16 18Z" stroke="white" stroke-width="2" stroke-linecap="round" stroke-linejoin="round"/>
<path d="M22 14.2361C22.6137 13.6868 23 12.8885 23 12C23 10.3431 21.6569 9 20 9C19.2316 9 18.5308 9.28885 18 9.76389" stroke="white" stroke-width="2" stroke-linecap="round" stroke-linejoin="round"/>
<path d="M10 14.2361C9.38625 13.6868 9 12.8885 9 12C9 10.3431 10.3431 9 12 9C12.7684 9 13.4692 9.28885 14 9.76389" stroke="white" stroke-width="2" stroke-linecap="round" stroke-linejoin="round"/>
</svg>
