<svg width="64" height="64" viewBox="0 0 64 64" fill="none" xmlns="http://www.w3.org/2000/svg">
<g clip-path="url(#clip0_668_1219)">
<circle cx="32" cy="32" r="32" fill="#C9ECF7"/>
<path d="M33.0001 80.4999C36.2257 80.4999 40.0946 80.0586 43.4969 79.5469C46.5032 79.0947 48.9163 77.2396 50.2531 74.7323L50.2703 74.7C51.8081 71.8158 53.5195 68.6057 56.5927 67.5011C57.992 67.143 59.6578 66.4155 61.055 65.7306C62.6564 64.9456 63.0687 62.9202 61.9576 61.5252C59.4199 58.3393 54.9467 53.0122 51.0372 49.8448C50.0676 49.0593 49.1401 47.2753 49.0145 47.0284C55.2368 43.0755 52.0003 35.8038 52.0003 28.9999C52.0003 26.1879 51.2995 23.3641 50.0003 20.9999C49.197 19.5383 46.9258 16.0619 42.577 13.6205C43.6779 12.7339 44.6792 11.6225 45.3105 10.8665C45.5865 10.536 45.327 10.0584 44.8979 10.095C41.9748 10.3447 34.1047 10.9999 32.0003 10.9999C20.4397 10.9999 15.2995 18.6357 14.0003 20.9999C12.701 23.3641 12.0003 26.1879 12.0003 28.9999C12.0003 35.9971 8.5771 43.4892 15.5397 47.3574L15.5001 47.6943C15.5001 48.6306 14.6467 49.3347 13.7275 49.1568L4.16313 47.3056C2.13096 46.9123 0.384587 48.6366 0.984504 50.6177C2.10511 54.3181 4.34535 59.6682 8.50014 62.9999C10.3408 64.476 12.1659 65.5199 13.8511 66.2573L13.6359 69.2259C13.2724 74.2428 16.6923 78.7607 21.6703 79.4821C25.3881 80.0208 29.6392 80.4999 33.0001 80.4999Z" fill="#3CADC6" fill-opacity="0.4"/>
<path d="M11.8953 45.5218C12.5391 46.4076 13.3837 47.1974 14.4639 47.8814C14.4471 47.9221 14.4249 47.9596 14.3984 47.9937L15.1869 48.6087C15.052 48.7817 14.8801 48.9234 14.6847 49.023L14.2307 48.132C14.1388 48.1788 14.0323 48.1972 13.9175 48.175L10.3309 47.4808L10.1408 48.4626L7.74976 47.9998L7.93978 47.018L4.35315 46.3239C3.37273 46.1341 2.42254 46.3151 1.64841 46.7671L2.1526 47.6307C1.74694 47.8675 1.41244 48.203 1.1861 48.6037L0.315406 48.1119C-0.140434 48.9188 -0.276263 49.9047 0.0274267 50.9075C0.498393 52.4627 1.1643 54.3094 2.08388 56.1875L2.98201 55.7478C3.5054 56.8167 4.11271 57.8942 4.81506 58.9288L3.98769 59.4905C5.04863 61.0533 6.33056 62.5419 7.87454 63.78C8.5381 64.3122 9.20039 64.7908 9.85603 65.2212L10.4048 64.3852C10.8558 64.6813 11.3033 64.9534 11.7451 65.2034L11.2527 66.0737C11.7778 66.3708 12.2957 66.6382 12.8034 66.8787L12.773 67.2982L13.7704 67.3705L13.7166 68.1127L12.7192 68.0404L12.6385 69.1537C12.4903 71.199 12.9142 73.173 13.7885 74.8884L14.6795 74.4343C15.2252 75.5052 15.9639 76.4637 16.8585 77.2549L16.1959 78.004C17.6461 79.2867 19.4678 80.1734 21.5269 80.4717C22.8983 80.6705 24.3438 80.8614 25.7927 81.0237L25.904 80.0299C26.8544 80.1363 27.8054 80.2301 28.7368 80.3054L28.6563 81.3022C30.1742 81.4249 31.6518 81.4999 33.0001 81.4999C34.2763 81.4999 35.642 81.4327 37.0308 81.3214L36.9509 80.3246C37.8184 80.2551 38.6987 80.1679 39.5757 80.0682L39.6886 81.0619C41.0362 80.9088 42.3743 80.727 43.6456 80.5358C44.8658 80.3522 46.0008 79.9594 47.022 79.3972L46.5397 78.5212C47.1733 78.1724 47.7576 77.7517 48.285 77.2709L48.9587 78.0099C49.8389 77.2075 50.5739 76.2562 51.1355 75.2028L51.142 75.1907L50.2596 74.7202L50.2639 74.7121L51.1463 75.1826L51.1528 75.1705C51.7218 74.1032 52.2903 73.0383 52.9333 72.0541L52.0961 71.5071C52.5501 70.8122 53.0419 70.1524 53.5896 69.5651L54.321 70.2471C55.0766 69.4368 55.914 68.8167 56.8894 68.4573C57.4639 68.3076 58.0659 68.1053 58.6629 67.8774L58.3063 66.9432C58.6762 66.8019 59.0497 66.6484 59.419 66.4883L59.8166 67.4059C60.3978 67.154 60.9666 66.8876 61.4951 66.6285C62.3014 66.2333 62.8953 65.5985 63.2389 64.8556L62.3314 64.4357C62.5045 64.0614 62.5901 63.6508 62.5822 63.236L63.582 63.217C63.5666 62.4071 63.2895 61.5923 62.7398 60.9022C61.7104 59.6099 60.3635 57.9661 58.8632 56.2539L58.1111 56.9129C57.2509 55.9313 56.3404 54.9274 55.411 53.9558L56.1336 53.2646C54.6654 51.7296 53.135 50.2574 51.6667 49.0678C51.4534 48.895 51.209 48.6222 50.9575 48.285L50.1559 48.8828C49.9778 48.6439 49.8115 48.3966 49.6637 48.1629L50.5089 47.6284C50.444 47.5258 50.3829 47.426 50.3262 47.3311C51.2172 46.6468 51.911 45.8756 52.4373 45.0282L51.5878 44.5006C52.0206 43.8037 52.3187 43.0573 52.5152 42.271L53.4854 42.5136C54.0809 40.1314 53.8155 37.4701 53.5111 34.918L52.5182 35.0364C52.4903 34.8026 52.4618 34.568 52.4332 34.3327C52.3645 33.7673 52.2954 33.1983 52.2332 32.628L53.2273 32.5195C53.0969 31.3237 53.0003 30.1486 53.0003 28.9999C53.0003 27.8965 52.8984 26.7925 52.7003 25.7123L51.7167 25.8927C51.5909 25.2065 51.424 24.5305 51.2176 23.8718L52.1718 23.5727C51.8376 22.5063 51.4045 21.4788 50.8767 20.5183C50.4557 19.7523 49.6721 18.494 48.4503 17.1086L47.7003 17.7701C47.1652 17.1633 46.541 16.5301 45.8209 15.9049L46.4765 15.1498C45.8152 14.5757 45.0766 14.0078 44.2559 13.4705C44.2914 13.4365 44.3267 13.4025 44.3617 13.3684L43.6647 12.6513C43.9038 12.419 44.1319 12.1852 44.3453 11.9578L45.0744 12.6422C45.4633 12.2279 45.8045 11.8351 46.0781 11.5075C46.3783 11.148 46.4803 10.6962 46.396 10.2762L45.4155 10.473C45.3971 10.381 45.3508 10.2958 45.2835 10.2295L45.9851 9.51698C45.6879 9.22435 45.2678 9.05977 44.8128 9.09864C43.7137 9.19253 41.9146 9.34379 39.9866 9.4959L40.0653 10.4928C38.9979 10.577 37.8909 10.6615 36.8408 10.7367L36.7694 9.73923C34.6619 9.89014 32.8314 9.9999 32.0003 9.9999C30.5018 9.9999 29.1023 10.1235 27.7976 10.346L27.9657 11.3318C27.0378 11.4901 26.1624 11.7003 25.3374 11.952L25.0455 10.9956C21.9176 11.9502 19.4773 13.4758 17.6274 15.0607L18.278 15.8201C17.5396 16.4527 16.9 17.0951 16.352 17.7116L15.6046 17.0472C14.3516 18.4568 13.551 19.741 13.1239 20.5183C12.596 21.4788 12.1629 22.5063 11.8287 23.5727L12.7829 23.8718C12.5765 24.5305 12.4096 25.2065 12.2838 25.8927L11.3002 25.7123C11.1021 26.7925 11.0003 27.8965 11.0003 28.9999C11.0003 30.1868 10.8971 31.4015 10.7602 32.6379L11.7541 32.748C11.6954 33.2782 11.6312 33.807 11.5673 34.3328C11.5306 34.6351 11.494 34.9364 11.4587 35.2363L10.4655 35.1193C10.1531 37.7704 9.9011 40.5387 10.6466 42.9886L11.6033 42.6975C11.8446 43.4905 12.1995 44.2395 12.7042 44.9339L11.8953 45.5218ZM15.515 47.568L15.4284 47.5578L15.4729 47.4776L15.5249 47.4837L15.515 47.568Z" stroke="black" stroke-opacity="0.7" stroke-width="2" stroke-linejoin="round" stroke-dasharray="9 3"/>
</g>
<defs>
<clipPath id="clip0_668_1219">
<rect width="64" height="64" rx="32" fill="white"/>
</clipPath>
</defs>
</svg>
