<svg width="32" height="32" viewBox="0 0 32 32" fill="none" xmlns="http://www.w3.org/2000/svg">
<path d="M12.5 10.5C12.5 9.67157 13.1716 9 14 9H18C18.8284 9 19.5 9.67157 19.5 10.5V15C19.5 15.8284 20.1716 16.5 21 16.5C21.8284 16.5 22.5 15.8284 22.5 15V10.5C22.5 8.01472 20.4853 6 18 6H14C11.5147 6 9.5 8.01472 9.5 10.5V14.5415C9.6626 14.5142 9.82964 14.5 10 14.5H12.5V10.5Z" fill="white"/>
<path fill-rule="evenodd" clip-rule="evenodd" d="M0 16C0 7.16344 7.16344 0 16 0C24.8366 0 32 7.16344 32 16C32 24.8366 24.8366 32 16 32C7.16344 32 0 24.8366 0 16ZM12.5 10.5C12.5 9.67157 13.1716 9 14 9H18C18.8284 9 19.5 9.67157 19.5 10.5V15C19.5 15.8284 20.1716 16.5 21 16.5C21.8284 16.5 22.5 15.8284 22.5 15V10.5C22.5 8.01472 20.4853 6 18 6H14C11.5147 6 9.5 8.01472 9.5 10.5V14.5415C8.08114 14.7795 7 16.0135 7 17.5V22.5C7 24.1569 8.34315 25.5 10 25.5H22C23.6569 25.5 25 24.1569 25 22.5V17.5C25 15.8431 23.6569 14.5 22 14.5H12.5V10.5Z" fill="#3876ED"/>
<path d="M25 22.5V17.5C25 15.8431 23.6569 14.5 22 14.5H12.5H10C9.82964 14.5 9.6626 14.5142 9.5 14.5415C8.08114 14.7795 7 16.0135 7 17.5V22.5C7 24.1569 8.34315 25.5 10 25.5H22C23.6569 25.5 25 24.1569 25 22.5Z" fill="white"/>
</svg>
