<svg width="32" height="32" viewBox="0 0 32 32" fill="none" xmlns="http://www.w3.org/2000/svg">
<path d="M0 16C0 7.16344 7.16344 0 16 0C24.8366 0 32 7.16344 32 16C32 24.8366 24.8366 32 16 32C7.16344 32 0 24.8366 0 16Z" fill="#46ED38"/>
<path fill-rule="evenodd" clip-rule="evenodd" d="M25.6404 7.61349C26.6823 8.51948 26.7925 10.0986 25.8865 11.1404L15.8865 22.6404C15.4316 23.1636 14.7799 23.4743 14.0871 23.4985C13.3942 23.5226 12.7224 23.258 12.2322 22.7678L7.23223 17.7678C6.25592 16.7915 6.25592 15.2085 7.23223 14.2322C8.20854 13.2559 9.79146 13.2559 10.7678 14.2322L13.8724 17.3368L22.1135 7.85955C23.0195 6.81766 24.5986 6.70749 25.6404 7.61349Z" fill="white"/>
</svg>
