<svg width="32" height="32" viewBox="0 0 32 32" fill="none" xmlns="http://www.w3.org/2000/svg">
<path d="M0 16C0 7.16344 7.16344 0 16 0C24.8366 0 32 7.16344 32 16C32 24.8366 24.8366 32 16 32C7.16344 32 0 24.8366 0 16Z" fill="#EDA538"/>
<path fill-rule="evenodd" clip-rule="evenodd" d="M16 6C17.3807 6 18.5 7.11929 18.5 8.5V17.25C18.5 18.6307 17.3807 19.75 16 19.75C14.6193 19.75 13.5 18.6307 13.5 17.25V8.5C13.5 7.11929 14.6193 6 16 6ZM16 21C17.3807 21 18.5 22.1193 18.5 23.5C18.5 24.8807 17.3807 26 16 26C14.6193 26 13.5 24.8807 13.5 23.5C13.5 22.1193 14.6193 21 16 21Z" fill="white"/>
</svg>
