<svg width="292" height="151" viewBox="0 0 292 151" fill="none" xmlns="http://www.w3.org/2000/svg">
<rect width="292" height="151" fill="#39414D"/>
<rect x="51" y="34" width="63" height="30" rx="5" fill="#697F94"/>
<path d="M53 41V40C53 37.7909 54.7909 36 57 36H60" stroke="#7792AB" stroke-linecap="round" stroke-linejoin="round"/>
<rect x="55" y="12" width="55" height="52" rx="5" fill="white"/>
<path d="M55 15.2273C55 13.4449 56.4485 12 58.2353 12H106.765C108.552 12 110 13.4449 110 15.2273V79.7727C110 81.5551 108.552 83 106.765 83H58.2353C56.4485 83 55 81.5551 55 79.7727V15.2273Z" fill="white"/>
<path d="M66.6471 27.4909C66.6471 26.9562 67.0816 26.5227 67.6176 26.5227H70.5294C71.0655 26.5227 71.5 26.9562 71.5 27.4909V27.8136C71.5 28.3483 71.0655 28.7818 70.5294 28.7818H67.6176C67.0816 28.7818 66.6471 28.3483 66.6471 27.8136V27.4909Z" fill="#DBDBDB"/>
<path d="M62.4412 30.7182C62.4412 30.1835 62.8757 29.75 63.4118 29.75H70.5294C71.0655 29.75 71.5 30.1835 71.5 30.7182V31.0409C71.5 31.5756 71.0655 32.0091 70.5294 32.0091H63.4118C62.8757 32.0091 62.4412 31.5756 62.4412 31.0409V30.7182Z" fill="#DBDBDB"/>
<path fill-rule="evenodd" clip-rule="evenodd" d="M60.0147 29.75C60.1934 29.75 60.3382 29.8945 60.3382 30.0727V30.5568H60.8235C61.0022 30.5568 61.1471 30.7013 61.1471 30.8795C61.1471 31.0578 61.0022 31.2023 60.8235 31.2023H60.3382V31.6864C60.3382 31.8646 60.1934 32.0091 60.0147 32.0091C59.836 32.0091 59.6912 31.8646 59.6912 31.6864V31.2023H59.2059C59.0272 31.2023 58.8824 31.0578 58.8824 30.8795C58.8824 30.7013 59.0272 30.5568 59.2059 30.5568H59.6912V30.0727C59.6912 29.8945 59.836 29.75 60.0147 29.75Z" fill="#C4C4C4"/>
<path fill-rule="evenodd" clip-rule="evenodd" d="M59.2059 33.6227C59.2059 33.4445 59.3507 33.3 59.5294 33.3H71.5C71.6787 33.3 71.8235 33.4445 71.8235 33.6227C71.8235 33.801 71.6787 33.9455 71.5 33.9455H59.5294C59.3507 33.9455 59.2059 33.801 59.2059 33.6227Z" fill="#C4C4C4"/>
<path d="M83.4706 27.4909C83.4706 26.9562 83.9051 26.5227 84.4412 26.5227H87.3529C87.889 26.5227 88.3235 26.9562 88.3235 27.4909V27.8136C88.3235 28.3483 87.889 28.7818 87.3529 28.7818H84.4412C83.9051 28.7818 83.4706 28.3483 83.4706 27.8136V27.4909Z" fill="#DBDBDB"/>
<path d="M79.2647 30.7182C79.2647 30.1835 79.6993 29.75 80.2353 29.75H87.3529C87.889 29.75 88.3235 30.1835 88.3235 30.7182V31.0409C88.3235 31.5756 87.889 32.0091 87.3529 32.0091H80.2353C79.6993 32.0091 79.2647 31.5756 79.2647 31.0409V30.7182Z" fill="#DBDBDB"/>
<path fill-rule="evenodd" clip-rule="evenodd" d="M76.8382 29.75C77.0169 29.75 77.1618 29.8945 77.1618 30.0727V30.5568H77.6471C77.8257 30.5568 77.9706 30.7013 77.9706 30.8795C77.9706 31.0578 77.8257 31.2023 77.6471 31.2023H77.1618V31.6864C77.1618 31.8646 77.0169 32.0091 76.8382 32.0091C76.6596 32.0091 76.5147 31.8646 76.5147 31.6864V31.2023H76.0294C75.8507 31.2023 75.7059 31.0578 75.7059 30.8795C75.7059 30.7013 75.8507 30.5568 76.0294 30.5568H76.5147V30.0727C76.5147 29.8945 76.6596 29.75 76.8382 29.75Z" fill="#C4C4C4"/>
<path fill-rule="evenodd" clip-rule="evenodd" d="M76.0294 33.6227C76.0294 33.4445 76.1743 33.3 76.3529 33.3H88.3235C88.5022 33.3 88.6471 33.4445 88.6471 33.6227C88.6471 33.801 88.5022 33.9455 88.3235 33.9455H76.3529C76.1743 33.9455 76.0294 33.801 76.0294 33.6227Z" fill="#C4C4C4"/>
<path d="M100.294 27.4909C100.294 26.9562 100.729 26.5227 101.265 26.5227H104.176C104.713 26.5227 105.147 26.9562 105.147 27.4909V27.8136C105.147 28.3483 104.713 28.7818 104.176 28.7818H101.265C100.729 28.7818 100.294 28.3483 100.294 27.8136V27.4909Z" fill="#DBDBDB"/>
<path d="M96.0882 30.7182C96.0882 30.1835 96.5228 29.75 97.0588 29.75H104.176C104.713 29.75 105.147 30.1835 105.147 30.7182V31.0409C105.147 31.5756 104.713 32.0091 104.176 32.0091H97.0588C96.5228 32.0091 96.0882 31.5756 96.0882 31.0409V30.7182Z" fill="#DBDBDB"/>
<path fill-rule="evenodd" clip-rule="evenodd" d="M93.6618 29.75C93.8404 29.75 93.9853 29.8945 93.9853 30.0727V30.5568H94.4706C94.6493 30.5568 94.7941 30.7013 94.7941 30.8795C94.7941 31.0578 94.6493 31.2023 94.4706 31.2023H93.9853V31.6864C93.9853 31.8646 93.8404 32.0091 93.6618 32.0091C93.4831 32.0091 93.3382 31.8646 93.3382 31.6864V31.2023H92.8529C92.6743 31.2023 92.5294 31.0578 92.5294 30.8795C92.5294 30.7013 92.6743 30.5568 92.8529 30.5568H93.3382V30.0727C93.3382 29.8945 93.4831 29.75 93.6618 29.75Z" fill="#C4C4C4"/>
<path fill-rule="evenodd" clip-rule="evenodd" d="M92.8529 33.6227C92.8529 33.4445 92.9978 33.3 93.1765 33.3H105.147C105.326 33.3 105.471 33.4445 105.471 33.6227C105.471 33.801 105.326 33.9455 105.147 33.9455H93.1765C92.9978 33.9455 92.8529 33.801 92.8529 33.6227Z" fill="#C4C4C4"/>
<path d="M66.6471 41.3682C66.6471 40.8335 67.0816 40.4 67.6176 40.4H70.5294C71.0655 40.4 71.5 40.8335 71.5 41.3682V41.6909C71.5 42.2256 71.0655 42.6591 70.5294 42.6591H67.6176C67.0816 42.6591 66.6471 42.2256 66.6471 41.6909V41.3682Z" fill="#DBDBDB"/>
<path d="M62.4412 44.5955C62.4412 44.0607 62.8757 43.6273 63.4118 43.6273H70.5294C71.0655 43.6273 71.5 44.0607 71.5 44.5955V44.9182C71.5 45.4529 71.0655 45.8864 70.5294 45.8864H63.4118C62.8757 45.8864 62.4412 45.4529 62.4412 44.9182V44.5955Z" fill="#DBDBDB"/>
<path fill-rule="evenodd" clip-rule="evenodd" d="M60.0147 43.6273C60.1934 43.6273 60.3382 43.7718 60.3382 43.95V44.4341H60.8235C61.0022 44.4341 61.1471 44.5786 61.1471 44.7568C61.1471 44.9351 61.0022 45.0795 60.8235 45.0795H60.3382V45.5636C60.3382 45.7419 60.1934 45.8864 60.0147 45.8864C59.836 45.8864 59.6912 45.7419 59.6912 45.5636V45.0795H59.2059C59.0272 45.0795 58.8824 44.9351 58.8824 44.7568C58.8824 44.5786 59.0272 44.4341 59.2059 44.4341H59.6912V43.95C59.6912 43.7718 59.836 43.6273 60.0147 43.6273Z" fill="#C4C4C4"/>
<path fill-rule="evenodd" clip-rule="evenodd" d="M59.2059 47.5C59.2059 47.3218 59.3507 47.1773 59.5294 47.1773L71.5 47.1773C71.6787 47.1773 71.8235 47.3218 71.8235 47.5C71.8235 47.6782 71.6787 47.8227 71.5 47.8227L59.5294 47.8227C59.3507 47.8227 59.2059 47.6782 59.2059 47.5Z" fill="#C4C4C4"/>
<path d="M83.4706 41.3682C83.4706 40.8335 83.9051 40.4 84.4412 40.4H87.3529C87.889 40.4 88.3235 40.8335 88.3235 41.3682V41.6909C88.3235 42.2256 87.889 42.6591 87.3529 42.6591H84.4412C83.9051 42.6591 83.4706 42.2256 83.4706 41.6909V41.3682Z" fill="#DBDBDB"/>
<path d="M79.2647 44.5955C79.2647 44.0607 79.6993 43.6273 80.2353 43.6273H87.3529C87.889 43.6273 88.3235 44.0607 88.3235 44.5955V44.9182C88.3235 45.4529 87.889 45.8864 87.3529 45.8864H80.2353C79.6993 45.8864 79.2647 45.4529 79.2647 44.9182V44.5955Z" fill="#DBDBDB"/>
<path fill-rule="evenodd" clip-rule="evenodd" d="M76.8382 43.6273C77.0169 43.6273 77.1618 43.7718 77.1618 43.95V44.4341H77.6471C77.8257 44.4341 77.9706 44.5786 77.9706 44.7568C77.9706 44.9351 77.8257 45.0795 77.6471 45.0795H77.1618V45.5636C77.1618 45.7419 77.0169 45.8864 76.8382 45.8864C76.6596 45.8864 76.5147 45.7419 76.5147 45.5636V45.0795H76.0294C75.8507 45.0795 75.7059 44.9351 75.7059 44.7568C75.7059 44.5786 75.8507 44.4341 76.0294 44.4341H76.5147V43.95C76.5147 43.7718 76.6596 43.6273 76.8382 43.6273Z" fill="#C4C4C4"/>
<path fill-rule="evenodd" clip-rule="evenodd" d="M76.0294 47.5C76.0294 47.3218 76.1743 47.1773 76.3529 47.1773L88.3235 47.1773C88.5022 47.1773 88.6471 47.3218 88.6471 47.5C88.6471 47.6782 88.5022 47.8227 88.3235 47.8227L76.3529 47.8227C76.1743 47.8227 76.0294 47.6782 76.0294 47.5Z" fill="#C4C4C4"/>
<path d="M100.294 41.3682C100.294 40.8335 100.729 40.4 101.265 40.4H104.176C104.713 40.4 105.147 40.8335 105.147 41.3682V41.6909C105.147 42.2256 104.713 42.6591 104.176 42.6591H101.265C100.729 42.6591 100.294 42.2256 100.294 41.6909V41.3682Z" fill="#DBDBDB"/>
<path d="M96.0882 44.5955C96.0882 44.0607 96.5228 43.6273 97.0588 43.6273H104.176C104.713 43.6273 105.147 44.0607 105.147 44.5955V44.9182C105.147 45.4529 104.713 45.8864 104.176 45.8864H97.0588C96.5228 45.8864 96.0882 45.4529 96.0882 44.9182V44.5955Z" fill="#DBDBDB"/>
<path fill-rule="evenodd" clip-rule="evenodd" d="M93.6618 43.6273C93.8404 43.6273 93.9853 43.7718 93.9853 43.95V44.4341H94.4706C94.6493 44.4341 94.7941 44.5786 94.7941 44.7568C94.7941 44.9351 94.6493 45.0795 94.4706 45.0795H93.9853V45.5636C93.9853 45.7419 93.8404 45.8864 93.6618 45.8864C93.4831 45.8864 93.3382 45.7419 93.3382 45.5636V45.0795H92.8529C92.6743 45.0795 92.5294 44.9351 92.5294 44.7568C92.5294 44.5786 92.6743 44.4341 92.8529 44.4341H93.3382V43.95C93.3382 43.7718 93.4831 43.6273 93.6618 43.6273Z" fill="#C4C4C4"/>
<path fill-rule="evenodd" clip-rule="evenodd" d="M92.8529 47.5C92.8529 47.3218 92.9978 47.1773 93.1765 47.1773L105.147 47.1773C105.326 47.1773 105.471 47.3218 105.471 47.5C105.471 47.6782 105.326 47.8227 105.147 47.8227L93.1765 47.8227C92.9978 47.8227 92.8529 47.6782 92.8529 47.5Z" fill="#C4C4C4"/>
<path d="M66.6471 55.2455C66.6471 54.7107 67.0816 54.2773 67.6176 54.2773H70.5294C71.0655 54.2773 71.5 54.7107 71.5 55.2455V55.5682C71.5 56.1029 71.0655 56.5364 70.5294 56.5364H67.6176C67.0816 56.5364 66.6471 56.1029 66.6471 55.5682V55.2455Z" fill="#DBDBDB"/>
<path d="M62.4412 58.4727C62.4412 57.938 62.8757 57.5045 63.4118 57.5045H70.5294C71.0655 57.5045 71.5 57.938 71.5 58.4727V58.7955C71.5 59.3302 71.0655 59.7636 70.5294 59.7636H63.4118C62.8757 59.7636 62.4412 59.3302 62.4412 58.7955V58.4727Z" fill="#DBDBDB"/>
<path fill-rule="evenodd" clip-rule="evenodd" d="M60.0147 57.5045C60.1934 57.5045 60.3382 57.649 60.3382 57.8273V58.3114H60.8235C61.0022 58.3114 61.1471 58.4559 61.1471 58.6341C61.1471 58.8123 61.0022 58.9568 60.8235 58.9568H60.3382V59.4409C60.3382 59.6191 60.1934 59.7636 60.0147 59.7636C59.836 59.7636 59.6912 59.6191 59.6912 59.4409V58.9568H59.2059C59.0272 58.9568 58.8824 58.8123 58.8824 58.6341C58.8824 58.4559 59.0272 58.3114 59.2059 58.3114H59.6912V57.8273C59.6912 57.649 59.836 57.5045 60.0147 57.5045Z" fill="#C4C4C4"/>
<path fill-rule="evenodd" clip-rule="evenodd" d="M59.2059 61.3773C59.2059 61.199 59.3507 61.0545 59.5294 61.0545L71.5 61.0545C71.6787 61.0545 71.8235 61.199 71.8235 61.3773C71.8235 61.5555 71.6787 61.7 71.5 61.7L59.5294 61.7C59.3507 61.7 59.2059 61.5555 59.2059 61.3773Z" fill="#C4C4C4"/>
<path d="M83.4706 55.2455C83.4706 54.7107 83.9051 54.2773 84.4412 54.2773H87.3529C87.889 54.2773 88.3235 54.7107 88.3235 55.2455V55.5682C88.3235 56.1029 87.889 56.5364 87.3529 56.5364H84.4412C83.9051 56.5364 83.4706 56.1029 83.4706 55.5682V55.2455Z" fill="#DBDBDB"/>
<path d="M79.2647 58.4727C79.2647 57.938 79.6993 57.5045 80.2353 57.5045H87.3529C87.889 57.5045 88.3235 57.938 88.3235 58.4727V58.7955C88.3235 59.3302 87.889 59.7636 87.3529 59.7636H80.2353C79.6993 59.7636 79.2647 59.3302 79.2647 58.7955V58.4727Z" fill="#DBDBDB"/>
<path fill-rule="evenodd" clip-rule="evenodd" d="M76.8382 57.5045C77.0169 57.5045 77.1618 57.649 77.1618 57.8273V58.3114H77.6471C77.8257 58.3114 77.9706 58.4559 77.9706 58.6341C77.9706 58.8123 77.8257 58.9568 77.6471 58.9568H77.1618V59.4409C77.1618 59.6191 77.0169 59.7636 76.8382 59.7636C76.6596 59.7636 76.5147 59.6191 76.5147 59.4409V58.9568H76.0294C75.8507 58.9568 75.7059 58.8123 75.7059 58.6341C75.7059 58.4559 75.8507 58.3114 76.0294 58.3114H76.5147V57.8273C76.5147 57.649 76.6596 57.5045 76.8382 57.5045Z" fill="#C4C4C4"/>
<path fill-rule="evenodd" clip-rule="evenodd" d="M76.0294 61.3773C76.0294 61.199 76.1743 61.0545 76.3529 61.0545L88.3235 61.0545C88.5022 61.0545 88.6471 61.199 88.6471 61.3773C88.6471 61.5555 88.5022 61.7 88.3235 61.7L76.3529 61.7C76.1743 61.7 76.0294 61.5555 76.0294 61.3773Z" fill="#C4C4C4"/>
<path d="M100.294 55.2455C100.294 54.7107 100.729 54.2773 101.265 54.2773H104.176C104.713 54.2773 105.147 54.7107 105.147 55.2455V55.5682C105.147 56.1029 104.713 56.5364 104.176 56.5364H101.265C100.729 56.5364 100.294 56.1029 100.294 55.5682V55.2455Z" fill="#DBDBDB"/>
<path d="M96.0882 58.4727C96.0882 57.938 96.5228 57.5045 97.0588 57.5045H104.176C104.713 57.5045 105.147 57.938 105.147 58.4727V58.7955C105.147 59.3302 104.713 59.7636 104.176 59.7636H97.0588C96.5228 59.7636 96.0882 59.3302 96.0882 58.7955V58.4727Z" fill="#DBDBDB"/>
<path fill-rule="evenodd" clip-rule="evenodd" d="M93.6618 57.5045C93.8404 57.5045 93.9853 57.649 93.9853 57.8273V58.3114H94.4706C94.6493 58.3114 94.7941 58.4559 94.7941 58.6341C94.7941 58.8123 94.6493 58.9568 94.4706 58.9568H93.9853V59.4409C93.9853 59.6191 93.8404 59.7636 93.6618 59.7636C93.4831 59.7636 93.3382 59.6191 93.3382 59.4409V58.9568H92.8529C92.6743 58.9568 92.5294 58.8123 92.5294 58.6341C92.5294 58.4559 92.6743 58.3114 92.8529 58.3114H93.3382V57.8273C93.3382 57.649 93.4831 57.5045 93.6618 57.5045Z" fill="#C4C4C4"/>
<path fill-rule="evenodd" clip-rule="evenodd" d="M92.8529 61.3773C92.8529 61.199 92.9978 61.0545 93.1765 61.0545L105.147 61.0545C105.326 61.0545 105.471 61.199 105.471 61.3773C105.471 61.5555 105.326 61.7 105.147 61.7L93.1765 61.7C92.9978 61.7 92.8529 61.5555 92.8529 61.3773Z" fill="#C4C4C4"/>
<path d="M66.6471 69.1227C66.6471 68.588 67.0816 68.1545 67.6176 68.1545H70.5294C71.0655 68.1545 71.5 68.588 71.5 69.1227V69.4455C71.5 69.9802 71.0655 70.4136 70.5294 70.4136H67.6176C67.0816 70.4136 66.6471 69.9802 66.6471 69.4455V69.1227Z" fill="#DBDBDB"/>
<path d="M62.4412 72.35C62.4412 71.8153 62.8757 71.3818 63.4118 71.3818H70.5294C71.0655 71.3818 71.5 71.8153 71.5 72.35V72.6727C71.5 73.2074 71.0655 73.6409 70.5294 73.6409H63.4118C62.8757 73.6409 62.4412 73.2074 62.4412 72.6727V72.35Z" fill="#DBDBDB"/>
<path fill-rule="evenodd" clip-rule="evenodd" d="M60.0147 71.3818C60.1934 71.3818 60.3382 71.5263 60.3382 71.7045V72.1886H60.8235C61.0022 72.1886 61.1471 72.3331 61.1471 72.5114C61.1471 72.6896 61.0022 72.8341 60.8235 72.8341H60.3382V73.3182C60.3382 73.4964 60.1934 73.6409 60.0147 73.6409C59.836 73.6409 59.6912 73.4964 59.6912 73.3182V72.8341H59.2059C59.0272 72.8341 58.8824 72.6896 58.8824 72.5114C58.8824 72.3331 59.0272 72.1886 59.2059 72.1886H59.6912V71.7045C59.6912 71.5263 59.836 71.3818 60.0147 71.3818Z" fill="#C4C4C4"/>
<path fill-rule="evenodd" clip-rule="evenodd" d="M59.2059 75.2545C59.2059 75.0763 59.3507 74.9318 59.5294 74.9318H71.5C71.6787 74.9318 71.8235 75.0763 71.8235 75.2545C71.8235 75.4328 71.6787 75.5773 71.5 75.5773H59.5294C59.3507 75.5773 59.2059 75.4328 59.2059 75.2545Z" fill="#C4C4C4"/>
<path d="M83.4706 69.1227C83.4706 68.588 83.9051 68.1545 84.4412 68.1545H87.3529C87.889 68.1545 88.3235 68.588 88.3235 69.1227V69.4455C88.3235 69.9802 87.889 70.4136 87.3529 70.4136H84.4412C83.9051 70.4136 83.4706 69.9802 83.4706 69.4455V69.1227Z" fill="#DBDBDB"/>
<path d="M79.2647 72.35C79.2647 71.8153 79.6993 71.3818 80.2353 71.3818H87.3529C87.889 71.3818 88.3235 71.8153 88.3235 72.35V72.6727C88.3235 73.2074 87.889 73.6409 87.3529 73.6409H80.2353C79.6993 73.6409 79.2647 73.2074 79.2647 72.6727V72.35Z" fill="#DBDBDB"/>
<path fill-rule="evenodd" clip-rule="evenodd" d="M76.8382 71.3818C77.0169 71.3818 77.1618 71.5263 77.1618 71.7045V72.1886H77.6471C77.8257 72.1886 77.9706 72.3331 77.9706 72.5114C77.9706 72.6896 77.8257 72.8341 77.6471 72.8341H77.1618V73.3182C77.1618 73.4964 77.0169 73.6409 76.8382 73.6409C76.6596 73.6409 76.5147 73.4964 76.5147 73.3182V72.8341H76.0294C75.8507 72.8341 75.7059 72.6896 75.7059 72.5114C75.7059 72.3331 75.8507 72.1886 76.0294 72.1886H76.5147V71.7045C76.5147 71.5263 76.6596 71.3818 76.8382 71.3818Z" fill="#C4C4C4"/>
<path fill-rule="evenodd" clip-rule="evenodd" d="M76.0294 75.2545C76.0294 75.0763 76.1743 74.9318 76.3529 74.9318H88.3235C88.5022 74.9318 88.6471 75.0763 88.6471 75.2545C88.6471 75.4328 88.5022 75.5773 88.3235 75.5773H76.3529C76.1743 75.5773 76.0294 75.4328 76.0294 75.2545Z" fill="#C4C4C4"/>
<path d="M100.294 69.1227C100.294 68.588 100.729 68.1545 101.265 68.1545H104.176C104.713 68.1545 105.147 68.588 105.147 69.1227V69.4455C105.147 69.9802 104.713 70.4136 104.176 70.4136H101.265C100.729 70.4136 100.294 69.9802 100.294 69.4455V69.1227Z" fill="#DBDBDB"/>
<path d="M96.0882 72.35C96.0882 71.8153 96.5228 71.3818 97.0588 71.3818H104.176C104.713 71.3818 105.147 71.8153 105.147 72.35V72.6727C105.147 73.2074 104.713 73.6409 104.176 73.6409H97.0588C96.5228 73.6409 96.0882 73.2074 96.0882 72.6727V72.35Z" fill="#DBDBDB"/>
<path fill-rule="evenodd" clip-rule="evenodd" d="M93.6618 71.3818C93.8404 71.3818 93.9853 71.5263 93.9853 71.7045V72.1886H94.4706C94.6493 72.1886 94.7941 72.3331 94.7941 72.5114C94.7941 72.6896 94.6493 72.8341 94.4706 72.8341H93.9853V73.3182C93.9853 73.4964 93.8404 73.6409 93.6618 73.6409C93.4831 73.6409 93.3382 73.4964 93.3382 73.3182V72.8341H92.8529C92.6743 72.8341 92.5294 72.6896 92.5294 72.5114C92.5294 72.3331 92.6743 72.1886 92.8529 72.1886H93.3382V71.7045C93.3382 71.5263 93.4831 71.3818 93.6618 71.3818Z" fill="#C4C4C4"/>
<path fill-rule="evenodd" clip-rule="evenodd" d="M92.8529 75.2545C92.8529 75.0763 92.9978 74.9318 93.1765 74.9318H105.147C105.326 74.9318 105.471 75.0763 105.471 75.2545C105.471 75.4328 105.326 75.5773 105.147 75.5773H93.1765C92.9978 75.5773 92.8529 75.4328 92.8529 75.2545Z" fill="#C4C4C4"/>
<path d="M56.9412 14.9045C56.9412 14.3698 57.3757 13.9364 57.9118 13.9364H73.7647C74.3007 13.9364 74.7353 14.3698 74.7353 14.9045V15.2273C74.7353 15.762 74.3007 16.1955 73.7647 16.1955H57.9118C57.3757 16.1955 56.9412 15.762 56.9412 15.2273V14.9045Z" fill="#DBDBDB"/>
<path d="M77.9706 14.9045C77.9706 14.3698 78.4051 13.9364 78.9412 13.9364H94.7941C95.3302 13.9364 95.7647 14.3698 95.7647 14.9045V15.2273C95.7647 15.762 95.3302 16.1955 94.7941 16.1955H78.9412C78.4051 16.1955 77.9706 15.762 77.9706 15.2273V14.9045Z" fill="#DBDBDB"/>
<path d="M104.176 14.9045C104.176 14.3698 104.611 13.9364 105.147 13.9364H107.088C107.624 13.9364 108.059 14.3698 108.059 14.9045V15.2273C108.059 15.762 107.624 16.1955 107.088 16.1955H105.147C104.611 16.1955 104.176 15.762 104.176 15.2273V14.9045Z" fill="#DBDBDB"/>
<path d="M99 14.9045C99 14.3698 99.4345 13.9364 99.9706 13.9364H101.912C102.448 13.9364 102.882 14.3698 102.882 14.9045V15.2273C102.882 15.762 102.448 16.1955 101.912 16.1955H99.9706C99.4345 16.1955 99 15.762 99 15.2273V14.9045Z" fill="#DBDBDB"/>
<path d="M67.9412 18.7773C67.9412 18.2426 68.3757 17.8091 68.9118 17.8091H96.0882C96.6243 17.8091 97.0588 18.2426 97.0588 18.7773V21.3591C97.0588 21.8938 96.6243 22.3273 96.0882 22.3273H68.9118C68.3757 22.3273 67.9412 21.8938 67.9412 21.3591V18.7773Z" fill="#C4C4C4"/>
<path d="M31 65C31 59.4772 35.4772 55 41 55H125H133.5H148V111C148 116.523 143.523 121 138 121H41C35.4772 121 31 116.523 31 111V65Z" fill="#7792AB"/>
<path d="M130 44C127.239 44 125 46.2386 125 49V55H133.5H148V49C148 46.2386 145.761 44 143 44H130Z" fill="#7792AB"/>
<path d="M68.036 80.204C69.56 80.204 70.856 79.676 70.856 78.152C70.856 76.724 69.884 76.364 68.732 76.16L68.396 76.1C67.724 75.98 67.496 75.908 67.496 75.62C67.496 75.38 67.712 75.212 68.204 75.212C69.152 75.212 69.836 75.584 70.232 75.584C70.472 75.584 70.616 75.476 70.616 75.164V74.576C70.616 74.336 70.568 74.168 70.292 74.036C69.992 73.892 69.236 73.676 68.228 73.676C66.848 73.676 65.552 74.156 65.552 75.764C65.552 76.976 66.428 77.384 67.58 77.6L67.964 77.672C68.672 77.804 68.912 77.876 68.912 78.2C68.912 78.524 68.612 78.668 68.204 78.668C66.812 78.668 66.344 78.248 65.948 78.248C65.672 78.248 65.564 78.44 65.564 78.692V79.28C65.564 79.472 65.6 79.664 65.888 79.82C66.2 79.988 67.124 80.204 68.036 80.204ZM77.809 74.528C77.317 73.964 76.573 73.64 75.757 73.64C75.085 73.64 74.449 73.832 73.981 74.276V71.312C73.981 71.024 73.849 70.88 73.621 70.88C72.913 70.88 72.061 71.756 72.061 73.28V79.364C72.061 79.808 72.229 80 72.697 80H73.345C73.813 80 73.981 79.808 73.981 79.364V77.108C73.981 76.556 74.113 76.148 74.341 75.884C74.581 75.608 74.941 75.464 75.349 75.464C75.781 75.464 76.105 75.608 76.321 75.884C76.525 76.148 76.621 76.544 76.621 77.12V79.364C76.621 79.832 76.813 80 77.257 80H77.905C78.349 80 78.541 79.832 78.541 79.364V77.06C78.541 75.848 78.301 75.104 77.809 74.528ZM85.7325 76.916C85.7325 74.948 84.6525 73.64 82.6365 73.64C80.8365 73.64 79.5045 75.116 79.5045 76.94C79.5045 79.04 81.0525 80.24 82.9845 80.24C84.0645 80.24 84.7605 80 85.0125 79.844C85.2285 79.712 85.2645 79.532 85.2645 79.292V78.596C85.2645 78.308 85.0845 78.248 84.9405 78.248C84.7125 78.248 84.2565 78.56 83.1765 78.56C82.1565 78.56 81.5685 78.092 81.4005 77.516H85.1205C85.6005 77.516 85.7325 77.324 85.7325 76.916ZM82.6605 75.248C83.4165 75.248 83.8005 75.692 83.8725 76.28H81.3885C81.4965 75.668 81.9405 75.248 82.6605 75.248ZM92.6818 76.916C92.6818 74.948 91.6018 73.64 89.5858 73.64C87.7858 73.64 86.4538 75.116 86.4538 76.94C86.4538 79.04 88.0018 80.24 89.9338 80.24C91.0138 80.24 91.7098 80 91.9618 79.844C92.1778 79.712 92.2138 79.532 92.2138 79.292V78.596C92.2138 78.308 92.0338 78.248 91.8898 78.248C91.6618 78.248 91.2058 78.56 90.1258 78.56C89.1058 78.56 88.5178 78.092 88.3498 77.516H92.0698C92.5498 77.516 92.6818 77.324 92.6818 76.916ZM89.6098 75.248C90.3658 75.248 90.7498 75.692 90.8218 76.28H88.3378C88.4458 75.668 88.8898 75.248 89.6098 75.248ZM97.8098 78.308C97.6058 78.308 97.4258 78.428 97.0058 78.428C96.3818 78.428 96.1058 78.176 96.1058 77.372V75.536H97.3298C97.7738 75.536 97.9658 75.368 97.9658 74.9V74.516C97.9658 74.048 97.7738 73.88 97.3298 73.88H96.1058V72.956C96.1058 72.512 95.9378 72.32 95.4698 72.32H94.8218C94.3538 72.32 94.1858 72.512 94.1858 72.956V73.88H93.6818C93.2378 73.88 93.0458 74.048 93.0458 74.516V74.9C93.0458 75.368 93.2378 75.536 93.6818 75.536H94.1858V77.6C94.1858 79.34 94.9658 80.18 96.5618 80.18C97.0058 80.18 97.3658 80.132 97.6658 80.012C98.0498 79.856 98.0978 79.724 98.0978 79.352V78.644C98.0978 78.428 98.0018 78.308 97.8098 78.308ZM100.068 72.908C100.656 72.908 101.16 72.44 101.16 71.864C101.16 71.276 100.656 70.82 100.068 70.82C99.4558 70.82 98.9758 71.276 98.9758 71.864C98.9758 72.44 99.4558 72.908 100.068 72.908ZM99.7438 80H100.392C100.836 80 101.028 79.832 101.028 79.364V74.516C101.028 74.048 100.836 73.88 100.392 73.88H99.7438C99.2998 73.88 99.1078 74.048 99.1078 74.516V79.364C99.1078 79.832 99.2998 80 99.7438 80ZM106.861 71.036C106.489 70.868 106.033 70.82 105.733 70.82C104.353 70.82 103.057 71.564 103.057 73.736V73.88H102.553C102.109 73.88 101.917 74.048 101.917 74.516V74.9C101.917 75.368 102.109 75.536 102.553 75.536H103.057V79.364C103.057 79.808 103.225 80 103.693 80H104.341C104.809 80 104.977 79.808 104.977 79.364V75.536H106.141C106.585 75.536 106.777 75.368 106.777 74.9V74.516C106.777 74.048 106.585 73.88 106.141 73.88H104.977V73.616C104.977 72.8 105.385 72.548 105.913 72.548C106.405 72.548 106.621 72.68 106.885 72.68C107.041 72.68 107.185 72.62 107.185 72.38V71.636C107.185 71.288 107.125 71.156 106.861 71.036ZM113.265 73.88H112.617C112.149 73.88 111.981 74.072 111.981 74.516V76.508C111.981 77.12 111.861 77.528 111.621 77.792C111.405 78.032 111.069 78.176 110.697 78.176C110.325 78.176 110.037 78.056 109.833 77.84C109.581 77.576 109.461 77.18 109.461 76.448V74.516C109.461 74.048 109.269 73.88 108.825 73.88H108.177C107.733 73.88 107.541 74.048 107.541 74.516V76.628C107.541 77.852 107.841 78.704 108.417 79.256C108.897 79.712 109.509 80 110.301 80C110.973 80 111.633 79.796 112.029 79.352V79.748C112.029 80.792 111.597 81.332 110.445 81.332C109.125 81.332 108.741 80.936 108.357 80.936C108.117 80.936 107.973 81.032 107.973 81.404V82.064C107.973 82.436 108.081 82.568 108.357 82.712C108.741 82.916 109.617 83.06 110.361 83.06C112.485 83.06 113.901 82.172 113.901 79.652V74.516C113.901 74.072 113.733 73.88 113.265 73.88Z" fill="#536575"/>
<path d="M62.8118 113.562C63.7473 114.483 65.0077 115 66.3208 115H112.679C113.992 115 115.253 114.483 116.188 113.562L124.309 105.562C127.495 102.423 125.273 97 120.8 97H58.2001C53.7275 97 51.5049 102.423 54.6911 105.562L62.8118 113.562Z" fill="#6B8399"/>
<path d="M36 81V65C36 62.2386 38.2386 60 41 60H67" stroke="#84A1BD" stroke-width="5" stroke-linecap="round" stroke-linejoin="round"/>
<rect x="131" y="46" width="15" height="7" rx="3" fill="#B8CFE6"/>
<path d="M127 49.5C127 48.9477 127.448 48.5 128 48.5V48.5C128.552 48.5 129 48.9477 129 49.5V49.5C129 50.0523 128.552 50.5 128 50.5V50.5C127.448 50.5 127 50.0523 127 49.5V49.5Z" fill="#B8CFE6"/>
<path d="M190.071 124.819C203.66 124.819 215.216 120.111 215.216 106.522C215.216 93.789 206.549 90.579 196.277 88.76L193.281 88.225C187.289 87.155 185.256 86.513 185.256 83.945C185.256 81.805 187.182 80.307 191.569 80.307C200.022 80.307 206.121 83.624 209.652 83.624C211.792 83.624 213.076 82.661 213.076 79.879V74.636C213.076 72.496 212.648 70.998 210.187 69.821C207.512 68.537 200.771 66.611 191.783 66.611C179.478 66.611 167.922 70.891 167.922 85.229C167.922 96.036 175.733 99.674 186.005 101.6L189.429 102.242C195.742 103.419 197.882 104.061 197.882 106.95C197.882 109.839 195.207 111.123 191.569 111.123C179.157 111.123 174.984 107.378 171.453 107.378C168.992 107.378 168.029 109.09 168.029 111.337V116.58C168.029 118.292 168.35 120.004 170.918 121.395C173.7 122.893 181.939 124.819 190.071 124.819Z" fill="#318EA3"/>
<path d="M208.189 70.4789C210.414 68.8579 208.709 64.8507 207.578 63.0497L219.123 60.0884L213 89.0001L198.5 85C201 82 202 79 203 76C204.118 72.6459 205.409 72.505 208.189 70.4789Z" fill="#39414D"/>
<path d="M270.426 14.6919C271.842 13.7144 273.775 14.0746 274.744 15.4964L282.463 26.8242C283.431 28.2461 283.069 30.1912 281.652 31.1687L275.498 35.4167C274.081 36.3943 272.148 36.0341 271.179 34.6122L263.46 23.2844C262.492 21.8626 262.854 19.9175 264.271 18.9399L270.426 14.6919Z" fill="#FF769D"/>
<path d="M271.564 16.1776C271.988 15.8844 272.569 15.9924 272.859 16.419L279.174 25.6872C279.465 26.1137 279.356 26.6973 278.931 26.9905C278.506 27.2838 277.926 27.1757 277.636 26.7492L271.32 17.481C271.03 17.0544 271.139 16.4709 271.564 16.1776Z" fill="#FDACC3"/>
<path d="M260.551 17.7224C261.825 16.8426 263.565 17.1668 264.437 18.4465L275.898 35.2665C276.77 36.5462 276.443 38.2968 275.169 39.1766C273.894 40.0564 272.154 39.7322 271.282 38.4525L259.821 21.6325C258.949 20.3528 259.276 18.6022 260.551 17.7224Z" fill="#CFCFCF"/>
<path d="M260.096 20.5597L272.375 38.5813L226.214 70.4413L213.935 52.4197L260.096 20.5597Z" fill="#FFD300"/>
<path d="M260.096 20.5597L266.235 29.5705L220.074 61.4305L213.935 52.4197L260.096 20.5597Z" fill="#FFE600"/>
<path fill-rule="evenodd" clip-rule="evenodd" d="M212.856 70.5738L226.214 70.4413L213.935 52.4197L208.999 64.9132L212.856 70.5738Z" fill="#FFBBA8"/>
<path d="M208.999 64.9132L207.421 68.9076C207.095 69.7326 207.703 70.6249 208.586 70.6162L212.856 70.5738L208.999 64.9132Z" fill="#1C788C"/>
</svg>
