<svg width="350" height="176" viewBox="0 0 350 176" fill="none" xmlns="http://www.w3.org/2000/svg">
<g clip-path="url(#clip0_642_934)">
<rect width="350" height="176" fill="#752020"/>
<path d="M-8 144.5C-14.4782 150.31 -22.338 157 -30.4182 163.716C-45.7845 176.488 -36.9095 202 -16.9284 202H161H243.5C255.098 202 264.5 192.598 264.5 181V172.854C264.5 169.982 263.911 167.14 262.769 164.505L250.482 136.15C247.154 128.47 239.583 123.5 231.213 123.5H213.09C207.883 123.5 202.862 125.434 199.001 128.928L173.5 152C173.5 152 131.789 134.355 113.731 130.5C97.2583 126.983 78.5552 115.121 69.3094 108.704C65.4888 106.053 60.9769 104.5 56.3264 104.5H39.1065C32.7194 104.5 26.6922 107.402 22.5612 112.273C15.438 120.673 3.44824 134.233 -8 144.5Z" fill="#311D1D"/>
<g filter="url(#filter0_d_642_934)">
<path d="M45.4999 100.5C38.3749 100.356 33.5409 99.7195 27.4999 103.5C22.9843 106.326 21.5488 109.382 18.4999 113.75C17.3474 115.401 16.1079 117.555 15.0563 119.501C14.1619 121.156 15.8824 122.918 17.5918 122.132C22.4131 119.918 29.3036 116.83 31.9999 116C34.7474 115.155 37.8299 116.989 39.7181 118.445C40.6987 119.201 42.1823 119.098 43.0073 118.174C45.074 115.861 48.9374 112.206 52.4999 112.5C54.3593 112.654 56.7268 113.932 57.8509 114.599C58.2746 114.85 58.7693 114.96 59.2565 114.888L67.8112 113.621C69.4826 113.373 70.1128 111.293 68.8599 110.159L61.8362 103.804C61.6148 103.604 61.3522 103.456 61.0651 103.374C59.118 102.819 51.0537 100.612 45.4999 100.5Z" fill="#B54819"/>
</g>
<path d="M41.5041 145.995L10.4604 149.838C0.48842 151.073 -7 159.546 -7 169.594C-7 180.588 1.91237 189.5 12.9063 189.5H343.447C362.53 189.5 378 174.03 378 154.947C378 143.145 371.976 132.159 362.025 125.813L318.118 97.8143C312.141 94.0033 305.279 91.8067 298.201 91.439L285.437 90.7759C275.79 90.2748 266.276 93.1959 258.572 99.0243L207.493 137.67C199.148 143.983 188.705 146.867 178.303 145.731L139.363 141.477C136.463 141.16 133.537 141.153 130.635 141.458L76.6193 147.121C74.2112 147.373 71.7854 147.412 69.3704 147.236L49.5158 145.792C46.845 145.598 44.1616 145.666 41.5041 145.995Z" fill="#3C2828"/>
<path d="M157 73.7895L275 -15.5L168.086 85L157 73.7895Z" fill="url(#paint0_linear_642_934)"/>
<path opacity="0.46" d="M56 109.556L184 -14L62.753 119L56 109.556Z" fill="url(#paint1_linear_642_934)"/>
<path opacity="0.2" d="M105 14.4444L124 -5L112.661 20L105 14.4444Z" fill="url(#paint2_linear_642_934)"/>
<path d="M189.705 53.0179L158.988 73.1796C158.732 73.3479 158.686 73.7055 158.892 73.933L167.636 83.5973C167.832 83.8141 168.171 83.8171 168.371 83.6037L195.463 54.6863C195.862 54.261 195.334 53.6136 194.837 53.9182L185.87 59.4171C185.359 59.7304 184.829 59.0431 185.263 58.6291L190.324 53.7975C190.765 53.3772 190.214 52.6838 189.705 53.0179Z" fill="url(#paint3_linear_642_934)" fill-opacity="0.7"/>
<path d="M163.831 72.5371L161.308 72.3516C160.607 72.3001 159.93 72.0697 159.337 71.6813C158.617 71.2098 157.776 70.9732 156.923 71.0024L155.947 71.0359C153.91 71.1058 151.992 72.0386 150.645 73.6136L148.739 75.844L147.755 76.9913C146.624 78.3108 146 80.01 146 81.7698C146 83.9638 146.969 86.0389 148.633 87.4095L149.719 88.304C150.269 88.7567 150.668 89.3742 150.861 90.0709C151.321 91.7259 152.883 92.7892 154.543 92.5757L156.513 92.3221C157.167 92.2379 157.831 92.2711 158.474 92.4201L160.2 92.8199C162.994 93.4669 165.893 92.3388 167.573 89.9513C168.272 88.9569 168.719 87.7984 168.874 86.5809L169.045 85.2274C169.139 84.4877 169.324 83.7635 169.596 83.0721L170.612 80.4874C171.581 78.0221 170.684 75.1965 168.487 73.7966C168.466 73.7833 168.446 73.7702 168.424 73.7584C168.312 73.6973 167.885 73.4828 166.81 73.1147C165.848 72.7855 164.842 72.6115 163.831 72.5371Z" fill="#4D3131"/>
<path fill-rule="evenodd" clip-rule="evenodd" d="M155.669 73.5743C154.872 73.6578 154.023 73.9103 153.454 74.4962C149.593 78.471 148.738 79.9551 148.739 81.8581C148.739 82.3686 149.042 83.0569 149.445 83.7053C149.634 84.0103 149.825 84.2743 149.968 84.4622C150.04 84.5557 150.099 84.6294 150.139 84.6787C150.159 84.7033 150.174 84.7218 150.184 84.7336L150.195 84.7461L150.197 84.7481V84.7481M150.197 84.7481C150.464 85.0585 150.437 85.5337 150.136 85.8094C149.834 86.0851 149.373 86.057 149.105 85.7466L149.613 85.2817C149.105 85.7466 149.105 85.7466 149.105 85.7466L149.102 85.7435L149.097 85.7376L149.08 85.7177C149.066 85.7009 149.046 85.677 149.021 85.6467C148.972 85.5861 148.902 85.4995 148.82 85.3914C148.655 85.176 148.435 84.8713 148.214 84.5148C147.795 83.8401 147.278 82.8338 147.278 81.8582C147.278 79.2506 148.615 77.3517 152.421 73.433C153.34 72.4874 154.591 72.176 155.521 72.0785C155.998 72.0286 156.421 72.0316 156.725 72.0469C156.878 72.0546 157.003 72.0654 157.091 72.0747C157.135 72.0793 157.171 72.0835 157.196 72.0868C157.209 72.0884 157.219 72.0898 157.226 72.0908L157.236 72.0921L157.239 72.0926L157.241 72.0929C157.241 72.0929 157.241 72.0929 157.137 72.8336L157.241 72.0929C157.64 72.1524 157.917 72.5337 157.859 72.9446C157.802 73.355 157.432 73.6398 157.034 73.5812V73.5812L157.033 73.5811V73.5811L157.032 73.581L157.031 73.5809L157.016 73.5788C157.001 73.5769 156.976 73.5739 156.943 73.5705C156.878 73.5636 156.779 73.5549 156.654 73.5486C156.404 73.5361 156.056 73.5338 155.669 73.5743" fill="#332828"/>
<path d="M144.358 77.3893L145.272 75.7402C145.851 74.6949 146.786 73.8924 147.908 73.4786L150.896 72.3756C152.703 71.7084 154.623 73.0458 154.623 74.9725V75.3282C154.623 76.8667 156.014 78.031 157.528 77.76L157.634 77.7411C159.093 77.4799 160.434 78.6019 160.434 80.0844C160.434 81.7356 162.074 82.8853 163.626 82.3224L165.631 81.5953C168.055 80.7164 170.645 82.4048 170.82 84.9771L170.927 86.5581C170.975 87.2713 170.872 87.9866 170.624 88.6572L170.277 89.5962C169.402 91.9648 167.46 93.7812 165.039 94.4963L164.204 94.7429C163.804 94.8608 163.416 95.0124 163.043 95.1961C160.764 96.3175 158.067 96.1795 155.915 94.8315L154.886 94.1867C154.031 93.6513 153.021 93.4197 152.018 93.5293C150.102 93.7388 148.267 92.7011 147.459 90.9515L146.618 89.1305C146.322 88.4888 145.912 87.906 145.408 87.4101C144.529 86.5454 143.946 85.4258 143.74 84.2105L143.468 82.6026C143.165 80.8141 143.479 78.9758 144.358 77.3893Z" fill="url(#paint4_radial_642_934)" fill-opacity="0.8"/>
<g filter="url(#filter1_d_642_934)">
<path d="M226.5 120.5C226.9 120.1 245.333 105.333 254.5 98L259.172 93.717C260.053 92.9096 260.818 91.9838 261.444 90.9661C263.387 87.8089 266.593 85.6391 270.246 85.0092L277.566 83.7472C278.52 83.5827 279.487 83.5 280.455 83.5H295.096C297.665 83.5 300.201 84.0823 302.513 85.2032L314.249 90.8934C315.082 91.2971 315.88 91.7682 316.636 92.3018L353.958 118.647C355.562 119.779 355.117 122.269 353.22 122.775C351.811 123.15 351.073 124.726 351.581 126.092C353.269 130.639 355.777 139.996 350 144.5C348.462 145.699 341.058 137.853 335.587 131.638C332.477 128.104 326.829 128.34 324.14 132.204C322.535 134.512 319.72 135.654 316.961 135.117L306.168 133.019C304.4 132.675 302.707 132.043 301.099 131.233C297.947 129.646 294.097 127.949 290.682 126.51C285.348 124.263 279.723 124.579 275.819 128.852C274.147 130.682 271.935 133.231 269.737 134.377C265.51 136.581 258.135 139.624 253.5 137C252.991 136.712 252.488 136.34 252 135.916C248.103 132.531 244.036 129.006 238.944 128.157L232.681 127.114C232.23 127.038 231.769 127.035 231.317 127.103L229.553 127.371C225.663 127.96 223.718 123.282 226.5 120.5Z" fill="#D2531C"/>
</g>
<rect x="89" y="142" width="12" height="6" rx="3" fill="#E69435"/>
<rect x="75" y="142" width="12" height="6" rx="3" fill="#E69435"/>
<path d="M69.9758 110.733C70.2818 106.511 73.4888 103.073 77.6795 102.474L86.543 101.208C87.5091 101.07 88.4903 101.074 89.4552 101.22L97.3914 102.423C101.549 103.053 104.716 106.477 105.02 110.671L106.375 129.377C106.734 134.328 103.406 138.809 98.4967 139.547C95.0944 140.059 91.2255 140.5 88 140.5C84.6391 140.5 80.388 140.021 76.6702 139.482C71.6922 138.761 68.2723 134.243 68.6358 129.226L69.9758 110.733Z" fill="#3CADC6"/>
<path d="M84.0972 122H77.9521C77.2953 122 76.8087 122.628 77.0736 123.272C77.5616 124.461 78.6573 126.053 81.0246 126.053C83.392 126.053 84.4876 124.461 84.9757 123.272C85.2405 122.628 84.7539 122 84.0972 122Z" fill="#44C2DE"/>
<path d="M97.0479 122H90.9028C90.2461 122 89.7595 122.628 90.0243 123.272C90.5124 124.461 91.608 126.053 93.9754 126.053C96.3427 126.053 97.4384 124.461 97.9264 123.272C98.1913 122.628 97.7047 122 97.0479 122Z" fill="#44C2DE"/>
<path d="M90.5726 128.947H84.4274C83.7707 128.947 83.2841 129.575 83.5489 130.22C84.037 131.408 85.1326 133 87.5 133C89.8674 133 90.963 131.408 91.451 130.22C91.7159 129.575 91.2293 128.947 90.5726 128.947Z" fill="#44C2DE"/>
<path d="M67.0001 89C67.0001 98.8275 60.2476 109.631 85.0001 110H89.0001C113.753 109.631 107 98.8275 107 89C107 86.188 106.299 83.3642 105 81C103.701 78.6358 98.5606 71 87.0001 71C75.4396 71 70.2994 78.6358 69.0001 81C67.7009 83.3642 67.0001 86.188 67.0001 89Z" fill="#3CADC6"/>
<path d="M70 93V88C70 83.5817 73.5817 80 78 80H81.5279C83.043 80 84.2116 81.1833 85.5569 81.8803C85.7024 81.9557 85.8512 82 86 82H88C88.136 82 88.2703 81.9666 88.401 81.9083C89.8125 81.2794 90.985 80 92.5303 80H96C100.418 80 104 83.5817 104 88V93C104 97.4183 100.418 101 96 101H94.0249C91.5582 101 89.3032 99.6063 88.2 97.4C88.0774 97.1549 87.8269 97 87.5528 97H87H86.4472C86.1731 97 85.9226 97.1549 85.8 97.4C84.6968 99.6063 82.4418 101 79.9751 101H78C73.5817 101 70 97.4183 70 93Z" fill="#44C2DE"/>
<rect x="73" y="82" width="12" height="16.3828" rx="6" fill="white"/>
<rect x="76" y="85" width="8" height="12" rx="4" fill="#4B4B4B"/>
<path d="M80 88C80 89.1046 79.1046 90 78 90C76.8954 90 76 89.1046 76 88C76 86.8954 76.8954 86 78 86C79.1046 86 80 86.8954 80 88Z" fill="white"/>
<rect x="89" y="82" width="12" height="16" rx="6" fill="white"/>
<rect x="90" y="85" width="8" height="12" rx="4" fill="#4B4B4B"/>
<path d="M94 88C94 89.1046 93.1046 90 92 90C90.8954 90 90 89.1046 90 88C90 86.8954 90.8954 86 92 86C93.1046 86 94 86.8954 94 88Z" fill="white"/>
<path d="M89.75 100.424V102.969C89.7395 103.074 89.6695 103.625 89.3304 104.153C88.9929 104.68 88.3528 105.25 87 105.25C85.6472 105.25 85.0071 104.68 84.6696 104.153C84.3305 103.625 84.2605 103.074 84.25 102.969V100.424C84.3606 100.445 84.4781 100.467 84.6008 100.488C85.311 100.615 86.2401 100.75 87 100.75C87.7599 100.75 88.689 100.615 89.3992 100.488C89.5219 100.467 89.6394 100.445 89.75 100.424Z" fill="#B66E28" stroke="#E69435" stroke-width="1.5"/>
<path d="M87.1238 97C89.6894 97 90.5641 98.6165 91 99.708C91.2081 100.229 90.8007 100.735 90.218 100.796L89.2419 100.899C87.6987 101.062 86.3013 101.062 84.7581 100.899L83.782 100.796C83.1993 100.735 82.7918 100.229 83 99.708C83.4358 98.6165 84.5582 97 87.1238 97Z" fill="#F5C443"/>
<path d="M88.3674 98.8816H86.9313C86.2893 98.8816 85.8263 98.292 86.3216 97.9036C86.611 97.6766 87.0339 97.5 87.6494 97.5C88.2648 97.5 88.6878 97.6766 88.9772 97.9036C89.4725 98.292 89.0094 98.8816 88.3674 98.8816Z" fill="#F9DD4A"/>
<path d="M99.8978 70.0951C96.9747 70.3448 89.1045 71 87.0001 71L87 76C87 76 91.806 75.5959 95 75C96.9321 74.6395 99.1968 72.2001 100.31 70.8666C100.586 70.5361 100.327 70.0585 99.8978 70.0951Z" fill="#3CADC6"/>
<path d="M112 74C112 72.8954 112.895 72 114 72H115C116.105 72 117 72.8954 117 74V87C117 88.1046 116.105 89 115 89H114C112.895 89 112 88.1046 112 87V74Z" fill="#EF2A2A"/>
<path d="M123 74C123 72.8954 123.895 72 125 72H126C127.105 72 128 72.8954 128 74V87C128 88.1046 127.105 89 126 89H125C123.895 89 123 88.1046 123 87V74Z" fill="#EF2A2A"/>
<path fill-rule="evenodd" clip-rule="evenodd" d="M125.25 73.5C124.836 73.5 124.5 73.8358 124.5 74.25V77C124.5 77.2761 124.276 77.5 124 77.5C123.724 77.5 123.5 77.2761 123.5 77V74.25C123.5 73.2835 124.284 72.5 125.25 72.5H126C126.276 72.5 126.5 72.7239 126.5 73C126.5 73.2761 126.276 73.5 126 73.5H125.25Z" fill="#F36767"/>
<path fill-rule="evenodd" clip-rule="evenodd" d="M114.25 73.5C113.836 73.5 113.5 73.8358 113.5 74.25V77C113.5 77.2761 113.276 77.5 113 77.5C112.724 77.5 112.5 77.2761 112.5 77V74.25C112.5 73.2835 113.284 72.5 114.25 72.5H115C115.276 72.5 115.5 72.7239 115.5 73C115.5 73.2761 115.276 73.5 115 73.5H114.25Z" fill="#F36767"/>
<path d="M112 92C112 90.8954 112.895 90 114 90H115C116.105 90 117 90.8954 117 92V93C117 94.1046 116.105 95 115 95H114C112.895 95 112 94.1046 112 93V92Z" fill="#EF2A2A"/>
<path d="M123 92C123 90.8954 123.895 90 125 90H126C127.105 90 128 90.8954 128 92V93C128 94.1046 127.105 95 126 95H125C123.895 95 123 94.1046 123 93V92Z" fill="#EF2A2A"/>
<path fill-rule="evenodd" clip-rule="evenodd" d="M125.25 91.5C124.836 91.5 124.5 91.8358 124.5 92.25C124.5 92.5261 124.276 92.75 124 92.75C123.724 92.75 123.5 92.5261 123.5 92.25C123.5 91.2835 124.284 90.5 125.25 90.5C125.526 90.5 125.75 90.7239 125.75 91C125.75 91.2761 125.526 91.5 125.25 91.5Z" fill="#F36767"/>
<path fill-rule="evenodd" clip-rule="evenodd" d="M114.25 91.5C113.836 91.5 113.5 91.8358 113.5 92.25C113.5 92.5261 113.276 92.75 113 92.75C112.724 92.75 112.5 92.5261 112.5 92.25C112.5 91.2835 113.284 90.5 114.25 90.5C114.526 90.5 114.75 90.7239 114.75 91C114.75 91.2761 114.526 91.5 114.25 91.5Z" fill="#F36767"/>
<path d="M119.826 104.154L105.816 107.655C105.228 107.801 104.607 107.723 104.074 107.434C102.429 106.543 100.436 107.774 100.498 109.645L100.993 124.786C101.052 126.586 102.671 127.911 104.422 127.487C108.189 126.574 114.214 124.686 117.331 121.427C120.44 118.176 121.709 115.664 122.817 111.299C123.14 110.028 123.301 108.417 123.38 106.972C123.483 105.061 121.682 103.69 119.826 104.154Z" fill="#3CADC6"/>
<path d="M56.23 104.05L70.2183 107.478C70.8015 107.621 71.417 107.542 71.945 107.256C73.5904 106.365 75.5809 107.601 75.512 109.47L74.9592 124.474C74.8932 126.264 73.2862 127.58 71.5435 127.167C67.7889 126.277 61.7702 124.424 58.6687 121.195C55.5789 117.979 54.3222 115.49 53.2336 111.16C52.9161 109.897 52.7614 108.296 52.6888 106.859C52.5928 104.959 54.3817 103.597 56.23 104.05Z" fill="#3CADC6"/>
<g opacity="0.2">
<rect x="89" y="142" width="12" height="6" rx="3" fill="#930808"/>
<rect x="75" y="142" width="12" height="6" rx="3" fill="#930808"/>
<path d="M69.9758 110.733C70.2818 106.511 73.4888 103.073 77.6795 102.474L86.543 101.208C87.5091 101.07 88.4903 101.074 89.4552 101.22L97.3914 102.423C101.549 103.053 104.716 106.477 105.02 110.671L106.375 129.377C106.734 134.328 103.406 138.809 98.4967 139.547C95.0944 140.059 91.2255 140.5 88 140.5C84.6391 140.5 80.388 140.021 76.6702 139.482C71.6922 138.761 68.2723 134.243 68.6358 129.226L69.9758 110.733Z" fill="#930808"/>
<path d="M84.0972 122H77.9521C77.2953 122 76.8087 122.628 77.0736 123.272C77.5616 124.461 78.6573 126.053 81.0246 126.053C83.392 126.053 84.4876 124.461 84.9757 123.272C85.2405 122.628 84.7539 122 84.0972 122Z" fill="#930808"/>
<path d="M97.0479 122H90.9028C90.2461 122 89.7595 122.628 90.0243 123.272C90.5124 124.461 91.608 126.053 93.9754 126.053C96.3427 126.053 97.4384 124.461 97.9264 123.272C98.1913 122.628 97.7047 122 97.0479 122Z" fill="#930808"/>
<path d="M90.5726 128.947H84.4274C83.7707 128.947 83.2841 129.575 83.5489 130.22C84.037 131.408 85.1326 133 87.5 133C89.8674 133 90.963 131.408 91.451 130.22C91.7159 129.575 91.2293 128.947 90.5726 128.947Z" fill="#930808"/>
<path d="M67.0001 89C67.0001 98.8275 60.2476 109.631 85.0001 110H89.0001C113.753 109.631 107 98.8275 107 89C107 86.188 106.299 83.3642 105 81C103.701 78.6358 98.5606 71 87.0001 71C75.4396 71 70.2994 78.6358 69.0001 81C67.7009 83.3642 67.0001 86.188 67.0001 89Z" fill="#930808"/>
<path d="M70 93V88C70 83.5817 73.5817 80 78 80H81.5279C83.043 80 84.2116 81.1833 85.5569 81.8803C85.7024 81.9557 85.8512 82 86 82H88C88.136 82 88.2703 81.9666 88.401 81.9083C89.8125 81.2794 90.985 80 92.5303 80H96C100.418 80 104 83.5817 104 88V93C104 97.4183 100.418 101 96 101H94.0249C91.5582 101 89.3032 99.6063 88.2 97.4C88.0774 97.1549 87.8269 97 87.5528 97H87H86.4472C86.1731 97 85.9226 97.1549 85.8 97.4C84.6968 99.6063 82.4418 101 79.9751 101H78C73.5817 101 70 97.4183 70 93Z" fill="#930808"/>
<rect x="73" y="82" width="12" height="16.3828" rx="6" fill="#930808"/>
<rect x="76" y="85" width="8" height="12" rx="4" fill="#930808"/>
<path d="M80 88C80 89.1046 79.1046 90 78 90C76.8954 90 76 89.1046 76 88C76 86.8954 76.8954 86 78 86C79.1046 86 80 86.8954 80 88Z" fill="#930808"/>
<rect x="89" y="82" width="12" height="16" rx="6" fill="#930808"/>
<rect x="90" y="85" width="8" height="12" rx="4" fill="#930808"/>
<path d="M94 88C94 89.1046 93.1046 90 92 90C90.8954 90 90 89.1046 90 88C90 86.8954 90.8954 86 92 86C93.1046 86 94 86.8954 94 88Z" fill="#930808"/>
<path d="M89.75 100.424V102.969C89.7395 103.074 89.6695 103.625 89.3304 104.153C88.9929 104.68 88.3528 105.25 87 105.25C85.6472 105.25 85.0071 104.68 84.6696 104.153C84.3305 103.625 84.2605 103.074 84.25 102.969V100.424C84.3606 100.445 84.4781 100.467 84.6008 100.488C85.311 100.615 86.2401 100.75 87 100.75C87.7599 100.75 88.689 100.615 89.3992 100.488C89.5219 100.467 89.6394 100.445 89.75 100.424Z" fill="#930808" stroke="#930808" stroke-width="1.5"/>
<path d="M99.8978 70.0951C96.9747 70.3448 89.1045 71 87.0001 71L87 76C87 76 91.806 75.5959 95 75C96.9321 74.6395 99.1968 72.2001 100.31 70.8666C100.586 70.5361 100.327 70.0585 99.8978 70.0951Z" fill="#930808"/>
<path d="M112 74C112 72.8954 112.895 72 114 72H115C116.105 72 117 72.8954 117 74V87C117 88.1046 116.105 89 115 89H114C112.895 89 112 88.1046 112 87V74Z" fill="#EF2A2A"/>
<path d="M123 74C123 72.8954 123.895 72 125 72H126C127.105 72 128 72.8954 128 74V87C128 88.1046 127.105 89 126 89H125C123.895 89 123 88.1046 123 87V74Z" fill="#EF2A2A"/>
<path fill-rule="evenodd" clip-rule="evenodd" d="M125.25 73.5C124.836 73.5 124.5 73.8358 124.5 74.25V77C124.5 77.2761 124.276 77.5 124 77.5C123.724 77.5 123.5 77.2761 123.5 77V74.25C123.5 73.2835 124.284 72.5 125.25 72.5H126C126.276 72.5 126.5 72.7239 126.5 73C126.5 73.2761 126.276 73.5 126 73.5H125.25Z" fill="#930808"/>
<path fill-rule="evenodd" clip-rule="evenodd" d="M114.25 73.5C113.836 73.5 113.5 73.8358 113.5 74.25V77C113.5 77.2761 113.276 77.5 113 77.5C112.724 77.5 112.5 77.2761 112.5 77V74.25C112.5 73.2835 113.284 72.5 114.25 72.5H115C115.276 72.5 115.5 72.7239 115.5 73C115.5 73.2761 115.276 73.5 115 73.5H114.25Z" fill="#930808"/>
<path d="M112 92C112 90.8954 112.895 90 114 90H115C116.105 90 117 90.8954 117 92V93C117 94.1046 116.105 95 115 95H114C112.895 95 112 94.1046 112 93V92Z" fill="#EF2A2A"/>
<path d="M123 92C123 90.8954 123.895 90 125 90H126C127.105 90 128 90.8954 128 92V93C128 94.1046 127.105 95 126 95H125C123.895 95 123 94.1046 123 93V92Z" fill="#EF2A2A"/>
<path fill-rule="evenodd" clip-rule="evenodd" d="M125.25 91.5C124.836 91.5 124.5 91.8358 124.5 92.25C124.5 92.5261 124.276 92.75 124 92.75C123.724 92.75 123.5 92.5261 123.5 92.25C123.5 91.2835 124.284 90.5 125.25 90.5C125.526 90.5 125.75 90.7239 125.75 91C125.75 91.2761 125.526 91.5 125.25 91.5Z" fill="#930808"/>
<path fill-rule="evenodd" clip-rule="evenodd" d="M114.25 91.5C113.836 91.5 113.5 91.8358 113.5 92.25C113.5 92.5261 113.276 92.75 113 92.75C112.724 92.75 112.5 92.5261 112.5 92.25C112.5 91.2835 113.284 90.5 114.25 90.5C114.526 90.5 114.75 90.7239 114.75 91C114.75 91.2761 114.526 91.5 114.25 91.5Z" fill="#930808"/>
<path d="M119.826 104.154L105.816 107.655C105.228 107.801 104.607 107.723 104.074 107.434C102.429 106.543 100.436 107.774 100.498 109.645L100.993 124.786C101.052 126.586 102.671 127.911 104.422 127.487C108.189 126.574 114.214 124.686 117.331 121.427C120.44 118.176 121.709 115.664 122.817 111.299C123.14 110.028 123.301 108.417 123.38 106.972C123.483 105.061 121.682 103.69 119.826 104.154Z" fill="#930808"/>
<path d="M56.23 104.05L70.2183 107.478C70.8015 107.621 71.417 107.542 71.945 107.256C73.5904 106.365 75.5809 107.601 75.512 109.47L74.9592 124.474C74.8932 126.264 73.2862 127.58 71.5435 127.167C67.7889 126.277 61.7702 124.424 58.6687 121.195C55.5789 117.979 54.3222 115.49 53.2336 111.16C52.9161 109.897 52.7614 108.296 52.6888 106.859C52.5928 104.959 54.3817 103.597 56.23 104.05Z" fill="#930808"/>
</g>
<path d="M106.742 23.2744L105.42 22.3562C103.185 20.8022 101.708 17.8412 103.294 15.6277C104.737 13.6128 107.566 13.1521 109.861 14.0878C110.897 14.51 111.897 15.0752 112.482 15.8088C112.923 16.3614 113.16 17.0507 113.269 17.7733C113.715 20.7445 111.337 23.73 108.333 23.7094C107.741 23.7053 107.186 23.5834 106.742 23.2744Z" fill="#3D3D3D"/>
<path d="M106.742 23.2744L105.42 22.3562C103.185 20.8022 101.708 17.8412 103.294 15.6277C104.737 13.6128 107.566 13.1521 109.861 14.0878C110.897 14.51 111.897 15.0752 112.482 15.8088C112.923 16.3614 113.16 17.0507 113.269 17.7733C113.715 20.7445 111.337 23.73 108.333 23.7094C107.741 23.7053 107.186 23.5834 106.742 23.2744Z" fill="#752020" fill-opacity="0.6"/>
<path d="M91 146.5C83.778 153.865 77.8119 164.571 73.1303 175.272C65.5575 192.581 81.4696 209.127 99.965 205.27L158.037 193.161C163.014 192.123 167.146 188.673 169.056 183.962C171.671 177.51 169.583 170.112 164.009 165.943C156.944 160.659 149.569 155.069 148.5 154C148.065 153.565 147.916 152.137 147.956 150.141C148.181 138.812 141.726 128.086 130.655 125.67C125.717 124.593 120.556 125.312 116.227 127.921C109.058 132.243 97.852 139.512 91 146.5Z" fill="#644242"/>
<path d="M4.38495 168.813C3.41286 169.801 2.48588 170.909 1.60428 172.104C-8.39707 185.666 5.24157 202.196 22.0891 201.882L34.7298 201.645C39.6441 201.553 44.2536 199.245 47.2713 195.366C48.739 193.478 49.7806 191.299 50.1743 188.94C51.0469 183.713 52.2595 173.742 50.5 166C49.3881 161.108 45.4081 157.402 41.3311 154.796C35.2574 150.913 27.5745 152.453 21.7134 156.65C20.9229 157.216 20.102 157.729 19.258 158.212C16.256 159.929 8.64904 164.478 4.38495 168.813Z" fill="#644242"/>
</g>
<defs>
<filter id="filter0_d_642_934" x="9.81152" y="95.37" width="64.7085" height="31.9552" filterUnits="userSpaceOnUse" color-interpolation-filters="sRGB">
<feFlood flood-opacity="0" result="BackgroundImageFix"/>
<feColorMatrix in="SourceAlpha" type="matrix" values="0 0 0 0 0 0 0 0 0 0 0 0 0 0 0 0 0 0 127 0" result="hardAlpha"/>
<feOffset/>
<feGaussianBlur stdDeviation="2.5"/>
<feComposite in2="hardAlpha" operator="out"/>
<feColorMatrix type="matrix" values="0 0 0 0 0.944479 0 0 0 0 0.599546 0 0 0 0 0.405521 0 0 0 0.25 0"/>
<feBlend mode="normal" in2="BackgroundImageFix" result="effect1_dropShadow_642_934"/>
<feBlend mode="normal" in="SourceGraphic" in2="effect1_dropShadow_642_934" result="shape"/>
</filter>
<filter id="filter1_d_642_934" x="213.19" y="71.5" width="153.749" height="85.1226" filterUnits="userSpaceOnUse" color-interpolation-filters="sRGB">
<feFlood flood-opacity="0" result="BackgroundImageFix"/>
<feColorMatrix in="SourceAlpha" type="matrix" values="0 0 0 0 0 0 0 0 0 0 0 0 0 0 0 0 0 0 127 0" result="hardAlpha"/>
<feOffset/>
<feGaussianBlur stdDeviation="6"/>
<feComposite in2="hardAlpha" operator="out"/>
<feColorMatrix type="matrix" values="0 0 0 0 0.993125 0 0 0 0 0.649925 0 0 0 0 0.456875 0 0 0 0.25 0"/>
<feBlend mode="normal" in2="BackgroundImageFix" result="effect1_dropShadow_642_934"/>
<feBlend mode="normal" in="SourceGraphic" in2="effect1_dropShadow_642_934" result="shape"/>
</filter>
<linearGradient id="paint0_linear_642_934" x1="251.5" y1="4" x2="157" y2="85" gradientUnits="userSpaceOnUse">
<stop stop-color="#F18018" stop-opacity="0"/>
<stop offset="1" stop-color="#F18018"/>
</linearGradient>
<linearGradient id="paint1_linear_642_934" x1="184" y1="-5.5" x2="57.5" y2="114" gradientUnits="userSpaceOnUse">
<stop stop-color="#F18018" stop-opacity="0"/>
<stop offset="0.78125" stop-color="#F18018" stop-opacity="0.494792"/>
<stop offset="1" stop-color="#F18018"/>
</linearGradient>
<linearGradient id="paint2_linear_642_934" x1="119.096" y1="2.09876" x2="108.884" y2="17.1548" gradientUnits="userSpaceOnUse">
<stop stop-color="#F18018" stop-opacity="0"/>
<stop offset="1" stop-color="#F18018"/>
</linearGradient>
<linearGradient id="paint3_linear_642_934" x1="165.059" y1="74.734" x2="201.913" y2="49.0152" gradientUnits="userSpaceOnUse">
<stop stop-color="#F2EA28"/>
<stop offset="0.328125" stop-color="#F2EA28"/>
<stop offset="1" stop-color="#F2EA28" stop-opacity="0"/>
</linearGradient>
<radialGradient id="paint4_radial_642_934" cx="0" cy="0" r="1" gradientUnits="userSpaceOnUse" gradientTransform="translate(161 78.5) rotate(128.418) scale(18.5068 22.4173)">
<stop offset="0.338542" stop-color="#CB501B" stop-opacity="0"/>
<stop offset="1" stop-color="#CB9A1B"/>
</radialGradient>
<clipPath id="clip0_642_934">
<rect width="350" height="176" fill="white"/>
</clipPath>
</defs>
</svg>
