<svg width="35" height="35" viewBox="0 0 35 35" fill="none" xmlns="http://www.w3.org/2000/svg">
<path d="M24.2321 17.9351C22.2511 19.9154 19.047 19.9154 17.066 17.9351C16.2495 17.119 14.9199 17.1131 14.0962 17.9221C13.2725 18.7311 13.2666 20.0486 14.083 20.8647C15.5215 22.3027 17.3159 23.1699 19.1837 23.4663C22.0218 23.9168 25.0293 23.0496 27.215 20.8647L32.2895 15.7921L32.3082 15.7734C32.8082 15.2708 33.2385 14.7252 33.5992 14.1486C35.8321 10.5792 35.3955 5.82198 32.2895 2.71713C28.6654 -0.905708 22.7817 -0.905711 19.1576 2.71713L12.7426 9.12977C14.5442 8.87484 16.3955 9.05058 18.1288 9.65701L22.1405 5.64671C24.1215 3.66643 27.3256 3.66643 29.3066 5.64672C30.7723 7.11192 31.1591 9.25133 30.467 11.0724C30.2189 11.7252 29.8321 12.3372 29.3066 12.8625L24.2321 17.9351Z" fill="white"/>
<path d="M5.69341 21.8167L10.7679 16.7441C10.9659 16.5462 11.176 16.3681 11.3959 16.2098C11.5465 16.1014 11.7016 16.0023 11.8606 15.9124C12.7995 15.3816 13.8709 15.1741 14.9133 15.29C16.0164 15.4127 17.087 15.8973 17.934 16.7441C18.4985 17.3084 19.3084 17.4853 20.0267 17.2733C20.3473 17.1787 20.6496 17.0067 20.9038 16.7571C21.7275 15.9481 21.7334 14.6306 20.917 13.8145C19.6418 12.5398 18.087 11.7136 16.4492 11.3359C14.0188 10.7754 11.4057 11.2026 9.25352 12.6176C8.73416 12.959 8.24163 13.358 7.78497 13.8145L2.71046 18.8871C-0.903486 22.4998 -0.903486 28.3494 2.71046 31.9621C5.33093 34.5816 8.27751 35.3551 11.0605 34.8583C12.8783 34.5339 14.5111 33.6905 15.869 32.673C15.9028 32.6477 15.9363 32.6224 15.9697 32.5969C16.5473 32.156 17.0738 31.6846 17.542 31.2099C18.159 30.5843 20.4965 28.145 23.1285 25.3916C21.2734 25.8025 19.335 25.7461 17.5027 25.2227C16.0426 26.7468 14.925 27.9091 14.5381 28.3013C13.3191 29.5374 11.8108 30.4959 10.3159 30.7628C8.95985 31.0048 7.38929 30.7277 5.69341 29.0325C3.7022 27.042 3.7022 23.8072 5.69341 21.8167Z" fill="white"/>
</svg>
