<svg width="254" height="148" viewBox="0 0 254 148" fill="none" xmlns="http://www.w3.org/2000/svg">
<g clip-path="url(#clip0_650_1094)">
<path d="M127 131C147.987 131 165 132.791 165 135H89C89 132.791 106.013 131 127 131Z" fill="#F1F45A" fill-opacity="0.3"/>
<path d="M109.98 91.6709C110.284 87.4772 113.451 84.0528 117.609 83.4229L125.545 82.2205C126.51 82.0743 127.491 82.0701 128.457 82.2081L137.32 83.4744C141.511 84.073 144.718 87.5113 145.024 91.7334L146.375 110.377C146.734 115.328 143.406 119.809 138.497 120.547C135.094 121.059 131.226 121.5 128 121.5C124.639 121.5 120.388 121.021 116.67 120.482C111.692 119.761 108.272 115.243 108.636 110.226L109.98 91.6709Z" fill="#3CADC6"/>
<path d="M158.826 84.0749L144.816 87.5759C144.228 87.7228 143.607 87.6442 143.074 87.3556C141.429 86.4642 139.436 87.6953 139.498 89.566L139.993 104.707C140.052 106.508 141.671 107.832 143.422 107.408C147.189 106.496 153.214 104.607 156.331 101.348C159.44 98.0975 160.709 95.5853 161.817 91.2204C162.14 89.949 162.301 88.3385 162.38 86.8929C162.483 84.9821 160.682 83.611 158.826 84.0749Z" fill="#3CADC6"/>
<path d="M95.23 83.9712L109.218 87.3995C109.802 87.5424 110.417 87.4632 110.945 87.1772C112.59 86.2861 114.581 87.5219 114.512 89.3919L113.959 104.396C113.893 106.185 112.286 107.501 110.544 107.088C106.789 106.198 100.77 104.345 97.6687 101.117C94.5789 97.9007 93.3222 95.4112 92.2336 91.0814C91.9161 89.8185 91.7614 88.2175 91.6888 86.7809C91.5928 84.8802 93.3817 83.5183 95.23 83.9712Z" fill="#3CADC6"/>
<path d="M124.097 103H117.952C117.295 103 116.809 103.628 117.074 104.272C117.562 105.461 118.657 107.053 121.025 107.053C123.392 107.053 124.488 105.461 124.976 104.272C125.24 103.628 124.754 103 124.097 103Z" fill="#44C2DE"/>
<path d="M137.048 103H130.903C130.246 103 129.76 103.628 130.024 104.272C130.512 105.461 131.608 107.053 133.975 107.053C136.343 107.053 137.438 105.461 137.926 104.272C138.191 103.628 137.705 103 137.048 103Z" fill="#44C2DE"/>
<path d="M130.573 109.947H124.427C123.771 109.947 123.284 110.575 123.549 111.22C124.037 112.408 125.133 114 127.5 114C129.867 114 130.963 112.408 131.451 111.22C131.716 110.575 131.229 109.947 130.573 109.947Z" fill="#44C2DE"/>
<path d="M107 70C107 79.8275 100.248 90.6312 125 91H129C153.753 90.6312 147 79.8275 147 70C147 67.188 146.299 64.3642 145 62C143.701 59.6358 138.561 52 127 52C115.44 52 110.299 59.6358 109 62C107.701 64.3642 107 67.188 107 70Z" fill="#3CADC6"/>
<path d="M110 74V69C110 64.5817 113.582 61 118 61H121.528C123.043 61 124.212 62.1833 125.557 62.8803C125.702 62.9557 125.851 63 126 63H128C128.136 63 128.27 62.9666 128.401 62.9083C129.813 62.2794 130.985 61 132.53 61H136C140.418 61 144 64.5817 144 69V74C144 78.4183 140.418 82 136 82H134.025C131.558 82 129.303 80.6063 128.2 78.4C128.077 78.1549 127.827 78 127.553 78H127H126.447C126.173 78 125.923 78.1549 125.8 78.4C124.697 80.6063 122.442 82 119.975 82H118C113.582 82 110 78.4183 110 74Z" fill="#44C2DE"/>
<rect x="113" y="63" width="12" height="16.3828" rx="6" fill="white"/>
<rect x="116" y="66" width="7" height="11" rx="3.5" fill="#4B4B4B"/>
<path d="M120 69C120 70.1046 119.105 71 118 71C116.895 71 116 70.1046 116 69C116 67.8954 116.895 67 118 67C119.105 67 120 67.8954 120 69Z" fill="white"/>
<rect x="129" y="63" width="12" height="16" rx="6" fill="white"/>
<rect x="131" y="66" width="7" height="11" rx="3.5" fill="#4B4B4B"/>
<path d="M135 69C135 70.1046 134.105 71 133 71C131.895 71 131 70.1046 131 69C131 67.8954 131.895 67 133 67C134.105 67 135 67.8954 135 69Z" fill="white"/>
<path d="M113.294 79.35L110 70L126 76.6L122.235 81L113.294 79.35Z" fill="#44C2DE"/>
<path d="M140.706 79.35L144 70L128 76.6L131.765 81L140.706 79.35Z" fill="#44C2DE"/>
<path d="M129.75 81.4235V85.9692C129.739 86.074 129.669 86.6247 129.33 87.1533C128.993 87.6795 128.353 88.25 127 88.25C125.647 88.25 125.007 87.6795 124.67 87.1533C124.331 86.6247 124.261 86.074 124.25 85.9692V81.4235C124.361 81.4447 124.478 81.4666 124.601 81.4884C125.311 81.6148 126.24 81.75 127 81.75C127.76 81.75 128.689 81.6148 129.399 81.4884C129.522 81.4666 129.639 81.4447 129.75 81.4235ZM129.752 85.9521L129.752 85.9521L129.752 85.9521Z" fill="#B66E28" stroke="#E69435" stroke-width="1.5"/>
<path d="M127.124 78C129.689 78 130.564 79.6165 131 80.708C131.208 81.2293 130.801 81.7346 130.218 81.7962L129.242 81.8993C127.699 82.0624 126.301 82.0624 124.758 81.8993L123.782 81.7962C123.199 81.7346 122.792 81.2293 123 80.708C123.436 79.6165 124.558 78 127.124 78Z" fill="#F5C443"/>
<path d="M128.367 79.8816H126.931C126.289 79.8816 125.826 79.292 126.322 78.9036C126.611 78.6766 127.034 78.5 127.649 78.5C128.265 78.5 128.688 78.6766 128.977 78.9036C129.472 79.292 129.009 79.8816 128.367 79.8816Z" fill="#F9DD4A"/>
<path d="M139.898 51.0951C136.975 51.3448 129.105 52 127 52L127 57C127 57 131.806 56.5959 135 56C136.932 55.6395 139.197 53.2001 140.31 51.8666C140.586 51.5361 140.327 51.0585 139.898 51.0951Z" fill="#3CADC6"/>
<rect x="139.393" y="128" width="12" height="6" rx="3" transform="rotate(-30 139.393 128)" fill="#E69435"/>
<rect x="104" y="122" width="12" height="6" rx="3" transform="rotate(30 104 122)" fill="#E69435"/>
<path d="M21 76.8205C21 75.2628 22.2792 74 23.8571 74H45.2857C46.8637 74 48.1429 75.2628 48.1429 76.8205V126.179C48.1429 127.737 46.8637 129 45.2857 129H23.8571C22.2792 129 21 127.737 21 126.179V76.8205Z" fill="#555555"/>
<path d="M28.8571 76.8205C28.8571 75.2628 30.1363 74 31.7143 74H53.1429C54.7208 74 56 75.2628 56 76.8205V126.179C56 127.737 54.7208 129 53.1429 129H31.7143C30.1363 129 28.8571 127.737 28.8571 126.179V76.8205Z" fill="#757575"/>
<path d="M52.4286 90.5705C52.4286 97.3856 47.9514 102.91 42.4286 102.91C36.9057 102.91 32.4286 97.3856 32.4286 90.5705C32.4286 83.7555 36.9057 78.2308 42.4286 78.2308C47.9514 78.2308 52.4286 83.7555 52.4286 90.5705Z" fill="#595959"/>
<path d="M48.1429 114.897C48.1429 118.792 45.5845 121.949 42.4286 121.949C39.2727 121.949 36.7143 118.792 36.7143 114.897C36.7143 111.003 39.2727 107.846 42.4286 107.846C45.5845 107.846 48.1429 111.003 48.1429 114.897Z" fill="#595959"/>
<path d="M233 76.8205C233 75.2628 231.721 74 230.143 74H208.714C207.136 74 205.857 75.2628 205.857 76.8205V126.179C205.857 127.737 207.136 129 208.714 129H230.143C231.721 129 233 127.737 233 126.179V76.8205Z" fill="#555555"/>
<path d="M225.143 76.8205C225.143 75.2628 223.864 74 222.286 74H200.857C199.279 74 198 75.2628 198 76.8205V126.179C198 127.737 199.279 129 200.857 129H222.286C223.864 129 225.143 127.737 225.143 126.179V76.8205Z" fill="#757575"/>
<path d="M201.571 90.5705C201.571 97.3856 206.049 102.91 211.571 102.91C217.094 102.91 221.571 97.3856 221.571 90.5705C221.571 83.7555 217.094 78.2308 211.571 78.2308C206.049 78.2308 201.571 83.7555 201.571 90.5705Z" fill="#595959"/>
<path d="M205.857 114.897C205.857 118.792 208.416 121.949 211.571 121.949C214.727 121.949 217.286 118.792 217.286 114.897C217.286 111.003 214.727 107.846 211.571 107.846C208.416 107.846 205.857 111.003 205.857 114.897Z" fill="#595959"/>
<path fill-rule="evenodd" clip-rule="evenodd" d="M14.2524 -65H0L89 135L127 84.5845L165 135L254 -65H239.748L127 84.5845L14.2524 -65Z" fill="#F1F45A" fill-opacity="0.3"/>
<path d="M89 135H165L127 84.5845L89 135Z" fill="#F1F45A" fill-opacity="0.3"/>
<path d="M89 135H165L127 84.5845L89 135Z" fill="#F1F45A" fill-opacity="0.3"/>
<path d="M127 139C147.987 139 165 137.209 165 135H89C89 137.209 106.013 139 127 139Z" fill="#F1F45A" fill-opacity="0.3"/>
<path d="M127 139C147.987 139 165 137.209 165 135H89C89 137.209 106.013 139 127 139Z" fill="#F1F45A" fill-opacity="0.3"/>
<path d="M127 139C147.987 139 165 137.209 165 135H89C89 137.209 106.013 139 127 139Z" fill="#F1F45A" fill-opacity="0.3"/>
</g>
<defs>
<clipPath id="clip0_650_1094">
<rect width="254" height="148" fill="white"/>
</clipPath>
</defs>
</svg>
