<svg width="72" height="82" viewBox="0 0 72 82" fill="none" xmlns="http://www.w3.org/2000/svg">
<path d="M18.9804 40.6709C19.2843 36.4772 22.4514 33.0528 26.6086 32.4229L34.5448 31.2205C35.5097 31.0743 36.4909 31.0701 37.457 31.2081L46.3205 32.4744C50.5112 33.073 53.7182 36.5113 54.0242 40.7334L55.3751 59.3766C55.7339 64.3284 52.4063 68.8085 47.4967 69.547C44.0944 70.0587 40.2255 70.5 37 70.5C33.6391 70.5 29.388 70.0209 25.6702 69.4822C20.6922 68.7609 17.2723 64.2429 17.6358 59.226L18.9804 40.6709Z" fill="#3CADC6"/>
<path d="M67.8256 33.0749L53.8161 36.5759C53.2283 36.7228 52.6068 36.6442 52.0741 36.3556C50.4284 35.4642 48.4362 36.6953 48.4975 38.566L48.9931 53.7074C49.052 55.5077 50.6709 56.8321 52.4215 56.4081C56.1885 55.4958 62.2143 53.607 65.3307 50.3484C68.4396 47.0975 69.7089 44.5853 70.8169 40.2204C71.1396 38.949 71.301 37.3385 71.3795 35.8929C71.4833 33.9821 69.6822 32.611 67.8256 33.0749Z" fill="#3CADC6"/>
<path d="M4.23024 32.9712L18.2186 36.3995C18.8018 36.5424 19.4173 36.4632 19.9452 36.1772C21.5907 35.2861 23.5811 36.5219 23.5122 38.3919L22.9594 53.3956C22.8935 55.1854 21.2864 56.5014 19.5437 56.0882C15.7892 55.1981 9.77049 53.3449 6.66897 50.1167C3.57918 46.9007 2.3224 44.4112 1.23386 40.0814C0.916341 38.8185 0.761597 37.2175 0.689048 35.7809C0.593069 33.8802 2.3819 32.5183 4.23024 32.9712Z" fill="#3CADC6"/>
<path d="M33.0972 52H26.9521C26.2953 52 25.8087 52.6276 26.0736 53.2724C26.5616 54.4608 27.6573 56.0526 30.0246 56.0526C32.392 56.0526 33.4876 54.4608 33.9757 53.2724C34.2405 52.6276 33.7539 52 33.0972 52Z" fill="#44C2DE"/>
<path d="M46.0479 52H39.9028C39.2461 52 38.7595 52.6276 39.0243 53.2724C39.5124 54.4608 40.608 56.0526 42.9754 56.0526C45.3427 56.0526 46.4384 54.4608 46.9264 53.2724C47.1913 52.6276 46.7047 52 46.0479 52Z" fill="#44C2DE"/>
<path d="M39.5726 58.9474H33.4274C32.7707 58.9474 32.2841 59.575 32.549 60.2198C33.037 61.4082 34.1326 63 36.5 63C38.8674 63 39.963 61.4082 40.451 60.2198C40.7159 59.575 40.2293 58.9474 39.5726 58.9474Z" fill="#44C2DE"/>
<path d="M16 19C16 28.8275 9.24751 39.6312 34 40H38C62.7525 39.6312 56 28.8275 56 19C56 16.188 55.2992 13.3642 54 11C52.7008 8.63576 47.5605 1 36 1C24.4395 1 19.2992 8.63576 18 11C16.7008 13.3642 16 16.188 16 19Z" fill="#3CADC6"/>
<path d="M19 23V18C19 13.5817 22.5817 10 27 10H30.5279C32.043 10 33.2116 11.1833 34.5569 11.8803C34.7024 11.9557 34.8512 12 35 12H37C37.136 12 37.2703 11.9666 37.401 11.9083C38.8125 11.2794 39.985 10 41.5303 10H45C49.4183 10 53 13.5817 53 18V23C53 27.4183 49.4183 31 45 31H43.0249C40.5582 31 38.3032 29.6063 37.2 27.4C37.0774 27.1549 36.8269 27 36.5528 27H36H35.4472C35.1731 27 34.9226 27.1549 34.8 27.4C33.6968 29.6063 31.4418 31 28.9751 31H27C22.5817 31 19 27.4183 19 23Z" fill="#44C2DE"/>
<rect x="22" y="12" width="12" height="16.3828" rx="6" fill="white"/>
<rect x="25" y="15" width="7" height="11" rx="3.5" fill="#4B4B4B"/>
<path d="M29 18C29 19.1046 28.1046 20 27 20C25.8954 20 25 19.1046 25 18C25 16.8954 25.8954 16 27 16C28.1046 16 29 16.8954 29 18Z" fill="white"/>
<rect x="38" y="12" width="12" height="16" rx="6" fill="white"/>
<rect x="40" y="15" width="7" height="11" rx="3.5" fill="#4B4B4B"/>
<path d="M44 18C44 19.1046 43.1046 20 42 20C40.8954 20 40 19.1046 40 18C40 16.8954 40.8954 16 42 16C43.1046 16 44 16.8954 44 18Z" fill="white"/>
<path d="M22.2941 28.35L19 19L35 25.6L31.2353 30L22.2941 28.35Z" fill="#44C2DE"/>
<path d="M49.7059 28.35L53 19L37 25.6L40.7647 30L49.7059 28.35Z" fill="#44C2DE"/>
<path d="M38.75 30.4235V34.9692C38.7395 35.074 38.6695 35.6247 38.3304 36.1533C37.9929 36.6795 37.3528 37.25 36 37.25C34.6472 37.25 34.0071 36.6795 33.6696 36.1533C33.3305 35.6247 33.2605 35.074 33.25 34.9692V30.4235C33.3606 30.4447 33.4781 30.4666 33.6008 30.4884C34.311 30.6148 35.2401 30.75 36 30.75C36.7599 30.75 37.689 30.6148 38.3992 30.4884C38.5219 30.4666 38.6394 30.4447 38.75 30.4235ZM38.7515 34.9521L38.7515 34.9521L38.7515 34.9521Z" fill="#B66E28" stroke="#E69435" stroke-width="1.5"/>
<path d="M36.1238 27C38.6894 27 39.5641 28.6165 40 29.708C40.2081 30.2293 39.8007 30.7346 39.218 30.7962L38.2419 30.8993C36.6987 31.0624 35.3013 31.0624 33.7581 30.8993L32.782 30.7962C32.1993 30.7346 31.7918 30.2293 32 29.708C32.4358 28.6165 33.5582 27 36.1238 27Z" fill="#F5C443"/>
<path d="M37.3674 28.8816H35.9313C35.2893 28.8816 34.8263 28.292 35.3216 27.9036C35.611 27.6766 36.0339 27.5 36.6494 27.5C37.2648 27.5 37.6878 27.6766 37.9772 27.9036C38.4725 28.292 38.0094 28.8816 37.3674 28.8816Z" fill="#F9DD4A"/>
<path d="M48.8978 0.0951061C45.9747 0.344818 38.1045 0.999999 36.0001 1L36 6C36 6 40.806 5.59592 44 5C45.9321 4.63953 48.1968 2.20007 49.3104 0.866607C49.5864 0.536101 49.3268 0.0584556 48.8978 0.0951061Z" fill="#3CADC6"/>
<rect x="48.3923" y="77" width="12" height="6" rx="3" transform="rotate(-30 48.3923 77)" fill="#E69435"/>
<rect x="13" y="71" width="12" height="6" rx="3" transform="rotate(30 13 71)" fill="#E69435"/>
</svg>
