<svg width="63" height="74" viewBox="0 0 63 74" fill="none" xmlns="http://www.w3.org/2000/svg">
<path d="M12 40.5612C12 35.7654 15.7607 31.812 20.5506 31.5725L32 31L41.4992 31.5277C46.2685 31.7927 50 35.7373 50 40.5139V61.8662C50 65.3769 47.4012 68.3434 43.9084 68.697C40.0385 69.0888 35.0197 69.5 31 69.5C26.9803 69.5 21.9615 69.0888 18.0916 68.697C14.5988 68.3434 12 65.3769 12 61.8662V40.5612Z" fill="#3CADC6"/>
<path d="M11.0515 65.385C12.3787 63.7805 14.1495 61.7888 15.7407 60.4902C16.283 60.0476 16.8 59 16.8 59L20.4382 62.8408C21.362 63.816 21.5249 65.2864 20.837 66.4402L19.5909 68.5301C19.1344 69.2958 18.3622 69.8227 17.4743 69.9022C16.1779 70.0184 14.2438 70.0974 12.8519 69.7387C12.5741 69.6671 12.2761 69.5673 11.9735 69.4513C10.3156 68.816 9.91988 66.753 11.0515 65.385Z" fill="#3CADC6"/>
<path d="M47.25 70H15.75C15.6119 70 15.5 69.8881 15.5 69.75V66.25C15.5 66.1119 15.6119 66 15.75 66H47.25C47.3881 66 47.5 66.1119 47.5 66.25V69.75C47.5 69.8881 47.3881 70 47.25 70Z" fill="#3CADC6"/>
<path d="M50.9485 65.385C49.6213 63.7805 47.8505 61.7888 46.2593 60.4902C45.717 60.0476 45.2 59 45.2 59L41.5618 62.8408C40.638 63.816 40.4751 65.2864 41.163 66.4402L42.4091 68.5301C42.8656 69.2958 43.6378 69.8227 44.5257 69.9022C45.8221 70.0184 47.7562 70.0974 49.1481 69.7387C49.4259 69.6671 49.7239 69.5673 50.0265 69.4513C51.6844 68.816 52.0801 66.753 50.9485 65.385Z" fill="#3CADC6"/>
<path d="M28.0972 52H21.9521C21.2953 52 20.8087 52.6276 21.0736 53.2724C21.5616 54.4608 22.6573 56.0526 25.0246 56.0526C27.392 56.0526 28.4876 54.4608 28.9757 53.2724C29.2405 52.6276 28.7539 52 28.0972 52Z" fill="#44C2DE"/>
<path d="M41.0479 52H34.9028C34.2461 52 33.7595 52.6276 34.0243 53.2724C34.5124 54.4608 35.608 56.0526 37.9754 56.0526C40.3427 56.0526 41.4384 54.4608 41.9264 53.2724C42.1913 52.6276 41.7047 52 41.0479 52Z" fill="#44C2DE"/>
<path d="M34.5726 58.9474H28.4274C27.7707 58.9474 27.2841 59.575 27.549 60.2198C28.037 61.4082 29.1326 63 31.5 63C33.8674 63 34.963 61.4082 35.451 60.2198C35.7159 59.575 35.2293 58.9474 34.5726 58.9474Z" fill="#44C2DE"/>
<rect x="37.0001" y="70.4854" width="12" height="6" rx="3" transform="rotate(-45 37.0001 70.4854)" fill="#E69435"/>
<rect x="17.2428" y="62" width="12" height="6" rx="3" transform="rotate(45 17.2428 62)" fill="#E69435"/>
<path d="M11 24C11 33.8275 4.24751 44.6312 29 45H33C57.7525 44.6312 51 33.8275 51 24C51 21.188 50.2992 18.3642 49 16C47.7008 13.6358 42.5605 6 31 6C19.4395 6 14.2992 13.6358 13 16C11.7008 18.3642 11 21.188 11 24Z" fill="#3CADC6"/>
<path d="M14 28V23C14 18.5817 17.5817 15 22 15H25.5279C27.043 15 28.2116 16.1833 29.5569 16.8803C29.7024 16.9557 29.8512 17 30 17H32C32.136 17 32.2703 16.9666 32.401 16.9083C33.8125 16.2794 34.985 15 36.5303 15H40C44.4183 15 48 18.5817 48 23V28C48 32.4183 44.4183 36 40 36H38.0249C35.5582 36 33.3032 34.6063 32.2 32.4C32.0774 32.1549 31.8269 32 31.5528 32H31H30.4472C30.1731 32 29.9226 32.1549 29.8 32.4C28.6968 34.6063 26.4418 36 23.9751 36H22C17.5817 36 14 32.4183 14 28Z" fill="#44C2DE"/>
<rect x="17" y="17" width="12" height="16" rx="6" fill="white"/>
<rect x="19" y="18" width="9" height="13" rx="4.5" fill="#4B4B4B"/>
<path d="M25 21C25 22.6569 23.6569 24 22 24C20.3431 24 19 22.6569 19 21C19 19.3431 20.3431 18 22 18C23.6569 18 25 19.3431 25 21Z" fill="white"/>
<rect x="33" y="17" width="12" height="16" rx="6" fill="white"/>
<rect x="34" y="18" width="9" height="13" rx="4.5" fill="#4B4B4B"/>
<path d="M40 21C40 22.6569 38.6569 24 37 24C35.3431 24 34 22.6569 34 21C34 19.3431 35.3431 18 37 18C38.6569 18 40 19.3431 40 21Z" fill="white"/>
<mask id="mask0_425_1041" style="mask-type:alpha" maskUnits="userSpaceOnUse" x="17" y="17" width="28" height="16">
<path d="M17 23C17 19.6863 19.6863 17 23 17C26.3137 17 29 19.6863 29 23V27C29 30.3137 26.3137 33 23 33C19.6863 33 17 30.3137 17 27V23Z" fill="white"/>
<path d="M33 23C33 19.6863 35.6863 17 39 17C42.3137 17 45 19.6863 45 23V27C45 30.3137 42.3137 33 39 33C35.6863 33 33 30.3137 33 27V23Z" fill="white"/>
</mask>
<g mask="url(#mask0_425_1041)">
<path fill-rule="evenodd" clip-rule="evenodd" d="M23.8658 33C26.7013 33 29 30.7013 29 27.8658V27.8658C29 27.4126 28.593 27.0678 28.146 27.1423L23.2052 27.9658C23.0698 27.9884 22.9313 27.9828 22.7982 27.9496L17.9753 26.7438C17.4799 26.62 17 26.9947 17 27.5053V27.5053C17 30.54 19.46 33 22.4947 33H23.8658Z" fill="#42AFFF" fill-opacity="0.75"/>
<path fill-rule="evenodd" clip-rule="evenodd" d="M38.1904 33C35.3238 33 33 30.6762 33 27.8096V27.8096C33 27.3477 33.4178 26.9982 33.8725 27.0798L38.7796 27.9606C38.9247 27.9866 39.0738 27.9803 39.2162 27.9419L43.9964 26.655C44.5025 26.5187 45 26.9 45 27.4241V27.4241C45 30.5036 42.5036 33 39.4241 33H39H38.1904Z" fill="#42AFFF" fill-opacity="0.75"/>
</g>
<path d="M28.5 39L31 37L33.5 39" stroke="#0098BA" stroke-width="1.5" stroke-linecap="round" stroke-linejoin="round"/>
<path d="M31.179 35C27.956 35 27.4995 32 27.4995 32H34.8585C34.8585 32 34.402 35 31.179 35Z" fill="#E69435"/>
<path d="M31.179 29C33.7445 29 34.6193 30.6165 35.0551 31.708C35.2633 32.2293 34.8558 32.7346 34.2732 32.7962L33.2971 32.8993C31.7539 33.0624 30.3564 33.0624 28.8133 32.8993L27.8371 32.7962C27.2545 32.7346 26.847 32.2293 27.0552 31.708C27.491 30.6165 28.6134 29 31.179 29Z" fill="#F5C443"/>
<path d="M32.4226 30.8816H30.9865C30.3445 30.8816 29.8814 30.292 30.3768 29.9036C30.6661 29.6766 31.0891 29.5 31.7045 29.5C32.32 29.5 32.7429 29.6766 33.0323 29.9036C33.5276 30.292 33.0646 30.8816 32.4226 30.8816Z" fill="#F9DD4A"/>
<path d="M43.8978 5.09511C40.9747 5.34482 33.1045 6 31.0001 6L31 11C31 11 35.806 10.5959 39 10C40.9321 9.63953 43.1968 7.20007 44.3104 5.86661C44.5864 5.5361 44.3268 5.05846 43.8978 5.09511Z" fill="#3CADC6"/>
</svg>
