<svg width="63" height="79" viewBox="0 0 63 79" fill="none" xmlns="http://www.w3.org/2000/svg">
<rect x="33" y="67" width="12" height="12" rx="6" fill="#E69435"/>
<rect x="19" y="67" width="12" height="12" rx="6" fill="#E69435"/>
<path d="M13.9758 40.7334C14.2818 36.5113 17.4888 33.073 21.6795 32.4744L30.543 31.2081C31.5091 31.0701 32.4903 31.0743 33.4552 31.2205L41.3914 32.4229C45.5486 33.0528 48.7157 36.4772 49.0196 40.6709L50.3751 59.3766C50.7339 64.3284 47.4063 68.8085 42.4967 69.547C39.0944 70.0587 35.2255 70.5 32 70.5C28.6391 70.5 24.388 70.0209 20.6702 69.4822C15.6922 68.7609 12.2723 64.2429 12.6358 59.226L13.9758 40.7334Z" fill="#3CADC6"/>
<path d="M28.0972 52H21.9521C21.2953 52 20.8087 52.6276 21.0736 53.2724C21.5616 54.4608 22.6573 56.0526 25.0246 56.0526C27.392 56.0526 28.4876 54.4608 28.9757 53.2724C29.2405 52.6276 28.7539 52 28.0972 52Z" fill="#44C2DE"/>
<path d="M41.0479 52H34.9028C34.2461 52 33.7595 52.6276 34.0243 53.2724C34.5124 54.4608 35.608 56.0526 37.9754 56.0526C40.3427 56.0526 41.4384 54.4608 41.9264 53.2724C42.1913 52.6276 41.7047 52 41.0479 52Z" fill="#44C2DE"/>
<path d="M34.5726 58.9474H28.4274C27.7707 58.9474 27.2841 59.575 27.549 60.2198C28.037 61.4082 29.1326 63 31.5 63C33.8674 63 34.963 61.4082 35.451 60.2198C35.7159 59.575 35.2293 58.9474 34.5726 58.9474Z" fill="#44C2DE"/>
<path d="M11 19C11 28.8275 4.24751 39.6312 29 40H33C57.7525 39.6312 51 28.8275 51 19C51 16.188 50.2992 13.3642 49 11C47.7008 8.63576 42.5605 1 31 1C19.4395 1 14.2992 8.63576 13 11C11.7008 13.3642 11 16.188 11 19Z" fill="#3CADC6"/>
<path d="M14 23V18C14 13.5817 17.5817 10 22 10H25.5279C27.043 10 28.2116 11.1833 29.5569 11.8803C29.7024 11.9557 29.8512 12 30 12H32C32.136 12 32.2703 11.9666 32.401 11.9083C33.8125 11.2794 34.985 10 36.5303 10H40C44.4183 10 48 13.5817 48 18V23C48 27.4183 44.4183 31 40 31H38.0249C35.5582 31 33.3032 29.6063 32.2 27.4C32.0774 27.1549 31.8269 27 31.5528 27H31H30.4472C30.1731 27 29.9226 27.1549 29.8 27.4C28.6968 29.6063 26.4418 31 23.9751 31H22C17.5817 31 14 27.4183 14 23Z" fill="#44C2DE"/>
<rect x="17" y="12" width="12" height="16.3828" rx="6" fill="white"/>
<rect x="20" y="15" width="7" height="11" rx="3.5" fill="#4B4B4B"/>
<path d="M24 18C24 19.1046 23.1046 20 22 20C20.8954 20 20 19.1046 20 18C20 16.8954 20.8954 16 22 16C23.1046 16 24 16.8954 24 18Z" fill="white"/>
<rect x="33" y="12" width="12" height="16" rx="6" fill="white"/>
<rect x="35" y="15" width="7" height="11" rx="3.5" fill="#4B4B4B"/>
<path d="M39 18C39 19.1046 38.1046 20 37 20C35.8954 20 35 19.1046 35 18C35 16.8954 35.8954 16 37 16C38.1046 16 39 16.8954 39 18Z" fill="white"/>
<path d="M18.1216 28.521L15 20.1397C15 20.1397 20.7004 19.6529 23.9189 21.0361C26.7898 22.27 30.1622 26.0559 30.1622 26.0559L26.5946 30L18.1216 28.521Z" fill="#44C2DE"/>
<path d="M44.8784 28.521L48 20.1397C48 20.1397 41.9655 19.4775 38.6351 21.0361C35.9261 22.3039 32.8378 26.0559 32.8378 26.0559L36.4054 30L44.8784 28.521Z" fill="#44C2DE"/>
<path d="M31.1238 31C27.9008 31 27.4443 28 27.4443 28H34.8033C34.8033 28 34.3468 31 31.1238 31Z" fill="#E69435"/>
<path d="M31.1238 25C33.6894 25 34.5641 26.6165 35 27.708C35.2081 28.2293 34.8007 28.7346 34.218 28.7962L33.2419 28.8993C31.6987 29.0624 30.3013 29.0624 28.7581 28.8993L27.782 28.7962C27.1993 28.7346 26.7918 28.2293 27 27.708C27.4358 26.6165 28.5582 25 31.1238 25Z" fill="#F5C443"/>
<path d="M32.3674 26.8816H30.9313C30.2893 26.8816 29.8263 26.292 30.3216 25.9036C30.611 25.6766 31.0339 25.5 31.6494 25.5C32.2648 25.5 32.6878 25.6766 32.9772 25.9036C33.4725 26.292 33.0094 26.8816 32.3674 26.8816Z" fill="#F9DD4A"/>
<path d="M17.5758 46.212C28.6367 38.1631 26.4886 26.6264 24.3993 24.9478C22.3099 23.2692 18.2758 26.3154 6.62386 33.6382C2.59551 36.1698 2.64685 42.2978 5.91405 45.8126C9.01908 49.153 13.8908 48.8935 17.5758 46.212Z" fill="#009EC2"/>
<path d="M44.9124 46.2125C33.8521 38.1628 36.0009 26.6262 38.0904 24.9478C40.1799 23.2693 44.2138 26.3159 55.8652 33.6395C59.8934 36.1714 59.8416 42.2994 56.5741 45.814C53.4689 49.1541 48.5972 48.8943 44.9124 46.2125Z" fill="#009EC2"/>
<path d="M43.8978 0.0951061C40.9747 0.344818 33.1045 0.999999 31.0001 1L31 6C31 6 35.806 5.59592 39 5C40.9321 4.63953 43.1968 2.20007 44.3104 0.866607C44.5864 0.536101 44.3268 0.0584556 43.8978 0.0951061Z" fill="#3CADC6"/>
</svg>
