<svg width="80" height="100" viewBox="0 0 80 100" fill="none" xmlns="http://www.w3.org/2000/svg">
<path d="M6 6L38.9388 13.9525C40.7347 14.3861 42 15.9933 42 17.8408V87.1592C42 89.0067 40.7347 90.6139 38.9388 91.0475L6 99V6Z" fill="#A47228"/>
<path d="M34.4 54H36V57H34.4C34.4 57 34 56.5 34 55.5C34 54.5 34.4 54 34.4 54Z" fill="#C4C4C4"/>
<ellipse cx="37.5" cy="55.5" rx="2.5" ry="3.5" fill="#E0E0E0"/>
<path d="M36 55.5C36 54.1193 36.6716 53 37.5 53" stroke="#BDBDBD" stroke-linecap="round"/>
<path d="M48.4933 94.1036C48.8794 92.8292 47.9244 91.5403 46.5941 91.5405L45.8272 91.5405C45.3391 91.5406 44.8608 91.4 44.4494 91.1356L43.4332 90.4824C42.3388 89.7789 40.8795 90.315 40.5025 91.559V91.559C40.2292 92.4611 40.6354 93.4323 41.4699 93.8719L43.6543 95.0226C44.133 95.2748 44.6609 95.4183 45.2006 95.443L46.5153 95.5031C47.4174 95.5443 48.2312 94.9685 48.4933 94.1036V94.1036Z" fill="#E69435"/>
<rect width="8.38246" height="4.21546" rx="2.10773" transform="matrix(-0.985097 0.171997 0.169965 0.98545 68.1094 91.1893)" fill="#E69435"/>
<path d="M70.3939 72.7711C70.0899 68.5502 66.8863 65.1113 62.6976 64.5092L59.1167 63.9945C58.1448 63.8548 57.1576 63.859 56.1869 64.007L53.2313 64.4576C49.0762 65.091 45.9128 68.516 45.6108 72.7083L45.001 81.1752C44.6449 86.1207 47.9642 90.6416 52.8888 91.2176C54.524 91.4089 56.1828 91.5406 57.6509 91.5406C59.2356 91.5406 61.1037 91.3871 62.9492 91.1709C67.9389 90.5864 71.3491 86.0348 70.9882 81.024L70.3939 72.7711Z" fill="#3CADC6"/>
<path d="M37.6871 77.8794C39.4937 75.6174 42.4523 72.1195 45.0535 69.9991C45.7818 69.4054 46.4762 68 46.4762 68L51.8958 73.7146C52.821 74.6902 52.9841 76.1622 52.295 77.3166L50.0016 81.1587C49.5313 81.9466 48.7275 82.4773 47.8137 82.5612C45.8427 82.7421 42.312 82.9524 40.1905 82.4062C39.5219 82.2341 38.8622 81.9405 38.271 81.6181C36.9016 80.8713 36.7137 79.0981 37.6871 77.8794Z" fill="#3CADC6"/>
<path d="M53.8743 77.8379H57.1443C57.4937 77.8379 57.7527 78.2789 57.6117 78.732C57.352 79.5671 56.769 80.6857 55.5093 80.6857C54.2496 80.6857 53.6666 79.5671 53.4068 78.732C53.2659 78.2789 53.5248 77.8379 53.8743 77.8379Z" fill="#44C2DE"/>
<path d="M46.9829 77.8379H50.2529C50.6023 77.8379 50.8612 78.2789 50.7203 78.732C50.4606 79.5671 49.8776 80.6857 48.6179 80.6857C47.3581 80.6857 46.7751 79.5671 46.5154 78.732C46.3745 78.2789 46.6334 77.8379 46.9829 77.8379Z" fill="#44C2DE"/>
<path d="M50.4286 82.7198H53.6986C54.048 82.7198 54.3069 83.1608 54.166 83.614C53.9063 84.449 53.3233 85.5676 52.0636 85.5676C50.8038 85.5676 50.2208 84.449 49.9611 83.614C49.8202 83.1608 50.0791 82.7198 50.4286 82.7198Z" fill="#44C2DE"/>
<path fill-rule="evenodd" clip-rule="evenodd" d="M58.3494 42.7028C62.9578 42.7028 66.1054 44.4508 68.1272 46.2604V68.9983C66.1778 69.6556 63.4734 70.0523 59.7462 70.1082H56.9525C42.7754 69.8956 43.3964 64.7517 44.0787 59.0988C44.2284 57.8586 44.3811 56.5939 44.3811 55.3514C44.3811 53.3754 44.8705 51.3911 45.7779 49.7298C46.6853 48.0684 50.2754 42.7028 58.3494 42.7028Z" fill="#3CADC6"/>
<mask id="mask0_599_1033" style="mask-type:alpha" maskUnits="userSpaceOnUse" x="43" y="42" width="30" height="29">
<path d="M72.3176 55.3514C72.3176 62.2572 77.0336 69.849 59.7462 70.1082H56.9525C39.6651 69.849 44.3811 62.2572 44.3811 55.3514C44.3811 53.3754 44.8705 51.3911 45.7779 49.7298C46.6853 48.0684 50.2754 42.7028 58.3494 42.7028C63.8191 42.7028 67.2309 45.1652 69.145 47.2703C70.0563 48.2726 70.6281 49.1939 70.9208 49.7298C71.8282 51.3911 72.3176 53.3754 72.3176 55.3514Z" fill="#3CADC6"/>
</mask>
<g mask="url(#mask0_599_1033)">
<path d="M66.7305 58.0227V56.4055C66.7305 52.3305 63.4271 49.0271 59.3521 49.0271H59.0094C57.7494 49.0271 56.8158 50.4325 55.5559 50.4325H54.159C52.8996 50.4325 51.9585 49.0271 50.6991 49.0271H50.3628C46.2879 49.0271 42.9844 52.3305 42.9844 56.4055V58.0227C42.9844 61.2045 45.5638 63.7839 48.7456 63.7839H49.9373C51.6679 63.7839 53.2492 62.8039 54.0194 61.2541C54.1049 61.0819 54.2806 60.973 54.4729 60.973H54.8575H55.242C55.4343 60.973 55.61 61.0819 55.6955 61.2541C56.4657 62.8039 58.047 63.7839 59.7776 63.7839H60.9693C64.1511 63.7839 66.7305 61.2045 66.7305 58.0227Z" fill="#44C2DE"/>
<rect width="8.38095" height="11.5123" rx="4.19048" transform="matrix(-1 0 0 1 64.6353 50.4325)" fill="white"/>
<rect width="4.88889" height="7.72973" rx="2.44444" transform="matrix(-1 0 0 1 62.54 52.5406)" fill="#4B4B4B"/>
<path d="M61.143 54.2973C61.143 54.8795 61.6121 55.3514 62.1907 55.3514C62.7692 55.3514 63.2383 54.8795 63.2383 54.2973C63.2383 53.7152 62.7692 53.2433 62.1907 53.2433C61.6121 53.2433 61.143 53.7152 61.143 54.2973Z" fill="white"/>
<rect width="8.38095" height="11.2432" rx="4.19048" transform="matrix(-1 0 0 1 53.4604 50.4325)" fill="white"/>
<rect width="4.88889" height="7.72973" rx="2.44444" transform="matrix(-1 0 0 1 52.0635 52.5406)" fill="#4B4B4B"/>
<path d="M50.667 54.2973C50.667 54.8795 51.136 55.3514 51.7146 55.3514C52.2932 55.3514 52.7622 54.8795 52.7622 54.2973C52.7622 53.7152 52.2932 53.2433 51.7146 53.2433C51.136 53.2433 50.667 53.7152 50.667 54.2973Z" fill="white"/>
<path d="M54.0337 65.1893C56.2847 65.1893 56.6035 63.0812 56.6035 63.0812H51.4639C51.4639 63.0812 51.7828 65.1893 54.0337 65.1893Z" fill="#E69435"/>
<path d="M54.034 60.973C52.2422 60.973 51.6312 62.109 51.3269 62.876C51.1815 63.2423 51.466 63.5973 51.873 63.6406V63.6406C52.1433 63.6888 52.4111 63.7563 52.6658 63.8589C53.3496 64.1345 53.0399 64.1325 53.4606 64.1352C54.003 64.1386 55.1171 63.7736 55.6863 63.7131L56.368 63.6406C56.7749 63.5973 57.0595 63.2423 56.9141 62.876C56.6097 62.109 55.8259 60.973 54.034 60.973Z" fill="#F5C443"/>
<path d="M53.1654 62.2952H54.1685C54.6168 62.2952 54.9402 61.8809 54.5943 61.608C54.3922 61.4485 54.0968 61.3244 53.6669 61.3244C53.2371 61.3244 52.9417 61.4485 52.7396 61.608C52.3937 61.8809 52.7171 62.2952 53.1654 62.2952Z" fill="#F9DD4A"/>
</g>
<path d="M47.0517 42.0858C49.8692 42.2732 56.5239 42.7027 58.3491 42.7027L58.3491 46.2162C58.3491 46.2162 54.0336 45.9323 51.1654 45.5135C49.5899 45.2835 47.768 43.8486 46.6976 42.8851C46.3595 42.5808 46.5977 42.0556 47.0517 42.0858Z" fill="#3CADC6"/>
<path d="M70 100V5C70 3.89543 69.1046 3 68 3H5C3.89543 3 3 3.89543 3 5V100" stroke="#6A4917" stroke-width="6"/>
</svg>
