<svg width="129" height="75" viewBox="0 0 129 75" fill="none" xmlns="http://www.w3.org/2000/svg">
<path d="M126.115 75H2.88538C1.48914 75 0.522591 73.6056 1.01258 72.2981L4.89181 61.9472C5.33074 60.776 6.45025 60 7.70101 60H121.299C122.55 60 123.669 60.776 124.108 61.9472L127.987 72.2981C128.477 73.6056 127.511 75 126.115 75Z" fill="#13BB42"/>
<path d="M31.0917 42.8879C31.3457 43.5033 31.333 44.5142 31.3016 45.0744C31.2915 45.2547 31.1018 45.3756 30.9713 45.2842C30.5325 44.9769 29.7442 44.3411 29.5427 43.6216C29.3832 43.0516 29.5164 42.1596 29.6161 41.6544C29.6508 41.4785 29.8429 41.3854 29.959 41.4875C30.295 41.7831 30.8655 42.34 31.0917 42.8879Z" fill="#D1BC94"/>
<path d="M26.7128 48.9769C26.9668 49.5923 26.9542 50.6032 26.9228 51.1634C26.9127 51.3437 26.723 51.4646 26.5925 51.3732C26.1536 51.0658 25.3653 50.4301 25.1639 49.7106C25.0043 49.1406 25.1375 48.2486 25.2372 47.7433C25.2719 47.5675 25.4641 47.4744 25.5801 47.5765C25.9161 47.8721 26.4867 48.4289 26.7128 48.9769Z" fill="#D1BC94"/>
<path d="M28.7563 46.1354C29.0103 46.7508 28.9977 47.7617 28.9662 48.3218C28.9561 48.5022 28.7664 48.6231 28.6359 48.5317C28.1971 48.2243 27.4088 47.5886 27.2073 46.869C27.0478 46.2991 27.181 45.407 27.2807 44.9018C27.3154 44.7259 27.5075 44.6328 27.6236 44.735C27.9596 45.0306 28.5302 45.5874 28.7563 46.1354Z" fill="#D1BC94"/>
<path fill-rule="evenodd" clip-rule="evenodd" d="M33.7226 41.9491C33.5453 41.3803 33.2652 40.7558 32.8432 40.4523C32.4212 40.1488 31.74 40.0821 31.1444 40.095C30.3894 40.1114 29.6613 40.6163 29.1605 41.3126L22.4746 50.6097L26.0392 54.1743L33.1996 44.2173C33.7004 43.521 33.9473 42.6701 33.7226 41.9491ZM31.0917 42.8879C31.3457 43.5033 31.333 44.5142 31.3016 45.0744C31.2915 45.2547 31.1018 45.3756 30.9713 45.2842C30.5325 44.9769 29.7442 44.3411 29.5427 43.6216C29.3832 43.0516 29.5164 42.1596 29.6161 41.6544C29.6508 41.4785 29.8429 41.3854 29.959 41.4875C30.295 41.7831 30.8655 42.34 31.0917 42.8879ZM26.7128 48.9769C26.9668 49.5923 26.9542 50.6032 26.9228 51.1634C26.9127 51.3437 26.723 51.4646 26.5925 51.3732C26.1536 51.0658 25.3653 50.4301 25.1639 49.7106C25.0043 49.1406 25.1375 48.2486 25.2372 47.7433C25.2719 47.5675 25.4641 47.4744 25.5801 47.5765C25.9161 47.8721 26.4867 48.4289 26.7128 48.9769ZM28.7563 46.1354C29.0103 46.7508 28.9977 47.7617 28.9662 48.3218C28.9561 48.5022 28.7664 48.6231 28.6359 48.5317C28.1971 48.2243 27.4088 47.5886 27.2073 46.869C27.0478 46.2991 27.181 45.407 27.2807 44.9018C27.3154 44.7259 27.5075 44.6328 27.6236 44.735C27.9596 45.0306 28.5302 45.5874 28.7563 46.1354Z" fill="#C3A977"/>
<path d="M26 51C26 48.2386 28.2386 46 31 46C33.7614 46 36 48.2386 36 51C36 53.7614 33.7614 56 31 56C28.2386 56 26 53.7614 26 51Z" fill="#FF881A"/>
<path fill-rule="evenodd" clip-rule="evenodd" d="M30.5455 47.3636C29.1124 47.3636 27.8994 48.3114 27.5016 49.6154C27.4283 49.8555 27.1743 49.9908 26.9342 49.9175C26.6941 49.8443 26.5588 49.5902 26.6321 49.3501C27.1433 47.6744 28.7014 46.4545 30.5455 46.4545C30.7965 46.4545 31 46.6581 31 46.9091C31 47.1601 30.7965 47.3636 30.5455 47.3636Z" fill="#FF9738"/>
<path fill-rule="evenodd" clip-rule="evenodd" d="M44.3231 47.0644C44.589 46.8022 44.9849 46.7565 45.3392 46.9611C45.6743 47.1546 46.1014 47.0421 46.2932 46.7099C46.485 46.3777 46.3688 45.9516 46.0338 45.7582C45.14 45.2421 43.9916 45.3451 43.2507 46.1601L43.2136 46.2009L41.6356 48.6198C41.426 48.9411 41.5189 49.3726 41.8432 49.5837C42.1674 49.7948 42.6001 49.7055 42.8097 49.3842L44.3231 47.0644Z" fill="#5A3D1B"/>
<path fill-rule="evenodd" clip-rule="evenodd" d="M43.7345 46.4569C44.1982 45.953 44.9146 45.8781 45.4998 46.216C45.5557 46.2482 45.6268 46.2295 45.6588 46.1741C45.6908 46.1187 45.6714 46.0477 45.6156 46.0155C44.9404 45.6256 44.0979 45.7101 43.5551 46.3071L43.5489 46.314L41.996 48.6944C41.9611 48.7479 41.9765 48.8199 42.0306 48.855C42.0846 48.8902 42.1567 48.8753 42.1917 48.8218L43.7345 46.4569Z" fill="#825827"/>
<path d="M36.85 46.6848C37.9645 44.9799 40.2184 44.7941 41.6442 46.0786L43.2101 47.4895L44.9955 48.069C46.9049 48.6888 47.8531 50.8841 46.8046 52.7394C46.5184 53.2459 46.2163 53.7331 45.9151 54.1424C45.2474 55.05 44.1696 56.1595 43.2553 57.0451C42.2995 57.9709 40.8743 58.0248 39.9038 57.2237L38.3369 55.9302L36.318 55.177C35.1914 54.7566 34.5256 53.5824 34.7782 52.3385C35.0397 51.0503 35.4269 49.451 35.9072 48.3643C36.1442 47.8281 36.4823 47.2474 36.85 46.6848Z" fill="#F73636"/>
<path fill-rule="evenodd" clip-rule="evenodd" d="M37.0923 47.1489C38.1566 45.5699 40.4278 45.316 42.1673 46.9886C42.3532 47.1673 42.3595 47.461 42.1814 47.6447C42.0033 47.8284 41.7083 47.8325 41.5225 47.6538C40.1411 46.3256 38.5648 46.6352 37.8674 47.67C37.7245 47.882 37.4351 47.9373 37.221 47.7934C37.007 47.6495 36.9493 47.3609 37.0923 47.1489Z" fill="#F96767"/>
<path d="M23.6497 55.6022C19.9665 52.7404 19.8265 48.1197 20.0806 45.5791C20.1462 44.9234 20.988 44.7908 21.3408 45.3557C22.6431 47.4412 25.0204 50.9998 26.9226 52.4605C28.4579 53.6395 31.7663 55.5228 33.6306 56.556C34.1765 56.8585 34.1069 57.5837 33.4913 57.7135C31.3707 58.1606 27.3278 58.46 23.6497 55.6022Z" fill="#F1DA0A"/>
<path fill-rule="evenodd" clip-rule="evenodd" d="M21.0277 45.7515C21.1649 45.7668 21.2638 45.8904 21.2486 46.0276L21.2485 46.0287L21.248 46.0331L21.2461 46.0513C21.2444 46.0677 21.242 46.0923 21.2391 46.1244C21.2332 46.1888 21.2253 46.2836 21.2172 46.4037C21.2009 46.6441 21.1839 46.9854 21.1811 47.3875C21.1754 48.1943 21.227 49.2347 21.4509 50.1931C21.5892 50.7853 21.8996 51.4494 22.1831 51.9751C22.3238 52.2358 22.4555 52.4582 22.5519 52.6153C22.6001 52.6938 22.6394 52.7558 22.6665 52.798C22.6801 52.8191 22.6906 52.8352 22.6976 52.8459L22.7054 52.8578L22.7073 52.8606L22.4998 53M22.4998 53L22.2917 53.1387L22.2908 53.1372L22.2883 53.1335L22.2793 53.1199C22.2716 53.108 22.2603 53.0906 22.2459 53.0683C22.2171 53.0235 22.176 52.9586 22.1259 52.8769C22.0256 52.7137 21.889 52.483 21.7431 52.2125C21.4535 51.6757 21.1177 50.9648 20.964 50.3069C20.7274 49.294 20.6753 48.2094 20.6811 47.384C20.684 46.97 20.7015 46.6185 20.7183 46.37C20.7267 46.2457 20.735 46.147 20.7412 46.0791C20.7442 46.0451 20.7468 46.0188 20.7487 46.0009L20.7508 45.9802L20.7514 45.9746L20.7516 45.9731C20.7668 45.8359 20.8905 45.7363 21.0277 45.7515" fill="#F6E43E"/>
<path d="M17 50H52L49.3998 66.4679C49.1696 67.926 47.9127 69 46.4365 69H22.5635C21.0873 69 19.8304 67.926 19.6002 66.4679L17 50Z" fill="#F8B155"/>
<mask id="mask0_600_1198" style="mask-type:alpha" maskUnits="userSpaceOnUse" x="17" y="50" width="35" height="19">
<path d="M17 50H52L49.3998 66.4679C49.1696 67.926 47.9127 69 46.4365 69H22.5635C21.0873 69 19.8304 67.926 19.6002 66.4679L17 50Z" fill="#F8B155"/>
</mask>
<g mask="url(#mask0_600_1198)">
<path d="M44.5 69.5V44M35 44C35 44 35 48.4457 35 51M35 69.9593C35 69.9593 35 68.8905 35 68.5M25.5 69.5V43.5M17.5 55.5L18.5583 56.0292C19.1793 56.3396 19.8532 56.5173 20.5467 56.5485C23.1712 56.6665 30.1673 56.9593 35 56.9593M52.5 55.5L51.4417 56.0292C50.8207 56.3397 50.1468 56.5173 49.4533 56.5485C46.8288 56.6665 39.8328 56.9593 35 56.9593M18.5 62L19.9684 62.3671C20.3217 62.4554 20.6797 62.5048 21.0439 62.514C23.0513 62.5647 30.1771 62.7355 35 62.7355M51.5 62L50.0316 62.3671C49.6783 62.4554 49.3203 62.5048 48.9561 62.514C46.9487 62.5647 39.8229 62.7355 35 62.7355M18.5 68L21.5 68.5C21.5 68.5 29.7279 68.5 35 68.5M14 45L17.1875 48.8958C18.0278 49.9229 19.2412 50.5742 20.5631 50.6911C23.8455 50.9814 30.3596 51.5 35 51.5C39.6404 51.5 46.1545 50.9814 49.4369 50.6911C50.7588 50.5742 51.9722 49.9229 52.8125 48.8958L56 45M51.5 68L48.5 68.5C48.5 68.5 40.2721 68.5 35 68.5M35 62.7355C35 65.0787 35 66.1569 35 68.5M35 68.5C35 61.4865 35 58.0135 35 51M35 56.9593C35 54.632 35 53.3273 35 51" stroke="#E3942D" stroke-width="3" stroke-linecap="square"/>
</g>
<path d="M19 50C19 50 19 38 34.5 38C50 38 50 50 50 50" stroke="#F8B155" stroke-width="4"/>
<path d="M30.7929 59.2929L21.8536 50.3536C21.5386 50.0386 21.7617 49.5 22.2071 49.5H40.7929C41.2383 49.5 41.4614 50.0386 41.1464 50.3536L32.2071 59.2929C31.8166 59.6834 31.1834 59.6834 30.7929 59.2929Z" fill="#FC5353"/>
<mask id="mask1_600_1198" style="mask-type:alpha" maskUnits="userSpaceOnUse" x="22" y="49" width="19" height="11">
<path d="M30.7929 59.2929L22.7071 51.2071C22.0771 50.5771 22.5233 49.5 23.4142 49.5H39.5858C40.4767 49.5 40.9229 50.5771 40.2929 51.2071L32.2071 59.2929C31.8166 59.6834 31.1834 59.6834 30.7929 59.2929Z" fill="#F33838"/>
</mask>
<g mask="url(#mask1_600_1198)">
<path d="M33.1467 56.3535L31.8538 57.6464C31.6585 57.8417 31.3419 57.8417 31.1467 57.6464L29.8538 56.3535C29.6585 56.1583 29.6585 55.8417 29.8538 55.6464L31.1467 54.3535C31.3419 54.1583 31.6585 54.1583 31.8538 54.3535L33.1467 55.6464C33.3419 55.8417 33.3419 56.1583 33.1467 56.3535Z" fill="white" fill-opacity="0.2"/>
<path d="M30.1467 53.3535L28.8538 54.6464C28.6585 54.8417 28.3419 54.8417 28.1467 54.6464L26.8538 53.3535C26.6585 53.1583 26.6585 52.8417 26.8538 52.6464L28.1467 51.3535C28.3419 51.1583 28.6585 51.1583 28.8538 51.3535L30.1467 52.6464C30.3419 52.8417 30.3419 53.1583 30.1467 53.3535Z" fill="white" fill-opacity="0.2"/>
<path d="M36.1467 53.3535L34.8538 54.6464C34.6585 54.8417 34.3419 54.8417 34.1467 54.6464L32.8538 53.3535C32.6585 53.1583 32.6585 52.8417 32.8538 52.6464L34.1467 51.3535C34.3419 51.1583 34.6585 51.1583 34.8538 51.3535L36.1467 52.6464C36.3419 52.8417 36.3419 53.1583 36.1467 53.3535Z" fill="white" fill-opacity="0.2"/>
<path d="M33.1467 50.3535L31.8538 51.6464C31.6585 51.8417 31.3419 51.8417 31.1467 51.6464L29.8538 50.3535C29.6585 50.1583 29.6585 49.8417 29.8538 49.6464L31.1467 48.3535C31.3419 48.1583 31.6585 48.1583 31.8538 48.3535L33.1467 49.6464C33.3419 49.8417 33.3419 50.1583 33.1467 50.3535Z" fill="white" fill-opacity="0.2"/>
<path d="M27.2894 50.3535L25.9965 51.6464C25.8013 51.8417 25.4847 51.8417 25.2894 51.6464L23.9965 50.3535C23.8013 50.1583 23.8013 49.8417 23.9965 49.6464L25.2894 48.3535C25.4847 48.1583 25.8013 48.1583 25.9965 48.3535L27.2894 49.6464C27.4847 49.8417 27.4847 50.1583 27.2894 50.3535Z" fill="white" fill-opacity="0.2"/>
<path d="M39.1467 50.3535L37.8538 51.6464C37.6586 51.8416 37.342 51.8416 37.1467 51.6464L35.8538 50.3535C35.6586 50.1582 35.6586 49.8416 35.8538 49.6464L37.1467 48.3535C37.342 48.1582 37.6586 48.1582 37.8538 48.3535L39.1467 49.6464C39.342 49.8416 39.342 50.1582 39.1467 50.3535Z" fill="white" fill-opacity="0.2"/>
</g>
<path d="M64 40.5612C64 35.7654 67.7607 31.812 72.5506 31.5725L84 31L93.4992 31.5277C98.2685 31.7927 102 35.7373 102 40.5139V61.8662C102 65.3769 99.4012 68.3434 95.9084 68.697C92.0385 69.0888 87.0197 69.5 83 69.5C78.9803 69.5 73.9615 69.0888 70.0916 68.697C66.5988 68.3434 64 65.3769 64 61.8662V40.5612Z" fill="#3CADC6"/>
<path d="M63.0515 65.385C64.3787 63.7805 66.1495 61.7888 67.7407 60.4902C68.283 60.0476 68.8 59 68.8 59L72.4382 62.8408C73.362 63.816 73.5249 65.2864 72.837 66.4402L71.5909 68.5301C71.1344 69.2958 70.3622 69.8227 69.4743 69.9022C68.1779 70.0184 66.2438 70.0974 64.8519 69.7387C64.5741 69.6671 64.2761 69.5673 63.9735 69.4513C62.3156 68.816 61.9199 66.753 63.0515 65.385Z" fill="#3CADC6"/>
<path d="M99.25 70H67.75C67.6119 70 67.5 69.8881 67.5 69.75V66.25C67.5 66.1119 67.6119 66 67.75 66H99.25C99.3881 66 99.5 66.1119 99.5 66.25V69.75C99.5 69.8881 99.3881 70 99.25 70Z" fill="#3CADC6"/>
<path d="M102.948 65.385C101.621 63.7805 99.8505 61.7888 98.2593 60.4902C97.717 60.0476 97.2 59 97.2 59L93.5618 62.8408C92.638 63.816 92.4751 65.2864 93.163 66.4402L94.4091 68.5301C94.8656 69.2958 95.6378 69.8227 96.5257 69.9022C97.8221 70.0184 99.7562 70.0974 101.148 69.7387C101.426 69.6671 101.724 69.5673 102.027 69.4513C103.684 68.816 104.08 66.753 102.948 65.385Z" fill="#3CADC6"/>
<path d="M80.0972 52H73.9521C73.2953 52 72.8087 52.6276 73.0736 53.2724C73.5616 54.4608 74.6573 56.0526 77.0246 56.0526C79.392 56.0526 80.4876 54.4608 80.9757 53.2724C81.2405 52.6276 80.7539 52 80.0972 52Z" fill="#44C2DE"/>
<path d="M93.0479 52H86.9028C86.2461 52 85.7595 52.6276 86.0243 53.2724C86.5124 54.4608 87.608 56.0526 89.9754 56.0526C92.3427 56.0526 93.4384 54.4608 93.9264 53.2724C94.1913 52.6276 93.7047 52 93.0479 52Z" fill="#44C2DE"/>
<path d="M86.5726 58.9474H80.4274C79.7707 58.9474 79.2841 59.575 79.549 60.2198C80.037 61.4082 81.1326 63 83.5 63C85.8674 63 86.963 61.4082 87.451 60.2198C87.7159 59.575 87.2293 58.9474 86.5726 58.9474Z" fill="#44C2DE"/>
<rect x="89" y="70.4854" width="12" height="6" rx="3" transform="rotate(-45 89 70.4854)" fill="#E69435"/>
<rect x="69.2427" y="62" width="12" height="6" rx="3" transform="rotate(45 69.2427 62)" fill="#E69435"/>
<path d="M63.0001 24C63.0001 33.8275 56.2476 44.6312 81.0001 45H85.0001C109.753 44.6312 103 33.8275 103 24C103 21.188 102.299 18.3642 101 16C99.7009 13.6358 94.5606 6 83.0001 6C71.4396 6 66.2994 13.6358 65.0001 16C63.7009 18.3642 63.0001 21.188 63.0001 24Z" fill="#3CADC6"/>
<path d="M66 28V23C66 18.5817 69.5817 15 74 15H77.5279C79.043 15 80.2116 16.1833 81.5569 16.8803C81.7024 16.9557 81.8512 17 82 17H84C84.136 17 84.2703 16.9666 84.401 16.9083C85.8125 16.2794 86.985 15 88.5303 15H92C96.4183 15 100 18.5817 100 23V28C100 32.4183 96.4183 36 92 36H90.0249C87.5582 36 85.3032 34.6063 84.2 32.4C84.0774 32.1549 83.8269 32 83.5528 32H83H82.4472C82.1731 32 81.9226 32.1549 81.8 32.4C80.6968 34.6063 78.4418 36 75.9751 36H74C69.5817 36 66 32.4183 66 28Z" fill="#44C2DE"/>
<rect x="69" y="17" width="12" height="16" rx="6" fill="white"/>
<rect x="72" y="20" width="8" height="11" rx="4" fill="#4B4B4B"/>
<path d="M76 22C76 23.1046 75.1046 24 74 24C72.8954 24 72 23.1046 72 22C72 20.8954 72.8954 20 74 20C75.1046 20 76 20.8954 76 22Z" fill="white"/>
<rect x="85" y="17" width="12" height="16" rx="6" fill="white"/>
<rect x="86" y="20" width="8" height="11" rx="4" fill="#4B4B4B"/>
<path d="M90 22C90 23.1046 89.1046 24 88 24C86.8954 24 86 23.1046 86 22C86 20.8954 86.8954 20 88 20C89.1046 20 90 20.8954 90 22Z" fill="white"/>
<path d="M80.5 39L83 37L85.5 39" stroke="#0098BA" stroke-width="1.5" stroke-linecap="round" stroke-linejoin="round"/>
<path d="M83.179 35C79.956 35 79.4995 32 79.4995 32H86.8585C86.8585 32 86.402 35 83.179 35Z" fill="#E69435"/>
<path d="M83.179 29C85.7445 29 86.6193 30.6165 87.0551 31.708C87.2633 32.2293 86.8558 32.7346 86.2732 32.7962L85.2971 32.8993C83.7539 33.0624 82.3564 33.0624 80.8133 32.8993L79.8371 32.7962C79.2545 32.7346 78.847 32.2293 79.0552 31.708C79.491 30.6165 80.6134 29 83.179 29Z" fill="#F5C443"/>
<path d="M84.4226 30.8816H82.9865C82.3445 30.8816 81.8814 30.292 82.3768 29.9036C82.6661 29.6766 83.0891 29.5 83.7045 29.5C84.32 29.5 84.7429 29.6766 85.0323 29.9036C85.5276 30.292 85.0646 30.8816 84.4226 30.8816Z" fill="#F9DD4A"/>
<path d="M95.8978 5.09511C92.9747 5.34482 85.1045 6 83.0001 6L83 11C83 11 87.806 10.5959 91 10C92.9321 9.63953 95.1968 7.20007 96.3104 5.86661C96.5864 5.5361 96.3268 5.05846 95.8978 5.09511Z" fill="#3CADC6"/>
</svg>
