<svg width="72" height="82" viewBox="0 0 72 82" fill="none" xmlns="http://www.w3.org/2000/svg">
<path d="M18.9804 40.6709C19.2843 36.4772 22.4514 33.0528 26.6086 32.4229L34.5448 31.2205C35.5097 31.0743 36.4909 31.0701 37.457 31.2081L46.3205 32.4744C50.5112 33.073 53.7182 36.5113 54.0242 40.7334L55.3751 59.3766C55.7339 64.3284 52.4063 68.8085 47.4967 69.547C44.0944 70.0587 40.2255 70.5 37 70.5C33.6391 70.5 29.388 70.0209 25.6702 69.4822C20.6922 68.7609 17.2723 64.2429 17.6358 59.226L18.9804 40.6709Z" fill="#3CADC6"/>
<path d="M67.8255 33.0749L53.816 36.5759C53.2282 36.7228 52.6067 36.6442 52.074 36.3556C50.4283 35.4642 48.4361 36.6953 48.4974 38.566L48.993 53.7074C49.0519 55.5077 50.6708 56.8321 52.4214 56.4081C56.1884 55.4958 62.2142 53.607 65.3306 50.3484C68.4395 47.0975 69.7088 44.5853 70.8167 40.2204C71.1395 38.949 71.3009 37.3385 71.3794 35.8929C71.4832 33.9821 69.682 32.611 67.8255 33.0749Z" fill="#3CADC6"/>
<path d="M4.23024 32.9712L18.2186 36.3995C18.8018 36.5424 19.4173 36.4632 19.9452 36.1772C21.5907 35.2861 23.5811 36.5219 23.5122 38.3919L22.9594 53.3956C22.8935 55.1854 21.2864 56.5014 19.5437 56.0882C15.7892 55.1981 9.77049 53.3449 6.66897 50.1167C3.57918 46.9007 2.3224 44.4112 1.23386 40.0814C0.916341 38.8185 0.761597 37.2175 0.689048 35.7809C0.593069 33.8802 2.3819 32.5183 4.23024 32.9712Z" fill="#3CADC6"/>
<path d="M33.0972 52H26.9521C26.2953 52 25.8087 52.6276 26.0736 53.2724C26.5616 54.4608 27.6573 56.0526 30.0246 56.0526C32.392 56.0526 33.4876 54.4608 33.9757 53.2724C34.2405 52.6276 33.7539 52 33.0972 52Z" fill="#44C2DE"/>
<path d="M46.0479 52H39.9028C39.2461 52 38.7595 52.6276 39.0243 53.2724C39.5124 54.4608 40.608 56.0526 42.9754 56.0526C45.3427 56.0526 46.4384 54.4608 46.9264 53.2724C47.1913 52.6276 46.7047 52 46.0479 52Z" fill="#44C2DE"/>
<path d="M39.5726 58.9474H33.4274C32.7707 58.9474 32.2841 59.575 32.549 60.2198C33.037 61.4082 34.1326 63 36.5 63C38.8674 63 39.963 61.4082 40.451 60.2198C40.7159 59.575 40.2293 58.9474 39.5726 58.9474Z" fill="#44C2DE"/>
<path d="M16.0001 19C16.0001 28.8275 9.24763 39.6312 34.0001 40H38.0001C62.7526 39.6312 56.0001 28.8275 56.0001 19C56.0001 16.188 55.2994 13.3642 54.0001 11C52.7009 8.63576 47.5606 1 36.0001 1C24.4396 1 19.2994 8.63576 18.0001 11C16.7009 13.3642 16.0001 16.188 16.0001 19Z" fill="#3CADC6"/>
<path d="M19.0002 23V18C19.0002 13.5817 22.582 10 27.0002 10H30.5281C32.0432 10 33.2119 11.1833 34.5571 11.8803C34.7026 11.9557 34.8514 12 35.0002 12H37.0002C37.1363 12 37.2705 11.9666 37.4013 11.9083C38.8128 11.2794 39.9853 10 41.5306 10H45.0002C49.4185 10 53.0002 13.5817 53.0002 18V23C53.0002 27.4183 49.4185 31 45.0002 31H43.0252C40.5584 31 38.3034 29.6063 37.2002 27.4C37.0777 27.1549 36.8271 27 36.553 27H36.0002H35.4475C35.1734 27 34.9228 27.1549 34.8002 27.4C33.6971 29.6063 31.4421 31 28.9753 31H27.0002C22.582 31 19.0002 27.4183 19.0002 23Z" fill="#44C2DE"/>
<rect x="22.0002" y="12" width="12" height="16.3828" rx="6" fill="white"/>
<rect x="25.0002" y="15" width="7" height="11" rx="3.5" fill="#4B4B4B"/>
<path d="M29.0002 18C29.0002 19.1046 28.1048 20 27.0002 20C25.8957 20 25.0002 19.1046 25.0002 18C25.0002 16.8954 25.8957 16 27.0002 16C28.1048 16 29.0002 16.8954 29.0002 18Z" fill="white"/>
<rect x="38.0002" y="12" width="12" height="16" rx="6" fill="white"/>
<rect x="40.0002" y="15" width="7" height="11" rx="3.5" fill="#4B4B4B"/>
<path d="M44.0002 18C44.0002 19.1046 43.1048 20 42.0002 20C40.8957 20 40.0002 19.1046 40.0002 18C40.0002 16.8954 40.8957 16 42.0002 16C43.1048 16 44.0002 16.8954 44.0002 18Z" fill="white"/>
<path d="M22.2944 28.35L19.0002 19L35.0002 25.6L31.2355 30L22.2944 28.35Z" fill="#44C2DE"/>
<path d="M49.7061 28.35L53.0002 19L37.0002 25.6L40.7649 30L49.7061 28.35Z" fill="#44C2DE"/>
<path d="M38.7502 30.4235V34.9692C38.7397 35.074 38.6697 35.6247 38.3307 36.1533C37.9932 36.6795 37.353 37.25 36.0002 37.25C34.6475 37.25 34.0073 36.6795 33.6698 36.1533C33.3308 35.6247 33.2607 35.074 33.2502 34.9692V30.4235C33.3608 30.4447 33.4784 30.4666 33.6011 30.4884C34.3112 30.6148 35.2404 30.75 36.0002 30.75C36.7601 30.75 37.6892 30.6148 38.3994 30.4884C38.5221 30.4666 38.6396 30.4447 38.7502 30.4235ZM38.7518 34.9521L38.7518 34.9521L38.7518 34.9521Z" fill="#B66E28" stroke="#E69435" stroke-width="1.5"/>
<path d="M36.124 27C38.6896 27 39.5644 28.6165 40.0002 29.708C40.2084 30.2293 39.8009 30.7346 39.2183 30.7962L38.2421 30.8993C36.6989 31.0624 35.3015 31.0624 33.7583 30.8993L32.7822 30.7962C32.1995 30.7346 31.7921 30.2293 32.0002 29.708C32.4361 28.6165 33.5585 27 36.124 27Z" fill="#F5C443"/>
<path d="M37.3677 28.8816H35.9315C35.2896 28.8816 34.8265 28.292 35.3218 27.9036C35.6112 27.6766 36.0341 27.5 36.6496 27.5C37.2651 27.5 37.688 27.6766 37.9774 27.9036C38.4727 28.292 38.0096 28.8816 37.3677 28.8816Z" fill="#F9DD4A"/>
<path d="M48.898 0.0951061C45.9749 0.344818 38.1048 0.999999 36.0003 1L36.0002 6C36.0002 6 40.8062 5.59592 44.0002 5C45.9323 4.63953 48.1971 2.20007 49.3106 0.866607C49.5866 0.536101 49.3271 0.0584556 48.898 0.0951061Z" fill="#3CADC6"/>
<rect x="48.3923" y="77" width="12" height="6" rx="3" transform="rotate(-30 48.3923 77)" fill="#E69435"/>
<rect x="13" y="71" width="12" height="6" rx="3" transform="rotate(30 13 71)" fill="#E69435"/>
</svg>
