<svg width="63" height="74" viewBox="0 0 63 74" fill="none" xmlns="http://www.w3.org/2000/svg">
<rect x="33" y="68" width="12" height="6" rx="3" fill="#E69435"/>
<rect x="19" y="68" width="12" height="6" rx="3" fill="#E69435"/>
<path d="M13.9758 40.7334C14.2818 36.5113 17.4888 33.073 21.6795 32.4744L30.543 31.2081C31.5091 31.0701 32.4903 31.0743 33.4552 31.2205L41.3914 32.4229C45.5486 33.0528 48.7157 36.4772 49.0196 40.6709L50.3751 59.3766C50.7339 64.3284 47.4063 68.8085 42.4967 69.547C39.0944 70.0587 35.2255 70.5 32 70.5C28.6391 70.5 24.388 70.0209 20.6702 69.4822C15.6922 68.7609 12.2723 64.2429 12.6358 59.226L13.9758 40.7334Z" fill="#3CADC6"/>
<path d="M5.62134 58.153C7.9021 52.934 10.9689 46.2415 13.1742 42.6665C13.8788 41.5242 14.1554 39.308 14.1554 39.308L25.0217 44.8507C26.2251 45.4646 26.8698 46.807 26.5965 48.13L24.9784 55.9636C24.7985 56.8345 24.2443 57.5804 23.4438 57.9678C21.3543 58.9791 17.0588 60.881 13.772 61.1665C12.7959 61.2514 11.3431 61.6994 9.80251 62.2774C7.20895 63.2506 4.51206 60.6913 5.62134 58.153Z" fill="#3CADC6"/>
<path d="M5.6214 58.153C7.90217 52.934 10.969 46.2415 13.1742 42.6666C13.8789 41.5243 14.1555 39.308 14.1555 39.308L25.0218 44.8507C26.2252 45.4646 26.8699 46.807 26.5966 48.13L24.9784 55.9637C24.7985 56.8345 24.2443 57.5804 23.4439 57.9678C21.3543 58.9791 17.0589 60.881 13.7721 61.1666C12.796 61.2514 11.3432 61.6994 9.80258 62.2774C7.20902 63.2506 4.51213 60.6913 5.6214 58.153Z" fill="#3CADC6"/>
<path d="M57.7353 58.5109C55.3789 53.1074 52.2104 46.1785 49.9319 42.4773C49.2039 41.2946 48.5 39 48.5 39L37.6914 44.7386C36.448 45.3741 35.782 46.764 36.0643 48.1338L37.7362 56.2442C37.922 57.1458 38.4946 57.918 39.3216 58.3191C41.4805 59.3662 45.9184 61.3353 49.3143 61.6309C50.3227 61.7187 51.8237 62.1825 53.4155 62.781C56.0951 63.7886 58.8814 61.1389 57.7353 58.5109Z" fill="#3CADC6"/>
<path d="M28.0972 55H21.9521C21.2953 55 20.8087 55.6276 21.0736 56.2724C21.5616 57.4608 22.6573 59.0526 25.0246 59.0526C27.392 59.0526 28.4876 57.4608 28.9757 56.2724C29.2405 55.6276 28.7539 55 28.0972 55Z" fill="#44C2DE"/>
<path d="M41.0479 55H34.9028C34.2461 55 33.7595 55.6276 34.0243 56.2724C34.5124 57.4608 35.608 59.0526 37.9754 59.0526C40.3427 59.0526 41.4384 57.4608 41.9264 56.2724C42.1913 55.6276 41.7047 55 41.0479 55Z" fill="#44C2DE"/>
<path d="M34.5726 61.9474H28.4274C27.7707 61.9474 27.2841 62.575 27.549 63.2198C28.037 64.4082 29.1326 66 31.5 66C33.8674 66 34.963 64.4082 35.451 63.2198C35.7159 62.575 35.2293 61.9474 34.5726 61.9474Z" fill="#44C2DE"/>
<path d="M11.0001 19C11.0001 28.8275 4.24763 39.6312 29.0001 40H33.0001C57.7526 39.6312 51.0001 28.8275 51.0001 19C51.0001 16.188 50.2994 13.3642 49.0001 11C47.7009 8.63576 42.5606 1 31.0001 1C19.4396 1 14.2994 8.63576 13.0001 11C11.7009 13.3642 11.0001 16.188 11.0001 19Z" fill="#3CADC6"/>
<path d="M14.0002 23V18C14.0002 13.5817 17.582 10 22.0002 10H25.5281C27.0432 10 28.2119 11.1833 29.5571 11.8803C29.7026 11.9557 29.8514 12 30.0002 12H32.0002C32.1363 12 32.2705 11.9666 32.4013 11.9083C33.8128 11.2794 34.9853 10 36.5306 10H40.0002C44.4185 10 48.0002 13.5817 48.0002 18V23C48.0002 27.4183 44.4185 31 40.0002 31H38.0252C35.5584 31 33.3034 29.6063 32.2002 27.4C32.0777 27.1549 31.8271 27 31.553 27H31.0002H30.4475C30.1734 27 29.9228 27.1549 29.8002 27.4C28.6971 29.6063 26.4421 31 23.9753 31H22.0002C17.582 31 14.0002 27.4183 14.0002 23Z" fill="#44C2DE"/>
<rect x="17.0002" y="12" width="12" height="16.3828" rx="6" fill="white"/>
<rect x="21.0002" y="15" width="6" height="11" rx="3" fill="#4B4B4B"/>
<path d="M24.0002 18C24.0002 19.1046 23.1048 20 22.0002 20C20.8957 20 20.0002 19.1046 20.0002 18C20.0002 16.8954 20.8957 16 22.0002 16C23.1048 16 24.0002 16.8954 24.0002 18Z" fill="white"/>
<rect x="33.0002" y="12" width="12" height="16" rx="6" fill="white"/>
<rect x="35.0002" y="15" width="6" height="11" rx="3" fill="#4B4B4B"/>
<path d="M39.0002 18C39.0002 19.1046 38.1048 20 37.0002 20C35.8957 20 35.0002 19.1046 35.0002 18C35.0002 16.8954 35.8957 16 37.0002 16C38.1048 16 39.0002 16.8954 39.0002 18Z" fill="white"/>
<path d="M31.1792 34C27.9563 34 27.4998 31 27.4998 31H34.8587C34.8587 31 34.4022 34 31.1792 34Z" fill="#E69435"/>
<path d="M31.1792 28C33.7448 28 34.6195 29.6165 35.0554 30.708C35.2635 31.2293 34.8561 31.7346 34.2734 31.7962L33.2973 31.8993C31.7541 32.0624 30.3567 32.0624 28.8135 31.8993L27.8374 31.7962C27.2547 31.7346 26.8473 31.2293 27.0554 30.708C27.4913 29.6165 28.6136 28 31.1792 28Z" fill="#F5C443"/>
<path d="M32.4229 29.8816H30.9867C30.3448 29.8816 29.8817 29.292 30.377 28.9036C30.6664 28.6766 31.0893 28.5 31.7048 28.5C32.3203 28.5 32.7432 28.6766 33.0326 28.9036C33.5279 29.292 33.0648 29.8816 32.4229 29.8816Z" fill="#F9DD4A"/>
<path d="M43.898 0.0951061C40.9749 0.344818 33.1048 0.999999 31.0003 1L31.0002 6C31.0002 6 35.8062 5.59592 39.0002 5C40.9323 4.63953 43.1971 2.20007 44.3106 0.866607C44.5866 0.536101 44.3271 0.0584556 43.898 0.0951061Z" fill="#3CADC6"/>
<path d="M17 12H31H45V21H17V12Z" fill="#44C2DE"/>
</svg>
