<svg width="104" height="74" viewBox="0 0 104 74" fill="none" xmlns="http://www.w3.org/2000/svg">
<rect x="33" y="68" width="12" height="6" rx="3" fill="#E69435"/>
<rect x="19" y="68" width="12" height="6" rx="3" fill="#E69435"/>
<path d="M13.9758 40.7334C14.2818 36.5113 17.4888 33.073 21.6795 32.4744L30.543 31.2081C31.5091 31.0701 32.4903 31.0743 33.4552 31.2205L41.3914 32.4229C45.5486 33.0528 48.7157 36.4772 49.0196 40.6709L50.3751 59.3766C50.7339 64.3284 47.4063 68.8085 42.4967 69.547C39.0944 70.0587 35.2255 70.5 32 70.5C28.6391 70.5 24.388 70.0209 20.6702 69.4822C15.6922 68.7609 12.2723 64.2429 12.6358 59.226L13.9758 40.7334Z" fill="#3CADC6"/>
<path d="M2.04258 51.5253C4.58025 48.3394 9.05347 43.0123 12.963 39.8449C14.0058 39 15 37 15 37L23.421 45.8252C24.3536 46.8026 24.5179 48.2827 23.8224 49.4409L19.704 56.2982C19.2461 57.0605 18.4764 57.5811 17.5929 57.6819C15.2864 57.9451 10.6036 58.3189 7.40741 57.5012C6.00815 57.1431 4.34236 56.4156 2.94516 55.7307C1.34376 54.9457 0.931405 52.9203 2.04258 51.5253Z" fill="#3CADC6"/>
<path d="M60.9574 51.5253C58.4197 48.3394 53.9465 43.0123 50.037 39.8449C48.9942 39 48 37 48 37L39.579 45.8252C38.6464 46.8026 38.4821 48.2827 39.1776 49.4409L43.296 56.2982C43.7539 57.0605 44.5236 57.5811 45.4071 57.6819C47.7136 57.9451 52.3964 58.3189 55.5926 57.5012C56.9919 57.1431 58.6576 56.4156 60.0548 55.7307C61.6562 54.9457 62.0686 52.9203 60.9574 51.5253Z" fill="#3CADC6"/>
<path d="M28.0972 52H21.9521C21.2953 52 20.8087 52.6276 21.0736 53.2724C21.5616 54.4608 22.6573 56.0526 25.0246 56.0526C27.392 56.0526 28.4876 54.4608 28.9757 53.2724C29.2405 52.6276 28.7539 52 28.0972 52Z" fill="#44C2DE"/>
<path d="M41.0479 52H34.9028C34.2461 52 33.7595 52.6276 34.0243 53.2724C34.5124 54.4608 35.608 56.0526 37.9754 56.0526C40.3427 56.0526 41.4384 54.4608 41.9264 53.2724C42.1913 52.6276 41.7047 52 41.0479 52Z" fill="#44C2DE"/>
<path d="M34.5726 58.9474H28.4274C27.7707 58.9474 27.2841 59.575 27.5489 60.2198C28.037 61.4082 29.1326 63 31.5 63C33.8674 63 34.963 61.4082 35.451 60.2198C35.7159 59.575 35.2293 58.9474 34.5726 58.9474Z" fill="#44C2DE"/>
<path d="M11.0001 19C11.0001 28.8275 4.24763 39.6312 29.0001 40H33.0001C57.7526 39.6312 51.0001 28.8275 51.0001 19C51.0001 16.188 50.2994 13.3642 49.0001 11C47.7009 8.63576 42.5606 1 31.0001 1C19.4396 1 14.2994 8.63576 13.0001 11C11.7009 13.3642 11.0001 16.188 11.0001 19Z" fill="#3CADC6"/>
<path d="M14 23V18C14 13.5817 17.5817 10 22 10H25.5279C27.043 10 28.2116 11.1833 29.5569 11.8803C29.7024 11.9557 29.8512 12 30 12H32C32.136 12 32.2703 11.9666 32.401 11.9083C33.8125 11.2794 34.985 10 36.5303 10H40C44.4183 10 48 13.5817 48 18V23C48 27.4183 44.4183 31 40 31H38.0249C35.5582 31 33.3032 29.6063 32.2 27.4C32.0774 27.1549 31.8269 27 31.5528 27H31H30.4472C30.1731 27 29.9226 27.1549 29.8 27.4C28.6968 29.6063 26.4418 31 23.9751 31H22C17.5817 31 14 27.4183 14 23Z" fill="#44C2DE"/>
<rect x="17" y="12" width="12" height="16.3828" rx="6" fill="white"/>
<rect x="20" y="15" width="7" height="11" rx="3.5" fill="#4B4B4B"/>
<path d="M24 18C24 19.1046 23.1046 20 22 20C20.8954 20 20 19.1046 20 18C20 16.8954 20.8954 16 22 16C23.1046 16 24 16.8954 24 18Z" fill="white"/>
<rect x="33" y="12" width="12" height="16" rx="6" fill="white"/>
<rect x="35" y="15" width="7" height="11" rx="3.5" fill="#4B4B4B"/>
<path d="M39 18C39 19.1046 38.1046 20 37 20C35.8954 20 35 19.1046 35 18C35 16.8954 35.8954 16 37 16C38.1046 16 39 16.8954 39 18Z" fill="white"/>
<path d="M31.1238 33C27.9008 33 27.4443 30 27.4443 30H34.8033C34.8033 30 34.3468 33 31.1238 33Z" fill="#E69435"/>
<path d="M31.1238 27C33.6894 27 34.5641 28.6165 35 29.708C35.2081 30.2293 34.8007 30.7346 34.218 30.7962L33.2419 30.8993C31.6987 31.0624 30.3013 31.0624 28.7581 30.8993L27.782 30.7962C27.1993 30.7346 26.7918 30.2293 27 29.708C27.4358 28.6165 28.5582 27 31.1238 27Z" fill="#F5C443"/>
<path d="M32.3674 28.8816H30.9313C30.2893 28.8816 29.8263 28.292 30.3216 27.9036C30.611 27.6766 31.0339 27.5 31.6494 27.5C32.2648 27.5 32.6878 27.6766 32.9772 27.9036C33.4725 28.292 33.0094 28.8816 32.3674 28.8816Z" fill="#F9DD4A"/>
<path d="M43.8978 0.0951061C40.9747 0.344818 33.1045 0.999999 31.0001 1L31 6C31 6 35.806 5.59592 39 5C40.9321 4.63953 43.1968 2.20007 44.3104 0.866607C44.5864 0.536101 44.3268 0.0584556 43.8978 0.0951061Z" fill="#3CADC6"/>
<path d="M80.4302 12.4142L80.1906 11.9799L80.4302 12.4142C82.5243 11.2588 85.0555 11.2192 87.1847 12.3085L90.8369 14.1772C91.9147 14.7287 93.0797 15.09 94.2805 15.2451L94.9533 15.332C99.8001 15.9583 103.22 20.3975 102.588 25.2435L102.574 25.3543C102.439 26.3888 102.482 27.4419 102.7 28.4618C103.64 32.874 100.83 37.2313 96.4203 38.1713L96.1435 38.2303C94.3693 38.6086 92.7672 39.5562 91.5811 40.9288C89.7315 43.0693 86.8145 43.9531 84.0879 43.1991L77.9053 41.4892C76.4282 41.0806 74.8702 40.9751 73.352 41.1743C69.3202 41.7032 65.3096 39.8281 63.1677 36.3774L60.9793 32.8518C59.6245 30.6692 60.0148 27.8314 61.9085 26.0956C63.5454 24.595 64.2784 22.3476 63.841 20.1705L63.4375 18.162C63.1767 16.8643 63.4368 15.5161 64.1616 14.4085C65.2802 12.6991 67.3198 11.8337 69.3264 12.2172L74.932 13.2885C76.8106 13.6475 78.7556 13.3382 80.4302 12.4142ZM52.5 16.5C53.0523 16.5 53.5 16.9478 53.5 17.5C53.5 18.0523 53.0523 18.5 52.5 18.5C51.9477 18.5 51.5 18.0523 51.5 17.5C51.5 16.9478 51.9477 16.5 52.5 16.5ZM57 19.5C58.3807 19.5 59.5 20.6193 59.5 22C59.5 23.3808 58.3807 24.5 57 24.5C55.6193 24.5 54.5 23.3808 54.5 22C54.5 20.6193 55.6193 19.5 57 19.5Z" fill="white" stroke="#F2F2F2"/>
<mask id="mask0_600_1163" style="mask-type:alpha" maskUnits="userSpaceOnUse" x="51" y="11" width="53" height="33">
<path d="M103.084 25.3082L103.07 25.419C102.942 26.3969 102.983 27.393 103.189 28.3575C104.187 33.0383 101.205 37.6625 96.5246 38.6603L96.2478 38.7194C94.5801 39.0749 93.0743 39.9655 91.9594 41.2557C89.9836 43.5424 86.8673 44.4865 83.9546 43.681L77.772 41.9711C76.3601 41.5806 74.8695 41.4795 73.417 41.67C69.193 42.2242 64.9896 40.2607 62.7428 36.641L60.5545 33.1154C59.0729 30.7286 59.4997 27.6253 61.5706 25.727C63.0785 24.3447 63.7538 22.2745 63.3508 20.269L62.9472 18.2605C62.6606 16.8341 62.9465 15.3521 63.7432 14.1347C64.9727 12.2557 67.2146 11.3045 69.4202 11.726L75.0259 12.7973C76.7899 13.1345 78.6162 12.8441 80.1887 11.9764C82.4282 10.7407 85.1353 10.6983 87.4124 11.8634L91.0646 13.7321C92.0912 14.2573 93.2009 14.6014 94.3446 14.7492L95.0174 14.8362C100.138 15.4978 103.751 20.1881 103.084 25.3082Z" fill="white"/>
<path d="M54 17.5C54 16.6716 53.3284 16 52.5 16C51.6716 16 51 16.6716 51 17.5C51 18.3285 51.6716 19 52.5 19C53.3284 19 54 18.3285 54 17.5Z" fill="white"/>
<path d="M60 22C60 20.3432 58.6569 19 57 19C55.3431 19 54 20.3432 54 22C54 23.6569 55.3431 25 57 25C58.6569 25 60 23.6569 60 22Z" fill="white"/>
</mask>
<g mask="url(#mask0_600_1163)">
</g>
<mask id="mask1_600_1163" style="mask-type:alpha" maskUnits="userSpaceOnUse" x="60" y="12" width="43" height="31">
<path fill-rule="evenodd" clip-rule="evenodd" d="M102.078 25.2897C101.936 26.3807 101.981 27.4909 102.211 28.566C103.094 32.7098 100.454 36.8002 96.3161 37.6823L96.0393 37.7413C94.1585 38.1423 92.4602 39.1468 91.2028 40.6019C89.4795 42.5963 86.7616 43.4197 84.2212 42.7171L78.0386 41.0072C76.4963 40.5807 74.8709 40.4707 73.287 40.6785C69.4475 41.1822 65.6296 39.3955 63.5925 36.1137L61.4041 32.5881C60.1762 30.6097 60.5299 28.0375 62.2464 26.4642C64.0124 24.8453 64.8032 22.4208 64.3312 20.072L63.9277 18.0635C63.6928 16.8945 63.9271 15.68 64.58 14.6822C65.5877 13.1424 67.425 12.3628 69.2325 12.7083L74.8382 13.7796C76.8314 14.1605 78.8951 13.8324 80.6718 12.852C82.6204 11.7768 84.9757 11.74 86.9569 12.7537L90.6092 14.6223C91.7383 15.2 92.9586 15.5785 94.2165 15.741L94.8893 15.8279C99.462 16.4187 102.688 20.6069 102.092 25.1789L102.078 25.2897Z" fill="black"/>
</mask>
<g mask="url(#mask1_600_1163)">
<g opacity="0.33">
<rect width="52" height="31" transform="translate(56 12)" fill="#98DAFF"/>
<path d="M106.837 43H57.1629C56.6001 43 56.2104 42.4237 56.408 41.8833L57.9717 37.6049C58.1486 37.1208 58.5999 36.8 59.1041 36.8H104.896C105.4 36.8 105.851 37.1208 106.028 37.6049L107.592 41.8833C107.789 42.4237 107.4 43 106.837 43Z" fill="#13BB42"/>
<path d="M68.5329 29.727C68.6353 29.9814 68.6302 30.3992 68.6175 30.6308C68.6135 30.7053 68.537 30.7553 68.4844 30.7175C68.3075 30.5905 67.9897 30.3277 67.9085 30.0303C67.8442 29.7947 67.8979 29.426 67.9381 29.2172C67.9521 29.1445 68.0295 29.106 68.0763 29.1482C68.2117 29.2704 68.4418 29.5005 68.5329 29.727Z" fill="#D1BC94"/>
<path d="M66.7678 32.2438C66.8702 32.4982 66.8651 32.916 66.8524 33.1475C66.8483 33.2221 66.7719 33.2721 66.7193 33.2343C66.5424 33.1072 66.2246 32.8445 66.1434 32.5471C66.0791 32.3115 66.1328 31.9428 66.173 31.7339C66.187 31.6612 66.2644 31.6228 66.3112 31.665C66.4466 31.7872 66.6766 32.0173 66.7678 32.2438Z" fill="#D1BC94"/>
<path d="M67.5915 31.0693C67.6939 31.3237 67.6888 31.7415 67.6761 31.9731C67.6721 32.0476 67.5956 32.0976 67.543 32.0598C67.3661 31.9327 67.0483 31.67 66.9671 31.3726C66.9028 31.137 66.9565 30.7683 66.9967 30.5594C67.0107 30.4868 67.0881 30.4483 67.1349 30.4905C67.2703 30.6127 67.5004 30.8428 67.5915 31.0693Z" fill="#D1BC94"/>
<path fill-rule="evenodd" clip-rule="evenodd" d="M69.5934 29.339C69.522 29.1039 69.4091 28.8458 69.239 28.7203C69.0689 28.5949 68.7943 28.5673 68.5542 28.5726C68.2498 28.5794 67.9563 28.7881 67.7545 29.0759L65.0594 32.9187L66.4962 34.3921L69.3826 30.2765C69.5845 29.9887 69.684 29.637 69.5934 29.339ZM68.5329 29.727C68.6353 29.9814 68.6302 30.3992 68.6175 30.6308C68.6135 30.7053 68.537 30.7553 68.4844 30.7175C68.3075 30.5905 67.9897 30.3277 67.9085 30.0303C67.8442 29.7947 67.8979 29.426 67.9381 29.2172C67.9521 29.1445 68.0295 29.106 68.0763 29.1482C68.2117 29.2704 68.4418 29.5005 68.5329 29.727ZM66.7678 32.2438C66.8702 32.4982 66.8651 32.916 66.8524 33.1475C66.8483 33.2221 66.7719 33.2721 66.7193 33.2343C66.5424 33.1072 66.2246 32.8445 66.1434 32.5471C66.0791 32.3115 66.1328 31.9428 66.173 31.7339C66.187 31.6612 66.2644 31.6228 66.3112 31.665C66.4466 31.7872 66.6766 32.0173 66.7678 32.2438ZM67.5915 31.0693C67.6939 31.3237 67.6888 31.7415 67.6761 31.9731C67.6721 32.0476 67.5956 32.0976 67.543 32.0598C67.3661 31.9327 67.0483 31.67 66.9671 31.3726C66.9028 31.137 66.9565 30.7683 66.9967 30.5594C67.0107 30.4868 67.0881 30.4483 67.1349 30.4905C67.2703 30.6127 67.5004 30.8428 67.5915 31.0693Z" fill="#C3A977"/>
<path d="M66.4804 33.08C66.4804 31.9386 67.3828 31.0134 68.496 31.0134C69.6091 31.0134 70.5115 31.9386 70.5115 33.08C70.5115 34.2214 69.6091 35.1467 68.496 35.1467C67.3828 35.1467 66.4804 34.2214 66.4804 33.08Z" fill="#FF881A"/>
<path fill-rule="evenodd" clip-rule="evenodd" d="M68.3127 31.577C67.735 31.577 67.2461 31.9687 67.0857 32.5077C67.0562 32.607 66.9538 32.6629 66.857 32.6326C66.7602 32.6023 66.7057 32.4973 66.7352 32.3981C66.9413 31.7054 67.5694 31.2012 68.3127 31.2012C68.4139 31.2012 68.496 31.2854 68.496 31.3891C68.496 31.4929 68.4139 31.577 68.3127 31.577Z" fill="#FF9738"/>
<path fill-rule="evenodd" clip-rule="evenodd" d="M73.8665 31.4533C73.9737 31.3449 74.1333 31.3261 74.2761 31.4106C74.4112 31.4906 74.5833 31.4441 74.6606 31.3068C74.738 31.1695 74.6911 30.9934 74.5561 30.9134C74.1958 30.7001 73.7329 30.7427 73.4342 31.0795L73.4193 31.0964L72.7832 32.0962C72.6987 32.229 72.7361 32.4074 72.8668 32.4946C72.9975 32.5819 73.172 32.545 73.2565 32.4122L73.8665 31.4533Z" fill="#5A3D1B"/>
<path fill-rule="evenodd" clip-rule="evenodd" d="M73.6292 31.2022C73.8162 30.9939 74.1049 30.963 74.3408 31.1026C74.3633 31.116 74.392 31.1082 74.4049 31.0853C74.4178 31.0624 74.41 31.0331 74.3875 31.0198C74.1153 30.8586 73.7757 30.8935 73.5569 31.1403L73.5544 31.1431L72.9284 32.127C72.9144 32.1492 72.9206 32.1789 72.9424 32.1934C72.9642 32.208 72.9932 32.2018 73.0073 32.1797L73.6292 31.2022Z" fill="#825827"/>
<path d="M70.8541 31.2964C71.3033 30.5917 72.2119 30.5149 72.7866 31.0459L73.4179 31.629L74.1375 31.8685C74.9072 32.1247 75.2895 33.0321 74.8668 33.799C74.7514 34.0083 74.6297 34.2097 74.5083 34.3789C74.2391 34.754 73.8046 35.2126 73.4361 35.5787C73.0508 35.9613 72.4763 35.9836 72.0851 35.6525L71.4534 35.1178L70.6397 34.8065C70.1855 34.6328 69.9171 34.1474 70.0189 33.6333C70.1243 33.1008 70.2804 32.4398 70.474 31.9906C70.5696 31.769 70.7059 31.5289 70.8541 31.2964Z" fill="#F73636"/>
<path fill-rule="evenodd" clip-rule="evenodd" d="M70.9518 31.4882C71.3808 30.8356 72.2963 30.7306 72.9975 31.422C73.0724 31.4958 73.075 31.6173 73.0032 31.6932C72.9314 31.7691 72.8125 31.7708 72.7376 31.6969C72.1807 31.148 71.5453 31.2759 71.2642 31.7036C71.2066 31.7913 71.0899 31.8141 71.0037 31.7546C70.9174 31.6951 70.8941 31.5759 70.9518 31.4882Z" fill="#F96767"/>
<path d="M65.533 34.9823C64.0483 33.7994 63.9919 31.8895 64.0943 30.8394C64.1208 30.5684 64.4601 30.5135 64.6023 30.7471C65.1273 31.609 66.0856 33.0799 66.8524 33.6837C67.4712 34.171 68.8048 34.9494 69.5564 35.3765C69.7764 35.5015 69.7483 35.8013 69.5002 35.8549C68.6454 36.0397 67.0157 36.1635 65.533 34.9823Z" fill="#F1DA0A"/>
<path fill-rule="evenodd" clip-rule="evenodd" d="M64.4761 30.9107C64.5314 30.917 64.5713 30.968 64.5651 31.0248L64.5651 31.0252L64.5649 31.027L64.5641 31.0346C64.5635 31.0413 64.5625 31.0515 64.5613 31.0648C64.559 31.0914 64.5558 31.1306 64.5525 31.1802C64.5459 31.2796 64.5391 31.4207 64.5379 31.5869C64.5356 31.9203 64.5564 32.3504 64.6467 32.7465C64.7025 32.9913 64.8276 33.2658 64.9419 33.4831C64.9985 33.5908 65.0516 33.6828 65.0905 33.7477C65.11 33.7801 65.1258 33.8058 65.1367 33.8232C65.1422 33.8319 65.1464 33.8386 65.1492 33.843L65.1524 33.8479L65.1532 33.8491L65.0695 33.9067M65.0695 33.9067L64.9856 33.964L64.9853 33.9634L64.9843 33.9619L64.9806 33.9562C64.9775 33.9513 64.973 33.9442 64.9672 33.9349C64.9556 33.9164 64.939 33.8896 64.9188 33.8558C64.8784 33.7884 64.8233 33.693 64.7645 33.5812C64.6477 33.3593 64.5124 33.0655 64.4504 32.7935C64.355 32.3749 64.3341 31.9266 64.3364 31.5854C64.3376 31.4143 64.3446 31.269 64.3514 31.1663C64.3548 31.1149 64.3581 31.0741 64.3606 31.0461C64.3618 31.032 64.3629 31.0211 64.3636 31.0137L64.3645 31.0052L64.3647 31.0029L64.3648 31.0022C64.3709 30.9455 64.4208 30.9044 64.4761 30.9107" fill="#F6E43E"/>
<path d="M62.8525 32.6667H76.9611L75.9129 39.4734C75.8201 40.0761 75.3135 40.52 74.7184 40.52H65.0952C64.5001 40.52 63.9935 40.0761 63.9007 39.4734L62.8525 32.6667Z" fill="#F8B155"/>
<mask id="mask2_600_1163" style="mask-type:alpha" maskUnits="userSpaceOnUse" x="62" y="31" width="15" height="10">
<path d="M62.8525 32.6666H76.9611L75.9129 39.4734C75.8201 40.0761 75.3135 40.52 74.7184 40.52H65.0952C64.5001 40.52 63.9935 40.0761 63.9007 39.4734L62.8525 32.6666Z" fill="#F8B155"/>
</mask>
<g mask="url(#mask2_600_1163)">
<path fill-rule="evenodd" clip-rule="evenodd" d="M66.8837 29.36V32.536C67.7531 32.594 68.6762 32.6427 69.5038 32.66V30.187L70.1085 30.1867L70.7131 30.1867V32.6596C71.5407 32.6424 72.4638 32.594 73.3333 32.536V29.5667H74.5426V32.4477C75.0544 32.4073 75.5124 32.3676 75.8747 32.3347C76.2427 32.3014 76.5833 32.1152 76.8207 31.8177L78.4885 29.7275L79.4244 30.5127L77.7567 32.6029C77.3166 33.1543 76.679 33.5066 75.9813 33.5699C75.5969 33.6048 75.1003 33.6478 74.5426 33.6913V34.8125C75.1087 34.79 75.5877 34.7687 75.9074 34.754C76.101 34.7451 76.2899 34.6943 76.4657 34.6042L77.4331 34.1082L77.9739 35.2173L77.0065 35.7133C76.6817 35.8798 76.3274 35.9759 75.9618 35.9927C75.6336 36.0079 75.1341 36.03 74.5426 36.0534V37.2477C75.0624 37.236 75.48 37.2255 75.7189 37.2193C75.8206 37.2167 75.9209 37.2026 76.0211 37.1769L77.1996 36.8748L77.4929 38.0778L76.3144 38.3799C76.1297 38.4272 75.9413 38.4539 75.7494 38.4589C75.5068 38.4652 75.0775 38.476 74.5426 38.488V39.6933H75.5001L77.2566 39.3932L77.4555 40.6163L75.6004 40.9333H75.5503H74.5426V41.3467H73.3333V40.9333H70.7131V41.5365H69.5038V40.9333H66.8837V41.3467H65.6744V40.9333H64.6669H64.6166L62.7615 40.6163L62.9603 39.3932L64.7166 39.6933H65.6744V38.488C65.1395 38.476 64.7101 38.4652 64.4675 38.4589C64.2756 38.4539 64.0872 38.4272 63.9025 38.3799L62.724 38.0778L63.0173 36.8748L64.1958 37.1769C64.296 37.2026 64.3963 37.2167 64.498 37.2193C64.7369 37.2255 65.1545 37.236 65.6744 37.2477V36.0534C65.0828 36.03 64.5833 36.0079 64.2552 35.9927C63.8895 35.9759 63.5352 35.8798 63.2104 35.7133L62.243 35.2173L62.7838 34.1082L63.7512 34.6042C63.9271 34.6943 64.116 34.7451 64.3095 34.754C64.6292 34.7687 65.1082 34.79 65.6744 34.8125V33.6913C65.1166 33.6478 64.62 33.6048 64.2357 33.5699C63.5379 33.5066 62.9003 33.1543 62.4602 32.6029L60.7925 30.5127L61.7284 29.7275L63.3962 31.8177C63.6336 32.1152 63.9742 32.3014 64.3422 32.3347C64.7045 32.3676 65.1625 32.4073 65.6744 32.4477V29.36H66.8837ZM66.8837 33.7786V34.857C67.7432 34.8859 68.6723 34.9109 69.5038 34.9197L69.5038 33.9002C68.6729 33.8834 67.7521 33.8357 66.8837 33.7786ZM70.7131 33.9002L70.7131 34.9197C71.5446 34.9109 72.4737 34.8859 73.3333 34.857V33.7786C72.4648 33.8357 71.544 33.8834 70.7131 33.9002ZM73.3333 36.0976C72.4736 36.1263 71.546 36.151 70.7131 36.1598V37.3087C71.5491 37.3035 72.4861 37.2891 73.3333 37.2729V36.0976ZM73.3333 38.5131C72.4857 38.5292 71.5497 38.5436 70.7131 38.5487V39.6933H73.3333V38.5131ZM69.5038 39.6933V38.5487C68.6672 38.5436 67.7312 38.5292 66.8837 38.5131V39.6933H69.5038ZM66.8837 37.2729C67.7309 37.2891 68.6678 37.3035 69.5038 37.3087V36.1598C68.6709 36.151 67.7433 36.1263 66.8837 36.0976V37.2729ZM70.1085 30.1867L70.7131 30.1867V29.5667H69.5038V30.187L70.1085 30.1867Z" fill="#E3942D"/>
</g>
<path fill-rule="evenodd" clip-rule="evenodd" d="M64.4649 32.6677C64.4649 32.6672 64.4649 32.6667 63.6587 32.6667C62.8525 32.6667 62.8525 32.6661 62.8525 32.6656L62.8525 32.6644L62.8526 32.6616L62.8526 32.6546L62.8529 32.6352C62.8532 32.6199 62.8538 32.5999 62.8548 32.5754C62.8569 32.5265 62.8608 32.4597 62.8682 32.3776C62.8829 32.2137 62.9117 31.9868 62.9682 31.7177C63.0807 31.1819 63.3064 30.4624 63.7625 29.7382C64.7065 28.2395 66.5368 26.88 69.9068 26.88C73.2768 26.88 75.1071 28.2395 76.0511 29.7382C76.5072 30.4624 76.7329 31.1819 76.8454 31.7177C76.9019 31.9868 76.9307 32.2137 76.9455 32.3776C76.9528 32.4597 76.9567 32.5265 76.9588 32.5754C76.9598 32.5999 76.9604 32.6199 76.9607 32.6352L76.961 32.6546L76.9611 32.6616L76.9611 32.6644L76.9611 32.6656C76.9611 32.6661 76.9611 32.6667 76.1549 32.6667C75.3487 32.6667 75.3487 32.6672 75.3487 32.6677L75.3487 32.6685L75.3487 32.67L75.3487 32.6715C75.3487 32.6718 75.3487 32.6717 75.3487 32.6715C75.3487 32.6713 75.3487 32.671 75.3487 32.67C75.3486 32.6665 75.3484 32.6584 75.3479 32.6465C75.3469 32.6228 75.3447 32.583 75.3399 32.5295C75.3302 32.4222 75.3102 32.2616 75.2691 32.0656C75.1863 31.6714 75.0215 31.1509 74.6966 30.6352C74.0786 29.6539 72.7849 28.5333 69.9068 28.5333C67.0288 28.5333 65.7351 29.6539 65.117 30.6352C64.7921 31.1509 64.6273 31.6714 64.5445 32.0656C64.5034 32.2616 64.4834 32.4222 64.4737 32.5295C64.4689 32.583 64.4667 32.6228 64.4657 32.6465C64.4652 32.6584 64.465 32.6662 64.465 32.6697C64.4649 32.6714 64.4649 32.672 64.4649 32.6715L64.465 32.6697L64.4649 32.6685L64.4649 32.6677Z" fill="#F8B155"/>
<path d="M68.4125 36.5077L64.809 32.8128C64.682 32.6826 64.772 32.46 64.9515 32.46H72.4435C72.623 32.46 72.713 32.6826 72.586 32.8128L68.9825 36.5077C68.8251 36.6691 68.5699 36.6691 68.4125 36.5077Z" fill="#FC5353"/>
<mask id="mask3_600_1163" style="mask-type:alpha" maskUnits="userSpaceOnUse" x="65" y="32" width="8" height="5">
<path d="M68.4124 36.5077L65.1531 33.1656C64.8991 32.9052 65.079 32.46 65.4381 32.46H71.9569C72.316 32.46 72.4958 32.9052 72.2419 33.1656L68.9825 36.5077C68.8251 36.6691 68.5699 36.6691 68.4124 36.5077Z" fill="#F33838"/>
</mask>
<g mask="url(#mask3_600_1163)">
<path d="M69.3612 35.2928L68.8401 35.8271C68.7613 35.9079 68.6337 35.9079 68.555 35.8271L68.0339 35.2928C67.9551 35.212 67.9551 35.0812 68.0339 35.0005L68.555 34.4661C68.6337 34.3854 68.7613 34.3854 68.8401 34.4661L69.3612 35.0005C69.4399 35.0812 69.4399 35.212 69.3612 35.2928Z" fill="white" fill-opacity="0.2"/>
<path d="M68.1519 34.0528L67.6308 34.5871C67.552 34.6679 67.4244 34.6679 67.3457 34.5871L66.8246 34.0528C66.7458 33.972 66.7458 33.8412 66.8246 33.7605L67.3457 33.2261C67.4244 33.1454 67.552 33.1454 67.6308 33.2261L68.1519 33.7605C68.2306 33.8412 68.2306 33.972 68.1519 34.0528Z" fill="white" fill-opacity="0.2"/>
<path d="M70.5705 34.0528L70.0494 34.5871C69.9706 34.6679 69.843 34.6679 69.7643 34.5871L69.2432 34.0528C69.1644 33.972 69.1644 33.8412 69.2432 33.7605L69.7643 33.2261C69.843 33.1454 69.9706 33.1454 70.0494 33.2261L70.5705 33.7605C70.6492 33.8412 70.6492 33.972 70.5705 34.0528Z" fill="white" fill-opacity="0.2"/>
<path d="M69.3612 32.8128L68.8401 33.3471C68.7613 33.4279 68.6337 33.4279 68.555 33.3471L68.0339 32.8128C67.9551 32.732 67.9551 32.6012 68.0339 32.5205L68.555 31.9861C68.6337 31.9054 68.7613 31.9054 68.8401 31.9861L69.3612 32.5205C69.4399 32.6012 69.4399 32.732 69.3612 32.8128Z" fill="white" fill-opacity="0.2"/>
<path d="M67.0002 32.8128L66.479 33.3472C66.4003 33.4279 66.2727 33.4279 66.194 33.3472L65.6728 32.8128C65.5941 32.732 65.5941 32.6012 65.6728 32.5205L66.194 31.9861C66.2727 31.9054 66.4003 31.9054 66.479 31.9861L67.0002 32.5205C67.0789 32.6012 67.0789 32.732 67.0002 32.8128Z" fill="white" fill-opacity="0.2"/>
<path d="M71.7798 32.8127L71.2587 33.3471C71.18 33.4278 71.0524 33.4278 70.9736 33.3471L70.4525 32.8127C70.3738 32.732 70.3738 32.6012 70.4525 32.5205L70.9736 31.9861C71.0524 31.9054 71.18 31.9054 71.2587 31.9861L71.7798 32.5205C71.8586 32.6012 71.8586 32.732 71.7798 32.8127Z" fill="white" fill-opacity="0.2"/>
</g>
<path d="M81.7984 28.7653C81.7984 26.783 83.3144 25.1489 85.2452 25.0499L89.8604 24.8133L93.6896 25.0314C95.6121 25.1409 97.1163 26.7714 97.1163 28.7457V37.5713C97.1163 39.0224 96.0687 40.2486 94.6607 40.3947C93.1008 40.5567 91.0777 40.7266 89.4573 40.7266C87.837 40.7266 85.8139 40.5567 84.254 40.3947C82.846 40.2486 81.7984 39.0224 81.7984 37.5713V28.7653Z" fill="#3CADC6"/>
<path d="M81.4161 39.0257C81.9511 38.3626 82.6649 37.5393 83.3063 37.0026C83.5249 36.8196 83.7333 36.3866 83.7333 36.3866L85.1999 37.9741C85.5723 38.3772 85.6379 38.985 85.3606 39.4619L84.8584 40.3257C84.6743 40.6422 84.363 40.86 84.0051 40.8929C83.4825 40.9409 82.7029 40.9736 82.1418 40.8253C82.0299 40.7957 81.9098 40.7544 81.7877 40.7065C81.1194 40.4439 80.9599 39.5912 81.4161 39.0257Z" fill="#3CADC6"/>
<path d="M96.0077 40.9333H83.3101C83.2544 40.9333 83.2093 40.887 83.2093 40.8299V39.3833C83.2093 39.3262 83.2544 39.2799 83.3101 39.2799H96.0077C96.0634 39.2799 96.1085 39.3262 96.1085 39.3833V40.8299C96.1085 40.887 96.0634 40.9333 96.0077 40.9333Z" fill="#3CADC6"/>
<path d="M97.4986 39.0257C96.9636 38.3626 96.2498 37.5393 95.6084 37.0026C95.3898 36.8196 95.1814 36.3866 95.1814 36.3866L93.7148 37.9741C93.3424 38.3772 93.2768 38.985 93.5541 39.4619L94.0563 40.3257C94.2404 40.6422 94.5517 40.86 94.9096 40.8929C95.4322 40.9409 96.2118 40.9736 96.7729 40.8253C96.8848 40.7957 97.0049 40.7544 97.127 40.7065C97.7952 40.4439 97.9548 39.5912 97.4986 39.0257Z" fill="#3CADC6"/>
<path d="M88.2872 33.4933H85.8101C85.5454 33.4933 85.3492 33.7527 85.456 34.0192C85.6527 34.5104 86.0944 35.1684 87.0487 35.1684C88.0029 35.1684 88.4446 34.5104 88.6413 34.0192C88.7481 33.7527 88.552 33.4933 88.2872 33.4933Z" fill="#44C2DE"/>
<path d="M93.5077 33.4933H91.0306C90.7658 33.4933 90.5697 33.7527 90.6765 34.0192C90.8732 34.5104 91.3148 35.1684 92.2691 35.1684C93.2234 35.1684 93.6651 34.5104 93.8618 34.0192C93.9686 33.7527 93.7724 33.4933 93.5077 33.4933Z" fill="#44C2DE"/>
<path d="M90.8975 36.3649H88.4203C88.1556 36.3649 87.9595 36.6243 88.0662 36.8908C88.263 37.382 88.7046 38.0399 89.6589 38.0399C90.6132 38.0399 91.0548 37.382 91.2516 36.8908C91.3583 36.6243 91.1622 36.3649 90.8975 36.3649Z" fill="#44C2DE"/>
<path d="M92.7311 42.0107C92.2588 41.5265 92.2588 40.7413 92.7311 40.2571L94.4413 38.5035C94.9135 38.0192 95.6792 38.0192 96.1515 38.5035C96.6238 38.9877 96.6238 39.7728 96.1515 40.2571L94.4413 42.0107C93.969 42.495 93.2033 42.495 92.7311 42.0107Z" fill="#E69435"/>
<path d="M83.0567 38.5034C83.5289 38.0192 84.2946 38.0192 84.7669 38.5034L86.4771 40.2571C86.9494 40.7413 86.9494 41.5264 86.4771 42.0107C86.0048 42.4949 85.2391 42.4949 84.7669 42.0107L83.0567 40.2571C82.5844 39.7728 82.5844 38.9877 83.0567 38.5034Z" fill="#E69435"/>
<path d="M81.3953 21.9199C81.3953 25.982 78.6734 30.4475 88.6511 30.5999H90.2636C100.241 30.4475 97.5194 25.982 97.5194 21.9199C97.5194 20.7577 97.2369 19.5905 96.7132 18.6133C96.1894 17.6361 94.1174 14.4799 89.4573 14.4799C84.7973 14.4799 82.7253 17.6361 82.2015 18.6133C81.6778 19.5905 81.3953 20.7577 81.3953 21.9199Z" fill="#3CADC6"/>
<path d="M82.6046 23.5733V21.5066C82.6046 19.6804 84.0484 18.1999 85.8294 18.1999H87.2515C87.8623 18.1999 88.3334 18.6891 88.8756 18.9771C88.9343 19.0083 88.9943 19.0266 89.0542 19.0266H89.8605C89.9153 19.0266 89.9694 19.0128 90.0221 18.9887C90.5911 18.7288 91.0637 18.1999 91.6866 18.1999H93.0853C94.8663 18.1999 96.3101 19.6804 96.3101 21.5066V23.5733C96.3101 25.3995 94.8663 26.8799 93.0853 26.8799H92.2891C91.2948 26.8799 90.3858 26.3039 89.9411 25.3919C89.8917 25.2906 89.7907 25.2266 89.6802 25.2266H89.2345C89.124 25.2266 89.023 25.2906 88.9736 25.3919C88.5289 26.3039 87.6199 26.8799 86.6256 26.8799H85.8294C84.0484 26.8799 82.6046 25.3995 82.6046 23.5733Z" fill="#44C2DE"/>
<path d="M83.8139 21.5066C83.8139 20.1369 84.8968 19.0266 86.2325 19.0266C87.5683 19.0266 88.6511 20.1369 88.6511 21.5066V23.1599C88.6511 24.5296 87.5683 25.6399 86.2325 25.6399C84.8968 25.6399 83.8139 24.5296 83.8139 23.1599V21.5066Z" fill="white"/>
<path d="M85.0232 21.9199C85.0232 21.0068 85.7451 20.2666 86.6356 20.2666C87.5261 20.2666 88.248 21.0068 88.248 21.9199V23.1599C88.248 24.0731 87.5261 24.8133 86.6356 24.8133C85.7451 24.8133 85.0232 24.0731 85.0232 23.1599V21.9199Z" fill="#4B4B4B"/>
<path d="M86.6356 21.0933C86.6356 21.5498 86.2747 21.9199 85.8294 21.9199C85.3842 21.9199 85.0232 21.5498 85.0232 21.0933C85.0232 20.6367 85.3842 20.2666 85.8294 20.2666C86.2747 20.2666 86.6356 20.6367 86.6356 21.0933Z" fill="white"/>
<path d="M90.2636 21.5066C90.2636 20.1369 91.3464 19.0266 92.6822 19.0266C94.0179 19.0266 95.1008 20.1369 95.1008 21.5066V23.1599C95.1008 24.5296 94.0179 25.6399 92.6822 25.6399C91.3464 25.6399 90.2636 24.5296 90.2636 23.1599V21.5066Z" fill="white"/>
<path d="M90.6667 21.9199C90.6667 21.0068 91.3885 20.2666 92.2791 20.2666C93.1696 20.2666 93.8915 21.0068 93.8915 21.9199V23.1599C93.8915 24.0731 93.1696 24.8133 92.2791 24.8133C91.3885 24.8133 90.6667 24.0731 90.6667 23.1599V21.9199Z" fill="#4B4B4B"/>
<path d="M92.2791 21.0933C92.2791 21.5498 91.9181 21.9199 91.4729 21.9199C91.0276 21.9199 90.6667 21.5498 90.6667 21.0933C90.6667 20.6367 91.0276 20.2666 91.4729 20.2666C91.9181 20.2666 92.2791 20.6367 92.2791 21.0933Z" fill="white"/>
<path d="M89.5295 26.4666C88.2303 26.4666 88.0463 25.2266 88.0463 25.2266H91.0127C91.0127 25.2266 90.8287 26.4666 89.5295 26.4666Z" fill="#E69435"/>
<path d="M89.5295 23.9866C90.5637 23.9866 90.9163 24.6548 91.092 25.1059C91.1759 25.3214 91.0116 25.5302 90.7768 25.5557L90.3833 25.5983C89.7612 25.6658 89.1979 25.6658 88.5759 25.5983L88.1824 25.5557C87.9475 25.5302 87.7833 25.3214 87.8672 25.1059C88.0429 24.6548 88.4953 23.9866 89.5295 23.9866Z" fill="#F5C443"/>
<path d="M90.0308 24.7643H89.4519C89.1931 24.7643 89.0065 24.5206 89.2061 24.3601C89.3228 24.2663 89.4933 24.1933 89.7414 24.1933C89.9895 24.1933 90.1599 24.2663 90.2766 24.3601C90.4762 24.5206 90.2896 24.7643 90.0308 24.7643Z" fill="#F9DD4A"/>
<path d="M94.6565 14.1059C93.4781 14.2091 90.3057 14.4799 89.4573 14.4799L89.4574 16.5466C89.4574 16.5466 91.3946 16.3796 92.6822 16.1333C93.461 15.9843 94.3739 14.976 94.8228 14.4248C94.934 14.2882 94.8294 14.0908 94.6565 14.1059Z" fill="#3CADC6"/>
</g>
</g>
</svg>
