<svg width="76" height="78" viewBox="0 0 76 78" fill="none" xmlns="http://www.w3.org/2000/svg">
<rect x="37" y="72" width="12" height="6" rx="3" fill="#E69435"/>
<rect x="23" y="72" width="12" height="6" rx="3" fill="#E69435"/>
<path d="M17.9758 40.7334C18.2818 36.5113 21.4888 33.073 25.6795 32.4744L34.543 31.2081C35.5091 31.0701 36.4903 31.0743 37.4552 31.2205L45.3914 32.4229C49.5486 33.0528 52.7157 36.4772 53.0196 40.6709L54.3751 59.3766C54.7339 64.3284 51.4063 68.8085 46.4967 69.547C43.0944 70.0587 39.2255 70.5 36 70.5C32.6391 70.5 28.388 70.0209 24.6702 69.4822C19.6922 68.7609 16.2723 64.2429 16.6358 59.226L17.9758 40.7334Z" fill="#3CADC6"/>
<path d="M32.0972 52H25.9521C25.2953 52 24.8087 52.6276 25.0736 53.2724C25.5616 54.4608 26.6573 56.0526 29.0246 56.0526C31.392 56.0526 32.4876 54.4608 32.9757 53.2724C33.2405 52.6276 32.7539 52 32.0972 52Z" fill="#44C2DE"/>
<path d="M45.0479 52H38.9028C38.2461 52 37.7595 52.6276 38.0243 53.2724C38.5124 54.4608 39.608 56.0526 41.9754 56.0526C44.3427 56.0526 45.4384 54.4608 45.9264 53.2724C46.1913 52.6276 45.7047 52 45.0479 52Z" fill="#44C2DE"/>
<path d="M38.5726 58.9474H32.4274C31.7707 58.9474 31.2841 59.575 31.549 60.2198C32.037 61.4082 33.1326 63 35.5 63C37.8674 63 38.963 61.4082 39.451 60.2198C39.7159 59.575 39.2293 58.9474 38.5726 58.9474Z" fill="#44C2DE"/>
<path d="M15.0001 19C15.0001 28.8275 8.24763 39.6312 33.0001 40H37.0001C61.7526 39.6312 55.0001 28.8275 55.0001 19C55.0001 16.188 54.2994 13.3642 53.0001 11C51.7009 8.63576 46.5606 1 35.0001 1C23.4396 1 18.2994 8.63576 17.0001 11C15.7009 13.3642 15.0001 16.188 15.0001 19Z" fill="#3CADC6"/>
<path d="M18 23V18C18 13.5817 21.5817 10 26 10H29.5279C31.043 10 32.2116 11.1833 33.5569 11.8803C33.7024 11.9557 33.8512 12 34 12H36C36.136 12 36.2703 11.9666 36.401 11.9083C37.8125 11.2794 38.985 10 40.5303 10H44C48.4183 10 52 13.5817 52 18V23C52 27.4183 48.4183 31 44 31H42.0249C39.5582 31 37.3032 29.6063 36.2 27.4C36.0774 27.1549 35.8269 27 35.5528 27H35H34.4472C34.1731 27 33.9226 27.1549 33.8 27.4C32.6968 29.6063 30.4418 31 27.9751 31H26C21.5817 31 18 27.4183 18 23Z" fill="#44C2DE"/>
<rect x="21" y="12" width="12" height="16.3828" rx="6" fill="white"/>
<rect x="24" y="15" width="8" height="12" rx="4" fill="#4B4B4B"/>
<path d="M28 18C28 19.1046 27.1046 20 26 20C24.8954 20 24 19.1046 24 18C24 16.8954 24.8954 16 26 16C27.1046 16 28 16.8954 28 18Z" fill="white"/>
<rect x="37" y="12" width="12" height="16" rx="6" fill="white"/>
<rect x="38" y="15" width="8" height="12" rx="4" fill="#4B4B4B"/>
<path d="M42 18C42 19.1046 41.1046 20 40 20C38.8954 20 38 19.1046 38 18C38 16.8954 38.8954 16 40 16C41.1046 16 42 16.8954 42 18Z" fill="white"/>
<path d="M37.75 30.4235V32.9692C37.7395 33.074 37.6695 33.6247 37.3304 34.1533C36.9929 34.6795 36.3528 35.25 35 35.25C33.6472 35.25 33.0071 34.6795 32.6696 34.1533C32.3305 33.6247 32.2605 33.074 32.25 32.9692V30.4235C32.3606 30.4447 32.4781 30.4666 32.6008 30.4884C33.311 30.6148 34.2401 30.75 35 30.75C35.7599 30.75 36.689 30.6148 37.3992 30.4884C37.5219 30.4666 37.6394 30.4447 37.75 30.4235ZM37.7515 32.9521L37.7515 32.9521L37.7515 32.9521Z" fill="#B66E28" stroke="#E69435" stroke-width="1.5"/>
<path d="M35.1238 27C37.6894 27 38.5641 28.6165 39 29.708C39.2081 30.2293 38.8007 30.7346 38.218 30.7962L37.2419 30.8993C35.6987 31.0624 34.3013 31.0624 32.7581 30.8993L31.782 30.7962C31.1993 30.7346 30.7918 30.2293 31 29.708C31.4358 28.6165 32.5582 27 35.1238 27Z" fill="#F5C443"/>
<path d="M36.3674 28.8816H34.9313C34.2893 28.8816 33.8263 28.292 34.3216 27.9036C34.611 27.6766 35.0339 27.5 35.6494 27.5C36.2648 27.5 36.6878 27.6766 36.9772 27.9036C37.4725 28.292 37.0094 28.8816 36.3674 28.8816Z" fill="#F9DD4A"/>
<path d="M47.8978 0.0951061C44.9747 0.344818 37.1045 0.999999 35.0001 1L35 6C35 6 39.806 5.59592 43 5C44.9321 4.63953 47.1968 2.20007 48.3104 0.866607C48.5864 0.536101 48.3268 0.0584556 47.8978 0.0951061Z" fill="#3CADC6"/>
<path d="M60 4C60 2.89543 60.8954 2 62 2H63C64.1046 2 65 2.89543 65 4V17C65 18.1046 64.1046 19 63 19H62C60.8954 19 60 18.1046 60 17V4Z" fill="#EF2A2A"/>
<path d="M71 4C71 2.89543 71.8954 2 73 2H74C75.1046 2 76 2.89543 76 4V17C76 18.1046 75.1046 19 74 19H73C71.8954 19 71 18.1046 71 17V4Z" fill="#EF2A2A"/>
<path fill-rule="evenodd" clip-rule="evenodd" d="M73.25 3.5C72.8358 3.5 72.5 3.83579 72.5 4.25V7C72.5 7.27614 72.2761 7.5 72 7.5C71.7239 7.5 71.5 7.27614 71.5 7V4.25C71.5 3.2835 72.2835 2.5 73.25 2.5H74C74.2761 2.5 74.5 2.72386 74.5 3C74.5 3.27614 74.2761 3.5 74 3.5H73.25Z" fill="#F36767"/>
<path fill-rule="evenodd" clip-rule="evenodd" d="M62.25 3.5C61.8358 3.5 61.5 3.83579 61.5 4.25V7C61.5 7.27614 61.2761 7.5 61 7.5C60.7239 7.5 60.5 7.27614 60.5 7V4.25C60.5 3.2835 61.2835 2.5 62.25 2.5H63C63.2761 2.5 63.5 2.72386 63.5 3C63.5 3.27614 63.2761 3.5 63 3.5H62.25Z" fill="#F36767"/>
<path d="M60 22C60 20.8954 60.8954 20 62 20H63C64.1046 20 65 20.8954 65 22V23C65 24.1046 64.1046 25 63 25H62C60.8954 25 60 24.1046 60 23V22Z" fill="#EF2A2A"/>
<path d="M71 22C71 20.8954 71.8954 20 73 20H74C75.1046 20 76 20.8954 76 22V23C76 24.1046 75.1046 25 74 25H73C71.8954 25 71 24.1046 71 23V22Z" fill="#EF2A2A"/>
<path fill-rule="evenodd" clip-rule="evenodd" d="M73.25 21.5C72.8358 21.5 72.5 21.8358 72.5 22.25C72.5 22.5261 72.2761 22.75 72 22.75C71.7239 22.75 71.5 22.5261 71.5 22.25C71.5 21.2835 72.2835 20.5 73.25 20.5C73.5261 20.5 73.75 20.7239 73.75 21C73.75 21.2761 73.5261 21.5 73.25 21.5Z" fill="#F36767"/>
<path fill-rule="evenodd" clip-rule="evenodd" d="M62.25 21.5C61.8358 21.5 61.5 21.8358 61.5 22.25C61.5 22.5261 61.2761 22.75 61 22.75C60.7239 22.75 60.5 22.5261 60.5 22.25C60.5 21.2835 61.2835 20.5 62.25 20.5C62.5261 20.5 62.75 20.7239 62.75 21C62.75 21.2761 62.5261 21.5 62.25 21.5Z" fill="#F36767"/>
<path d="M67.8257 34.1536L53.8162 37.6545C53.2284 37.8014 52.607 37.7228 52.0743 37.4343C50.4285 36.5428 48.4364 37.7739 48.4976 39.6446L48.9932 54.7861C49.0521 56.5863 50.671 57.9107 52.4216 57.4867C56.1886 56.5744 62.2145 54.6856 65.3308 51.427C68.4398 48.1761 69.709 45.664 70.817 41.299C71.1397 40.0276 71.3011 38.4172 71.3796 36.9715C71.4834 35.0607 69.6823 33.6896 67.8257 34.1536Z" fill="#3CADC6"/>
<path d="M4.22999 34.0498L18.2183 37.4781C18.8015 37.621 19.417 37.5418 19.945 37.2558C21.5904 36.3647 23.5809 37.6005 23.512 39.4705L22.9592 54.4742C22.8932 56.264 21.2862 57.58 19.5435 57.1668C15.7889 56.2768 9.77024 54.4236 6.66872 51.1953C3.57894 47.9793 2.32216 45.4898 1.23361 41.16C0.916097 39.8971 0.761352 38.2961 0.688804 36.8595C0.592825 34.9589 2.38166 33.5969 4.22999 34.0498Z" fill="#3CADC6"/>
</svg>
