<svg width="72" height="74" viewBox="0 0 72 74" fill="none" xmlns="http://www.w3.org/2000/svg">
<rect x="42" y="68" width="12" height="6" rx="3" fill="#E69435"/>
<rect x="28" y="68" width="12" height="6" rx="3" fill="#E69435"/>
<path d="M22.9758 40.7334C23.2818 36.5113 26.4888 33.073 30.6795 32.4744L39.543 31.2081C40.5091 31.0701 41.4903 31.0743 42.4552 31.2205L50.3914 32.4229C54.5486 33.0528 57.7157 36.4772 58.0196 40.6709L59.3751 59.3766C59.7339 64.3284 56.4063 68.8085 51.4967 69.547C48.0944 70.0587 44.2255 70.5 41 70.5C37.6391 70.5 33.388 70.0209 29.6702 69.4822C24.6922 68.7609 21.2723 64.2429 21.6358 59.226L22.9758 40.7334Z" fill="#3CADC6"/>
<path d="M12.163 31.3057L21.7273 33.1569C22.6465 33.3348 23.5 32.6307 23.5 31.6944C23.5 30.3537 25.1326 29.6954 26.0626 30.6612L34.8836 39.8214C35.8346 40.809 35.9951 42.3157 35.2734 43.4814L30.8034 50.7021C30.2986 51.5176 29.4341 52.0417 28.4779 51.9674C26.1255 51.7846 21.3674 50.9032 16.5 47C12.3452 43.6682 10.105 38.3182 8.98436 34.6178C8.38445 32.6367 10.1308 30.9124 12.163 31.3057Z" fill="#3CADC6"/>
<path d="M37.0972 52H30.9521C30.2953 52 29.8087 52.6276 30.0736 53.2724C30.5616 54.4608 31.6573 56.0526 34.0246 56.0526C36.392 56.0526 37.4876 54.4608 37.9757 53.2724C38.2405 52.6276 37.7539 52 37.0972 52Z" fill="#44C2DE"/>
<path d="M50.0479 52H43.9028C43.2461 52 42.7595 52.6276 43.0243 53.2724C43.5124 54.4608 44.608 56.0526 46.9754 56.0526C49.3427 56.0526 50.4384 54.4608 50.9264 53.2724C51.1913 52.6276 50.7047 52 50.0479 52Z" fill="#44C2DE"/>
<path d="M43.5726 58.9474H37.4274C36.7707 58.9474 36.2841 59.575 36.5489 60.2198C37.037 61.4082 38.1326 63 40.5 63C42.8674 63 43.963 61.4082 44.451 60.2198C44.7159 59.575 44.2293 58.9474 43.5726 58.9474Z" fill="#44C2DE"/>
<path d="M20.0001 19C20.0001 28.8275 13.2476 39.6312 38.0001 40H42.0001C66.7526 39.6312 60.0001 28.8275 60.0001 19C60.0001 16.188 59.2994 13.3642 58.0001 11C56.7009 8.63576 51.5606 1 40.0001 1C28.4396 1 23.2994 8.63576 22.0001 11C20.7009 13.3642 20.0001 16.188 20.0001 19Z" fill="#3CADC6"/>
<path d="M21 24.1905V19.5018C21 15.3587 24.371 12 28.5294 12H31.8498C33.2757 12 34.3757 13.1096 35.6418 13.7632C35.7787 13.8339 35.9188 13.8755 36.0588 13.8755H37.9412C38.0692 13.8755 38.1956 13.8441 38.3186 13.7895C39.6471 13.1997 40.7506 12 42.205 12H45.4706C49.629 12 53 15.3587 53 19.5018V24.1905C53 28.3336 49.629 31.6923 45.4706 31.6923H43.6117C41.2901 31.6923 39.1677 30.3854 38.1294 28.3165C38.014 28.0866 37.7782 27.9414 37.5203 27.9414H37H36.4797C36.2218 27.9414 35.986 28.0866 35.8706 28.3165C34.8323 30.3854 32.7099 31.6923 30.3883 31.6923H28.5294C24.371 31.6923 21 28.3336 21 24.1905Z" fill="#44C2DE"/>
<path d="M23.4614 19.8706C23.4614 16.8833 25.9411 14.4615 28.9999 14.4615V14.4615C32.0587 14.4615 34.5383 16.8833 34.5383 19.8706V23.8217C34.5383 26.8091 32.0587 29.2308 28.9999 29.2308V29.2308C25.9411 29.2308 23.4614 26.8091 23.4614 23.8217V19.8706Z" fill="white"/>
<path d="M26 21.1329C26 19.4026 27.3776 18 29.0769 18V18C30.7763 18 32.1538 19.4026 32.1538 21.1329V24.7133C32.1538 26.4435 30.7763 27.8462 29.0769 27.8462V27.8462C27.3776 27.8462 26 26.4435 26 24.7133V21.1329Z" fill="#4B4B4B"/>
<path d="M28.8461 24C28.8461 25.0196 28.0196 25.8461 27 25.8461C25.9804 25.8461 25.1538 25.0196 25.1538 24C25.1538 22.9804 25.9804 22.1538 27 22.1538C28.0196 22.1538 28.8461 22.9804 28.8461 24Z" fill="white"/>
<path d="M38.2305 20C38.2305 16.9412 40.9856 14.4615 44.3843 14.4615V14.4615C47.783 14.4615 50.5382 16.9412 50.5382 20V23.6923C50.5382 26.7511 47.783 29.2308 44.3843 29.2308V29.2308C40.9856 29.2308 38.2305 26.7511 38.2305 23.6923V20Z" fill="white"/>
<path d="M39.5381 21.1329C39.5381 19.4026 40.9157 18 42.615 18V18C44.3143 18 45.6919 19.4026 45.6919 21.1329V24.7133C45.6919 26.4435 44.3143 27.8462 42.615 27.8462V27.8462C40.9157 27.8462 39.5381 26.4435 39.5381 24.7133V21.1329Z" fill="#4B4B4B"/>
<path d="M42.3842 24C42.3842 25.0196 41.5577 25.8461 40.538 25.8461C39.5184 25.8461 38.6919 25.0196 38.6919 24C38.6919 22.9804 39.5184 22.1538 40.538 22.1538C41.5577 22.1538 42.3842 22.9804 42.3842 24Z" fill="white"/>
<path d="M37.22 35.3846C33.2533 35.3846 32.6914 31.6923 32.6914 31.6923H41.7486C41.7486 31.6923 41.1867 35.3846 37.22 35.3846Z" fill="#E69435"/>
<path d="M37.22 28C40.3776 28 41.4543 29.9896 41.9907 31.333C42.2469 31.9746 41.7454 32.5964 41.0283 32.6722L39.8269 32.7992C37.9276 32.9999 36.2077 32.9999 34.3084 32.7992L33.107 32.6722C32.3899 32.5964 31.8884 31.9746 32.1446 31.333C32.681 29.9896 34.0624 28 37.22 28Z" fill="#F5C443"/>
<path d="M38.7506 30.3158H36.9831C36.193 30.3158 35.623 29.5902 36.2327 29.1121C36.5888 28.8328 37.1094 28.6154 37.8669 28.6154C38.6244 28.6154 39.1449 28.8328 39.5011 29.1121C40.1107 29.5902 39.5407 30.3158 38.7506 30.3158Z" fill="#F9DD4A"/>
<path d="M52.8978 0.0951061C49.9747 0.344818 42.1045 0.999999 40.0001 1L40 6C40 6 44.806 5.59592 48 5C49.9321 4.63953 52.1968 2.20007 53.3104 0.866607C53.5864 0.536101 53.3268 0.0584556 52.8978 0.0951061Z" fill="#3CADC6"/>
<path d="M23 14H37H51V25H23V14Z" fill="#44C2DE"/>
<path fill-rule="evenodd" clip-rule="evenodd" d="M7 17C7 16.4477 7.44772 16 8 16H12C12.3688 16 12.7077 16.203 12.8817 16.5281C13.0557 16.8533 13.0366 17.2478 12.8321 17.5547L9.86852 22H12C12.5523 22 13 22.4477 13 23C13 23.5523 12.5523 24 12 24H8C7.63121 24 7.29235 23.797 7.11833 23.4719C6.94431 23.1467 6.96338 22.7522 7.16795 22.4453L10.1315 18H8C7.44772 18 7 17.5523 7 17Z" fill="#3064EB"/>
<path fill-rule="evenodd" clip-rule="evenodd" d="M14.5 24C14.5 23.7239 14.7239 23.5 15 23.5H17C17.1844 23.5 17.3538 23.6015 17.4408 23.7641C17.5278 23.9266 17.5183 24.1239 17.416 24.2773L15.9343 26.5H17C17.2761 26.5 17.5 26.7239 17.5 27C17.5 27.2761 17.2761 27.5 17 27.5H15C14.8156 27.5 14.6462 27.3985 14.5592 27.2359C14.4722 27.0734 14.4817 26.8761 14.584 26.7227L16.0657 24.5H15C14.7239 24.5 14.5 24.2761 14.5 24Z" fill="#3064EB"/>
<path fill-rule="evenodd" clip-rule="evenodd" d="M14.65 24C14.65 23.8067 14.8067 23.65 15 23.65H15.75C15.8052 23.65 15.85 23.6948 15.85 23.75C15.85 23.8052 15.8052 23.85 15.75 23.85H15C14.9172 23.85 14.85 23.9172 14.85 24C14.85 24.0552 14.8052 24.1 14.75 24.1C14.6948 24.1 14.65 24.0552 14.65 24Z" fill="#7FA1F7"/>
<path fill-rule="evenodd" clip-rule="evenodd" d="M0.500002 4C0.500002 3.17157 1.17158 2.5 2 2.5H8C8.5532 2.5 9.06149 2.80448 9.32251 3.29221C9.58354 3.77995 9.55493 4.37177 9.24808 4.83205L4.80278 11.5H8C8.82843 11.5 9.5 12.1716 9.5 13C9.5 13.8284 8.82843 14.5 8 14.5H2C1.44681 14.5 0.938519 14.1955 0.67749 13.7078C0.416462 13.2201 0.445071 12.6282 0.751927 12.1679L5.19723 5.5H2C1.17158 5.5 0.500002 4.82843 0.500002 4Z" fill="#3064EB"/>
<path fill-rule="evenodd" clip-rule="evenodd" d="M0.750002 4C0.750002 3.30964 1.30965 2.75 2 2.75H5C5.13807 2.75 5.25 2.86193 5.25 3C5.25 3.13807 5.13807 3.25 5 3.25H2C1.58579 3.25 1.25 3.58579 1.25 4C1.25 4.13807 1.13807 4.25 1 4.25C0.861931 4.25 0.750002 4.13807 0.750002 4Z" fill="#7FA1F7"/>
<path fill-rule="evenodd" clip-rule="evenodd" d="M7.3 17C7.3 16.6134 7.6134 16.3 8 16.3H9.5C9.61046 16.3 9.7 16.3895 9.7 16.5C9.7 16.6105 9.61046 16.7 9.5 16.7H8C7.83432 16.7 7.7 16.8343 7.7 17C7.7 17.1105 7.61046 17.2 7.5 17.2C7.38954 17.2 7.3 17.1105 7.3 17Z" fill="#7FA1F7"/>
</svg>
