<svg width="63" height="74" viewBox="0 0 63 74" fill="none" xmlns="http://www.w3.org/2000/svg">
<path d="M12 40.5612C12 35.7654 15.7607 31.812 20.5506 31.5725L32 31L41.4992 31.5277C46.2685 31.7927 50 35.7373 50 40.5139V61.8662C50 65.3769 47.4012 68.3434 43.9084 68.697C40.0385 69.0888 35.0197 69.5 31 69.5C26.9803 69.5 21.9615 69.0888 18.0916 68.697C14.5988 68.3434 12 65.3769 12 61.8662V40.5612Z" fill="#3CADC6"/>
<path d="M11.0515 65.385C12.3787 63.7805 14.1495 61.7888 15.7407 60.4902C16.283 60.0476 16.8 59 16.8 59L20.4382 62.8408C21.362 63.816 21.5249 65.2864 20.837 66.4402L19.5909 68.5301C19.1344 69.2958 18.3622 69.8227 17.4743 69.9022C16.1779 70.0184 14.2438 70.0974 12.8519 69.7387C12.5741 69.6671 12.2761 69.5673 11.9735 69.4513C10.3156 68.816 9.91988 66.753 11.0515 65.385Z" fill="#3CADC6"/>
<path d="M47.25 70H15.75C15.6119 70 15.5 69.8881 15.5 69.75V66.25C15.5 66.1119 15.6119 66 15.75 66H47.25C47.3881 66 47.5 66.1119 47.5 66.25V69.75C47.5 69.8881 47.3881 70 47.25 70Z" fill="#3CADC6"/>
<path d="M50.9485 65.385C49.6213 63.7805 47.8505 61.7888 46.2593 60.4902C45.717 60.0476 45.2 59 45.2 59L41.5618 62.8408C40.638 63.816 40.4751 65.2864 41.163 66.4402L42.4091 68.5301C42.8656 69.2958 43.6378 69.8227 44.5257 69.9022C45.8221 70.0184 47.7562 70.0974 49.1481 69.7387C49.4259 69.6671 49.7239 69.5673 50.0265 69.4513C51.6844 68.816 52.0801 66.753 50.9485 65.385Z" fill="#3CADC6"/>
<path d="M28.0972 52H21.9521C21.2953 52 20.8087 52.6276 21.0736 53.2724C21.5616 54.4608 22.6573 56.0526 25.0246 56.0526C27.392 56.0526 28.4876 54.4608 28.9757 53.2724C29.2405 52.6276 28.7539 52 28.0972 52Z" fill="#44C2DE"/>
<path d="M41.0479 52H34.9028C34.2461 52 33.7595 52.6276 34.0243 53.2724C34.5124 54.4608 35.608 56.0526 37.9754 56.0526C40.3427 56.0526 41.4384 54.4608 41.9264 53.2724C42.1913 52.6276 41.7047 52 41.0479 52Z" fill="#44C2DE"/>
<path d="M34.5726 58.9474H28.4274C27.7707 58.9474 27.2841 59.575 27.549 60.2198C28.037 61.4082 29.1326 63 31.5 63C33.8674 63 34.963 61.4082 35.451 60.2198C35.7159 59.575 35.2293 58.9474 34.5726 58.9474Z" fill="#44C2DE"/>
<rect x="37.0002" y="70.4854" width="12" height="6" rx="3" transform="rotate(-45 37.0002 70.4854)" fill="#E69435"/>
<rect x="17.2429" y="62" width="12" height="6" rx="3" transform="rotate(45 17.2429 62)" fill="#E69435"/>
<path d="M11.0001 24C11.0001 33.8275 4.24763 44.6312 29.0001 45H33.0001C57.7526 44.6312 51.0001 33.8275 51.0001 24C51.0001 21.188 50.2994 18.3642 49.0001 16C47.7009 13.6358 42.5606 6 31.0001 6C19.4396 6 14.2994 13.6358 13.0001 16C11.7009 18.3642 11.0001 21.188 11.0001 24Z" fill="#3CADC6"/>
<path d="M14.0002 28V23C14.0002 18.5817 17.582 15 22.0002 15H25.5281C27.0432 15 28.2119 16.1833 29.5571 16.8803C29.7026 16.9557 29.8514 17 30.0002 17H32.0002C32.1363 17 32.2705 16.9666 32.4013 16.9083C33.8128 16.2794 34.9853 15 36.5306 15H40.0002C44.4185 15 48.0002 18.5817 48.0002 23V28C48.0002 32.4183 44.4185 36 40.0002 36H38.0252C35.5584 36 33.3034 34.6063 32.2002 32.4C32.0777 32.1549 31.8271 32 31.553 32H31.0002H30.4475C30.1734 32 29.9228 32.1549 29.8002 32.4C28.6971 34.6063 26.4421 36 23.9753 36H22.0002C17.582 36 14.0002 32.4183 14.0002 28Z" fill="#44C2DE"/>
<rect x="17.0002" y="17" width="12" height="16" rx="6" fill="white"/>
<rect x="19.0002" y="18" width="9" height="13" rx="4.5" fill="#4B4B4B"/>
<path d="M25.0002 21C25.0002 22.6569 23.6571 24 22.0002 24C20.3434 24 19.0002 22.6569 19.0002 21C19.0002 19.3431 20.3434 18 22.0002 18C23.6571 18 25.0002 19.3431 25.0002 21Z" fill="white"/>
<rect x="33.0002" y="17" width="12" height="16" rx="6" fill="white"/>
<rect x="34.0002" y="18" width="9" height="13" rx="4.5" fill="#4B4B4B"/>
<path d="M40.0002 21C40.0002 22.6569 38.6571 24 37.0002 24C35.3434 24 34.0002 22.6569 34.0002 21C34.0002 19.3431 35.3434 18 37.0002 18C38.6571 18 40.0002 19.3431 40.0002 21Z" fill="white"/>
<mask id="mask0_426_601" style="mask-type:alpha" maskUnits="userSpaceOnUse" x="17" y="17" width="29" height="16">
<path d="M17.0002 23C17.0002 19.6863 19.6865 17 23.0002 17C26.314 17 29.0002 19.6863 29.0002 23V27C29.0002 30.3137 26.314 33 23.0002 33C19.6865 33 17.0002 30.3137 17.0002 27V23Z" fill="white"/>
<path d="M33.0002 23C33.0002 19.6863 35.6865 17 39.0002 17C42.314 17 45.0002 19.6863 45.0002 23V27C45.0002 30.3137 42.314 33 39.0002 33C35.6865 33 33.0002 30.3137 33.0002 27V23Z" fill="white"/>
</mask>
<g mask="url(#mask0_426_601)">
<path fill-rule="evenodd" clip-rule="evenodd" d="M23.8661 33C26.7016 33 29.0002 30.7013 29.0002 27.8658C29.0002 27.4126 28.5933 27.0678 28.1462 27.1423L23.2054 27.9658C23.0701 27.9884 22.9316 27.9828 22.7985 27.9496L17.9756 26.7438C17.4802 26.62 17.0002 26.9947 17.0002 27.5053C17.0002 30.54 19.4603 33 22.4949 33H23.8661Z" fill="#42AFFF" fill-opacity="0.75"/>
<path fill-rule="evenodd" clip-rule="evenodd" d="M38.1906 33C35.324 33 33.0002 30.6762 33.0002 27.8096C33.0002 27.3477 33.418 26.9982 33.8727 27.0798L38.7798 27.9606C38.925 27.9866 39.0741 27.9803 39.2165 27.9419L43.9966 26.655C44.5027 26.5187 45.0002 26.9 45.0002 27.4241C45.0002 30.5036 42.5038 33 39.4244 33H39.0002H38.1906Z" fill="#42AFFF" fill-opacity="0.75"/>
</g>
<path d="M28.5002 39L31.0002 37L33.5002 39" stroke="#0098BA" stroke-width="1.5" stroke-linecap="round" stroke-linejoin="round"/>
<path d="M31.1792 35C27.9563 35 27.4998 32 27.4998 32H34.8587C34.8587 32 34.4022 35 31.1792 35Z" fill="#E69435"/>
<path d="M31.1792 29C33.7448 29 34.6195 30.6165 35.0554 31.708C35.2635 32.2293 34.8561 32.7346 34.2734 32.7962L33.2973 32.8993C31.7541 33.0624 30.3567 33.0624 28.8135 32.8993L27.8374 32.7962C27.2547 32.7346 26.8473 32.2293 27.0554 31.708C27.4913 30.6165 28.6136 29 31.1792 29Z" fill="#F5C443"/>
<path d="M32.4229 30.8816H30.9867C30.3448 30.8816 29.8817 30.292 30.377 29.9036C30.6664 29.6766 31.0893 29.5 31.7048 29.5C32.3203 29.5 32.7432 29.6766 33.0326 29.9036C33.5279 30.292 33.0648 30.8816 32.4229 30.8816Z" fill="#F9DD4A"/>
<path d="M43.898 5.09511C40.9749 5.34482 33.1048 6 31.0003 6L31.0002 11C31.0002 11 35.8062 10.5959 39.0002 10C40.9323 9.63953 43.1971 7.20007 44.3106 5.86661C44.5866 5.5361 44.3271 5.05846 43.898 5.09511Z" fill="#3CADC6"/>
</svg>
