<svg width="64" height="74" viewBox="0 0 64 74" fill="none" xmlns="http://www.w3.org/2000/svg">
<rect x="34" y="68" width="12" height="6" rx="3" fill="#E69435"/>
<rect x="20" y="68" width="12" height="6" rx="3" fill="#E69435"/>
<path d="M14.9758 40.7334C15.2818 36.5113 18.4888 33.073 22.6795 32.4744L31.543 31.2081C32.5091 31.0701 33.4903 31.0743 34.4552 31.2205L42.3914 32.4229C46.5486 33.0528 49.7157 36.4772 50.0196 40.6709L51.3751 59.3766C51.7339 64.3284 48.4063 68.8085 43.4967 69.547C40.0944 70.0587 36.2255 70.5 33 70.5C29.6391 70.5 25.388 70.0209 21.6702 69.4822C16.6922 68.7609 13.2723 64.2429 13.6358 59.226L14.9758 40.7334Z" fill="#3CADC6"/>
<path d="M4.16299 37.3057L13.7273 39.1569C14.6465 39.3348 15.5 38.6307 15.5 37.6944C15.5 36.3537 17.1326 35.6954 18.0626 36.6612L26.8836 45.8214C27.8346 46.809 27.9951 48.3157 27.2734 49.4814L22.8034 56.7021C22.2986 57.5176 21.4341 58.0417 20.4779 57.9674C18.1255 57.7846 13.3674 56.9032 8.5 53C4.34521 49.6682 2.10497 44.3182 0.984364 40.6178C0.384447 38.6367 2.13082 36.9124 4.16299 37.3057Z" fill="#3CADC6"/>
<path d="M61.9574 51.5253C59.4197 48.3394 54.9465 43.0123 51.037 39.8449C49.9942 39 49 37 49 37L40.579 45.8252C39.6464 46.8026 39.4821 48.2827 40.1776 49.4409L44.296 56.2982C44.7539 57.0605 45.5236 57.5811 46.4071 57.6819C48.7136 57.9451 53.3964 58.3189 56.5926 57.5012C57.9919 57.1431 59.6576 56.4156 61.0548 55.7307C62.6562 54.9457 63.0686 52.9203 61.9574 51.5253Z" fill="#3CADC6"/>
<path d="M29.0972 52H22.9521C22.2953 52 21.8087 52.6276 22.0736 53.2724C22.5616 54.4608 23.6573 56.0526 26.0246 56.0526C28.392 56.0526 29.4876 54.4608 29.9757 53.2724C30.2405 52.6276 29.7539 52 29.0972 52Z" fill="#44C2DE"/>
<path d="M42.0479 52H35.9028C35.2461 52 34.7595 52.6276 35.0243 53.2724C35.5124 54.4608 36.608 56.0526 38.9754 56.0526C41.3427 56.0526 42.4384 54.4608 42.9264 53.2724C43.1913 52.6276 42.7047 52 42.0479 52Z" fill="#44C2DE"/>
<path d="M35.5726 58.9474H29.4274C28.7707 58.9474 28.2841 59.575 28.549 60.2198C29.037 61.4082 30.1326 63 32.5 63C34.8674 63 35.963 61.4082 36.451 60.2198C36.7159 59.575 36.2293 58.9474 35.5726 58.9474Z" fill="#44C2DE"/>
<path d="M12.0001 19C12.0001 28.8275 5.24763 39.6312 30.0001 40H34.0001C58.7526 39.6312 52.0001 28.8275 52.0001 19C52.0001 16.188 51.2994 13.3642 50.0001 11C48.7009 8.63576 43.5606 1 32.0001 1C20.4396 1 15.2994 8.63576 14.0001 11C12.7009 13.3642 12.0001 16.188 12.0001 19Z" fill="#3CADC6"/>
<path d="M15 23V18C15 13.5817 18.5817 10 23 10H26.5279C28.043 10 29.2116 11.1833 30.5569 11.8803C30.7024 11.9557 30.8512 12 31 12H33C33.136 12 33.2703 11.9666 33.401 11.9083C34.8125 11.2794 35.985 10 37.5303 10H41C45.4183 10 49 13.5817 49 18V23C49 27.4183 45.4183 31 41 31H39.0249C36.5582 31 34.3032 29.6063 33.2 27.4C33.0774 27.1549 32.8269 27 32.5528 27H32H31.4472C31.1731 27 30.9226 27.1549 30.8 27.4C29.6968 29.6063 27.4418 31 24.9751 31H23C18.5817 31 15 27.4183 15 23Z" fill="#44C2DE"/>
<rect x="18" y="12" width="12" height="16.3828" rx="6" fill="white"/>
<rect x="21" y="15" width="7" height="11" rx="3.5" fill="#4B4B4B"/>
<path d="M25 18C25 19.1046 24.1046 20 23 20C21.8954 20 21 19.1046 21 18C21 16.8954 21.8954 16 23 16C24.1046 16 25 16.8954 25 18Z" fill="white"/>
<rect x="34" y="12" width="12" height="16" rx="6" fill="white"/>
<rect x="36" y="15" width="7" height="11" rx="3.5" fill="#4B4B4B"/>
<path d="M40 18C40 19.1046 39.1046 20 38 20C36.8954 20 36 19.1046 36 18C36 16.8954 36.8954 16 38 16C39.1046 16 40 16.8954 40 18Z" fill="white"/>
<path d="M32.1238 33C28.9008 33 28.4443 30 28.4443 30H35.8033C35.8033 30 35.3468 33 32.1238 33Z" fill="#E69435"/>
<path d="M32.1238 27C34.6894 27 35.5641 28.6165 36 29.708C36.2081 30.2293 35.8007 30.7346 35.218 30.7962L34.2419 30.8993C32.6987 31.0624 31.3013 31.0624 29.7581 30.8993L28.782 30.7962C28.1993 30.7346 27.7918 30.2293 28 29.708C28.4358 28.6165 29.5582 27 32.1238 27Z" fill="#F5C443"/>
<path d="M33.3674 28.8816H31.9313C31.2893 28.8816 30.8263 28.292 31.3216 27.9036C31.611 27.6766 32.0339 27.5 32.6494 27.5C33.2648 27.5 33.6878 27.6766 33.9772 27.9036C34.4725 28.292 34.0094 28.8816 33.3674 28.8816Z" fill="#F9DD4A"/>
<path d="M44.8978 0.0951061C41.9747 0.344818 34.1045 0.999999 32.0001 1L32 6C32 6 36.806 5.59592 40 5C41.9321 4.63953 44.1968 2.20007 45.3104 0.866607C45.5864 0.536101 45.3268 0.0584556 44.8978 0.0951061Z" fill="#3CADC6"/>
<path d="M63 43.7162C63 37.4843 56.2843 32.4323 48 32.4323C45.2678 32.4323 42.7063 32.9818 40.5 33.9419C39.5702 34.3465 33.3488 32 33.3488 32C33.3488 32 36.2546 36.6405 35.5862 37.3801C33.9539 39.1864 33 41.3675 33 43.7162C33 49.9481 39.7157 55 48 55C56.2843 55 63 49.9481 63 43.7162Z" fill="white"/>
</svg>
