<svg width="350" height="176" viewBox="0 0 350 176" fill="none" xmlns="http://www.w3.org/2000/svg">
<rect width="350" height="176" fill="white"/>
<g opacity="0.91">
<mask id="path-1-outside-1_1004_983" maskUnits="userSpaceOnUse" x="53" y="70" width="187" height="58" fill="black">
<rect fill="white" x="53" y="70" width="187" height="58"/>
<path d="M61.1436 117.396C61.1436 117.721 61.319 118.06 61.6699 118.411C62.0208 118.736 62.5597 119.05 63.2866 119.351C64.0386 119.651 64.991 119.902 66.144 120.103C67.3221 120.278 68.7257 120.378 70.355 120.403C69.603 120.002 68.8385 119.589 68.0615 119.163C67.3096 118.711 66.5827 118.31 65.8809 117.959C65.179 117.583 64.5399 117.283 63.9634 117.057C63.3869 116.806 62.8981 116.681 62.4971 116.681C61.5947 116.681 61.1436 116.919 61.1436 117.396ZM94.5679 75.5493C94.9438 74.7974 95.395 74.1331 95.9214 73.5566C96.4478 72.9801 97.0117 72.5039 97.6133 72.1279C98.2148 71.752 98.8289 71.4762 99.4556 71.3008C100.082 71.1003 100.671 71 101.223 71C102.025 71 102.701 71.2131 103.253 71.6392C103.804 72.0402 104.08 72.6418 104.08 73.4438C104.08 74.0705 103.917 74.7472 103.591 75.4741C102.188 78.4819 100.759 81.5148 99.3052 84.5728C97.8514 87.6056 96.3851 90.5758 94.9062 93.4834C93.4525 96.391 92.0238 99.1982 90.6201 101.905C89.2165 104.587 87.863 107.081 86.5596 109.387C85.2562 111.693 84.028 113.761 82.875 115.591C81.7471 117.421 80.7194 118.937 79.792 120.14C81.9727 119.99 83.9653 119.789 85.77 119.539C87.5747 119.288 89.3167 119 90.9961 118.674C92.6755 118.348 94.3548 117.997 96.0342 117.621C97.7386 117.22 99.5684 116.819 101.523 116.418C101.649 116.368 101.787 116.33 101.937 116.305C102.087 116.28 102.225 116.268 102.351 116.268C103.128 116.268 103.742 116.581 104.193 117.208C104.644 117.809 104.87 118.498 104.87 119.275C104.87 119.752 104.418 120.265 103.516 120.817C102.614 121.343 101.373 121.87 99.7939 122.396C98.2399 122.922 96.3976 123.436 94.2671 123.938C92.1616 124.414 89.8807 124.84 87.4243 125.216C84.9679 125.567 82.3988 125.842 79.7168 126.043C77.0348 126.269 74.3654 126.381 71.7085 126.381C68.6255 126.381 65.9686 126.168 63.7378 125.742C61.507 125.316 59.6647 124.727 58.2109 123.975C56.7822 123.223 55.717 122.333 55.0151 121.306C54.3384 120.278 54 119.163 54 117.959C54 116.781 54.2131 115.791 54.6392 114.989C55.0903 114.162 55.6919 113.498 56.4438 112.997C57.2209 112.495 58.1232 112.132 59.1509 111.906C60.2036 111.681 61.3315 111.568 62.5347 111.568C63.5122 111.568 64.5273 111.743 65.5801 112.094C66.6328 112.445 67.6605 112.909 68.6631 113.485C69.6908 114.037 70.6558 114.663 71.5581 115.365C72.4855 116.042 73.2876 116.731 73.9644 117.433C74.5409 115.929 75.2301 114.25 76.0322 112.395C76.8594 110.54 77.7492 108.598 78.7017 106.567C79.6541 104.512 80.6567 102.419 81.7095 100.289C82.7622 98.133 83.8149 96.015 84.8677 93.9346C85.9204 91.8542 86.9481 89.849 87.9507 87.9189C88.9533 85.9889 89.8807 84.2218 90.7329 82.6177C91.5851 81.0135 92.3371 79.5973 92.9888 78.3691C93.6655 77.141 94.1919 76.201 94.5679 75.5493Z"/>
<path d="M117.164 103.071C117.039 103.046 116.926 103.033 116.826 103.033C116.725 103.033 116.613 103.033 116.487 103.033C115.535 103.033 114.645 103.221 113.818 103.597C112.991 103.973 112.226 104.474 111.524 105.101C110.848 105.703 110.234 106.392 109.682 107.169C109.156 107.946 108.68 108.723 108.253 109.5C107.827 110.252 107.464 110.979 107.163 111.681C106.887 112.382 106.674 112.972 106.524 113.448C107.401 112.997 108.304 112.483 109.231 111.906C110.183 111.33 111.073 110.778 111.9 110.252C112.728 109.726 113.442 109.249 114.043 108.823C114.67 108.397 115.109 108.109 115.359 107.958C116.487 107.257 117.264 106.605 117.69 106.003C118.117 105.377 118.33 104.838 118.33 104.387C118.33 104.011 118.204 103.71 117.954 103.484C117.728 103.259 117.465 103.121 117.164 103.071ZM118.518 97.8823C120.598 97.8823 122.152 98.3836 123.18 99.3862C124.207 100.389 124.721 101.78 124.721 103.56C124.721 104.612 124.445 105.715 123.894 106.868C123.343 108.021 122.39 109.199 121.037 110.402C119.683 111.58 117.866 112.796 115.585 114.049C113.329 115.278 110.497 116.518 107.088 117.771C107.213 118.498 107.602 119.075 108.253 119.501C108.905 119.902 109.77 120.103 110.848 120.103C112.001 120.103 113.229 119.94 114.532 119.614C115.861 119.263 117.164 118.824 118.442 118.298C119.746 117.771 121.012 117.208 122.24 116.606C123.468 115.979 124.571 115.39 125.548 114.839C126.551 114.287 127.378 113.811 128.03 113.41C128.707 113.009 129.158 112.758 129.383 112.658C129.609 112.508 129.809 112.42 129.985 112.395C130.185 112.37 130.361 112.357 130.511 112.357C130.812 112.357 131.063 112.433 131.263 112.583C131.464 112.708 131.627 112.871 131.752 113.072C131.902 113.247 132.003 113.448 132.053 113.673C132.103 113.874 132.128 114.049 132.128 114.2C132.128 114.425 132.103 114.701 132.053 115.027C132.003 115.328 131.815 115.679 131.489 116.08C131.363 116.205 130.937 116.543 130.21 117.095C129.509 117.646 128.594 118.298 127.466 119.05C126.338 119.802 125.022 120.604 123.518 121.456C122.039 122.283 120.46 123.048 118.781 123.75C117.126 124.451 115.397 125.028 113.592 125.479C111.788 125.955 110.008 126.193 108.253 126.193C106.75 126.193 105.409 125.905 104.23 125.329C103.077 124.752 102.087 123.975 101.26 122.998C100.458 122.02 99.8441 120.892 99.418 119.614C98.9919 118.335 98.7788 116.994 98.7788 115.591C98.7788 114.513 98.9919 113.335 99.418 112.057C99.8441 110.753 100.458 109.45 101.26 108.146C102.062 106.843 103.04 105.577 104.193 104.349C105.371 103.096 106.687 101.993 108.141 101.041C109.594 100.088 111.186 99.3236 112.916 98.7471C114.67 98.1706 116.537 97.8823 118.518 97.8823Z"/>
<path d="M142.956 104.725C141.778 104.725 140.638 105.026 139.535 105.627C138.432 106.229 137.454 107.019 136.602 107.996C135.75 108.974 135.073 110.076 134.572 111.305C134.07 112.508 133.82 113.723 133.82 114.952C133.82 115.453 133.845 115.979 133.895 116.531C133.97 117.057 134.121 117.546 134.346 117.997C134.572 118.448 134.885 118.824 135.286 119.125C135.712 119.426 136.276 119.576 136.978 119.576C137.529 119.576 138.169 119.338 138.896 118.862C139.647 118.361 140.412 117.734 141.189 116.982C141.991 116.205 142.768 115.365 143.52 114.463C144.272 113.535 144.949 112.633 145.55 111.756C146.152 110.879 146.641 110.089 147.017 109.387C147.393 108.685 147.581 108.172 147.581 107.846C147.581 107.369 147.418 106.943 147.092 106.567C146.766 106.166 146.365 105.828 145.889 105.552C145.412 105.277 144.899 105.076 144.347 104.951C143.821 104.8 143.357 104.725 142.956 104.725ZM169.011 114.425C168.56 114.851 167.958 115.44 167.207 116.192C166.455 116.944 165.59 117.759 164.612 118.636C163.66 119.514 162.632 120.403 161.529 121.306C160.451 122.183 159.336 122.985 158.183 123.712C157.055 124.439 155.94 125.028 154.837 125.479C153.734 125.955 152.694 126.193 151.716 126.193C150.839 126.193 150.087 126.005 149.46 125.629C148.834 125.253 148.307 124.765 147.881 124.163C147.48 123.562 147.18 122.885 146.979 122.133C146.778 121.356 146.678 120.566 146.678 119.764C146.678 119.238 146.716 118.724 146.791 118.223C146.866 117.696 146.992 117.208 147.167 116.756C146.39 117.809 145.5 118.899 144.498 120.027C143.52 121.13 142.455 122.145 141.302 123.073C140.174 123.975 138.983 124.715 137.73 125.291C136.502 125.893 135.249 126.193 133.97 126.193C133.319 126.193 132.554 126.056 131.677 125.78C130.825 125.529 130.01 125.103 129.233 124.501C128.456 123.9 127.804 123.123 127.278 122.17C126.751 121.218 126.488 120.052 126.488 118.674C126.488 117.646 126.639 116.418 126.939 114.989C127.265 113.561 127.742 112.082 128.368 110.553C129.02 108.999 129.834 107.47 130.812 105.966C131.815 104.462 132.993 103.121 134.346 101.943C135.7 100.74 137.241 99.7747 138.971 99.0479C140.7 98.2959 142.63 97.9199 144.761 97.9199C145.864 97.9199 146.829 98.0578 147.656 98.3335C148.483 98.6092 149.185 98.91 149.761 99.2358C150.413 99.6369 150.989 100.076 151.491 100.552C151.917 100.326 152.355 100.113 152.807 99.9126C153.183 99.7371 153.571 99.5868 153.972 99.4614C154.398 99.311 154.762 99.2358 155.062 99.2358C156.015 99.2358 156.792 99.499 157.394 100.025C157.995 100.552 158.296 101.128 158.296 101.755C158.296 101.93 158.283 102.068 158.258 102.168C158.133 102.645 157.932 103.246 157.657 103.973C157.406 104.7 157.118 105.515 156.792 106.417C156.466 107.294 156.128 108.222 155.777 109.199C155.451 110.152 155.15 111.092 154.875 112.019C154.599 112.946 154.373 113.824 154.198 114.651C154.022 115.453 153.935 116.142 153.935 116.719C153.935 117.471 154.06 118.097 154.311 118.599C154.561 119.075 154.987 119.313 155.589 119.313C155.965 119.313 156.403 119.2 156.905 118.975C157.431 118.724 157.995 118.398 158.597 117.997C159.198 117.596 159.812 117.145 160.439 116.644C161.091 116.117 161.717 115.591 162.319 115.064C163.722 113.811 165.214 112.382 166.793 110.778C167.194 110.452 167.583 110.29 167.958 110.29C168.46 110.29 168.873 110.54 169.199 111.042C169.55 111.518 169.726 112.057 169.726 112.658C169.726 113.36 169.487 113.949 169.011 114.425Z"/>
<path d="M178.223 103.334C179.2 102.732 180.203 102.181 181.23 101.68C182.283 101.178 183.298 100.752 184.276 100.401C185.253 100.025 186.181 99.7371 187.058 99.5366C187.96 99.311 188.763 99.1982 189.464 99.1982C190.592 99.1982 191.457 99.474 192.059 100.025C192.685 100.552 192.999 101.454 192.999 102.732C192.999 103.008 192.986 103.309 192.961 103.635C192.936 103.936 192.886 104.261 192.811 104.612C192.685 105.264 192.309 106.028 191.683 106.906C191.056 107.783 190.317 108.698 189.464 109.65C188.637 110.603 187.735 111.568 186.757 112.545C185.805 113.498 184.915 114.388 184.088 115.215C183.286 116.017 182.609 116.719 182.058 117.32C181.531 117.922 181.268 118.335 181.268 118.561C181.268 118.762 181.281 118.899 181.306 118.975C181.331 119.05 181.444 119.087 181.644 119.087C182.998 118.511 184.501 117.822 186.156 117.02C187.835 116.192 189.502 115.353 191.156 114.5C192.811 113.648 194.377 112.821 195.856 112.019C197.335 111.192 198.588 110.478 199.616 109.876C199.841 109.751 200.067 109.65 200.292 109.575C200.543 109.475 200.769 109.425 200.969 109.425C201.42 109.425 201.796 109.575 202.097 109.876C202.398 110.177 202.548 110.578 202.548 111.079C202.548 111.656 202.298 112.32 201.796 113.072C201.32 113.799 200.506 114.563 199.353 115.365C198.475 115.917 197.485 116.543 196.382 117.245C195.305 117.922 194.164 118.636 192.961 119.388C191.783 120.115 190.58 120.829 189.352 121.531C188.148 122.233 186.983 122.86 185.855 123.411C184.727 123.963 183.662 124.414 182.659 124.765C181.682 125.09 180.829 125.253 180.103 125.253C178.373 125.253 177.07 124.84 176.192 124.013C175.34 123.186 174.914 122.12 174.914 120.817C174.914 120.616 174.927 120.466 174.952 120.366C175.127 119.263 175.453 118.198 175.929 117.17C176.405 116.142 176.944 115.165 177.546 114.237C178.147 113.31 178.774 112.433 179.426 111.605C180.077 110.753 180.667 109.964 181.193 109.237C181.744 108.485 182.195 107.796 182.546 107.169C182.897 106.542 183.073 105.966 183.073 105.439C183.073 105.314 183.048 105.189 182.998 105.063C182.947 104.938 182.835 104.875 182.659 104.875C182.358 104.875 181.857 104.988 181.155 105.214C180.479 105.439 179.752 105.74 178.975 106.116C178.198 106.492 177.458 106.931 176.756 107.432C176.055 107.908 175.553 108.422 175.252 108.974C174.851 109.675 174.388 110.565 173.861 111.643C173.335 112.721 172.784 113.849 172.207 115.027C171.656 116.205 171.117 117.37 170.59 118.523C170.064 119.676 169.613 120.667 169.237 121.494C168.936 122.221 168.535 122.872 168.034 123.449C167.557 124.025 167.031 124.514 166.455 124.915C165.878 125.316 165.289 125.629 164.688 125.855C164.086 126.081 163.535 126.193 163.033 126.193C162.457 126.193 161.993 126.043 161.642 125.742C161.316 125.441 161.153 124.953 161.153 124.276C161.153 124 161.191 123.662 161.266 123.261C161.366 122.835 161.554 122.371 161.83 121.87C162.281 121.017 162.732 120.09 163.184 119.087C163.66 118.085 164.199 116.944 164.8 115.666C165.402 114.363 166.091 112.884 166.868 111.229C167.67 109.55 168.61 107.62 169.688 105.439C169.337 105.139 169.036 104.775 168.786 104.349C168.56 103.898 168.447 103.347 168.447 102.695C168.447 102.093 168.573 101.579 168.823 101.153C169.074 100.702 169.412 100.339 169.838 100.063C170.264 99.7873 170.753 99.5868 171.305 99.4614C171.881 99.311 172.483 99.2358 173.109 99.2358C173.761 99.2358 174.413 99.2985 175.064 99.4238C175.716 99.5241 176.293 99.687 176.794 99.9126C177.32 100.138 177.746 100.414 178.072 100.74C178.398 101.066 178.561 101.442 178.561 101.868C178.561 101.943 178.536 102.043 178.486 102.168C178.436 102.294 178.373 102.432 178.298 102.582C178.248 102.732 178.198 102.87 178.147 102.996C178.097 103.121 178.072 103.221 178.072 103.296C178.072 103.347 178.085 103.372 178.11 103.372H178.147L178.223 103.334Z"/>
<path d="M202.849 102.432C203.35 101.354 203.977 100.552 204.729 100.025C205.481 99.499 206.22 99.2358 206.947 99.2358C207.549 99.2358 208.088 99.4614 208.564 99.9126C209.04 100.339 209.278 100.978 209.278 101.83C209.278 102.156 209.241 102.507 209.166 102.883C209.09 103.259 208.952 103.66 208.752 104.086C209.303 103.384 210.093 102.67 211.121 101.943C212.148 101.191 213.276 100.527 214.504 99.9502C215.758 99.3486 217.036 98.8599 218.339 98.4839C219.668 98.1079 220.921 97.9199 222.099 97.9199C223.428 97.9199 224.53 98.2458 225.408 98.8975C226.31 99.5241 226.761 100.602 226.761 102.131C226.761 103.033 226.623 103.973 226.348 104.951C226.072 105.928 225.708 106.906 225.257 107.883C224.831 108.861 224.342 109.826 223.791 110.778C223.265 111.706 222.738 112.583 222.212 113.41C221.686 114.237 221.197 115.002 220.746 115.704C220.319 116.38 219.981 116.944 219.73 117.396C219.405 117.797 219.242 118.26 219.242 118.787C219.242 118.987 219.304 119.163 219.43 119.313C219.555 119.463 219.756 119.539 220.031 119.539C220.207 119.539 220.407 119.526 220.633 119.501C220.858 119.451 221.134 119.313 221.46 119.087C222.813 118.586 224.192 117.959 225.596 117.208C227.024 116.456 228.39 115.666 229.694 114.839C230.997 113.987 232.188 113.147 233.266 112.32C234.368 111.468 235.283 110.703 236.01 110.026C236.211 109.851 236.411 109.726 236.612 109.65C236.812 109.575 237 109.538 237.176 109.538C237.602 109.538 237.928 109.701 238.153 110.026C238.404 110.352 238.529 110.766 238.529 111.267C238.529 112.044 238.279 112.909 237.777 113.861C237.301 114.814 236.537 115.704 235.484 116.531C234.055 117.558 232.739 118.498 231.536 119.351C230.358 120.203 229.142 121.005 227.889 121.757C226.661 122.484 225.333 123.173 223.904 123.825C222.5 124.451 220.846 125.04 218.941 125.592C218.289 125.792 217.688 125.943 217.136 126.043C216.61 126.143 216.121 126.193 215.67 126.193C214.341 126.193 213.364 125.83 212.737 125.103C212.136 124.351 211.835 123.311 211.835 121.982C211.835 121.807 211.835 121.644 211.835 121.494C211.86 121.318 211.885 121.13 211.91 120.93C211.96 120.153 212.161 119.3 212.512 118.373C212.888 117.446 213.326 116.493 213.828 115.516C214.354 114.538 214.905 113.573 215.482 112.621C216.058 111.643 216.585 110.728 217.061 109.876C217.562 108.999 217.976 108.222 218.302 107.545C218.628 106.868 218.791 106.317 218.791 105.891C218.791 105.515 218.678 105.201 218.452 104.951C218.252 104.675 217.938 104.537 217.512 104.537C215.908 104.537 214.379 105.013 212.925 105.966C211.497 106.918 210.156 108.096 208.902 109.5C207.649 110.879 206.496 112.345 205.443 113.899C204.391 115.453 203.463 116.844 202.661 118.072C202.16 118.899 201.696 119.789 201.27 120.742C200.869 121.669 200.443 122.546 199.992 123.374C199.541 124.176 199.027 124.84 198.45 125.366C197.899 125.918 197.197 126.193 196.345 126.193C195.467 126.193 194.778 125.918 194.277 125.366C193.776 124.815 193.525 124.138 193.525 123.336C193.525 122.91 193.7 122.221 194.051 121.268C194.402 120.316 194.853 119.213 195.405 117.959C195.956 116.706 196.57 115.365 197.247 113.937C197.949 112.483 198.638 111.054 199.315 109.65C200.017 108.222 200.681 106.881 201.308 105.627C201.934 104.374 202.448 103.309 202.849 102.432Z"/>
</mask>
<path d="M61.1436 117.396C61.1436 117.721 61.319 118.06 61.6699 118.411C62.0208 118.736 62.5597 119.05 63.2866 119.351C64.0386 119.651 64.991 119.902 66.144 120.103C67.3221 120.278 68.7257 120.378 70.355 120.403C69.603 120.002 68.8385 119.589 68.0615 119.163C67.3096 118.711 66.5827 118.31 65.8809 117.959C65.179 117.583 64.5399 117.283 63.9634 117.057C63.3869 116.806 62.8981 116.681 62.4971 116.681C61.5947 116.681 61.1436 116.919 61.1436 117.396ZM94.5679 75.5493C94.9438 74.7974 95.395 74.1331 95.9214 73.5566C96.4478 72.9801 97.0117 72.5039 97.6133 72.1279C98.2148 71.752 98.8289 71.4762 99.4556 71.3008C100.082 71.1003 100.671 71 101.223 71C102.025 71 102.701 71.2131 103.253 71.6392C103.804 72.0402 104.08 72.6418 104.08 73.4438C104.08 74.0705 103.917 74.7472 103.591 75.4741C102.188 78.4819 100.759 81.5148 99.3052 84.5728C97.8514 87.6056 96.3851 90.5758 94.9062 93.4834C93.4525 96.391 92.0238 99.1982 90.6201 101.905C89.2165 104.587 87.863 107.081 86.5596 109.387C85.2562 111.693 84.028 113.761 82.875 115.591C81.7471 117.421 80.7194 118.937 79.792 120.14C81.9727 119.99 83.9653 119.789 85.77 119.539C87.5747 119.288 89.3167 119 90.9961 118.674C92.6755 118.348 94.3548 117.997 96.0342 117.621C97.7386 117.22 99.5684 116.819 101.523 116.418C101.649 116.368 101.787 116.33 101.937 116.305C102.087 116.28 102.225 116.268 102.351 116.268C103.128 116.268 103.742 116.581 104.193 117.208C104.644 117.809 104.87 118.498 104.87 119.275C104.87 119.752 104.418 120.265 103.516 120.817C102.614 121.343 101.373 121.87 99.7939 122.396C98.2399 122.922 96.3976 123.436 94.2671 123.938C92.1616 124.414 89.8807 124.84 87.4243 125.216C84.9679 125.567 82.3988 125.842 79.7168 126.043C77.0348 126.269 74.3654 126.381 71.7085 126.381C68.6255 126.381 65.9686 126.168 63.7378 125.742C61.507 125.316 59.6647 124.727 58.2109 123.975C56.7822 123.223 55.717 122.333 55.0151 121.306C54.3384 120.278 54 119.163 54 117.959C54 116.781 54.2131 115.791 54.6392 114.989C55.0903 114.162 55.6919 113.498 56.4438 112.997C57.2209 112.495 58.1232 112.132 59.1509 111.906C60.2036 111.681 61.3315 111.568 62.5347 111.568C63.5122 111.568 64.5273 111.743 65.5801 112.094C66.6328 112.445 67.6605 112.909 68.6631 113.485C69.6908 114.037 70.6558 114.663 71.5581 115.365C72.4855 116.042 73.2876 116.731 73.9644 117.433C74.5409 115.929 75.2301 114.25 76.0322 112.395C76.8594 110.54 77.7492 108.598 78.7017 106.567C79.6541 104.512 80.6567 102.419 81.7095 100.289C82.7622 98.133 83.8149 96.015 84.8677 93.9346C85.9204 91.8542 86.9481 89.849 87.9507 87.9189C88.9533 85.9889 89.8807 84.2218 90.7329 82.6177C91.5851 81.0135 92.3371 79.5973 92.9888 78.3691C93.6655 77.141 94.1919 76.201 94.5679 75.5493Z" fill="#3F7BD3"/>
<path d="M117.164 103.071C117.039 103.046 116.926 103.033 116.826 103.033C116.725 103.033 116.613 103.033 116.487 103.033C115.535 103.033 114.645 103.221 113.818 103.597C112.991 103.973 112.226 104.474 111.524 105.101C110.848 105.703 110.234 106.392 109.682 107.169C109.156 107.946 108.68 108.723 108.253 109.5C107.827 110.252 107.464 110.979 107.163 111.681C106.887 112.382 106.674 112.972 106.524 113.448C107.401 112.997 108.304 112.483 109.231 111.906C110.183 111.33 111.073 110.778 111.9 110.252C112.728 109.726 113.442 109.249 114.043 108.823C114.67 108.397 115.109 108.109 115.359 107.958C116.487 107.257 117.264 106.605 117.69 106.003C118.117 105.377 118.33 104.838 118.33 104.387C118.33 104.011 118.204 103.71 117.954 103.484C117.728 103.259 117.465 103.121 117.164 103.071ZM118.518 97.8823C120.598 97.8823 122.152 98.3836 123.18 99.3862C124.207 100.389 124.721 101.78 124.721 103.56C124.721 104.612 124.445 105.715 123.894 106.868C123.343 108.021 122.39 109.199 121.037 110.402C119.683 111.58 117.866 112.796 115.585 114.049C113.329 115.278 110.497 116.518 107.088 117.771C107.213 118.498 107.602 119.075 108.253 119.501C108.905 119.902 109.77 120.103 110.848 120.103C112.001 120.103 113.229 119.94 114.532 119.614C115.861 119.263 117.164 118.824 118.442 118.298C119.746 117.771 121.012 117.208 122.24 116.606C123.468 115.979 124.571 115.39 125.548 114.839C126.551 114.287 127.378 113.811 128.03 113.41C128.707 113.009 129.158 112.758 129.383 112.658C129.609 112.508 129.809 112.42 129.985 112.395C130.185 112.37 130.361 112.357 130.511 112.357C130.812 112.357 131.063 112.433 131.263 112.583C131.464 112.708 131.627 112.871 131.752 113.072C131.902 113.247 132.003 113.448 132.053 113.673C132.103 113.874 132.128 114.049 132.128 114.2C132.128 114.425 132.103 114.701 132.053 115.027C132.003 115.328 131.815 115.679 131.489 116.08C131.363 116.205 130.937 116.543 130.21 117.095C129.509 117.646 128.594 118.298 127.466 119.05C126.338 119.802 125.022 120.604 123.518 121.456C122.039 122.283 120.46 123.048 118.781 123.75C117.126 124.451 115.397 125.028 113.592 125.479C111.788 125.955 110.008 126.193 108.253 126.193C106.75 126.193 105.409 125.905 104.23 125.329C103.077 124.752 102.087 123.975 101.26 122.998C100.458 122.02 99.8441 120.892 99.418 119.614C98.9919 118.335 98.7788 116.994 98.7788 115.591C98.7788 114.513 98.9919 113.335 99.418 112.057C99.8441 110.753 100.458 109.45 101.26 108.146C102.062 106.843 103.04 105.577 104.193 104.349C105.371 103.096 106.687 101.993 108.141 101.041C109.594 100.088 111.186 99.3236 112.916 98.7471C114.67 98.1706 116.537 97.8823 118.518 97.8823Z" fill="#3F7BD3"/>
<path d="M142.956 104.725C141.778 104.725 140.638 105.026 139.535 105.627C138.432 106.229 137.454 107.019 136.602 107.996C135.75 108.974 135.073 110.076 134.572 111.305C134.07 112.508 133.82 113.723 133.82 114.952C133.82 115.453 133.845 115.979 133.895 116.531C133.97 117.057 134.121 117.546 134.346 117.997C134.572 118.448 134.885 118.824 135.286 119.125C135.712 119.426 136.276 119.576 136.978 119.576C137.529 119.576 138.169 119.338 138.896 118.862C139.647 118.361 140.412 117.734 141.189 116.982C141.991 116.205 142.768 115.365 143.52 114.463C144.272 113.535 144.949 112.633 145.55 111.756C146.152 110.879 146.641 110.089 147.017 109.387C147.393 108.685 147.581 108.172 147.581 107.846C147.581 107.369 147.418 106.943 147.092 106.567C146.766 106.166 146.365 105.828 145.889 105.552C145.412 105.277 144.899 105.076 144.347 104.951C143.821 104.8 143.357 104.725 142.956 104.725ZM169.011 114.425C168.56 114.851 167.958 115.44 167.207 116.192C166.455 116.944 165.59 117.759 164.612 118.636C163.66 119.514 162.632 120.403 161.529 121.306C160.451 122.183 159.336 122.985 158.183 123.712C157.055 124.439 155.94 125.028 154.837 125.479C153.734 125.955 152.694 126.193 151.716 126.193C150.839 126.193 150.087 126.005 149.46 125.629C148.834 125.253 148.307 124.765 147.881 124.163C147.48 123.562 147.18 122.885 146.979 122.133C146.778 121.356 146.678 120.566 146.678 119.764C146.678 119.238 146.716 118.724 146.791 118.223C146.866 117.696 146.992 117.208 147.167 116.756C146.39 117.809 145.5 118.899 144.498 120.027C143.52 121.13 142.455 122.145 141.302 123.073C140.174 123.975 138.983 124.715 137.73 125.291C136.502 125.893 135.249 126.193 133.97 126.193C133.319 126.193 132.554 126.056 131.677 125.78C130.825 125.529 130.01 125.103 129.233 124.501C128.456 123.9 127.804 123.123 127.278 122.17C126.751 121.218 126.488 120.052 126.488 118.674C126.488 117.646 126.639 116.418 126.939 114.989C127.265 113.561 127.742 112.082 128.368 110.553C129.02 108.999 129.834 107.47 130.812 105.966C131.815 104.462 132.993 103.121 134.346 101.943C135.7 100.74 137.241 99.7747 138.971 99.0479C140.7 98.2959 142.63 97.9199 144.761 97.9199C145.864 97.9199 146.829 98.0578 147.656 98.3335C148.483 98.6092 149.185 98.91 149.761 99.2358C150.413 99.6369 150.989 100.076 151.491 100.552C151.917 100.326 152.355 100.113 152.807 99.9126C153.183 99.7371 153.571 99.5868 153.972 99.4614C154.398 99.311 154.762 99.2358 155.062 99.2358C156.015 99.2358 156.792 99.499 157.394 100.025C157.995 100.552 158.296 101.128 158.296 101.755C158.296 101.93 158.283 102.068 158.258 102.168C158.133 102.645 157.932 103.246 157.657 103.973C157.406 104.7 157.118 105.515 156.792 106.417C156.466 107.294 156.128 108.222 155.777 109.199C155.451 110.152 155.15 111.092 154.875 112.019C154.599 112.946 154.373 113.824 154.198 114.651C154.022 115.453 153.935 116.142 153.935 116.719C153.935 117.471 154.06 118.097 154.311 118.599C154.561 119.075 154.987 119.313 155.589 119.313C155.965 119.313 156.403 119.2 156.905 118.975C157.431 118.724 157.995 118.398 158.597 117.997C159.198 117.596 159.812 117.145 160.439 116.644C161.091 116.117 161.717 115.591 162.319 115.064C163.722 113.811 165.214 112.382 166.793 110.778C167.194 110.452 167.583 110.29 167.958 110.29C168.46 110.29 168.873 110.54 169.199 111.042C169.55 111.518 169.726 112.057 169.726 112.658C169.726 113.36 169.487 113.949 169.011 114.425Z" fill="#3F7BD3"/>
<path d="M178.223 103.334C179.2 102.732 180.203 102.181 181.23 101.68C182.283 101.178 183.298 100.752 184.276 100.401C185.253 100.025 186.181 99.7371 187.058 99.5366C187.96 99.311 188.763 99.1982 189.464 99.1982C190.592 99.1982 191.457 99.474 192.059 100.025C192.685 100.552 192.999 101.454 192.999 102.732C192.999 103.008 192.986 103.309 192.961 103.635C192.936 103.936 192.886 104.261 192.811 104.612C192.685 105.264 192.309 106.028 191.683 106.906C191.056 107.783 190.317 108.698 189.464 109.65C188.637 110.603 187.735 111.568 186.757 112.545C185.805 113.498 184.915 114.388 184.088 115.215C183.286 116.017 182.609 116.719 182.058 117.32C181.531 117.922 181.268 118.335 181.268 118.561C181.268 118.762 181.281 118.899 181.306 118.975C181.331 119.05 181.444 119.087 181.644 119.087C182.998 118.511 184.501 117.822 186.156 117.02C187.835 116.192 189.502 115.353 191.156 114.5C192.811 113.648 194.377 112.821 195.856 112.019C197.335 111.192 198.588 110.478 199.616 109.876C199.841 109.751 200.067 109.65 200.292 109.575C200.543 109.475 200.769 109.425 200.969 109.425C201.42 109.425 201.796 109.575 202.097 109.876C202.398 110.177 202.548 110.578 202.548 111.079C202.548 111.656 202.298 112.32 201.796 113.072C201.32 113.799 200.506 114.563 199.353 115.365C198.475 115.917 197.485 116.543 196.382 117.245C195.305 117.922 194.164 118.636 192.961 119.388C191.783 120.115 190.58 120.829 189.352 121.531C188.148 122.233 186.983 122.86 185.855 123.411C184.727 123.963 183.662 124.414 182.659 124.765C181.682 125.09 180.829 125.253 180.103 125.253C178.373 125.253 177.07 124.84 176.192 124.013C175.34 123.186 174.914 122.12 174.914 120.817C174.914 120.616 174.927 120.466 174.952 120.366C175.127 119.263 175.453 118.198 175.929 117.17C176.405 116.142 176.944 115.165 177.546 114.237C178.147 113.31 178.774 112.433 179.426 111.605C180.077 110.753 180.667 109.964 181.193 109.237C181.744 108.485 182.195 107.796 182.546 107.169C182.897 106.542 183.073 105.966 183.073 105.439C183.073 105.314 183.048 105.189 182.998 105.063C182.947 104.938 182.835 104.875 182.659 104.875C182.358 104.875 181.857 104.988 181.155 105.214C180.479 105.439 179.752 105.74 178.975 106.116C178.198 106.492 177.458 106.931 176.756 107.432C176.055 107.908 175.553 108.422 175.252 108.974C174.851 109.675 174.388 110.565 173.861 111.643C173.335 112.721 172.784 113.849 172.207 115.027C171.656 116.205 171.117 117.37 170.59 118.523C170.064 119.676 169.613 120.667 169.237 121.494C168.936 122.221 168.535 122.872 168.034 123.449C167.557 124.025 167.031 124.514 166.455 124.915C165.878 125.316 165.289 125.629 164.688 125.855C164.086 126.081 163.535 126.193 163.033 126.193C162.457 126.193 161.993 126.043 161.642 125.742C161.316 125.441 161.153 124.953 161.153 124.276C161.153 124 161.191 123.662 161.266 123.261C161.366 122.835 161.554 122.371 161.83 121.87C162.281 121.017 162.732 120.09 163.184 119.087C163.66 118.085 164.199 116.944 164.8 115.666C165.402 114.363 166.091 112.884 166.868 111.229C167.67 109.55 168.61 107.62 169.688 105.439C169.337 105.139 169.036 104.775 168.786 104.349C168.56 103.898 168.447 103.347 168.447 102.695C168.447 102.093 168.573 101.579 168.823 101.153C169.074 100.702 169.412 100.339 169.838 100.063C170.264 99.7873 170.753 99.5868 171.305 99.4614C171.881 99.311 172.483 99.2358 173.109 99.2358C173.761 99.2358 174.413 99.2985 175.064 99.4238C175.716 99.5241 176.293 99.687 176.794 99.9126C177.32 100.138 177.746 100.414 178.072 100.74C178.398 101.066 178.561 101.442 178.561 101.868C178.561 101.943 178.536 102.043 178.486 102.168C178.436 102.294 178.373 102.432 178.298 102.582C178.248 102.732 178.198 102.87 178.147 102.996C178.097 103.121 178.072 103.221 178.072 103.296C178.072 103.347 178.085 103.372 178.11 103.372H178.147L178.223 103.334Z" fill="#3F7BD3"/>
<path d="M202.849 102.432C203.35 101.354 203.977 100.552 204.729 100.025C205.481 99.499 206.22 99.2358 206.947 99.2358C207.549 99.2358 208.088 99.4614 208.564 99.9126C209.04 100.339 209.278 100.978 209.278 101.83C209.278 102.156 209.241 102.507 209.166 102.883C209.09 103.259 208.952 103.66 208.752 104.086C209.303 103.384 210.093 102.67 211.121 101.943C212.148 101.191 213.276 100.527 214.504 99.9502C215.758 99.3486 217.036 98.8599 218.339 98.4839C219.668 98.1079 220.921 97.9199 222.099 97.9199C223.428 97.9199 224.53 98.2458 225.408 98.8975C226.31 99.5241 226.761 100.602 226.761 102.131C226.761 103.033 226.623 103.973 226.348 104.951C226.072 105.928 225.708 106.906 225.257 107.883C224.831 108.861 224.342 109.826 223.791 110.778C223.265 111.706 222.738 112.583 222.212 113.41C221.686 114.237 221.197 115.002 220.746 115.704C220.319 116.38 219.981 116.944 219.73 117.396C219.405 117.797 219.242 118.26 219.242 118.787C219.242 118.987 219.304 119.163 219.43 119.313C219.555 119.463 219.756 119.539 220.031 119.539C220.207 119.539 220.407 119.526 220.633 119.501C220.858 119.451 221.134 119.313 221.46 119.087C222.813 118.586 224.192 117.959 225.596 117.208C227.024 116.456 228.39 115.666 229.694 114.839C230.997 113.987 232.188 113.147 233.266 112.32C234.368 111.468 235.283 110.703 236.01 110.026C236.211 109.851 236.411 109.726 236.612 109.65C236.812 109.575 237 109.538 237.176 109.538C237.602 109.538 237.928 109.701 238.153 110.026C238.404 110.352 238.529 110.766 238.529 111.267C238.529 112.044 238.279 112.909 237.777 113.861C237.301 114.814 236.537 115.704 235.484 116.531C234.055 117.558 232.739 118.498 231.536 119.351C230.358 120.203 229.142 121.005 227.889 121.757C226.661 122.484 225.333 123.173 223.904 123.825C222.5 124.451 220.846 125.04 218.941 125.592C218.289 125.792 217.688 125.943 217.136 126.043C216.61 126.143 216.121 126.193 215.67 126.193C214.341 126.193 213.364 125.83 212.737 125.103C212.136 124.351 211.835 123.311 211.835 121.982C211.835 121.807 211.835 121.644 211.835 121.494C211.86 121.318 211.885 121.13 211.91 120.93C211.96 120.153 212.161 119.3 212.512 118.373C212.888 117.446 213.326 116.493 213.828 115.516C214.354 114.538 214.905 113.573 215.482 112.621C216.058 111.643 216.585 110.728 217.061 109.876C217.562 108.999 217.976 108.222 218.302 107.545C218.628 106.868 218.791 106.317 218.791 105.891C218.791 105.515 218.678 105.201 218.452 104.951C218.252 104.675 217.938 104.537 217.512 104.537C215.908 104.537 214.379 105.013 212.925 105.966C211.497 106.918 210.156 108.096 208.902 109.5C207.649 110.879 206.496 112.345 205.443 113.899C204.391 115.453 203.463 116.844 202.661 118.072C202.16 118.899 201.696 119.789 201.27 120.742C200.869 121.669 200.443 122.546 199.992 123.374C199.541 124.176 199.027 124.84 198.45 125.366C197.899 125.918 197.197 126.193 196.345 126.193C195.467 126.193 194.778 125.918 194.277 125.366C193.776 124.815 193.525 124.138 193.525 123.336C193.525 122.91 193.7 122.221 194.051 121.268C194.402 120.316 194.853 119.213 195.405 117.959C195.956 116.706 196.57 115.365 197.247 113.937C197.949 112.483 198.638 111.054 199.315 109.65C200.017 108.222 200.681 106.881 201.308 105.627C201.934 104.374 202.448 103.309 202.849 102.432Z" fill="#3F7BD3"/>
<path d="M61.1436 117.396C61.1436 117.721 61.319 118.06 61.6699 118.411C62.0208 118.736 62.5597 119.05 63.2866 119.351C64.0386 119.651 64.991 119.902 66.144 120.103C67.3221 120.278 68.7257 120.378 70.355 120.403C69.603 120.002 68.8385 119.589 68.0615 119.163C67.3096 118.711 66.5827 118.31 65.8809 117.959C65.179 117.583 64.5399 117.283 63.9634 117.057C63.3869 116.806 62.8981 116.681 62.4971 116.681C61.5947 116.681 61.1436 116.919 61.1436 117.396ZM94.5679 75.5493C94.9438 74.7974 95.395 74.1331 95.9214 73.5566C96.4478 72.9801 97.0117 72.5039 97.6133 72.1279C98.2148 71.752 98.8289 71.4762 99.4556 71.3008C100.082 71.1003 100.671 71 101.223 71C102.025 71 102.701 71.2131 103.253 71.6392C103.804 72.0402 104.08 72.6418 104.08 73.4438C104.08 74.0705 103.917 74.7472 103.591 75.4741C102.188 78.4819 100.759 81.5148 99.3052 84.5728C97.8514 87.6056 96.3851 90.5758 94.9062 93.4834C93.4525 96.391 92.0238 99.1982 90.6201 101.905C89.2165 104.587 87.863 107.081 86.5596 109.387C85.2562 111.693 84.028 113.761 82.875 115.591C81.7471 117.421 80.7194 118.937 79.792 120.14C81.9727 119.99 83.9653 119.789 85.77 119.539C87.5747 119.288 89.3167 119 90.9961 118.674C92.6755 118.348 94.3548 117.997 96.0342 117.621C97.7386 117.22 99.5684 116.819 101.523 116.418C101.649 116.368 101.787 116.33 101.937 116.305C102.087 116.28 102.225 116.268 102.351 116.268C103.128 116.268 103.742 116.581 104.193 117.208C104.644 117.809 104.87 118.498 104.87 119.275C104.87 119.752 104.418 120.265 103.516 120.817C102.614 121.343 101.373 121.87 99.7939 122.396C98.2399 122.922 96.3976 123.436 94.2671 123.938C92.1616 124.414 89.8807 124.84 87.4243 125.216C84.9679 125.567 82.3988 125.842 79.7168 126.043C77.0348 126.269 74.3654 126.381 71.7085 126.381C68.6255 126.381 65.9686 126.168 63.7378 125.742C61.507 125.316 59.6647 124.727 58.2109 123.975C56.7822 123.223 55.717 122.333 55.0151 121.306C54.3384 120.278 54 119.163 54 117.959C54 116.781 54.2131 115.791 54.6392 114.989C55.0903 114.162 55.6919 113.498 56.4438 112.997C57.2209 112.495 58.1232 112.132 59.1509 111.906C60.2036 111.681 61.3315 111.568 62.5347 111.568C63.5122 111.568 64.5273 111.743 65.5801 112.094C66.6328 112.445 67.6605 112.909 68.6631 113.485C69.6908 114.037 70.6558 114.663 71.5581 115.365C72.4855 116.042 73.2876 116.731 73.9644 117.433C74.5409 115.929 75.2301 114.25 76.0322 112.395C76.8594 110.54 77.7492 108.598 78.7017 106.567C79.6541 104.512 80.6567 102.419 81.7095 100.289C82.7622 98.133 83.8149 96.015 84.8677 93.9346C85.9204 91.8542 86.9481 89.849 87.9507 87.9189C88.9533 85.9889 89.8807 84.2218 90.7329 82.6177C91.5851 81.0135 92.3371 79.5973 92.9888 78.3691C93.6655 77.141 94.1919 76.201 94.5679 75.5493Z" stroke="#3F7BD3" stroke-width="2" mask="url(#path-1-outside-1_1004_983)"/>
<path d="M117.164 103.071C117.039 103.046 116.926 103.033 116.826 103.033C116.725 103.033 116.613 103.033 116.487 103.033C115.535 103.033 114.645 103.221 113.818 103.597C112.991 103.973 112.226 104.474 111.524 105.101C110.848 105.703 110.234 106.392 109.682 107.169C109.156 107.946 108.68 108.723 108.253 109.5C107.827 110.252 107.464 110.979 107.163 111.681C106.887 112.382 106.674 112.972 106.524 113.448C107.401 112.997 108.304 112.483 109.231 111.906C110.183 111.33 111.073 110.778 111.9 110.252C112.728 109.726 113.442 109.249 114.043 108.823C114.67 108.397 115.109 108.109 115.359 107.958C116.487 107.257 117.264 106.605 117.69 106.003C118.117 105.377 118.33 104.838 118.33 104.387C118.33 104.011 118.204 103.71 117.954 103.484C117.728 103.259 117.465 103.121 117.164 103.071ZM118.518 97.8823C120.598 97.8823 122.152 98.3836 123.18 99.3862C124.207 100.389 124.721 101.78 124.721 103.56C124.721 104.612 124.445 105.715 123.894 106.868C123.343 108.021 122.39 109.199 121.037 110.402C119.683 111.58 117.866 112.796 115.585 114.049C113.329 115.278 110.497 116.518 107.088 117.771C107.213 118.498 107.602 119.075 108.253 119.501C108.905 119.902 109.77 120.103 110.848 120.103C112.001 120.103 113.229 119.94 114.532 119.614C115.861 119.263 117.164 118.824 118.442 118.298C119.746 117.771 121.012 117.208 122.24 116.606C123.468 115.979 124.571 115.39 125.548 114.839C126.551 114.287 127.378 113.811 128.03 113.41C128.707 113.009 129.158 112.758 129.383 112.658C129.609 112.508 129.809 112.42 129.985 112.395C130.185 112.37 130.361 112.357 130.511 112.357C130.812 112.357 131.063 112.433 131.263 112.583C131.464 112.708 131.627 112.871 131.752 113.072C131.902 113.247 132.003 113.448 132.053 113.673C132.103 113.874 132.128 114.049 132.128 114.2C132.128 114.425 132.103 114.701 132.053 115.027C132.003 115.328 131.815 115.679 131.489 116.08C131.363 116.205 130.937 116.543 130.21 117.095C129.509 117.646 128.594 118.298 127.466 119.05C126.338 119.802 125.022 120.604 123.518 121.456C122.039 122.283 120.46 123.048 118.781 123.75C117.126 124.451 115.397 125.028 113.592 125.479C111.788 125.955 110.008 126.193 108.253 126.193C106.75 126.193 105.409 125.905 104.23 125.329C103.077 124.752 102.087 123.975 101.26 122.998C100.458 122.02 99.8441 120.892 99.418 119.614C98.9919 118.335 98.7788 116.994 98.7788 115.591C98.7788 114.513 98.9919 113.335 99.418 112.057C99.8441 110.753 100.458 109.45 101.26 108.146C102.062 106.843 103.04 105.577 104.193 104.349C105.371 103.096 106.687 101.993 108.141 101.041C109.594 100.088 111.186 99.3236 112.916 98.7471C114.67 98.1706 116.537 97.8823 118.518 97.8823Z" stroke="#3F7BD3" stroke-width="2" mask="url(#path-1-outside-1_1004_983)"/>
<path d="M142.956 104.725C141.778 104.725 140.638 105.026 139.535 105.627C138.432 106.229 137.454 107.019 136.602 107.996C135.75 108.974 135.073 110.076 134.572 111.305C134.07 112.508 133.82 113.723 133.82 114.952C133.82 115.453 133.845 115.979 133.895 116.531C133.97 117.057 134.121 117.546 134.346 117.997C134.572 118.448 134.885 118.824 135.286 119.125C135.712 119.426 136.276 119.576 136.978 119.576C137.529 119.576 138.169 119.338 138.896 118.862C139.647 118.361 140.412 117.734 141.189 116.982C141.991 116.205 142.768 115.365 143.52 114.463C144.272 113.535 144.949 112.633 145.55 111.756C146.152 110.879 146.641 110.089 147.017 109.387C147.393 108.685 147.581 108.172 147.581 107.846C147.581 107.369 147.418 106.943 147.092 106.567C146.766 106.166 146.365 105.828 145.889 105.552C145.412 105.277 144.899 105.076 144.347 104.951C143.821 104.8 143.357 104.725 142.956 104.725ZM169.011 114.425C168.56 114.851 167.958 115.44 167.207 116.192C166.455 116.944 165.59 117.759 164.612 118.636C163.66 119.514 162.632 120.403 161.529 121.306C160.451 122.183 159.336 122.985 158.183 123.712C157.055 124.439 155.94 125.028 154.837 125.479C153.734 125.955 152.694 126.193 151.716 126.193C150.839 126.193 150.087 126.005 149.46 125.629C148.834 125.253 148.307 124.765 147.881 124.163C147.48 123.562 147.18 122.885 146.979 122.133C146.778 121.356 146.678 120.566 146.678 119.764C146.678 119.238 146.716 118.724 146.791 118.223C146.866 117.696 146.992 117.208 147.167 116.756C146.39 117.809 145.5 118.899 144.498 120.027C143.52 121.13 142.455 122.145 141.302 123.073C140.174 123.975 138.983 124.715 137.73 125.291C136.502 125.893 135.249 126.193 133.97 126.193C133.319 126.193 132.554 126.056 131.677 125.78C130.825 125.529 130.01 125.103 129.233 124.501C128.456 123.9 127.804 123.123 127.278 122.17C126.751 121.218 126.488 120.052 126.488 118.674C126.488 117.646 126.639 116.418 126.939 114.989C127.265 113.561 127.742 112.082 128.368 110.553C129.02 108.999 129.834 107.47 130.812 105.966C131.815 104.462 132.993 103.121 134.346 101.943C135.7 100.74 137.241 99.7747 138.971 99.0479C140.7 98.2959 142.63 97.9199 144.761 97.9199C145.864 97.9199 146.829 98.0578 147.656 98.3335C148.483 98.6092 149.185 98.91 149.761 99.2358C150.413 99.6369 150.989 100.076 151.491 100.552C151.917 100.326 152.355 100.113 152.807 99.9126C153.183 99.7371 153.571 99.5868 153.972 99.4614C154.398 99.311 154.762 99.2358 155.062 99.2358C156.015 99.2358 156.792 99.499 157.394 100.025C157.995 100.552 158.296 101.128 158.296 101.755C158.296 101.93 158.283 102.068 158.258 102.168C158.133 102.645 157.932 103.246 157.657 103.973C157.406 104.7 157.118 105.515 156.792 106.417C156.466 107.294 156.128 108.222 155.777 109.199C155.451 110.152 155.15 111.092 154.875 112.019C154.599 112.946 154.373 113.824 154.198 114.651C154.022 115.453 153.935 116.142 153.935 116.719C153.935 117.471 154.06 118.097 154.311 118.599C154.561 119.075 154.987 119.313 155.589 119.313C155.965 119.313 156.403 119.2 156.905 118.975C157.431 118.724 157.995 118.398 158.597 117.997C159.198 117.596 159.812 117.145 160.439 116.644C161.091 116.117 161.717 115.591 162.319 115.064C163.722 113.811 165.214 112.382 166.793 110.778C167.194 110.452 167.583 110.29 167.958 110.29C168.46 110.29 168.873 110.54 169.199 111.042C169.55 111.518 169.726 112.057 169.726 112.658C169.726 113.36 169.487 113.949 169.011 114.425Z" stroke="#3F7BD3" stroke-width="2" mask="url(#path-1-outside-1_1004_983)"/>
<path d="M178.223 103.334C179.2 102.732 180.203 102.181 181.23 101.68C182.283 101.178 183.298 100.752 184.276 100.401C185.253 100.025 186.181 99.7371 187.058 99.5366C187.96 99.311 188.763 99.1982 189.464 99.1982C190.592 99.1982 191.457 99.474 192.059 100.025C192.685 100.552 192.999 101.454 192.999 102.732C192.999 103.008 192.986 103.309 192.961 103.635C192.936 103.936 192.886 104.261 192.811 104.612C192.685 105.264 192.309 106.028 191.683 106.906C191.056 107.783 190.317 108.698 189.464 109.65C188.637 110.603 187.735 111.568 186.757 112.545C185.805 113.498 184.915 114.388 184.088 115.215C183.286 116.017 182.609 116.719 182.058 117.32C181.531 117.922 181.268 118.335 181.268 118.561C181.268 118.762 181.281 118.899 181.306 118.975C181.331 119.05 181.444 119.087 181.644 119.087C182.998 118.511 184.501 117.822 186.156 117.02C187.835 116.192 189.502 115.353 191.156 114.5C192.811 113.648 194.377 112.821 195.856 112.019C197.335 111.192 198.588 110.478 199.616 109.876C199.841 109.751 200.067 109.65 200.292 109.575C200.543 109.475 200.769 109.425 200.969 109.425C201.42 109.425 201.796 109.575 202.097 109.876C202.398 110.177 202.548 110.578 202.548 111.079C202.548 111.656 202.298 112.32 201.796 113.072C201.32 113.799 200.506 114.563 199.353 115.365C198.475 115.917 197.485 116.543 196.382 117.245C195.305 117.922 194.164 118.636 192.961 119.388C191.783 120.115 190.58 120.829 189.352 121.531C188.148 122.233 186.983 122.86 185.855 123.411C184.727 123.963 183.662 124.414 182.659 124.765C181.682 125.09 180.829 125.253 180.103 125.253C178.373 125.253 177.07 124.84 176.192 124.013C175.34 123.186 174.914 122.12 174.914 120.817C174.914 120.616 174.927 120.466 174.952 120.366C175.127 119.263 175.453 118.198 175.929 117.17C176.405 116.142 176.944 115.165 177.546 114.237C178.147 113.31 178.774 112.433 179.426 111.605C180.077 110.753 180.667 109.964 181.193 109.237C181.744 108.485 182.195 107.796 182.546 107.169C182.897 106.542 183.073 105.966 183.073 105.439C183.073 105.314 183.048 105.189 182.998 105.063C182.947 104.938 182.835 104.875 182.659 104.875C182.358 104.875 181.857 104.988 181.155 105.214C180.479 105.439 179.752 105.74 178.975 106.116C178.198 106.492 177.458 106.931 176.756 107.432C176.055 107.908 175.553 108.422 175.252 108.974C174.851 109.675 174.388 110.565 173.861 111.643C173.335 112.721 172.784 113.849 172.207 115.027C171.656 116.205 171.117 117.37 170.59 118.523C170.064 119.676 169.613 120.667 169.237 121.494C168.936 122.221 168.535 122.872 168.034 123.449C167.557 124.025 167.031 124.514 166.455 124.915C165.878 125.316 165.289 125.629 164.688 125.855C164.086 126.081 163.535 126.193 163.033 126.193C162.457 126.193 161.993 126.043 161.642 125.742C161.316 125.441 161.153 124.953 161.153 124.276C161.153 124 161.191 123.662 161.266 123.261C161.366 122.835 161.554 122.371 161.83 121.87C162.281 121.017 162.732 120.09 163.184 119.087C163.66 118.085 164.199 116.944 164.8 115.666C165.402 114.363 166.091 112.884 166.868 111.229C167.67 109.55 168.61 107.62 169.688 105.439C169.337 105.139 169.036 104.775 168.786 104.349C168.56 103.898 168.447 103.347 168.447 102.695C168.447 102.093 168.573 101.579 168.823 101.153C169.074 100.702 169.412 100.339 169.838 100.063C170.264 99.7873 170.753 99.5868 171.305 99.4614C171.881 99.311 172.483 99.2358 173.109 99.2358C173.761 99.2358 174.413 99.2985 175.064 99.4238C175.716 99.5241 176.293 99.687 176.794 99.9126C177.32 100.138 177.746 100.414 178.072 100.74C178.398 101.066 178.561 101.442 178.561 101.868C178.561 101.943 178.536 102.043 178.486 102.168C178.436 102.294 178.373 102.432 178.298 102.582C178.248 102.732 178.198 102.87 178.147 102.996C178.097 103.121 178.072 103.221 178.072 103.296C178.072 103.347 178.085 103.372 178.11 103.372H178.147L178.223 103.334Z" stroke="#3F7BD3" stroke-width="2" mask="url(#path-1-outside-1_1004_983)"/>
<path d="M202.849 102.432C203.35 101.354 203.977 100.552 204.729 100.025C205.481 99.499 206.22 99.2358 206.947 99.2358C207.549 99.2358 208.088 99.4614 208.564 99.9126C209.04 100.339 209.278 100.978 209.278 101.83C209.278 102.156 209.241 102.507 209.166 102.883C209.09 103.259 208.952 103.66 208.752 104.086C209.303 103.384 210.093 102.67 211.121 101.943C212.148 101.191 213.276 100.527 214.504 99.9502C215.758 99.3486 217.036 98.8599 218.339 98.4839C219.668 98.1079 220.921 97.9199 222.099 97.9199C223.428 97.9199 224.53 98.2458 225.408 98.8975C226.31 99.5241 226.761 100.602 226.761 102.131C226.761 103.033 226.623 103.973 226.348 104.951C226.072 105.928 225.708 106.906 225.257 107.883C224.831 108.861 224.342 109.826 223.791 110.778C223.265 111.706 222.738 112.583 222.212 113.41C221.686 114.237 221.197 115.002 220.746 115.704C220.319 116.38 219.981 116.944 219.73 117.396C219.405 117.797 219.242 118.26 219.242 118.787C219.242 118.987 219.304 119.163 219.43 119.313C219.555 119.463 219.756 119.539 220.031 119.539C220.207 119.539 220.407 119.526 220.633 119.501C220.858 119.451 221.134 119.313 221.46 119.087C222.813 118.586 224.192 117.959 225.596 117.208C227.024 116.456 228.39 115.666 229.694 114.839C230.997 113.987 232.188 113.147 233.266 112.32C234.368 111.468 235.283 110.703 236.01 110.026C236.211 109.851 236.411 109.726 236.612 109.65C236.812 109.575 237 109.538 237.176 109.538C237.602 109.538 237.928 109.701 238.153 110.026C238.404 110.352 238.529 110.766 238.529 111.267C238.529 112.044 238.279 112.909 237.777 113.861C237.301 114.814 236.537 115.704 235.484 116.531C234.055 117.558 232.739 118.498 231.536 119.351C230.358 120.203 229.142 121.005 227.889 121.757C226.661 122.484 225.333 123.173 223.904 123.825C222.5 124.451 220.846 125.04 218.941 125.592C218.289 125.792 217.688 125.943 217.136 126.043C216.61 126.143 216.121 126.193 215.67 126.193C214.341 126.193 213.364 125.83 212.737 125.103C212.136 124.351 211.835 123.311 211.835 121.982C211.835 121.807 211.835 121.644 211.835 121.494C211.86 121.318 211.885 121.13 211.91 120.93C211.96 120.153 212.161 119.3 212.512 118.373C212.888 117.446 213.326 116.493 213.828 115.516C214.354 114.538 214.905 113.573 215.482 112.621C216.058 111.643 216.585 110.728 217.061 109.876C217.562 108.999 217.976 108.222 218.302 107.545C218.628 106.868 218.791 106.317 218.791 105.891C218.791 105.515 218.678 105.201 218.452 104.951C218.252 104.675 217.938 104.537 217.512 104.537C215.908 104.537 214.379 105.013 212.925 105.966C211.497 106.918 210.156 108.096 208.902 109.5C207.649 110.879 206.496 112.345 205.443 113.899C204.391 115.453 203.463 116.844 202.661 118.072C202.16 118.899 201.696 119.789 201.27 120.742C200.869 121.669 200.443 122.546 199.992 123.374C199.541 124.176 199.027 124.84 198.45 125.366C197.899 125.918 197.197 126.193 196.345 126.193C195.467 126.193 194.778 125.918 194.277 125.366C193.776 124.815 193.525 124.138 193.525 123.336C193.525 122.91 193.7 122.221 194.051 121.268C194.402 120.316 194.853 119.213 195.405 117.959C195.956 116.706 196.57 115.365 197.247 113.937C197.949 112.483 198.638 111.054 199.315 109.65C200.017 108.222 200.681 106.881 201.308 105.627C201.934 104.374 202.448 103.309 202.849 102.432Z" stroke="#3F7BD3" stroke-width="2" mask="url(#path-1-outside-1_1004_983)"/>
</g>
<path d="M242.424 101.715L233.941 110.944C232.465 112.551 233.606 115.145 235.788 115.143L246.363 115.132C247.763 115.13 249.099 114.543 250.046 113.513L252.433 110.915L247.429 106.315L242.424 101.715Z" fill="#2562BA"/>
<path fill-rule="evenodd" clip-rule="evenodd" d="M243.622 91.1542C242.118 89.7722 242.077 87.4132 243.531 85.9789L249.019 80.5651L260.986 91.5641L247.429 106.315L242.424 101.715L241.798 101.14C240.634 100.071 240.558 98.2599 241.628 97.0961L243.774 94.7609C244.728 93.723 244.66 92.1082 243.622 91.1542Z" fill="#3D3D3D"/>
<path d="M262.856 108.832C264.36 110.214 266.714 110.057 268.021 108.488L272.953 102.563L260.986 91.5641L247.429 106.315L252.433 110.915L253.059 111.49C254.223 112.56 256.033 112.483 257.103 111.32L259.249 108.984C260.203 107.946 261.818 107.878 262.856 108.832Z" fill="#2D2D2D"/>
<path fill-rule="evenodd" clip-rule="evenodd" d="M288.031 42.0842C290.747 39.4047 295.088 39.3281 297.898 41.9101L302.628 46.2574L260.986 91.5641L249.019 80.5651L288.031 42.0842Z" fill="#4E90F2"/>
<path d="M272.953 102.563L308.015 60.4512C310.456 57.5188 310.167 53.1867 307.358 50.6046L302.628 46.2574L260.986 91.5641L272.953 102.563Z" fill="#417ACC"/>
<path d="M96 86C107.952 86 117.642 82.0319 117.642 77.137C117.642 72.242 107.952 68.2739 96 68.2739C84.0475 68.2739 74.3581 72.242 74.3581 77.137C74.3581 82.0319 84.0475 86 96 86Z" fill="#343434"/>
<path d="M74.3581 77.137C74.3581 72.242 84.0475 68.2739 96 68.2739C107.952 68.2739 117.642 72.242 117.642 77.137V61.1835H74.3581V77.137Z" fill="#343434"/>
<path d="M52 57.2129H140V55.2275H52V57.2129Z" fill="#272727"/>
<path d="M104.041 72.9687L137.898 59.8964C139.299 59.3554 140 58.2841 140 57.2129H52C52 58.2842 52.7006 59.3554 54.1018 59.8964L87.959 72.9687C93.041 74.9309 98.959 74.9309 104.041 72.9687Z" fill="#272727"/>
<path d="M87.959 39.4716L54.1018 52.5439C51.2994 53.6259 51.2994 56.8292 54.1018 57.9112L87.959 70.9834C93.041 72.9456 98.959 72.9456 104.041 70.9834L137.898 57.9112C140.701 56.8292 140.701 53.6259 137.898 52.5439L104.041 39.4716C98.959 37.5095 93.041 37.5095 87.959 39.4716Z" fill="#343434"/>
<path d="M96.6183 57.2129C99.3503 57.2129 101.565 56.4721 101.565 55.5584V54.7312H91.6716V55.5584C91.6716 56.4721 93.8863 57.2129 96.6183 57.2129Z" fill="#C1A038"/>
<path d="M61.5967 58.2628L92.3997 54.2665C92.5597 54.2457 92.7235 54.2566 92.8771 54.2981C93.8585 54.5633 93.7482 55.7049 92.7277 55.8456L65.5477 59.5923C64.3606 59.7559 63.493 60.5821 63.493 61.549V75.4707C63.493 76.3518 62.6032 77.0661 61.5055 77.0661C60.4078 77.0661 59.518 76.3518 59.518 75.4707V60.2227C59.518 59.2485 60.3986 58.4183 61.5967 58.2628Z" fill="#CDA93D"/>
<path d="M61.5967 58.2628L92.3997 54.2665C92.5597 54.2457 92.7235 54.2566 92.8771 54.2981C93.8585 54.5633 93.7482 55.7049 92.7277 55.8456L65.5477 59.5923C64.3606 59.7559 63.493 60.5821 63.493 61.549V75.4707C63.493 76.3518 62.6032 77.0661 61.5055 77.0661C60.4078 77.0661 59.518 76.3518 59.518 75.4707V60.2227C59.518 59.2485 60.3986 58.4183 61.5967 58.2628Z" fill="#F6CA44"/>
<path d="M101.565 54.7312C101.565 55.5535 99.3503 56.2202 96.6183 56.2202C93.8863 56.2202 91.6716 55.5535 91.6716 54.7312C91.6716 53.9089 93.8863 53.2422 96.6183 53.2422C99.3503 53.2422 101.565 53.9089 101.565 54.7312Z" fill="#F6CA44"/>
</svg>
