<svg width="89" height="89" viewBox="0 0 89 89" fill="none" xmlns="http://www.w3.org/2000/svg">
<circle cx="44.5" cy="44.5" r="44.5" fill="#D3FAA0"/>
<rect x="19.5" y="19.1875" width="51.625" height="51.625" rx="25.8125" fill="#EBFCD4" stroke="#EBFCD4" stroke-width="5.7"/>
<path d="M68 68L62.9998 63M45 45L57 57M45 45H52M45 45V52" stroke="#88D921" stroke-width="5" stroke-linecap="round" stroke-linejoin="round"/>
<path d="M45.3128 68.4438V71.8333V67.8789M45.3128 18.1666L45.3123 20.2059M18.4795 45H21.869M22.0742 31.5833L25.0096 33.278M31.8962 21.7616L33.2801 24.1587M22.0742 58.4168L25.0096 56.7221M68.5509 31.5835L67.9502 31.9303M58.7295 21.7618L58.0724 22.9M33.8733 64.8139L31.8962 68.2385" stroke="#C7F788" stroke-width="3" stroke-linecap="round" stroke-linejoin="round"/>
<path d="M73.3125 45L72.0321 46.5364C72.8268 47.1987 73.9953 47.1456 74.7267 46.4142L73.3125 45ZM52.342 74.1714C53.4161 73.9135 54.0776 72.8337 53.8197 71.7597C53.5618 70.6856 52.482 70.0241 51.408 70.282L52.342 74.1714ZM79.1017 42.0392C79.8828 41.2582 79.8828 39.9918 79.1017 39.2108C78.3207 38.4297 77.0543 38.4297 76.2733 39.2108L79.1017 42.0392ZM69.3429 39.0886C68.4943 38.3814 67.2332 38.4961 66.5261 39.3446C65.8189 40.1932 65.9336 41.4543 66.7821 42.1614L69.3429 39.0886ZM45.3125 71C30.9531 71 19.3125 59.3594 19.3125 45H15.3125C15.3125 61.5685 28.744 75 45.3125 75V71ZM45.3125 19C59.6719 19 71.3125 30.6406 71.3125 45H75.3125C75.3125 28.4315 61.881 15 45.3125 15V19ZM45.3125 15C28.744 15 15.3125 28.4315 15.3125 45H19.3125C19.3125 30.6406 30.9531 19 45.3125 19V15ZM51.408 70.282C49.4548 70.7511 47.414 71 45.3125 71V75C47.731 75 50.0853 74.7134 52.342 74.1714L51.408 70.282ZM74.7267 46.4142L79.1017 42.0392L76.2733 39.2108L71.8983 43.5858L74.7267 46.4142ZM74.5929 43.4636L69.3429 39.0886L66.7821 42.1614L72.0321 46.5364L74.5929 43.4636Z" fill="#88D921"/>
</svg>
