<svg width="89" height="89" viewBox="0 0 89 89" fill="none" xmlns="http://www.w3.org/2000/svg">
<circle cx="44.5" cy="44.5" r="44.5" fill="#98AEFD"/>
<path d="M62.6897 25.4386V31.9474H67.0345V31.9321C64.7108 31.703 62.8528 28.9196 62.6998 25.4386H62.6897Z" fill="#D5D5D5"/>
<path d="M53.3793 64.0263C53.3793 67.8778 55.4635 71 58.0345 71C60.6055 71 62.6897 67.8778 62.6897 64.0263C62.6897 63.8701 62.6862 63.7151 62.6795 63.5614C62.5198 59.9267 60.5012 57.0526 58.0345 57.0526C55.5678 57.0526 53.5492 59.9267 53.3895 63.5614C53.3827 63.7151 53.3793 63.8701 53.3793 64.0263Z" fill="white"/>
<path fill-rule="evenodd" clip-rule="evenodd" d="M67.0345 31.9474H67.3448C67.2405 31.9474 67.1371 31.9422 67.0345 31.9321V31.9474ZM62.6897 24.9737C62.6897 25.1299 62.6931 25.2849 62.6998 25.4386H62.6897V24.9737Z" fill="#EDEDED"/>
<path d="M67.3448 18V31.9474C69.9158 31.9474 72 28.8251 72 24.9737C72 21.1222 69.9158 18 67.3448 18Z" fill="white"/>
<path d="M67.3448 31.9474V18C64.7738 18 62.6897 21.1222 62.6897 24.9737C62.6897 25.1299 62.6931 25.2849 62.6998 25.4386C62.8528 28.9196 64.7108 31.703 67.0345 31.9321C67.1371 31.9422 67.2405 31.9474 67.3448 31.9474Z" fill="white"/>
<path d="M18 64.0263C18 67.8778 20.139 71 22.7777 71C22.8847 71 22.9909 70.9949 23.0962 70.9847V71H58.0345C55.4635 71 53.3793 67.8778 53.3793 64.0263C53.3793 63.8701 53.3827 63.7151 53.3895 63.5614C53.5492 59.9267 55.5678 57.0526 58.0345 57.0526H27.3103H23.0962V57.0679C22.9909 57.0578 22.8847 57.0526 22.7777 57.0526C20.139 57.0526 18 60.1749 18 64.0263Z" fill="#F0F0F0"/>
<path d="M62.6897 25.4386V24.9737C62.6897 21.1222 64.7738 18 67.3448 18H32.0284C29.5284 18 27.4825 20.8741 27.3207 24.5088C27.3138 24.6624 27.3103 24.8175 27.3103 24.9737V57.0526H58.0345C60.5012 57.0526 62.5198 59.9267 62.6795 63.5614H62.6897V31.9474V25.4386Z" fill="#E4E4E4"/>
<path d="M53.3793 64.0263C53.3793 67.8778 55.4635 71 58.0345 71C60.6055 71 62.6897 67.8778 62.6897 64.0263C62.6897 63.8701 62.6862 63.715 62.6795 63.5614C62.5198 59.9267 60.5012 57.0526 58.0345 57.0526C55.5678 57.0526 53.5492 59.9267 53.3895 63.5614C53.3827 63.715 53.3793 63.8701 53.3793 64.0263Z" fill="white"/>
<path d="M18 64.0263C18 67.8778 20.139 71 22.7777 71C22.8847 71 22.9909 70.9948 23.0962 70.9847V71H58.0345C55.4635 71 53.3793 67.8778 53.3793 64.0263C53.3793 63.8701 53.3827 63.715 53.3895 63.5614C53.5492 59.9267 55.5678 57.0526 58.0345 57.0526H27.3103H23.0962V57.0679C22.9909 57.0578 22.8847 57.0526 22.7777 57.0526C20.139 57.0526 18 60.1748 18 64.0263Z" fill="#F0F0F0"/>
<path d="M34.5 44H52.5M34.5 44L38.8254 39.5M34.5 44L38.8254 48.5" stroke="#6C89F2" stroke-width="4" stroke-linecap="round" stroke-linejoin="round"/>
</svg>
