<svg width="89" height="89" viewBox="0 0 89 89" fill="none" xmlns="http://www.w3.org/2000/svg">
<circle cx="44.5" cy="44.5" r="44.5" fill="#F9B6EE"/>
<g opacity="0.4">
<path fill-rule="evenodd" clip-rule="evenodd" d="M25 32.8483C25 22.991 33.1732 15 43.2553 15H45.7447C55.8268 15 64 22.991 64 32.8483V38.9959C64 46.7502 57.5706 53.0362 49.6396 53.0362C47.2079 53.0362 45.2366 54.9636 45.2366 57.341L45.2366 58.4039C45.2366 60.6442 43.3791 62.4603 41.0877 62.4604L39.4281 62.4604C37.1367 62.4604 35.2792 60.6442 35.2792 58.4039L35.2791 57.3411C35.2791 49.5868 41.7085 43.3008 49.6396 43.3008C52.0713 43.3008 54.0426 41.3734 54.0426 38.9959V32.8483C54.0426 28.3677 50.3275 24.7355 45.7447 24.7355H43.2553C38.6725 24.7355 34.9574 28.3677 34.9574 32.8483V34.0653C34.9574 36.3056 33.0999 38.1217 30.8085 38.1217H29.1489C26.8575 38.1217 25 36.3056 25 34.0653V32.8483Z" fill="#EF2ACE"/>
<path d="M35.2791 69.1799C35.2791 67.037 37.0623 65.2998 39.262 65.2998H41.2535C43.4533 65.2998 45.2365 67.037 45.2365 69.1799V71.1199C45.2365 73.2628 43.4533 75 41.2535 75H39.262C37.0623 75 35.2791 73.2628 35.2791 71.1199V69.1799Z" fill="#EF2ACE"/>
<path fill-rule="evenodd" clip-rule="evenodd" d="M39.7599 68.2099C38.935 68.2099 38.2663 68.8613 38.2663 69.6649C38.2663 70.2006 37.8205 70.6349 37.2706 70.6349C36.7206 70.6349 36.2748 70.2006 36.2748 69.6649C36.2748 67.7899 37.8351 66.2698 39.7599 66.2698C40.3099 66.2698 40.7557 66.7041 40.7557 67.2399C40.7557 67.7756 40.3099 68.2099 39.7599 68.2099Z" fill="#F367DC"/>
<path fill-rule="evenodd" clip-rule="evenodd" d="M32.1215 22.8643C29.5622 25.7514 28.0185 29.4775 28.0184 32.8483C28.0184 33.4084 27.554 33.8624 26.9812 33.8624C26.4083 33.8624 25.944 33.4084 25.944 32.8483C25.944 28.9175 27.7194 24.7335 30.5538 21.536C33.3923 18.3338 37.3924 16.0141 41.9174 16.0141C42.4902 16.0141 42.9546 16.4681 42.9546 17.0282C42.9546 17.5882 42.4902 18.0423 41.9174 18.0423C38.1445 18.0423 34.6765 19.9818 32.1215 22.8643Z" fill="#F367DC"/>
</g>
<path d="M23 44.5H66M23 44.5L33.3329 34M23 44.5L33.3329 55" stroke="#EF2ACE" stroke-width="6" stroke-linecap="round" stroke-linejoin="round"/>
</svg>
