<svg width="89" height="89" viewBox="0 0 89 89" fill="none" xmlns="http://www.w3.org/2000/svg">
<circle cx="44.5" cy="44.5" r="44.5" fill="#B6F9E1"/>
<path d="M16 52.5L22.7935 45.7065C24.8022 43.6978 28.2061 44.3645 29.3085 46.9827L34.1923 58.5816C35.6989 62.1599 40.9068 61.7097 41.777 57.926L47.2855 33.9761C48.1932 30.0298 53.7174 29.7758 54.9832 33.6222L61.1588 52.3865C62.1585 55.424 66.1418 56.1185 68.1105 53.5986L76 43.5M16 52.5V43.5M16 52.5L24 53.5" stroke="white" stroke-width="5" stroke-linecap="round" stroke-linejoin="round"/>
<path d="M16 52.5L22.7935 45.7065C24.8022 43.6978 28.2061 44.3645 29.3085 46.9827L34.1923 58.5816C35.6989 62.1599 40.9068 61.7097 41.777 57.926L47.2855 33.9761C48.1932 30.0298 53.7174 29.7758 54.9832 33.6222L61.1588 52.3865C62.1585 55.424 66.1418 56.1185 68.1105 53.5986L76 43.5M16 52.5V43.5M16 52.5L24 53.5" stroke="white" stroke-width="5" stroke-linecap="round" stroke-linejoin="round"/>
<path d="M14 51.5L20.7935 44.7065C22.8022 42.6978 26.2061 43.3645 27.3085 45.9827L32.1923 57.5816C33.6989 61.1599 38.9068 60.7097 39.777 56.926L45.2855 32.9761C46.1932 29.0298 51.7174 28.7758 52.9832 32.6222L59.1588 51.3865C60.1585 54.424 64.1418 55.1185 66.1105 52.5986L74 42.5M14 51.5V42.5M14 51.5L22 52.5" stroke="#29B985" stroke-width="5" stroke-linecap="round" stroke-linejoin="round"/>
</svg>
