<svg width="89" height="89" viewBox="0 0 89 89" fill="none" xmlns="http://www.w3.org/2000/svg">
<circle cx="44.5" cy="44.5" r="44.5" fill="#B6D1F9"/>
<rect x="13" y="13" width="64" height="64" rx="32" fill="white" stroke="#6CA2F2" stroke-width="5"/>
<path d="M48.5 44.6207H60.5M48.5 44.6207L55.1207 38M48.5 44.6207L55.1207 51.2414M41 44.6207H34.5M28.5 44.6207H34.5M34.5 44.6207V38M34.5 44.6207V51.2414" stroke="#6CA2F2" stroke-width="5" stroke-linecap="round" stroke-linejoin="round"/>
<path d="M45.0006 71.7929V75.6666V71.1473M45.0006 18.8525V14.3333L45.0007 18.2069M14.334 44.9999H18.2077M71.148 44.9999H75.6673M18.4422 29.6666L21.7969 31.6034M67.6446 58.0736L71.5585 60.3332M29.6673 18.4418L31.6042 21.7965M58.0743 67.6442L60.334 71.558M18.4422 60.3335L21.7969 58.3966M67.6446 31.9265L71.5585 29.6668M60.334 18.4421L58.3971 21.7968M31.927 67.6444L29.6673 71.5583" stroke="#A7CAFF" stroke-width="3" stroke-linecap="round" stroke-linejoin="round"/>
<rect x="13" y="13" width="64" height="64" rx="32" stroke="#6CA2F2" stroke-width="5"/>
</svg>
