<svg width="89" height="89" viewBox="0 0 89 89" fill="none" xmlns="http://www.w3.org/2000/svg">
<circle cx="44.5" cy="44.5" r="44.5" fill="#B6E1F9"/>
<path d="M36.4179 24.9718C36.4179 30.4791 31.8472 34.9437 26.209 34.9437C20.5707 34.9437 16 30.4791 16 24.9718C16 19.4645 20.5707 15 26.209 15C31.8472 15 36.4179 19.4645 36.4179 24.9718Z" fill="#36A4C7"/>
<path d="M73 24.9718C73 30.4791 68.4293 34.9437 62.791 34.9437C57.1528 34.9437 52.5821 30.4791 52.5821 24.9718C52.5821 19.4645 57.1528 15 62.791 15C68.4293 15 73 19.4645 73 24.9718Z" fill="#36A4C7"/>
<path d="M17.7015 42.4225C17.7015 28.1954 29.5091 16.662 44.0746 16.662C58.6401 16.662 70.4478 28.1954 70.4478 42.4225V54.0563C70.4478 61.3994 64.3535 67.3521 56.8358 67.3521H31.3134C23.7958 67.3521 17.7015 61.3994 17.7015 54.0563V42.4225Z" fill="#3DB1D6"/>
<path fill-rule="evenodd" clip-rule="evenodd" d="M16 42.4225C16 27.2775 28.5694 15 44.0746 15C59.5798 15 72.1493 27.2775 72.1493 42.4225V54.0563C72.1493 62.3173 65.2932 69.0141 56.8358 69.0141H31.3134C22.8561 69.0141 16 62.3173 16 54.0563V42.4225ZM44.0746 16.662C29.5091 16.662 17.7015 28.1954 17.7015 42.4225V54.0563C17.7015 61.3994 23.7958 67.3521 31.3134 67.3521H56.8358C64.3535 67.3521 70.4478 61.3994 70.4478 54.0563V42.4225C70.4478 28.1954 58.6401 16.662 44.0746 16.662Z" fill="#B6E1F9"/>
<path d="M22.806 70.6761C22.806 68.8403 24.3295 67.3521 26.209 67.3521H34.7164C36.5958 67.3521 38.1194 68.8403 38.1194 70.6761C38.1194 72.5118 36.5958 74 34.7164 74H26.209C24.3295 74 22.806 72.5118 22.806 70.6761Z" fill="#36A4C7"/>
<path d="M50.0299 70.6761C50.0299 68.8403 51.5534 67.3521 53.4328 67.3521H61.9403C63.8197 67.3521 65.3433 68.8403 65.3433 70.6761C65.3433 72.5118 63.8197 74 61.9403 74H53.4328C51.5534 74 50.0299 72.5118 50.0299 70.6761Z" fill="#36A4C7"/>
<path d="M23.6567 42.4225C23.6567 31.408 32.7981 22.4789 44.0746 22.4789C55.3511 22.4789 64.4925 31.408 64.4925 42.4225C64.4925 53.4371 55.3511 62.3662 44.0746 62.3662C32.7981 62.3662 23.6567 53.4371 23.6567 42.4225Z" fill="white"/>
<path fill-rule="evenodd" clip-rule="evenodd" d="M22.3806 42.4225C22.3806 30.7195 32.0933 21.2324 44.0746 21.2324C56.0559 21.2324 65.7687 30.7195 65.7687 42.4225C65.7687 54.1255 56.0559 63.6127 44.0746 63.6127C32.0933 63.6127 22.3806 54.1255 22.3806 42.4225ZM44.0746 23.7254C33.5029 23.7254 24.9328 32.0964 24.9328 42.4225C24.9328 52.7487 33.5029 61.1197 44.0746 61.1197C54.6463 61.1197 63.2164 52.7487 63.2164 42.4225C63.2164 32.0964 54.6463 23.7254 44.0746 23.7254Z" fill="#36A4C7"/>
<path fill-rule="evenodd" clip-rule="evenodd" d="M44.0746 27.4648C45.0143 27.4648 45.7761 28.2089 45.7761 29.1268V42.4225H54.2836C55.2233 42.4225 55.9851 43.1666 55.9851 44.0845C55.9851 45.0024 55.2233 45.7465 54.2836 45.7465H44.0746C43.1349 45.7465 42.3731 45.0024 42.3731 44.0845V29.1268C42.3731 28.2089 43.1349 27.4648 44.0746 27.4648Z" fill="#36A4C7"/>
<path fill-rule="evenodd" clip-rule="evenodd" d="M44.0746 22.4789C44.5445 22.4789 44.9254 22.8509 44.9254 23.3099L44.9254 25.7241C44.9254 25.7249 44.9254 25.7256 44.9254 25.7264C44.925 25.8715 44.8865 26.0079 44.8192 26.1265C44.6741 26.3821 44.395 26.5551 44.0746 26.5551C43.7542 26.5551 43.4752 26.3821 43.3301 26.1265C43.2624 26.0072 43.2239 25.8701 43.2239 25.7241L43.2239 23.3099V26.1265C43.2239 26.5854 43.6048 26.9574 44.0746 26.9574C44.5445 26.9574 44.9254 26.5854 44.9254 26.1265V25.7264M44.0746 22.4789C43.6048 22.4789 43.2239 22.8509 43.2239 23.3099ZM33.8657 25.1508C34.2726 24.9214 34.7929 25.0575 35.0278 25.455L36.2636 27.5458C36.4986 27.9432 36.3591 28.4515 35.9522 28.6809C35.5453 28.9104 35.025 28.7742 34.7901 28.3768L33.5543 26.286C33.3193 25.8885 33.4588 25.3803 33.8657 25.1508ZM53.1214 25.4551C53.3564 25.0577 53.8767 24.9215 54.2836 25.151C54.6905 25.3804 54.8299 25.8887 54.595 26.2861L53.3592 28.3769C53.1242 28.7744 52.6039 28.9105 52.197 28.6811C51.7901 28.4516 51.6507 27.9434 51.8856 27.5459L53.1214 25.4551ZM26.392 32.4507C26.6269 32.0532 27.1472 31.9171 27.5541 32.1465L29.6947 33.3537C30.1016 33.5831 30.241 34.0913 30.006 34.4888C29.7711 34.8863 29.2508 35.0224 28.8439 34.793L26.7034 33.5858C26.2965 33.3564 26.1571 32.8482 26.392 32.4507ZM61.7569 32.4509C61.9918 32.8483 61.8524 33.3565 61.4455 33.586L58.9482 34.9943C58.5413 35.2238 58.021 35.0876 57.7861 34.6901C57.5511 34.2927 57.6906 33.7845 58.0975 33.555L60.5947 32.1467C61.0016 31.9172 61.5219 32.0534 61.7569 32.4509ZM23.6567 42.4225C23.6567 41.9636 24.0376 41.5915 24.5075 41.5915H26.9791C27.449 41.5915 27.8299 41.9636 27.8299 42.4225C27.8299 42.8815 27.449 43.2535 26.9791 43.2535H24.5075C24.0376 43.2535 23.6567 42.8815 23.6567 42.4225ZM59.9075 42.4225C59.9075 41.9636 60.2884 41.5915 60.7582 41.5915H63.6418C64.1116 41.5915 64.4925 41.9636 64.4925 42.4225C64.4925 42.8815 64.1116 43.2535 63.6418 43.2535H60.7582C60.2884 43.2535 59.9075 42.8815 59.9075 42.4225ZM57.7861 50.1551C58.021 49.7576 58.5413 49.6214 58.9482 49.8509L61.4455 51.2592C61.8524 51.4887 61.9918 51.9969 61.7569 52.3944C61.5219 52.7918 61.0016 52.928 60.5947 52.6985L58.0975 51.2902C57.6906 51.0608 57.5511 50.5525 57.7861 50.1551ZM30.006 50.3564C30.241 50.7539 30.1016 51.2621 29.6947 51.4916L27.5541 52.6987C27.1472 52.9281 26.6269 52.792 26.392 52.3945C26.1571 51.9971 26.2965 51.4888 26.7034 51.2594L28.8439 50.0522C29.2508 49.8228 29.7711 49.959 30.006 50.3564ZM51.991 55.8157C52.3979 55.5862 52.9183 55.7224 53.1532 56.1199L54.595 58.5591C54.8299 58.9566 54.6905 59.4648 54.2836 59.6943C53.8767 59.9237 53.3564 59.7876 53.1214 59.3901L51.6797 56.9508C51.4447 56.5534 51.5841 56.0452 51.991 55.8157ZM36.1582 55.8158C36.5651 56.0453 36.7045 56.5535 36.4696 56.951L35.0278 59.3902C34.7929 59.7877 34.2726 59.9239 33.8657 59.6944C33.4588 59.4649 33.3193 58.9567 33.5543 58.5593L34.9961 56.12C35.231 55.7226 35.7513 55.5864 36.1582 55.8158ZM44.0746 57.8876C44.5445 57.8876 44.9254 58.2597 44.9254 58.7186V61.5352C44.9254 61.9942 44.5445 62.3662 44.0746 62.3662C43.6048 62.3662 43.2239 61.9942 43.2239 61.5352V58.7186C43.2239 58.2597 43.6048 57.8876 44.0746 57.8876Z" fill="#8BDBF4"/>
<path fill-rule="evenodd" clip-rule="evenodd" d="M22.3806 42.4225C22.3806 30.7195 32.0933 21.2324 44.0746 21.2324C56.0559 21.2324 65.7687 30.7195 65.7687 42.4225C65.7687 54.1255 56.0559 63.6127 44.0746 63.6127C32.0933 63.6127 22.3806 54.1255 22.3806 42.4225ZM44.0746 23.7254C33.5029 23.7254 24.9328 32.0964 24.9328 42.4225C24.9328 52.7487 33.5029 61.1197 44.0746 61.1197C54.6463 61.1197 63.2164 52.7487 63.2164 42.4225C63.2164 32.0964 54.6463 23.7254 44.0746 23.7254Z" fill="#36A4C7"/>
</svg>
