<svg width="89" height="89" viewBox="0 0 89 89" fill="none" xmlns="http://www.w3.org/2000/svg">
<circle cx="44.5" cy="44.5" r="44.5" fill="#F9BEB6"/>
<g opacity="0.8">
<path d="M22.0521 27.274C21.7733 25.3474 23.1438 23.5547 25.1132 23.2697L26.8961 23.0117C28.8655 22.7268 30.6879 24.0576 30.9666 25.9841L34.2473 48.6581C34.526 50.5847 33.1555 52.3774 31.1862 52.6624L29.4033 52.9203C27.4339 53.2053 25.6115 51.8745 25.3327 49.948L22.0521 27.274Z" fill="#EF2A2A"/>
<path fill-rule="evenodd" clip-rule="evenodd" d="M25.9375 25.8215C25.1989 25.9283 24.685 26.6006 24.7895 27.323L25.4835 32.1195C25.5532 32.6011 25.2106 33.0493 24.7182 33.1205C24.2259 33.1918 23.7703 32.8591 23.7006 32.3774L23.0066 27.581C22.7627 25.8953 23.9619 24.3266 25.6851 24.0773L27.0223 23.8838C27.5146 23.8126 27.9702 24.1453 28.0399 24.6269C28.1096 25.1086 27.767 25.5567 27.2746 25.628L25.9375 25.8215Z" fill="#F36767"/>
<path d="M26.5945 58.6687C26.3158 56.7422 27.6863 54.9494 29.6556 54.6645L31.4385 54.4065C33.4079 54.1216 35.2303 55.4524 35.5091 57.3789L35.7614 59.1231C36.0402 61.0496 34.6697 62.8424 32.7003 63.1273L30.9174 63.3853C28.9481 63.6702 27.1256 62.3394 26.8469 60.4129L26.5945 58.6687Z" fill="#EF2A2A"/>
<path fill-rule="evenodd" clip-rule="evenodd" d="M30.4799 57.2162C29.7414 57.3231 29.2275 57.9954 29.332 58.7178C29.4017 59.1995 29.059 59.6477 28.5667 59.7189C28.0744 59.7901 27.6188 59.4574 27.5491 58.9758C27.3052 57.2901 28.5044 55.7214 30.2275 55.4721C30.7199 55.4009 31.1755 55.7335 31.2452 56.2152C31.3149 56.6968 30.9722 57.145 30.4799 57.2162Z" fill="#F36767"/>
</g>
<path d="M52.8046 20.6461C53.5188 17.6895 56.5478 15.8845 59.5701 16.6145L62.3063 17.2755C65.3286 18.0055 67.1997 20.9941 66.4855 23.9507L59.3162 53.5838C58.602 56.5404 55.573 58.3454 52.5507 57.6153L49.8145 56.9544C46.7922 56.2244 44.9211 53.2357 45.6352 50.2791L52.8046 20.6461Z" fill="#F41818"/>
<path fill-rule="evenodd" clip-rule="evenodd" d="M59.2843 20.7948C58.1509 20.5211 57.015 21.1979 56.7472 22.3067L54.9692 29.6676C54.7906 30.4068 54.0334 30.858 53.2778 30.6755C52.5222 30.493 52.0544 29.7458 52.233 29.0067L54.011 21.6457C54.6359 19.0587 57.2863 17.4793 59.9309 18.1181L61.983 18.6138C62.7386 18.7963 63.2064 19.5435 63.0278 20.2826C62.8493 21.0218 62.092 21.473 61.3364 21.2905L59.2843 20.7948Z" fill="#FA5C5C"/>
<path d="M42.4024 63.6627C43.1166 60.7061 46.1456 58.9011 49.1679 59.6311L51.9041 60.292C54.9264 61.0221 56.7976 64.0107 56.0834 66.9673L55.4368 69.644C54.7226 72.6006 51.6936 74.4056 48.6713 73.6756L45.9351 73.0146C42.9128 72.2846 41.0417 69.296 41.7559 66.3394L42.4024 63.6627Z" fill="#F41818"/>
<path fill-rule="evenodd" clip-rule="evenodd" d="M48.8821 63.8114C47.7488 63.5376 46.6129 64.2145 46.3451 65.3232C46.1665 66.0624 45.4093 66.5136 44.6537 66.3311C43.8981 66.1486 43.4303 65.4015 43.6089 64.6623C44.2338 62.0753 46.8842 60.4959 49.5287 61.1347C50.2843 61.3172 50.7521 62.0644 50.5735 62.8035C50.395 63.5427 49.6377 63.9939 48.8821 63.8114Z" fill="#FA5C5C"/>
</svg>
