<svg width="350" height="130" viewBox="0 0 350 130" fill="none" xmlns="http://www.w3.org/2000/svg">
<g clip-path="url(#clip0_551_1257)">
<rect width="350" height="130" fill="#2D43A4"/>
<path d="M387 139.5C387 185.616 349.616 223 303.5 223C257.384 223 220 185.616 220 139.5C220 93.3842 257.384 56 303.5 56C349.616 56 387 93.3842 387 139.5Z" fill="#3950B8"/>
<path d="M231 12C231 39.062 209.062 61 182 61C154.938 61 133 39.062 133 12C133 -15.062 154.938 -37 182 -37C209.062 -37 231 -15.062 231 12Z" fill="#3950B8"/>
<path d="M96 124.5C96 141.897 81.897 156 64.5 156C47.103 156 33 141.897 33 124.5C33 107.103 47.103 93 64.5 93C81.897 93 96 107.103 96 124.5Z" fill="#3950B8"/>
<path fill-rule="evenodd" clip-rule="evenodd" d="M271.736 73.7694C272.416 75.2804 271.742 77.0563 270.231 77.736C247.897 87.7817 232 111.877 232 140.19C232 149.687 233.79 158.716 237.015 166.9C237.623 168.442 236.865 170.184 235.324 170.791C233.782 171.399 232.04 170.641 231.433 169.1C227.934 160.219 226 150.444 226 140.19C226 109.663 243.151 83.3374 267.769 72.264C269.28 71.5844 271.056 72.2583 271.736 73.7694Z" fill="#4661D9"/>
<path fill-rule="evenodd" clip-rule="evenodd" d="M154.921 45.451C155.599 44.5789 156.855 44.4215 157.727 45.0993C164.079 50.0365 172.173 53 181 53C189.827 53 197.921 50.0365 204.273 45.0993C205.145 44.4215 206.401 44.5789 207.079 45.451C207.757 46.3231 207.6 47.5796 206.727 48.2575C199.687 53.7296 190.734 57 181 57C171.266 57 162.313 53.7296 155.273 48.2575C154.401 47.5796 154.243 46.3231 154.921 45.451Z" fill="#4661D9"/>
<path fill-rule="evenodd" clip-rule="evenodd" d="M64 100C75.4257 100 84.9088 108.333 86.6967 119.253C86.8961 120.471 87 121.723 87 123C87 124.105 87.8954 125 89 125C90.1046 125 91 124.105 91 123C91 121.506 90.8784 120.038 90.6441 118.607C88.5448 105.784 77.417 96 64 96C62.8954 96 62 96.8954 62 98C62 99.1046 62.8954 100 64 100Z" fill="#4661D9"/>
</g>
<defs>
<clipPath id="clip0_551_1257">
<rect width="350" height="130" fill="white"/>
</clipPath>
</defs>
</svg>
