<svg width="350" height="130" viewBox="0 0 350 130" fill="none" xmlns="http://www.w3.org/2000/svg">
<g clip-path="url(#clip0_960_1014)">
<rect width="350" height="130" fill="#A42D51"/>
<path d="M276.687 70.4328C273.239 67.6315 273.239 62.3686 276.687 59.5672L350 0V130L276.687 70.4328Z" fill="#D32257"/>
<path d="M316.365 43.4728C317.005 41.8754 318.815 41.1071 320.408 41.7568L333.101 46.9328C334.694 47.5825 335.467 49.4041 334.826 51.0015L332.044 57.9431C331.404 59.5405 329.593 60.3088 328 59.6591L315.308 54.4831C313.714 53.8334 312.942 52.0117 313.582 50.4144L316.365 43.4728Z" fill="#D96485"/>
<path d="M318.134 44.0822C318.326 43.6029 318.869 43.3725 319.347 43.5674L329.732 47.8023C330.21 47.9972 330.442 48.5437 330.25 49.0229C330.058 49.5021 329.514 49.7326 329.036 49.5377L318.652 45.3028C318.174 45.1079 317.942 44.5614 318.134 44.0822Z" fill="#D692A6"/>
<path d="M309.809 51.4554C310.385 50.0178 312.015 49.3263 313.448 49.9111L332.295 57.5967C333.729 58.1814 334.424 59.8209 333.848 61.2585C333.272 62.6962 331.642 63.3876 330.208 62.8029L311.362 55.1173C309.928 54.5325 309.233 52.8931 309.809 51.4554Z" fill="#A8A8A8"/>
<path d="M310.998 54.0715L331.19 62.3061L310.323 114.368L290.131 106.133L310.998 54.0715Z" fill="#D9B300"/>
<path d="M310.998 54.0715L321.094 58.1888L300.227 110.251L290.131 106.133L310.998 54.0715Z" fill="#D9C400"/>
<path fill-rule="evenodd" clip-rule="evenodd" d="M299.263 121.86L310.323 114.368L290.131 106.133L292.921 119.274L299.263 121.86Z" fill="#D99F8F"/>
<path d="M292.921 119.274L293.813 123.475C293.997 124.342 294.997 124.75 295.727 124.255L299.263 121.86L292.921 119.274Z" fill="#66142D"/>
</g>
<defs>
<clipPath id="clip0_960_1014">
<rect width="350" height="130" fill="white"/>
</clipPath>
</defs>
</svg>
