<svg width="350" height="130" viewBox="0 0 350 130" fill="none" xmlns="http://www.w3.org/2000/svg">
<g clip-path="url(#clip0_551_1260)">
<rect width="350" height="130" fill="#8C2DA4"/>
<path d="M105 83C105 79.134 108.134 76 112 76H148C151.866 76 155 79.134 155 83V138C155 141.866 151.866 145 148 145H112C108.134 145 105 141.866 105 138V83Z" fill="#AF22D3"/>
<path d="M15 113C15 109.134 18.134 106 22 106H58C61.866 106 65 109.134 65 113V138C65 141.866 61.866 145 58 145H22C18.134 145 15 141.866 15 138V113Z" fill="#AF22D3"/>
<path d="M195 53C195 49.134 198.134 46 202 46H238C241.866 46 245 49.134 245 53V138C245 141.866 241.866 145 238 145H202C198.134 145 195 141.866 195 138V53Z" fill="#AF22D3"/>
<path d="M285 33C285 29.134 288.134 26 292 26H328C331.866 26 335 29.134 335 33V138C335 141.866 331.866 145 328 145H292C288.134 145 285 141.866 285 138V33Z" fill="#AF22D3"/>
<path d="M288 31.5C288 30.1193 289.119 29 290.5 29H319.5C320.881 29 322 30.1193 322 31.5C322 32.8807 320.881 34 319.5 34H290.5C289.119 34 288 32.8807 288 31.5Z" fill="#C31DEC"/>
<path d="M198 51.5C198 50.1193 199.119 49 200.5 49H229.5C230.881 49 232 50.1193 232 51.5C232 52.8807 230.881 54 229.5 54H200.5C199.119 54 198 52.8807 198 51.5Z" fill="#C31DEC"/>
<path d="M108 81.5C108 80.1193 109.119 79 110.5 79H139.5C140.881 79 142 80.1193 142 81.5C142 82.8807 140.881 84 139.5 84H110.5C109.119 84 108 82.8807 108 81.5Z" fill="#C31DEC"/>
<path d="M18 111.5C18 110.119 19.1193 109 20.5 109H49.5C50.8807 109 52 110.119 52 111.5C52 112.881 50.8807 114 49.5 114H20.5C19.1193 114 18 112.881 18 111.5Z" fill="#C31DEC"/>
</g>
<defs>
<clipPath id="clip0_551_1260">
<rect width="350" height="130" fill="white"/>
</clipPath>
</defs>
</svg>
