<?xml version="1.0" encoding="utf-8"?>
<!-- Svg Vector Icons : http://www.onlinewebfonts.com/icon -->
<!DOCTYPE svg PUBLIC "-//W3C//DTD SVG 1.1//EN" "http://www.w3.org/Graphics/SVG/1.1/DTD/svg11.dtd">
<svg id="desktop-img" version="1.1" xmlns="http://www.w3.org/2000/svg" xmlns:xlink="http://www.w3.org/1999/xlink" x="0px" y="0px" viewBox="0 0 1000 1000" enable-background="new 0 0 1000 1000" xml:space="preserve">
<metadata> Svg Vector Icons : http://www.onlinewebfonts.com/icon </metadata>
<g><path d="M919.4,60.7H80.6C41.7,60.7,10,92.9,10,132.5v549.1c0,39.6,31.7,71.8,70.6,71.8H462v111.3H288.8c-20.6,0-37.3,16.7-37.3,37.3c0,20.6,16.7,37.3,37.3,37.3h422.4c20.6,0,37.3-16.7,37.3-37.3c0-20.6-16.7-37.3-37.3-37.3H538V753.4h381.4c38.9,0,70.6-32.2,70.6-71.8V132.5C990,92.9,958.3,60.7,919.4,60.7z M914,677.4H86V136.7H914V677.4z"/></g>
</svg>