<svg width="48" height="48" viewBox="0 0 48 48" fill="none" xmlns="http://www.w3.org/2000/svg">
<path d="M5.10352 46.6677C5.10352 47.4463 5.59081 47.8962 6.31272 47.8962C7.03463 47.8962 7.52192 47.4463 7.52192 46.6677V40.248H7.59411L11.3481 46.6504C11.8353 47.4636 12.3407 47.8962 13.0987 47.8962C14.0011 47.8962 14.5786 47.3079 14.5786 46.3735V37.1507C14.5786 36.372 14.0913 35.9221 13.3694 35.9221C12.6475 35.9221 12.1602 36.372 12.1602 37.1507V43.5876H12.088L8.33407 37.168C7.84678 36.3547 7.34144 35.9221 6.58343 35.9221C5.68105 35.9221 5.10352 36.5104 5.10352 37.4448V46.6677Z" fill="#F5C443"/>
<path d="M16.7576 46.6418C16.7576 47.3166 17.1907 47.7665 17.9127 47.7665H23.8684C24.6084 47.7665 25.0957 47.2993 25.0957 46.6591C25.0957 46.0362 24.6084 45.569 23.8684 45.569H19.5189C19.4467 45.569 19.4106 45.5344 19.4106 45.4652V43.0253C19.4106 42.9561 19.4467 42.9215 19.5189 42.9215H23.0021C23.7421 42.9215 24.2113 42.4716 24.2113 41.8314C24.2113 41.1912 23.7421 40.7413 23.0021 40.7413H19.5189C19.4467 40.7413 19.4106 40.7067 19.4106 40.6374V38.3014C19.4106 38.2322 19.4467 38.1976 19.5189 38.1976H23.8684C24.6084 38.1976 25.0957 37.7304 25.0957 37.1075C25.0957 36.4673 24.6084 36.0001 23.8684 36.0001H17.9127C17.1907 36.0001 16.7576 36.45 16.7576 37.1248V46.6418Z" fill="#F5C443"/>
<path d="M36.8887 47.8704C37.6106 47.8704 38.0618 47.4897 38.3325 46.538L41.0313 37.6352C41.0674 37.4794 41.1035 37.2718 41.1035 37.1334C41.1035 36.4412 40.4441 35.8962 39.65 35.8962C39.0183 35.8962 38.549 36.225 38.3505 37.0729L36.7984 43.5791H36.7623L34.8492 36.9864C34.6327 36.2596 34.2356 35.8962 33.5859 35.8962C32.9542 35.8962 32.5572 36.2596 32.3406 36.9864L30.4817 43.5791H30.4456L28.8393 37.0729C28.6228 36.225 28.1716 35.8962 27.5399 35.8962C26.7458 35.8962 26.2404 36.4154 26.2404 37.1075C26.2404 37.2459 26.2765 37.4536 26.3126 37.6093L28.8393 46.538C29.11 47.4897 29.5612 47.8704 30.2832 47.8704C31.0231 47.8704 31.4563 47.4897 31.727 46.538L33.5498 40.2914H33.5859L35.4448 46.538C35.7336 47.4897 36.1487 47.8704 36.8887 47.8704Z" fill="#F5C443"/>
<path fill-rule="evenodd" clip-rule="evenodd" d="M6.56234 36.437C6.04319 36.437 5.62235 36.8405 5.62235 37.3382V40.2222C5.62235 40.3217 5.53818 40.4024 5.43435 40.4024C5.33052 40.4024 5.24635 40.3217 5.24635 40.2222V37.3382C5.24635 36.6414 5.83554 36.0765 6.56234 36.0765C6.66616 36.0765 6.75033 36.1572 6.75033 36.2567C6.75033 36.3563 6.66616 36.437 6.56234 36.437ZM17.8422 36.5134C17.5307 36.5134 17.2782 36.7555 17.2782 37.0541V40.9429C17.2782 41.0425 17.194 41.1232 17.0902 41.1232C16.9864 41.1232 16.9022 41.0425 16.9022 40.9429V37.0541C16.9022 36.5564 17.3231 36.1529 17.8422 36.1529H18.5942C18.698 36.1529 18.7822 36.2336 18.7822 36.3331C18.7822 36.4327 18.698 36.5134 18.5942 36.5134H17.8422ZM27.3397 36.3457C27.3725 36.4401 27.3193 36.5422 27.2208 36.5737L27.2102 36.577C26.9306 36.6664 26.7699 36.9471 26.8414 37.2212L27.0477 38.0125L27.7989 40.5331C27.8274 40.6288 27.7696 40.7286 27.6697 40.7559C27.5699 40.7833 27.4659 40.7278 27.4373 40.6321L26.6836 38.1029L26.4766 37.3086C26.3575 36.8517 26.6253 36.384 27.0913 36.235L27.1019 36.2317C27.2004 36.2002 27.3069 36.2512 27.3397 36.3457Z" fill="#F9DD4A"/>
<path d="M26.1042 35.072C25.8515 34.2289 26.4716 33.3773 27.3381 33.3774L27.8515 33.3774C28.1702 33.3775 28.4822 33.2848 28.7508 33.1103L29.4253 32.672C30.1381 32.2088 31.0888 32.5652 31.3355 33.3882C31.5147 33.986 31.2502 34.6288 30.7059 34.9186L29.2702 35.6832C28.9584 35.8492 28.6145 35.9437 28.2629 35.96L27.3965 36C26.8079 36.0272 26.276 35.6452 26.1042 35.072Z" fill="#E69435"/>
<path d="M14.0803 18.9039C14.2202 16.9404 15.6866 15.3414 17.6027 15.063L21.6552 14.4742C22.097 14.41 22.5456 14.4119 22.9868 14.4799L26.6154 15.0391C28.5162 15.332 29.9643 16.9246 30.1032 18.8748L30.723 27.5739C30.8871 29.8768 29.3656 31.9603 27.1208 32.3037C25.5652 32.5417 23.7962 32.7469 22.3214 32.7469C20.7847 32.7469 18.841 32.5241 17.1412 32.2736C14.8651 31.9381 13.3014 29.837 13.4676 27.5039L14.0803 18.9039Z" fill="#3CADC6"/>
<path d="M10.5081 17.3099L14.8812 18.1708C15.3014 18.2535 15.6917 17.926 15.6917 17.4906C15.6917 16.8671 16.4382 16.561 16.8634 17.0101L20.8965 21.2701C21.3314 21.7294 21.4047 22.43 21.0748 22.9722L19.031 26.3302C18.8002 26.7094 18.4049 26.9531 17.9677 26.9186C16.8921 26.8336 14.7166 26.4237 12.4911 24.6085C10.5914 23.0591 9.56713 20.571 9.05476 18.8501C8.78046 17.9288 9.57895 17.127 10.5081 17.3099Z" fill="#3CADC6"/>
<path d="M35.7217 24.1281C34.5973 22.6802 32.4414 20.0341 30.5684 18.4907C30.0916 18.0978 29.637 17.1677 29.637 17.1677L25.7868 21.2719C25.3603 21.7264 25.2852 22.4147 25.6032 22.9533L27.4754 26.124C27.691 26.489 28.0581 26.7341 28.4746 26.7765C29.6793 26.8989 32.253 27.0919 33.7521 26.7018C34.3734 26.5401 34.9832 26.2163 35.4695 25.906C36.0762 25.5188 36.1657 24.6998 35.7217 24.1281Z" fill="#3CADC6"/>
<path d="M24.7938 23.6784H22.6531C22.4243 23.6784 22.2548 23.9703 22.3471 24.2701C22.5171 24.8228 22.8988 25.5631 23.7235 25.5631C24.5482 25.5631 24.9298 24.8228 25.0999 24.2701C25.1921 23.9703 25.0226 23.6784 24.7938 23.6784Z" fill="#44C2DE"/>
<path d="M29.3054 23.6784H27.1647C26.9359 23.6784 26.7664 23.9703 26.8586 24.2701C27.0287 24.8228 27.4103 25.5631 28.235 25.5631C29.0597 25.5631 29.4414 24.8228 29.6114 24.2701C29.7037 23.9703 29.5342 23.6784 29.3054 23.6784Z" fill="#44C2DE"/>
<path d="M27.0496 26.9093H24.9089C24.6801 26.9093 24.5106 27.2012 24.6028 27.501C24.7729 28.0537 25.1545 28.794 25.9792 28.794C26.8039 28.794 27.1856 28.0537 27.3556 27.501C27.4479 27.2012 27.2784 26.9093 27.0496 26.9093Z" fill="#44C2DE"/>
<path d="M12.7197 8.79675C12.7197 13.3671 9.6323 18.3913 20.9498 18.5628H22.7787C34.0961 18.3913 31.0087 13.3671 31.0087 8.79675C31.0087 7.48905 30.6883 6.17584 30.0943 5.07634C29.5002 3.97685 27.15 0.42583 21.8642 0.42583C16.5785 0.42583 14.2282 3.97685 13.6342 5.07634C13.0401 6.17584 12.7197 7.48905 12.7197 8.79675Z" fill="#3CADC6"/>
<path d="M12.7197 8.79675C12.7197 13.3671 9.6323 18.3913 20.9498 18.5628H22.7787C34.0961 18.3913 31.0087 13.3671 31.0087 8.79675C31.0087 7.48905 30.6883 6.17584 30.0943 5.07634C29.5002 3.97685 27.15 0.42583 21.8642 0.42583C16.5785 0.42583 14.2282 3.97685 13.6342 5.07634C13.0401 6.17584 12.7197 7.48905 12.7197 8.79675Z" fill="#3CADC6"/>
<path d="M16.3775 10.657V8.3317C16.3775 6.27698 18.0152 4.61129 20.0353 4.61129H21.6483C22.3411 4.61129 22.8754 5.16159 23.4905 5.48574C23.557 5.5208 23.6251 5.54139 23.6931 5.54139H24.6076C24.6698 5.54139 24.7312 5.52584 24.7909 5.49875C25.4363 5.20628 25.9724 4.61129 26.6789 4.61129H28.2654C30.2855 4.61129 31.9232 6.27698 31.9232 8.3317V10.657C31.9232 12.7117 30.2855 14.3774 28.2654 14.3774H27.3623C26.2345 14.3774 25.2034 13.7292 24.699 12.7032C24.643 12.5892 24.5284 12.5172 24.4031 12.5172H23.8976C23.7723 12.5172 23.6577 12.5892 23.6017 12.7032C23.0973 13.7292 22.0662 14.3774 20.9384 14.3774H20.0353C18.0152 14.3774 16.3775 12.7117 16.3775 10.657Z" fill="#44C2DE"/>
<path d="M17.7492 8.33171C17.7492 6.79066 18.9774 5.54139 20.4925 5.54139C22.0077 5.54139 23.2359 6.79066 23.2359 8.3317V10.3699C23.2359 11.911 22.0077 13.1602 20.4925 13.1602C18.9774 13.1602 17.7492 11.911 17.7492 10.3699V8.33171Z" fill="white"/>
<path d="M19.1209 8.56423C19.1209 7.66529 19.8373 6.93655 20.7212 6.93655C21.605 6.93655 22.3214 7.66529 22.3214 8.56423V10.4244C22.3214 11.3234 21.605 12.0521 20.7212 12.0521C19.8373 12.0521 19.1209 11.3234 19.1209 10.4244V8.56423Z" fill="#4B4B4B"/>
<path d="M20.0353 8.09918C20.0353 8.48444 19.7283 8.79675 19.3495 8.79675C18.9707 8.79675 18.6636 8.48444 18.6636 8.09918C18.6636 7.71392 18.9707 7.4016 19.3495 7.4016C19.7283 7.4016 20.0353 7.71392 20.0353 8.09918Z" fill="white"/>
<path d="M25.0648 8.3317C25.0648 6.79066 26.293 5.54139 27.8081 5.54139C29.3233 5.54139 30.5515 6.79066 30.5515 8.3317V10.1919C30.5515 11.733 29.3233 12.9822 27.8081 12.9822C26.293 12.9822 25.0648 11.733 25.0648 10.1919V8.3317Z" fill="white"/>
<path d="M25.9792 8.56423C25.9792 7.66529 26.6957 6.93655 27.5795 6.93655C28.4633 6.93655 29.1798 7.66529 29.1798 8.56423V10.4244C29.1798 11.3234 28.4633 12.0521 27.5795 12.0521C26.6957 12.0521 25.9792 11.3234 25.9792 10.4244V8.56423Z" fill="#4B4B4B"/>
<path d="M26.8937 8.09918C26.8937 8.48444 26.5866 8.79675 26.2079 8.79675C25.8291 8.79675 25.522 8.48444 25.522 8.09918C25.522 7.71392 25.8291 7.4016 26.2079 7.4016C26.5866 7.4016 26.8937 7.71392 26.8937 8.09918Z" fill="white"/>
<path d="M24.6894 15.3075C23.2158 15.3075 23.0071 13.9123 23.0071 13.9123H26.3718C26.3718 13.9123 26.163 15.3075 24.6894 15.3075Z" fill="#E69435"/>
<path d="M24.6894 12.5172C25.8624 12.5172 26.2624 13.2689 26.4617 13.7765C26.5569 14.019 26.3706 14.2539 26.1042 14.2826C25.9272 14.3145 25.7518 14.3592 25.585 14.4271C25.1375 14.6094 25.3402 14.6082 25.0648 14.6099C24.7097 14.6121 23.9803 14.3706 23.6077 14.3306L23.1614 14.2826C22.895 14.2539 22.7087 14.019 22.8039 13.7765C23.0032 13.2689 23.5163 12.5172 24.6894 12.5172Z" fill="#F5C443"/>
<path d="M25.258 13.3922H24.6014C24.3079 13.3922 24.0961 13.118 24.3226 12.9374C24.4549 12.8318 24.6483 12.7497 24.9297 12.7497C25.2111 12.7497 25.4045 12.8318 25.5368 12.9374C25.7633 13.118 25.5515 13.3922 25.258 13.3922Z" fill="#F9DD4A"/>
<path d="M29.5118 0.000577862C27.8487 0.113168 23.1174 0.425829 21.8642 0.42583L21.8642 2.75109C21.8642 2.75109 24.6895 2.56317 26.5671 2.28604C27.6949 2.11957 29.0156 0.999766 29.675 0.3769C29.8277 0.232722 29.7197 -0.013493 29.5118 0.000577862Z" fill="#3CADC6"/>
<path d="M15.6319 34.5938C15.6341 33.8237 16.2502 33.2046 17.0081 33.2111L19.7528 33.2345C20.5107 33.2409 21.1233 33.8705 21.1212 34.6407C21.119 35.4108 20.5028 36.0299 19.7449 36.0234L17.0003 36C16.2424 35.9935 15.6297 35.364 15.6319 34.5938Z" fill="#E69435"/>
</svg>
